<svg width="55" height="55" viewBox="0 0 55 55" fill="none" xmlns="http://www.w3.org/2000/svg">
<g clip-path="url(#clip0_3013_22580)">
<rect width="55" height="55" rx="7.7" fill="#68A5FF"/>
<g filter="url(#filter0_f_3013_22580)">
<circle cx="49.0875" cy="-11.9625" r="11.6875" fill="white"/>
</g>
<g filter="url(#filter1_f_3013_22580)">
<circle cx="13.3375" cy="60.6375" r="11.6875" fill="white"/>
</g>
<rect x="3.09375" y="3.09375" width="48.8125" height="48.8125" rx="24.4062" fill="url(#paint0_linear_3013_22580)"/>
</g>
<g filter="url(#filter2_dd_3013_22580)">
<path d="M40.7 27.5C40.7 34.7903 34.7903 40.7 27.5 40.7C20.2096 40.7 14.3 34.7903 14.3 27.5C14.3 20.2096 20.2096 14.3 27.5 14.3C34.7903 14.3 40.7 20.2096 40.7 27.5Z" fill="white" fill-opacity="0.6"/>
</g>
<g filter="url(#filter3_dd_3013_22580)">
<path fill-rule="evenodd" clip-rule="evenodd" d="M27.5 40.7C34.7903 40.7 40.7 34.7903 40.7 27.5C40.7 20.2096 34.7903 14.3 27.5 14.3C20.2096 14.3 14.3 20.2096 14.3 27.5C14.3 34.7903 20.2096 40.7 27.5 40.7ZM27.5 39.38C34.061 39.38 39.38 34.061 39.38 27.5C39.38 20.9389 34.061 15.62 27.5 15.62C20.9389 15.62 15.62 20.9389 15.62 27.5C15.62 34.061 20.9389 39.38 27.5 39.38Z" fill="white" fill-opacity="0.8"/>
</g>
<g filter="url(#filter4_dd_3013_22580)">
<path fill-rule="evenodd" clip-rule="evenodd" d="M27.4991 16.9417C27.8492 16.9417 28.185 17.0808 28.4325 17.3283C28.6801 17.5759 28.8191 17.9116 28.8191 18.2617V36.7417C28.8191 37.0918 28.6801 37.4275 28.4325 37.6751C28.185 37.9226 27.8492 38.0617 27.4991 38.0617C27.1491 38.0617 26.8133 37.9226 26.5658 37.6751C26.3182 37.4275 26.1791 37.0918 26.1791 36.7417V18.2617C26.1791 17.9116 26.3182 17.5759 26.5658 17.3283C26.8133 17.0808 27.1491 16.9417 27.4991 16.9417Z" fill="white" fill-opacity="0.8"/>
</g>
<g filter="url(#filter5_dd_3013_22580)">
<path fill-rule="evenodd" clip-rule="evenodd" d="M24.0257 20.5368C25.0698 19.8121 26.3601 19.5792 27.5013 19.5792C28.6114 19.5792 29.5506 19.7329 30.3888 20.1052C31.2323 20.4807 31.8718 21.0318 32.4427 21.6661C32.5587 21.795 32.6481 21.9454 32.7059 22.1089C32.7637 22.2723 32.7888 22.4456 32.7797 22.6187C32.7705 22.7918 32.7274 22.9615 32.6527 23.1179C32.578 23.2744 32.4732 23.4146 32.3444 23.5306C32.2155 23.6465 32.065 23.736 31.9016 23.7938C31.7381 23.8516 31.5649 23.8767 31.3917 23.8676C31.2186 23.8584 31.049 23.8153 30.8925 23.7406C30.736 23.6659 30.5958 23.5611 30.4799 23.4322C30.0608 22.9663 29.7103 22.693 29.3163 22.5181C28.917 22.3399 28.3712 22.2192 27.5013 22.2192C26.6631 22.2192 25.9727 22.3987 25.5318 22.7049C25.1622 22.9623 24.8613 23.3715 24.8613 24.1992C24.8613 25.0261 25.1622 25.4367 25.5318 25.6934C25.9727 25.9996 26.6624 26.1792 27.5013 26.1792C28.6431 26.1792 29.9327 26.4121 30.9768 27.1368C32.0922 27.9117 32.7813 29.1511 32.7813 30.7992C32.7813 32.4472 32.0922 33.6867 30.9768 34.4615C29.9327 35.1862 28.6424 35.4192 27.5013 35.4192C25.1391 35.4192 23.433 34.4265 22.5104 33.2742C22.402 33.1388 22.3214 32.9834 22.2731 32.8168C22.2248 32.6503 22.2098 32.4759 22.2289 32.3036C22.2481 32.1312 22.3009 31.9643 22.3846 31.8124C22.4682 31.6605 22.5809 31.5266 22.7163 31.4182C22.8517 31.3099 23.0071 31.2293 23.1736 31.181C23.3401 31.1327 23.5145 31.1177 23.6869 31.1368C23.8592 31.1559 24.0261 31.2088 24.178 31.2924C24.3299 31.3761 24.4639 31.4888 24.5722 31.6242C24.9695 32.1225 25.9034 32.7792 27.5013 32.7792C28.3395 32.7792 29.0298 32.5996 29.4707 32.2934C29.8403 32.036 30.1413 31.6268 30.1413 30.7992C30.1413 29.9722 29.8403 29.5617 29.4707 29.3049C29.0298 28.9993 28.3401 28.8192 27.5013 28.8192C26.3595 28.8192 25.0698 28.5862 24.0257 27.8615C22.9103 27.0867 22.2213 25.8472 22.2213 24.1992C22.2213 22.5511 22.9103 21.3117 24.0257 20.5368Z" fill="white"/>
</g>
<defs>
<filter id="filter0_f_3013_22580" x="8.52503" y="-52.525" width="81.125" height="81.125" filterUnits="userSpaceOnUse" color-interpolation-filters="sRGB">
<feFlood flood-opacity="0" result="BackgroundImageFix"/>
<feBlend mode="normal" in="SourceGraphic" in2="BackgroundImageFix" result="shape"/>
<feGaussianBlur stdDeviation="14.4375" result="effect1_foregroundBlur_3013_22580"/>
</filter>
<filter id="filter1_f_3013_22580" x="-27.225" y="20.075" width="81.125" height="81.125" filterUnits="userSpaceOnUse" color-interpolation-filters="sRGB">
<feFlood flood-opacity="0" result="BackgroundImageFix"/>
<feBlend mode="normal" in="SourceGraphic" in2="BackgroundImageFix" result="shape"/>
<feGaussianBlur stdDeviation="14.4375" result="effect1_foregroundBlur_3013_22580"/>
</filter>
<filter id="filter2_dd_3013_22580" x="11.66" y="13.64" width="31.68" height="31.68" filterUnits="userSpaceOnUse" color-interpolation-filters="sRGB">
<feFlood flood-opacity="0" result="BackgroundImageFix"/>
<feColorMatrix in="SourceAlpha" type="matrix" values="0 0 0 0 0 0 0 0 0 0 0 0 0 0 0 0 0 0 127 0" result="hardAlpha"/>
<feOffset dy="1.98"/>
<feGaussianBlur stdDeviation="1.32"/>
<feColorMatrix type="matrix" values="0 0 0 0 0 0 0 0 0 0 0 0 0 0 0 0 0 0 0.2 0"/>
<feBlend mode="normal" in2="BackgroundImageFix" result="effect1_dropShadow_3013_22580"/>
<feColorMatrix in="SourceAlpha" type="matrix" values="0 0 0 0 0 0 0 0 0 0 0 0 0 0 0 0 0 0 127 0" result="hardAlpha"/>
<feOffset dy="0.66"/>
<feGaussianBlur stdDeviation="0.66"/>
<feColorMatrix type="matrix" values="0 0 0 0 0 0 0 0 0 0 0 0 0 0 0 0 0 0 0.1 0"/>
<feBlend mode="normal" in2="effect1_dropShadow_3013_22580" result="effect2_dropShadow_3013_22580"/>
<feBlend mode="normal" in="SourceGraphic" in2="effect2_dropShadow_3013_22580" result="shape"/>
</filter>
<filter id="filter3_dd_3013_22580" x="12.98" y="13.64" width="29.04" height="29.04" filterUnits="userSpaceOnUse" color-interpolation-filters="sRGB">
<feFlood flood-opacity="0" result="BackgroundImageFix"/>
<feColorMatrix in="SourceAlpha" type="matrix" values="0 0 0 0 0 0 0 0 0 0 0 0 0 0 0 0 0 0 127 0" result="hardAlpha"/>
<feOffset dy="0.66"/>
<feGaussianBlur stdDeviation="0.66"/>
<feColorMatrix type="matrix" values="0 0 0 0 0 0 0 0 0 0 0 0 0 0 0 0 0 0 0.2 0"/>
<feBlend mode="normal" in2="BackgroundImageFix" result="effect1_dropShadow_3013_22580"/>
<feColorMatrix in="SourceAlpha" type="matrix" values="0 0 0 0 0 0 0 0 0 0 0 0 0 0 0 0 0 0 127 0" result="hardAlpha"/>
<feOffset dy="0.66"/>
<feGaussianBlur stdDeviation="0.33"/>
<feColorMatrix type="matrix" values="0 0 0 0 0 0 0 0 0 0 0 0 0 0 0 0 0 0 0.1 0"/>
<feBlend mode="normal" in2="effect1_dropShadow_3013_22580" result="effect2_dropShadow_3013_22580"/>
<feBlend mode="normal" in="SourceGraphic" in2="effect2_dropShadow_3013_22580" result="shape"/>
</filter>
<filter id="filter4_dd_3013_22580" x="24.8591" y="16.2817" width="5.28001" height="23.76" filterUnits="userSpaceOnUse" color-interpolation-filters="sRGB">
<feFlood flood-opacity="0" result="BackgroundImageFix"/>
<feColorMatrix in="SourceAlpha" type="matrix" values="0 0 0 0 0 0 0 0 0 0 0 0 0 0 0 0 0 0 127 0" result="hardAlpha"/>
<feOffset dy="0.66"/>
<feGaussianBlur stdDeviation="0.66"/>
<feColorMatrix type="matrix" values="0 0 0 0 0 0 0 0 0 0 0 0 0 0 0 0 0 0 0.2 0"/>
<feBlend mode="normal" in2="BackgroundImageFix" result="effect1_dropShadow_3013_22580"/>
<feColorMatrix in="SourceAlpha" type="matrix" values="0 0 0 0 0 0 0 0 0 0 0 0 0 0 0 0 0 0 127 0" result="hardAlpha"/>
<feOffset dy="0.66"/>
<feGaussianBlur stdDeviation="0.33"/>
<feColorMatrix type="matrix" values="0 0 0 0 0 0 0 0 0 0 0 0 0 0 0 0 0 0 0.1 0"/>
<feBlend mode="normal" in2="effect1_dropShadow_3013_22580" result="effect2_dropShadow_3013_22580"/>
<feBlend mode="normal" in="SourceGraphic" in2="effect2_dropShadow_3013_22580" result="shape"/>
</filter>
<filter id="filter5_dd_3013_22580" x="20.9009" y="18.9192" width="13.2006" height="18.48" filterUnits="userSpaceOnUse" color-interpolation-filters="sRGB">
<feFlood flood-opacity="0" result="BackgroundImageFix"/>
<feColorMatrix in="SourceAlpha" type="matrix" values="0 0 0 0 0 0 0 0 0 0 0 0 0 0 0 0 0 0 127 0" result="hardAlpha"/>
<feOffset dy="0.66"/>
<feGaussianBlur stdDeviation="0.66"/>
<feColorMatrix type="matrix" values="0 0 0 0 0 0 0 0 0 0 0 0 0 0 0 0 0 0 0.2 0"/>
<feBlend mode="normal" in2="BackgroundImageFix" result="effect1_dropShadow_3013_22580"/>
<feColorMatrix in="SourceAlpha" type="matrix" values="0 0 0 0 0 0 0 0 0 0 0 0 0 0 0 0 0 0 127 0" result="hardAlpha"/>
<feOffset dy="0.66"/>
<feGaussianBlur stdDeviation="0.33"/>
<feColorMatrix type="matrix" values="0 0 0 0 0 0 0 0 0 0 0 0 0 0 0 0 0 0 0.1 0"/>
<feBlend mode="normal" in2="effect1_dropShadow_3013_22580" result="effect2_dropShadow_3013_22580"/>
<feBlend mode="normal" in="SourceGraphic" in2="effect2_dropShadow_3013_22580" result="shape"/>
</filter>
<linearGradient id="paint0_linear_3013_22580" x1="14.3" y1="1.1" x2="40.975" y2="58.3" gradientUnits="userSpaceOnUse">
<stop stop-color="#0075FF"/>
<stop offset="1" stop-color="#0078E7"/>
</linearGradient>
<clipPath id="clip0_3013_22580">
<rect width="55" height="55" rx="7.7" fill="white"/>
</clipPath>
</defs>
</svg>
