<svg width="252" height="252" viewBox="0 0 252 252" fill="none" xmlns="http://www.w3.org/2000/svg">
<g clip-path="url(#clip0_3014_23365)">
<path d="M252 0H0V252H252V0Z" fill="white"/>
<path d="M105.84 25.2H97.7761V33.264H105.84V25.2Z" fill="black"/>
<path d="M146.16 25.2H138.096V33.264H146.16V25.2Z" fill="black"/>
<path d="M162.288 25.2H154.224V33.264H162.288V25.2Z" fill="black"/>
<path d="M97.776 33.264H89.712V41.328H97.776V33.264Z" fill="black"/>
<path d="M105.84 33.264H97.7761V41.328H105.84V33.264Z" fill="black"/>
<path d="M121.968 33.264H113.904V41.328H121.968V33.264Z" fill="black"/>
<path d="M130.032 33.264H121.968V41.328H130.032V33.264Z" fill="black"/>
<path d="M138.096 33.264H130.032V41.328H138.096V33.264Z" fill="black"/>
<path d="M146.16 33.264H138.096V41.328H146.16V33.264Z" fill="black"/>
<path d="M105.84 41.3281H97.7761V49.3921H105.84V41.3281Z" fill="black"/>
<path d="M113.904 41.3281H105.84V49.3921H113.904V41.3281Z" fill="black"/>
<path d="M121.968 41.3281H113.904V49.3921H121.968V41.3281Z" fill="black"/>
<path d="M97.776 49.392H89.712V57.456H97.776V49.392Z" fill="black"/>
<path d="M105.84 49.392H97.7761V57.456H105.84V49.392Z" fill="black"/>
<path d="M121.968 49.392H113.904V57.456H121.968V49.392Z" fill="black"/>
<path d="M138.096 49.392H130.032V57.456H138.096V49.392Z" fill="black"/>
<path d="M154.224 49.392H146.16V57.456H154.224V49.392Z" fill="black"/>
<path d="M162.288 49.392H154.224V57.456H162.288V49.392Z" fill="black"/>
<path d="M113.904 57.456H105.84V65.52H113.904V57.456Z" fill="black"/>
<path d="M130.032 57.456H121.968V65.52H130.032V57.456Z" fill="black"/>
<path d="M154.224 57.456H146.16V65.52H154.224V57.456Z" fill="black"/>
<path d="M162.288 57.456H154.224V65.52H162.288V57.456Z" fill="black"/>
<path d="M97.776 65.52H89.712V73.584H97.776V65.52Z" fill="black"/>
<path d="M113.904 65.52H105.84V73.584H113.904V65.52Z" fill="black"/>
<path d="M138.096 65.52H130.032V73.584H138.096V65.52Z" fill="black"/>
<path d="M146.16 65.52H138.096V73.584H146.16V65.52Z" fill="black"/>
<path d="M154.224 65.52H146.16V73.584H154.224V65.52Z" fill="black"/>
<path d="M97.776 73.584H89.712V81.648H97.776V73.584Z" fill="black"/>
<path d="M113.904 73.584H105.84V81.648H113.904V73.584Z" fill="black"/>
<path d="M130.032 73.584H121.968V81.648H130.032V73.584Z" fill="black"/>
<path d="M146.16 73.584H138.096V81.648H146.16V73.584Z" fill="black"/>
<path d="M162.288 73.584H154.224V81.648H162.288V73.584Z" fill="black"/>
<path d="M130.032 81.6481H121.968V89.7121H130.032V81.6481Z" fill="black"/>
<path d="M162.288 81.6481H154.224V89.7121H162.288V81.6481Z" fill="black"/>
<path d="M33.264 89.7119H25.2V97.7759H33.264V89.7119Z" fill="black"/>
<path d="M41.3278 89.7119H33.2638V97.7759H41.3278V89.7119Z" fill="black"/>
<path d="M49.3921 89.7119H41.3281V97.7759H49.3921V89.7119Z" fill="black"/>
<path d="M57.4558 89.7119H49.3918V97.7759H57.4558V89.7119Z" fill="black"/>
<path d="M65.5201 89.7119H57.4561V97.7759H65.5201V89.7119Z" fill="black"/>
<path d="M81.648 89.7119H73.584V97.7759H81.648V89.7119Z" fill="black"/>
<path d="M89.7119 89.7119H81.6479V97.7759H89.7119V89.7119Z" fill="black"/>
<path d="M97.776 89.7119H89.712V97.7759H97.776V89.7119Z" fill="black"/>
<path d="M105.84 89.7119H97.7761V97.7759H105.84V89.7119Z" fill="black"/>
<path d="M113.904 89.7119H105.84V97.7759H113.904V89.7119Z" fill="black"/>
<path d="M130.032 89.7119H121.968V97.7759H130.032V89.7119Z" fill="black"/>
<path d="M138.096 89.7119H130.032V97.7759H138.096V89.7119Z" fill="black"/>
<path d="M154.224 89.7119H146.16V97.7759H154.224V89.7119Z" fill="black"/>
<path d="M170.352 89.7119H162.288V97.7759H170.352V89.7119Z" fill="black"/>
<path d="M186.48 89.7119H178.416V97.7759H186.48V89.7119Z" fill="black"/>
<path d="M202.608 89.7119H194.544V97.7759H202.608V89.7119Z" fill="black"/>
<path d="M218.736 89.7119H210.672V97.7759H218.736V89.7119Z" fill="black"/>
<path d="M33.264 97.776H25.2V105.84H33.264V97.776Z" fill="black"/>
<path d="M41.3278 97.776H33.2638V105.84H41.3278V97.776Z" fill="black"/>
<path d="M57.4558 97.776H49.3918V105.84H57.4558V97.776Z" fill="black"/>
<path d="M73.584 97.776H65.52V105.84H73.584V97.776Z" fill="black"/>
<path d="M89.7119 97.776H81.6479V105.84H89.7119V97.776Z" fill="black"/>
<path d="M105.84 97.776H97.7761V105.84H105.84V97.776Z" fill="black"/>
<path d="M146.16 97.776H138.096V105.84H146.16V97.776Z" fill="black"/>
<path d="M154.224 97.776H146.16V105.84H154.224V97.776Z" fill="black"/>
<path d="M162.288 97.776H154.224V105.84H162.288V97.776Z" fill="black"/>
<path d="M170.352 97.776H162.288V105.84H170.352V97.776Z" fill="black"/>
<path d="M186.48 97.776H178.416V105.84H186.48V97.776Z" fill="black"/>
<path d="M194.544 97.776H186.48V105.84H194.544V97.776Z" fill="black"/>
<path d="M226.8 97.776H218.736V105.84H226.8V97.776Z" fill="black"/>
<path d="M73.584 105.84H65.52V113.904H73.584V105.84Z" fill="black"/>
<path d="M81.648 105.84H73.584V113.904H81.648V105.84Z" fill="black"/>
<path d="M97.776 105.84H89.712V113.904H97.776V105.84Z" fill="black"/>
<path d="M105.84 105.84H97.7761V113.904H105.84V105.84Z" fill="black"/>
<path d="M121.968 105.84H113.904V113.904H121.968V105.84Z" fill="black"/>
<path d="M130.032 105.84H121.968V113.904H130.032V105.84Z" fill="black"/>
<path d="M146.16 105.84H138.096V113.904H146.16V105.84Z" fill="black"/>
<path d="M154.224 105.84H146.16V113.904H154.224V105.84Z" fill="black"/>
<path d="M170.352 105.84H162.288V113.904H170.352V105.84Z" fill="black"/>
<path d="M178.416 105.84H170.352V113.904H178.416V105.84Z" fill="black"/>
<path d="M194.544 105.84H186.48V113.904H194.544V105.84Z" fill="black"/>
<path d="M210.672 105.84H202.608V113.904H210.672V105.84Z" fill="black"/>
<path d="M33.264 113.904H25.2V121.968H33.264V113.904Z" fill="black"/>
<path d="M41.3278 113.904H33.2638V121.968H41.3278V113.904Z" fill="black"/>
<path d="M49.3921 113.904H41.3281V121.968H49.3921V113.904Z" fill="black"/>
<path d="M57.4558 113.904H49.3918V121.968H57.4558V113.904Z" fill="black"/>
<path d="M65.5201 113.904H57.4561V121.968H65.5201V113.904Z" fill="black"/>
<path d="M89.7119 113.904H81.6479V121.968H89.7119V113.904Z" fill="black"/>
<path d="M105.84 113.904H97.7761V121.968H105.84V113.904Z" fill="black"/>
<path d="M113.904 113.904H105.84V121.968H113.904V113.904Z" fill="black"/>
<path d="M121.968 113.904H113.904V121.968H121.968V113.904Z" fill="black"/>
<path d="M162.288 113.904H154.224V121.968H162.288V113.904Z" fill="black"/>
<path d="M170.352 113.904H162.288V121.968H170.352V113.904Z" fill="black"/>
<path d="M33.264 121.968H25.2V130.032H33.264V121.968Z" fill="black"/>
<path d="M41.3278 121.968H33.2638V130.032H41.3278V121.968Z" fill="black"/>
<path d="M49.3921 121.968H41.3281V130.032H49.3921V121.968Z" fill="black"/>
<path d="M57.4558 121.968H49.3918V130.032H57.4558V121.968Z" fill="black"/>
<path d="M73.584 121.968H65.52V130.032H73.584V121.968Z" fill="black"/>
<path d="M81.648 121.968H73.584V130.032H81.648V121.968Z" fill="black"/>
<path d="M105.84 121.968H97.7761V130.032H105.84V121.968Z" fill="black"/>
<path d="M121.968 121.968H113.904V130.032H121.968V121.968Z" fill="black"/>
<path d="M146.16 121.968H138.096V130.032H146.16V121.968Z" fill="black"/>
<path d="M154.224 121.968H146.16V130.032H154.224V121.968Z" fill="black"/>
<path d="M178.416 121.968H170.352V130.032H178.416V121.968Z" fill="black"/>
<path d="M186.48 121.968H178.416V130.032H186.48V121.968Z" fill="black"/>
<path d="M194.544 121.968H186.48V130.032H194.544V121.968Z" fill="black"/>
<path d="M202.608 121.968H194.544V130.032H202.608V121.968Z" fill="black"/>
<path d="M218.736 121.968H210.672V130.032H218.736V121.968Z" fill="black"/>
<path d="M226.8 121.968H218.736V130.032H226.8V121.968Z" fill="black"/>
<path d="M33.264 130.032H25.2V138.096H33.264V130.032Z" fill="black"/>
<path d="M65.5201 130.032H57.4561V138.096H65.5201V130.032Z" fill="black"/>
<path d="M73.584 130.032H65.52V138.096H73.584V130.032Z" fill="black"/>
<path d="M113.904 130.032H105.84V138.096H113.904V130.032Z" fill="black"/>
<path d="M130.032 130.032H121.968V138.096H130.032V130.032Z" fill="black"/>
<path d="M146.16 130.032H138.096V138.096H146.16V130.032Z" fill="black"/>
<path d="M162.288 130.032H154.224V138.096H162.288V130.032Z" fill="black"/>
<path d="M170.352 130.032H162.288V138.096H170.352V130.032Z" fill="black"/>
<path d="M178.416 130.032H170.352V138.096H178.416V130.032Z" fill="black"/>
<path d="M186.48 130.032H178.416V138.096H186.48V130.032Z" fill="black"/>
<path d="M194.544 130.032H186.48V138.096H194.544V130.032Z" fill="black"/>
<path d="M33.264 138.096H25.2V146.16H33.264V138.096Z" fill="black"/>
<path d="M49.3921 138.096H41.3281V146.16H49.3921V138.096Z" fill="black"/>
<path d="M57.4558 138.096H49.3918V146.16H57.4558V138.096Z" fill="black"/>
<path d="M73.584 138.096H65.52V146.16H73.584V138.096Z" fill="black"/>
<path d="M81.648 138.096H73.584V146.16H81.648V138.096Z" fill="black"/>
<path d="M105.84 138.096H97.7761V146.16H105.84V138.096Z" fill="black"/>
<path d="M138.096 138.096H130.032V146.16H138.096V138.096Z" fill="black"/>
<path d="M146.16 138.096H138.096V146.16H146.16V138.096Z" fill="black"/>
<path d="M170.352 138.096H162.288V146.16H170.352V138.096Z" fill="black"/>
<path d="M178.416 138.096H170.352V146.16H178.416V138.096Z" fill="black"/>
<path d="M194.544 138.096H186.48V146.16H194.544V138.096Z" fill="black"/>
<path d="M210.672 138.096H202.608V146.16H210.672V138.096Z" fill="black"/>
<path d="M218.736 138.096H210.672V146.16H218.736V138.096Z" fill="black"/>
<path d="M226.8 138.096H218.736V146.16H226.8V138.096Z" fill="black"/>
<path d="M33.264 146.16H25.2V154.224H33.264V146.16Z" fill="black"/>
<path d="M65.5201 146.16H57.4561V154.224H65.5201V146.16Z" fill="black"/>
<path d="M89.7119 146.16H81.6479V154.224H89.7119V146.16Z" fill="black"/>
<path d="M105.84 146.16H97.7761V154.224H105.84V146.16Z" fill="black"/>
<path d="M113.904 146.16H105.84V154.224H113.904V146.16Z" fill="black"/>
<path d="M130.032 146.16H121.968V154.224H130.032V146.16Z" fill="black"/>
<path d="M138.096 146.16H130.032V154.224H138.096V146.16Z" fill="black"/>
<path d="M146.16 146.16H138.096V154.224H146.16V146.16Z" fill="black"/>
<path d="M170.352 146.16H162.288V154.224H170.352V146.16Z" fill="black"/>
<path d="M218.736 146.16H210.672V154.224H218.736V146.16Z" fill="black"/>
<path d="M226.8 146.16H218.736V154.224H226.8V146.16Z" fill="black"/>
<path d="M33.264 154.224H25.2V162.288H33.264V154.224Z" fill="black"/>
<path d="M49.3921 154.224H41.3281V162.288H49.3921V154.224Z" fill="black"/>
<path d="M65.5201 154.224H57.4561V162.288H65.5201V154.224Z" fill="black"/>
<path d="M81.648 154.224H73.584V162.288H81.648V154.224Z" fill="black"/>
<path d="M89.7119 154.224H81.6479V162.288H89.7119V154.224Z" fill="black"/>
<path d="M97.776 154.224H89.712V162.288H97.776V154.224Z" fill="black"/>
<path d="M113.904 154.224H105.84V162.288H113.904V154.224Z" fill="black"/>
<path d="M130.032 154.224H121.968V162.288H130.032V154.224Z" fill="black"/>
<path d="M154.224 154.224H146.16V162.288H154.224V154.224Z" fill="black"/>
<path d="M162.288 154.224H154.224V162.288H162.288V154.224Z" fill="black"/>
<path d="M170.352 154.224H162.288V162.288H170.352V154.224Z" fill="black"/>
<path d="M178.416 154.224H170.352V162.288H178.416V154.224Z" fill="black"/>
<path d="M186.48 154.224H178.416V162.288H186.48V154.224Z" fill="black"/>
<path d="M194.544 154.224H186.48V162.288H194.544V154.224Z" fill="black"/>
<path d="M202.608 154.224H194.544V162.288H202.608V154.224Z" fill="black"/>
<path d="M226.8 154.224H218.736V162.288H226.8V154.224Z" fill="black"/>
<path d="M97.776 162.288H89.712V170.352H97.776V162.288Z" fill="black"/>
<path d="M146.16 162.288H138.096V170.352H146.16V162.288Z" fill="black"/>
<path d="M162.288 162.288H154.224V170.352H162.288V162.288Z" fill="black"/>
<path d="M194.544 162.288H186.48V170.352H194.544V162.288Z" fill="black"/>
<path d="M226.8 162.288H218.736V170.352H226.8V162.288Z" fill="black"/>
<path d="M97.776 170.352H89.712V178.416H97.776V170.352Z" fill="black"/>
<path d="M113.904 170.352H105.84V178.416H113.904V170.352Z" fill="black"/>
<path d="M121.968 170.352H113.904V178.416H121.968V170.352Z" fill="black"/>
<path d="M130.032 170.352H121.968V178.416H130.032V170.352Z" fill="black"/>
<path d="M138.096 170.352H130.032V178.416H138.096V170.352Z" fill="black"/>
<path d="M162.288 170.352H154.224V178.416H162.288V170.352Z" fill="black"/>
<path d="M178.416 170.352H170.352V178.416H178.416V170.352Z" fill="black"/>
<path d="M194.544 170.352H186.48V178.416H194.544V170.352Z" fill="black"/>
<path d="M210.672 170.352H202.608V178.416H210.672V170.352Z" fill="black"/>
<path d="M218.736 170.352H210.672V178.416H218.736V170.352Z" fill="black"/>
<path d="M226.8 170.352H218.736V178.416H226.8V170.352Z" fill="black"/>
<path d="M113.904 178.416H105.84V186.48H113.904V178.416Z" fill="black"/>
<path d="M121.968 178.416H113.904V186.48H121.968V178.416Z" fill="black"/>
<path d="M146.16 178.416H138.096V186.48H146.16V178.416Z" fill="black"/>
<path d="M162.288 178.416H154.224V186.48H162.288V178.416Z" fill="black"/>
<path d="M194.544 178.416H186.48V186.48H194.544V178.416Z" fill="black"/>
<path d="M202.608 178.416H194.544V186.48H202.608V178.416Z" fill="black"/>
<path d="M97.776 186.48H89.712V194.544H97.776V186.48Z" fill="black"/>
<path d="M105.84 186.48H97.7761V194.544H105.84V186.48Z" fill="black"/>
<path d="M121.968 186.48H113.904V194.544H121.968V186.48Z" fill="black"/>
<path d="M130.032 186.48H121.968V194.544H130.032V186.48Z" fill="black"/>
<path d="M138.096 186.48H130.032V194.544H138.096V186.48Z" fill="black"/>
<path d="M146.16 186.48H138.096V194.544H146.16V186.48Z" fill="black"/>
<path d="M162.288 186.48H154.224V194.544H162.288V186.48Z" fill="black"/>
<path d="M170.352 186.48H162.288V194.544H170.352V186.48Z" fill="black"/>
<path d="M178.416 186.48H170.352V194.544H178.416V186.48Z" fill="black"/>
<path d="M186.48 186.48H178.416V194.544H186.48V186.48Z" fill="black"/>
<path d="M194.544 186.48H186.48V194.544H194.544V186.48Z" fill="black"/>
<path d="M202.608 186.48H194.544V194.544H202.608V186.48Z" fill="black"/>
<path d="M97.776 194.544H89.712V202.608H97.776V194.544Z" fill="black"/>
<path d="M113.904 194.544H105.84V202.608H113.904V194.544Z" fill="black"/>
<path d="M130.032 194.544H121.968V202.608H130.032V194.544Z" fill="black"/>
<path d="M154.224 194.544H146.16V202.608H154.224V194.544Z" fill="black"/>
<path d="M162.288 194.544H154.224V202.608H162.288V194.544Z" fill="black"/>
<path d="M178.416 194.544H170.352V202.608H178.416V194.544Z" fill="black"/>
<path d="M194.544 194.544H186.48V202.608H194.544V194.544Z" fill="black"/>
<path d="M218.736 194.544H210.672V202.608H218.736V194.544Z" fill="black"/>
<path d="M226.8 194.544H218.736V202.608H226.8V194.544Z" fill="black"/>
<path d="M97.776 202.608H89.712V210.672H97.776V202.608Z" fill="black"/>
<path d="M105.84 202.608H97.7761V210.672H105.84V202.608Z" fill="black"/>
<path d="M113.904 202.608H105.84V210.672H113.904V202.608Z" fill="black"/>
<path d="M130.032 202.608H121.968V210.672H130.032V202.608Z" fill="black"/>
<path d="M138.096 202.608H130.032V210.672H138.096V202.608Z" fill="black"/>
<path d="M146.16 202.608H138.096V210.672H146.16V202.608Z" fill="black"/>
<path d="M194.544 202.608H186.48V210.672H194.544V202.608Z" fill="black"/>
<path d="M210.672 202.608H202.608V210.672H210.672V202.608Z" fill="black"/>
<path d="M226.8 202.608H218.736V210.672H226.8V202.608Z" fill="black"/>
<path d="M97.776 210.672H89.712V218.736H97.776V210.672Z" fill="black"/>
<path d="M105.84 210.672H97.7761V218.736H105.84V210.672Z" fill="black"/>
<path d="M130.032 210.672H121.968V218.736H130.032V210.672Z" fill="black"/>
<path d="M162.288 210.672H154.224V218.736H162.288V210.672Z" fill="black"/>
<path d="M170.352 210.672H162.288V218.736H170.352V210.672Z" fill="black"/>
<path d="M178.416 210.672H170.352V218.736H178.416V210.672Z" fill="black"/>
<path d="M186.48 210.672H178.416V218.736H186.48V210.672Z" fill="black"/>
<path d="M194.544 210.672H186.48V218.736H194.544V210.672Z" fill="black"/>
<path d="M202.608 210.672H194.544V218.736H202.608V210.672Z" fill="black"/>
<path d="M218.736 210.672H210.672V218.736H218.736V210.672Z" fill="black"/>
<path d="M97.776 218.736H89.712V226.8H97.776V218.736Z" fill="black"/>
<path d="M130.032 218.736H121.968V226.8H130.032V218.736Z" fill="black"/>
<path d="M138.096 218.736H130.032V226.8H138.096V218.736Z" fill="black"/>
<path d="M146.16 218.736H138.096V226.8H146.16V218.736Z" fill="black"/>
<path d="M154.224 218.736H146.16V226.8H154.224V218.736Z" fill="black"/>
<path d="M210.672 218.736H202.608V226.8H210.672V218.736Z" fill="black"/>
<path d="M218.736 218.736H210.672V226.8H218.736V218.736Z" fill="black"/>
<path d="M226.8 218.736H218.736V226.8H226.8V218.736Z" fill="black"/>
<g clip-path="url(#clip1_3014_23365)">
<path d="M26.91 25.1924C25.9665 25.1924 25.1924 25.9666 25.1924 26.9101V33.2645V41.3285V49.3925V57.4565V65.5205V73.5845V79.9389C25.1924 80.8824 25.9585 81.6566 26.91 81.6566H79.9389C80.8824 81.6566 81.6565 80.8905 81.6565 79.9389V73.5845V65.5205V57.4565V49.3925V41.3285V33.2645V26.9101C81.6565 25.9666 80.8904 25.1924 79.9389 25.1924H26.91ZM73.5844 41.3285V49.3925V57.4565V65.5205V72.6007C73.5844 73.149 73.1409 73.5845 72.6006 73.5845H34.2483C33.6999 73.5845 33.2644 73.141 33.2644 72.6007V65.5205V57.4565V49.3925V41.3285V34.2483C33.2644 33.7 33.708 33.2645 34.2483 33.2645H72.6006C73.149 33.2645 73.5844 33.708 73.5844 34.2483V41.3285Z" fill="black"/>
</g>
<path d="M65.5201 57.4559V49.3919V43.0375C65.5201 42.094 64.7541 41.3199 63.8025 41.3199H43.0377C42.0942 41.3199 41.3201 42.086 41.3201 43.0375V49.3919V57.4559V63.8104C41.3201 64.7539 42.0861 65.528 43.0377 65.528H63.8025C64.746 65.528 65.5201 64.7619 65.5201 63.8104V57.4559Z" fill="black"/>
<g clip-path="url(#clip2_3014_23365)">
<path d="M172.062 25.1922C171.118 25.1922 170.344 25.9663 170.344 26.9098V33.2643V41.3283V49.3923V57.4563V65.5203V73.5843V79.9387C170.344 80.8822 171.11 81.6563 172.062 81.6563H225.091C226.034 81.6563 226.808 80.8902 226.808 79.9387V73.5843V65.5203V57.4563V49.3923V41.3283V33.2643V26.9098C226.808 25.9663 226.042 25.1922 225.091 25.1922H172.062ZM218.736 41.3283V49.3923V57.4563V65.5203V72.6004C218.736 73.1488 218.293 73.5843 217.752 73.5843H179.4C178.852 73.5843 178.416 73.1407 178.416 72.6004V65.5203V57.4563V49.3923V41.3283V34.2481C178.416 33.6997 178.86 33.2643 179.4 33.2643H217.752C218.301 33.2643 218.736 33.7078 218.736 34.2481V41.3283Z" fill="black"/>
</g>
<path d="M210.672 57.4559V49.3919V43.0375C210.672 42.094 209.906 41.3199 208.954 41.3199H188.19C187.246 41.3199 186.472 42.086 186.472 43.0375V49.3919V57.4559V63.8104C186.472 64.7539 187.238 65.528 188.19 65.528H208.954C209.898 65.528 210.672 64.7619 210.672 63.8104V57.4559Z" fill="black"/>
<g clip-path="url(#clip3_3014_23365)">
<path d="M26.91 170.344C25.9665 170.344 25.1924 171.119 25.1924 172.062V178.416V186.48V194.544V202.608V210.672V218.736V225.091C25.1924 226.034 25.9585 226.808 26.91 226.808H79.9389C80.8824 226.808 81.6565 226.042 81.6565 225.091V218.736V210.672V202.608V194.544V186.48V178.416V172.062C81.6565 171.119 80.8904 170.344 79.9389 170.344H26.91ZM73.5844 186.48V194.544V202.608V210.672V217.753C73.5844 218.301 73.1409 218.736 72.6006 218.736H34.2483C33.6999 218.736 33.2644 218.293 33.2644 217.753V210.672V202.608V194.544V186.48V179.4C33.2644 178.852 33.708 178.416 34.2483 178.416H72.6006C73.149 178.416 73.5844 178.86 73.5844 179.4V186.48Z" fill="black"/>
</g>
<path d="M65.5201 202.608V194.544V188.189C65.5201 187.246 64.7541 186.472 63.8025 186.472H43.0377C42.0942 186.472 41.3201 187.238 41.3201 188.189V194.544V202.608V208.962C41.3201 209.906 42.0861 210.68 43.0377 210.68H63.8025C64.746 210.68 65.5201 209.914 65.5201 208.962V202.608Z" fill="black"/>
</g>
<defs>
<clipPath id="clip0_3014_23365">
<rect width="252" height="252" fill="white"/>
</clipPath>
<clipPath id="clip1_3014_23365">
<rect width="56.448" height="56.448" fill="white" transform="translate(25.2 25.2)"/>
</clipPath>
<clipPath id="clip2_3014_23365">
<rect width="56.448" height="56.448" fill="white" transform="translate(170.352 25.2)"/>
</clipPath>
<clipPath id="clip3_3014_23365">
<rect width="56.448" height="56.448" fill="white" transform="translate(25.2 170.352)"/>
</clipPath>
</defs>
</svg>
