<svg width="24" height="28" viewBox="0 0 24 28" fill="none" xmlns="http://www.w3.org/2000/svg">
<path d="M23.4392 6.74833L12.5606 0.467566C12.3902 0.369101 12.1968 0.317261 11.9999 0.317261C11.8031 0.317261 11.6097 0.369101 11.4392 0.467566L0.560684 6.74833C0.390181 6.84671 0.248594 6.98827 0.150169 7.15875C0.0517435 7.32923 -4.95981e-05 7.52263 3.56397e-08 7.71948V20.281C-1.57311e-05 20.4778 0.0517959 20.6711 0.150222 20.8415C0.248648 21.0119 0.390217 21.1534 0.560684 21.2517L11.4392 27.5325C11.6097 27.6309 11.8031 27.6828 11.9999 27.6828C12.1968 27.6828 12.3902 27.6309 12.5606 27.5325L23.4392 21.2517C23.6096 21.1534 23.7512 21.0119 23.8496 20.8415C23.9481 20.6711 23.9999 20.4778 23.9998 20.281V7.71948C23.9999 7.52263 23.9481 7.32923 23.8497 7.15875C23.7513 6.98827 23.6097 6.84671 23.4392 6.74833Z" fill="url(#paint0_linear_3016_25182)"/>
<path d="M12.001 26.9361C11.9354 26.9362 11.871 26.9188 11.8143 26.8859L0.935246 20.6047C0.878407 20.5719 0.831193 20.5247 0.798337 20.4679C0.765481 20.4111 0.748138 20.3466 0.748047 20.281V7.71944C0.74815 7.65375 0.765494 7.58924 0.798345 7.53235C0.831195 7.47546 0.878402 7.4282 0.935246 7.39527L11.8138 1.11451C11.8706 1.0816 11.9351 1.06427 12.0008 1.06427C12.0664 1.06427 12.1309 1.0816 12.1877 1.11451L23.0668 7.39436C23.1235 7.42735 23.1707 7.47464 23.2035 7.53151C23.2364 7.58838 23.2538 7.65286 23.254 7.71853V20.281C23.2538 20.3466 23.2364 20.411 23.2035 20.4678C23.1707 20.5246 23.1235 20.5718 23.0668 20.6047L12.1882 26.8854C12.1313 26.9185 12.0668 26.9359 12.001 26.9361Z" fill="url(#paint1_linear_3016_25182)"/>
<path d="M22.9744 7.55679L12.0949 1.27603C12.0672 1.25987 12.0357 1.25122 12.0036 1.25092C11.9706 1.25101 11.9382 1.25967 11.9095 1.27603L1.02915 7.55679C1.00066 7.57329 0.977012 7.59699 0.960582 7.62553C0.944153 7.65406 0.935519 7.68641 0.935547 7.71933V20.2808C0.93547 20.3137 0.944137 20.346 0.960659 20.3744C0.976909 20.403 1.00057 20.4267 1.02915 20.4429L11.9082 26.7241C11.9367 26.7404 11.9689 26.7489 12.0018 26.7488C12.0346 26.749 12.067 26.7403 12.0954 26.7237L22.9744 20.4429C22.9997 20.4284 23.0211 20.4081 23.0369 20.3836C23.0572 20.3532 23.068 20.3174 23.068 20.2808V7.71933C23.068 7.6864 23.0594 7.65403 23.043 7.62549C23.0266 7.59695 23.0029 7.57325 22.9744 7.55679ZM22.1343 19.8498L12.0018 25.7L1.86926 19.8498V8.14989L12.0018 2.30014L22.1343 8.14989V19.8498Z" fill="url(#paint2_linear_3016_25182)"/>
<path d="M1.86868 19.8498V8.14986C1.86868 8.14986 0.977426 7.59602 0.960076 7.6225C0.942789 7.65167 0.933644 7.68494 0.933594 7.71884V20.2808C0.933517 20.3137 0.942184 20.346 0.958706 20.3744C0.976056 20.4023 1.86868 19.8498 1.86868 19.8498Z" fill="url(#paint3_linear_3016_25182)"/>
<path d="M12.0018 25.7001L1.86927 19.8499C1.86927 19.8499 0.944229 20.3462 0.960666 20.3745C0.976915 20.403 1.00058 20.4267 1.02915 20.443L11.9082 26.7242C11.9367 26.7404 11.9689 26.7489 12.0018 26.7488C12.0346 26.7488 12.0018 25.7001 12.0018 25.7001Z" fill="url(#paint4_linear_3016_25182)"/>
<path d="M22.1344 19.8501L12.0019 25.7003C12.0019 25.7003 11.969 26.7504 12.0019 26.7504C12.0348 26.7507 12.0671 26.742 12.0955 26.7253L22.9745 20.4432C22.9998 20.4287 23.0213 20.4083 23.0371 20.3838C23.0595 20.3537 22.1344 19.8501 22.1344 19.8501Z" fill="url(#paint5_linear_3016_25182)"/>
<path d="M23.0369 20.3835C23.0572 20.3531 23.068 20.3174 23.068 20.2808V7.71928C23.0678 7.68629 23.0592 7.6539 23.0429 7.62523C23.0264 7.59737 22.1343 8.14984 22.1343 8.14984V19.8498C22.1343 19.8498 23.0214 20.4068 23.0369 20.3835Z" fill="url(#paint6_linear_3016_25182)"/>
<path d="M12.0014 2.30014L22.1339 8.14989C22.1339 8.14989 23.0585 7.65358 23.0425 7.62528C23.0258 7.597 23.0023 7.57343 22.974 7.55679L12.0945 1.27603C12.0668 1.25987 12.0353 1.25122 12.0032 1.25092C11.9685 1.25092 12.0014 2.30014 12.0014 2.30014Z" fill="url(#paint7_linear_3016_25182)"/>
<path d="M1.86924 8.15019L12.0017 2.30045C12.0017 2.30045 12.0346 1.25031 12.0017 1.25031C11.9687 1.2504 11.9363 1.25906 11.9077 1.27542L1.02913 7.55709C1.00112 7.57287 0.977554 7.59549 0.960643 7.62284C0.945119 7.65206 1.86924 8.15019 1.86924 8.15019Z" fill="url(#paint8_linear_3016_25182)"/>
<path d="M2.98828 19.2027V8.79667L12.0003 3.59344L21.0124 8.79667V19.2027L12.0003 24.4059L2.98828 19.2027Z" fill="url(#paint9_linear_3016_25182)"/>
<path d="M2.98828 18.9849V19.2027L12.0003 24.4059L21.0124 19.2027V18.9849L12.0003 24.1881L2.98828 18.9849Z" fill="url(#paint10_linear_3016_25182)"/>
<path d="M12.0016 2.30017L1.86914 8.14992V19.8499L12.0016 25.7001L22.1341 19.8499V8.14992L12.0016 2.30017ZM21.0137 19.2029L12.0016 24.4079L2.9896 19.2029V8.7969L12.0016 3.59185L21.0137 8.7969V19.2029Z" fill="#96003D"/>
<path d="M2.09131 19.7221V8.27971L11.9992 2.55872L21.907 8.27971V19.7221L11.9992 25.4427L2.09131 19.7221ZM2.76386 8.6678V19.3322L12.0001 24.6651L21.2358 19.3322V8.6678L12.0001 3.33491L2.76386 8.6678Z" fill="url(#paint11_linear_3016_25182)"/>
<path d="M12.0003 3.59344L2.98828 8.79667V9.05555L12.0003 3.85233L21.0124 9.05555V8.79667L12.0003 3.59344Z" fill="url(#paint12_linear_3016_25182)"/>
<path d="M15.5378 19.3183C15.4464 19.3184 15.3561 19.2986 15.273 19.2604L12.0093 17.7632L8.74569 19.2604C8.64324 19.3073 8.53015 19.3261 8.41802 19.3149C8.30589 19.3037 8.19876 19.2629 8.10762 19.1966C8.01649 19.1304 7.94462 19.041 7.89941 18.9378C7.85419 18.8346 7.83725 18.7212 7.85033 18.6093L8.26536 15.0434L5.8336 12.402C5.75724 12.3192 5.7043 12.2176 5.68021 12.1075C5.65612 11.9975 5.66175 11.8831 5.69652 11.7759C5.73128 11.6688 5.79394 11.5728 5.87805 11.4979C5.96216 11.423 6.06469 11.3718 6.17512 11.3496L9.69538 10.6419L11.456 7.51339C11.5112 7.41525 11.5916 7.33357 11.6889 7.27673C11.7861 7.2199 11.8967 7.18994 12.0093 7.18994C12.122 7.18994 12.2326 7.2199 12.3298 7.27673C12.4271 7.33357 12.5075 7.41525 12.5627 7.51339L14.3229 10.6428L17.8431 11.3501C17.9535 11.3723 18.0561 11.4236 18.1402 11.4986C18.2242 11.5735 18.2869 11.6695 18.3216 11.7767C18.3564 11.8838 18.362 11.9983 18.338 12.1084C18.3139 12.2184 18.261 12.3201 18.1846 12.4029L15.7533 15.0434L16.1684 18.6093C16.1788 18.6983 16.1703 18.7885 16.1434 18.874C16.1164 18.9595 16.0717 19.0383 16.0122 19.1053C15.9526 19.1723 15.8796 19.2259 15.7978 19.2626C15.7161 19.2993 15.6274 19.3183 15.5378 19.3183Z" fill="#96003D"/>
<path d="M15.5372 19.0944C15.4778 19.0942 15.4191 19.0813 15.3651 19.0565L12.0088 17.5169L8.65197 19.0569C8.57177 19.0937 8.48184 19.1038 8.3955 19.0855C8.30916 19.0673 8.23099 19.0217 8.17255 18.9556C8.13438 18.9123 8.10575 18.8615 8.08852 18.8064C8.0713 18.7513 8.06586 18.6933 8.07256 18.6359L8.49947 14.9678L5.99785 12.2511C5.94846 12.1975 5.91423 12.1317 5.89865 12.0605C5.88308 11.9893 5.88672 11.9152 5.90921 11.8459C5.9317 11.7765 5.97223 11.7144 6.02664 11.6659C6.08105 11.6174 6.14738 11.5843 6.21883 11.5699L9.84 10.8421L11.6513 7.6227C11.687 7.55924 11.739 7.50643 11.8019 7.46969C11.8648 7.43294 11.9364 7.41357 12.0092 7.41357C12.0821 7.41357 12.1536 7.43294 12.2165 7.46969C12.2794 7.50643 12.3314 7.55924 12.3672 7.6227L14.178 10.8416L17.7987 11.5689C17.8702 11.5833 17.9366 11.6164 17.991 11.6649C18.0455 11.7134 18.0861 11.7755 18.1086 11.8448C18.1312 11.9141 18.1349 11.9882 18.1193 12.0595C18.1038 12.1307 18.0695 12.1965 18.0201 12.2502L15.5181 14.9668L15.9454 18.635C15.9522 18.6927 15.9467 18.7511 15.9293 18.8064C15.9118 18.8617 15.8829 18.9127 15.8443 18.9561C15.8058 18.9994 15.7585 19.0341 15.7055 19.0579C15.6526 19.0816 15.5953 19.0939 15.5372 19.0939V19.0944Z" fill="url(#paint13_linear_3016_25182)"/>
<path d="M8.98998 14.7992C8.96222 14.7075 8.91398 14.6234 8.84889 14.5531L6.51758 12.0209L9.89264 11.3429C9.98186 11.325 10.0662 11.2882 10.1401 11.2351C10.2136 11.184 12.0089 13.7819 12.0089 13.7819C12.0089 13.7819 9.01509 14.8823 8.98998 14.7992Z" fill="url(#paint14_linear_3016_25182)"/>
<path d="M6.51758 12.0209L9.89264 11.3429C9.98186 11.325 10.0662 11.2882 10.1401 11.2351C10.2136 11.184 12.0089 13.7819 12.0089 13.7819L6.51758 12.0209Z" fill="url(#paint15_linear_3016_25182)"/>
<path d="M12.0095 16.9826C11.9181 16.9823 11.8277 17.002 11.7447 17.0401L8.61523 18.4752L9.01338 15.0558C9.0233 14.9691 9.01537 14.8813 8.99009 14.7978C8.96269 14.7065 12.0095 13.7806 12.0095 13.7806C12.0095 13.7806 12.1008 16.9826 12.0095 16.9826Z" fill="url(#paint16_linear_3016_25182)"/>
<path d="M8.61523 18.4764L9.01338 15.057C9.0233 14.9704 9.01537 14.8826 8.99009 14.7991C8.96269 14.7078 12.0095 13.7818 12.0095 13.7818L8.61523 18.4764Z" fill="url(#paint17_linear_3016_25182)"/>
<path d="M12.2751 17.0415C12.192 17.0029 12.1015 16.9828 12.0098 16.9826C11.9185 16.9826 12.0098 13.7806 12.0098 13.7806C12.0098 13.7806 15.0607 14.6997 15.0329 14.7851C15.0042 14.8721 14.995 14.9644 15.0059 15.0554L15.4036 18.4747L12.2751 17.0415Z" fill="url(#paint18_linear_3016_25182)"/>
<path d="M12.0093 13.7818C12.0093 13.7818 15.0602 14.7009 15.0323 14.7863C15.0037 14.8733 14.9945 14.9656 15.0054 15.0566L15.4031 18.4759L12.0093 13.7818Z" fill="url(#paint19_linear_3016_25182)"/>
<path d="M12.0093 13.7819C12.0093 13.7819 13.8041 11.1794 13.8772 11.2342C13.9514 11.2878 14.0362 11.3249 14.126 11.3429L17.5006 12.0209L15.1688 14.554C15.1068 14.6208 15.0601 14.7002 15.0319 14.7869C15.0045 14.8727 12.0093 13.7819 12.0093 13.7819Z" fill="url(#paint20_linear_3016_25182)"/>
<path d="M12.0093 13.7819C12.0093 13.7819 13.8041 11.1794 13.8772 11.2342C13.9514 11.2878 14.0362 11.3249 14.126 11.3429L17.5006 12.0209L12.0093 13.7819Z" fill="url(#paint21_linear_3016_25182)"/>
<path d="M12.008 13.782C12.008 13.782 10.0657 11.2877 10.1387 11.2352C10.2136 11.1812 10.2759 11.1115 10.3214 11.0311L12.008 8.03363L13.6973 11.0338C13.742 11.1136 13.8034 11.1827 13.8772 11.2366C13.9494 11.2872 12.008 13.782 12.008 13.782Z" fill="url(#paint22_linear_3016_25182)"/>
<path d="M12.008 13.782C12.008 13.782 10.0657 11.2877 10.1387 11.2352C10.2136 11.1812 10.2759 11.1115 10.3214 11.0311L12.008 8.03363V13.782Z" fill="url(#paint23_linear_3016_25182)"/>
<path d="M12.0094 8.03131L11.9829 13.7486L6.51758 12.0209L11.9683 13.7948L8.61512 18.4766L12.008 13.8286L15.4031 18.4766L12.05 13.797L17.5007 12.0209L12.0345 13.7496L12.0094 8.03131Z" fill="url(#paint24_linear_3016_25182)"/>
<path style="mix-blend-mode:screen" d="M23.4392 6.74833L12.5606 0.467566C12.3902 0.369101 12.1968 0.317261 11.9999 0.317261C11.8031 0.317261 11.6097 0.369101 11.4392 0.467566L0.560684 6.74833C0.390181 6.84671 0.248594 6.98827 0.150169 7.15875C0.0517435 7.32923 -4.95981e-05 7.52263 3.56397e-08 7.71948V20.281C-1.57311e-05 20.4778 0.0517959 20.6711 0.150222 20.8415C0.248648 21.0119 0.390217 21.1534 0.560684 21.2517L11.4392 27.5325C11.6097 27.6309 11.8031 27.6828 11.9999 27.6828C12.1968 27.6828 12.3902 27.6309 12.5606 27.5325L23.4392 21.2517C23.6096 21.1534 23.7512 21.0119 23.8496 20.8415C23.9481 20.6711 23.9999 20.4778 23.9998 20.281V7.71948C23.9999 7.52263 23.9481 7.32923 23.8497 7.15875C23.7513 6.98827 23.6097 6.84671 23.4392 6.74833Z" fill="url(#paint25_linear_3016_25182)"/>
<defs>
<linearGradient id="paint0_linear_3016_25182" x1="10.1261" y1="1.61085" x2="13.9856" y2="27.1311" gradientUnits="userSpaceOnUse">
<stop stop-color="#FFA06C"/>
<stop offset="0.71" stop-color="#FF693D"/>
<stop offset="1" stop-color="#FF923D"/>
</linearGradient>
<linearGradient id="paint1_linear_3016_25182" x1="10.2308" y1="2.29387" x2="13.8771" y2="26.4065" gradientUnits="userSpaceOnUse">
<stop stop-color="#FFA23D"/>
<stop offset="1" stop-color="#FFBC3D"/>
</linearGradient>
<linearGradient id="paint2_linear_3016_25182" x1="10.2572" y1="2.46497" x2="13.8505" y2="26.2256" gradientUnits="userSpaceOnUse">
<stop stop-color="#FF7D3D"/>
<stop offset="0.7" stop-color="#FF543D"/>
<stop offset="1" stop-color="#FF703D"/>
</linearGradient>
<linearGradient id="paint3_linear_3016_25182" x1="1.20983" y1="7.91198" x2="1.58331" y2="20.1744" gradientUnits="userSpaceOnUse">
<stop stop-color="#FF343D"/>
<stop offset="0.7" stop-color="#FF523F"/>
<stop offset="1" stop-color="#FF913F"/>
</linearGradient>
<linearGradient id="paint4_linear_3016_25182" x1="5.9534" y1="19.5471" x2="7.14143" y2="27.4027" gradientUnits="userSpaceOnUse">
<stop stop-color="#FFB33D"/>
<stop offset="1" stop-color="#FF703D"/>
</linearGradient>
<linearGradient id="paint5_linear_3016_25182" x1="11.8741" y1="26.2427" x2="22.58" y2="20.2049" gradientUnits="userSpaceOnUse">
<stop stop-color="#FFE0D1"/>
<stop offset="0.24" stop-color="#FFB33D"/>
<stop offset="1" stop-color="#FF813D"/>
</linearGradient>
<linearGradient id="paint6_linear_3016_25182" x1="21.7717" y1="8.29229" x2="23.5693" y2="20.1804" gradientUnits="userSpaceOnUse">
<stop stop-color="#FF5A3D"/>
<stop offset="0.77" stop-color="#FF5E3D"/>
<stop offset="1" stop-color="#FFA73D"/>
</linearGradient>
<linearGradient id="paint7_linear_3016_25182" x1="16.8964" y1="0.82538" x2="18.084" y2="8.6809" gradientUnits="userSpaceOnUse">
<stop stop-color="#FF4A3D"/>
<stop offset="0.22" stop-color="#FF233D"/>
<stop offset="1" stop-color="#FF523F"/>
</linearGradient>
<linearGradient id="paint8_linear_3016_25182" x1="0.962012" y1="4.70071" x2="12.0164" y2="4.70071" gradientUnits="userSpaceOnUse">
<stop stop-color="#FF523F"/>
<stop offset="1" stop-color="#FF1D3D"/>
</linearGradient>
<linearGradient id="paint9_linear_3016_25182" x1="10.7077" y1="4.15322" x2="13.3221" y2="24.0712" gradientUnits="userSpaceOnUse">
<stop stop-color="#FFCC94"/>
<stop offset="0.73" stop-color="#FF693D"/>
<stop offset="0.83" stop-color="#FF743D"/>
<stop offset="1" stop-color="#FF923D"/>
</linearGradient>
<linearGradient id="paint10_linear_3016_25182" x1="11.8497" y1="17.9457" x2="12.6793" y2="24.2657" gradientUnits="userSpaceOnUse">
<stop offset="0.26" stop-color="#FF5E3D"/>
<stop offset="1" stop-color="#FF1D3D"/>
</linearGradient>
<linearGradient id="paint11_linear_3016_25182" x1="10.0254" y1="2.95092" x2="13.9465" y2="24.892" gradientUnits="userSpaceOnUse">
<stop stop-color="#AE1543"/>
<stop offset="0.67" stop-color="#B71C3D"/>
<stop offset="1" stop-color="#AE103F"/>
</linearGradient>
<linearGradient id="paint12_linear_3016_25182" x1="11.3282" y1="3.80621" x2="12.1629" y2="10.1655" gradientUnits="userSpaceOnUse">
<stop stop-color="#FFE7D4"/>
<stop offset="1" stop-color="#FFB554"/>
</linearGradient>
<linearGradient id="paint13_linear_3016_25182" x1="5.88918" y1="13.2542" x2="18.1288" y2="13.2542" gradientUnits="userSpaceOnUse">
<stop stop-color="#AE1543"/>
<stop offset="0.67" stop-color="#B71C3D"/>
<stop offset="1" stop-color="#AE103F"/>
</linearGradient>
<linearGradient id="paint14_linear_3016_25182" x1="6.51758" y1="13.019" x2="12.0094" y2="13.019" gradientUnits="userSpaceOnUse">
<stop stop-color="#FF693D"/>
<stop offset="1" stop-color="#FFCC94"/>
</linearGradient>
<linearGradient id="paint15_linear_3016_25182" x1="6.57054" y1="12.0204" x2="12.0299" y2="12.6113" gradientUnits="userSpaceOnUse">
<stop stop-color="#FFB554"/>
<stop offset="1" stop-color="#FFE7D4"/>
</linearGradient>
<linearGradient id="paint16_linear_3016_25182" x1="8.38101" y1="18.1985" x2="11.867" y2="14.4015" gradientUnits="userSpaceOnUse">
<stop stop-color="#FF5D3F"/>
<stop offset="1" stop-color="#FF233D"/>
</linearGradient>
<linearGradient id="paint17_linear_3016_25182" x1="10.4763" y1="14.3525" x2="8.92023" y2="18.5855" gradientUnits="userSpaceOnUse">
<stop stop-color="#FF693D"/>
<stop offset="1" stop-color="#FFE194"/>
</linearGradient>
<linearGradient id="paint18_linear_3016_25182" x1="12.1368" y1="14.5536" x2="15.5616" y2="17.8433" gradientUnits="userSpaceOnUse">
<stop stop-color="#FF523F"/>
<stop offset="1" stop-color="#FF233D"/>
</linearGradient>
<linearGradient id="paint19_linear_3016_25182" x1="13.1991" y1="13.7512" x2="15.8756" y2="18.1705" gradientUnits="userSpaceOnUse">
<stop stop-color="#FF623D"/>
<stop offset="0.66" stop-color="#FF8443"/>
<stop offset="1" stop-color="#FFB943"/>
</linearGradient>
<linearGradient id="paint20_linear_3016_25182" x1="11.8467" y1="13.6828" x2="17.8841" y2="12.1268" gradientUnits="userSpaceOnUse">
<stop stop-color="#FF233D"/>
<stop offset="1" stop-color="#FF3F3F"/>
</linearGradient>
<linearGradient id="paint21_linear_3016_25182" x1="12.4677" y1="12.6108" x2="17.034" y2="11.6186" gradientUnits="userSpaceOnUse">
<stop stop-color="#FFE194"/>
<stop offset="1" stop-color="#FF693D"/>
</linearGradient>
<linearGradient id="paint22_linear_3016_25182" x1="11.6345" y1="8.21626" x2="12.2568" y2="13.2583" gradientUnits="userSpaceOnUse">
<stop stop-color="#FF693D"/>
<stop offset="1" stop-color="#FFA06C"/>
</linearGradient>
<linearGradient id="paint23_linear_3016_25182" x1="11.4825" y1="7.69667" x2="10.9843" y2="13.5473" gradientUnits="userSpaceOnUse">
<stop offset="0.21" stop-color="#FFE5D4"/>
<stop offset="1" stop-color="#FF693D"/>
</linearGradient>
<linearGradient id="paint24_linear_3016_25182" x1="11.4195" y1="10.0563" x2="13.6129" y2="17.3648" gradientUnits="userSpaceOnUse">
<stop stop-color="#FFF0C7"/>
<stop offset="0.69" stop-color="#FFC23D"/>
<stop offset="1" stop-color="#FF963D"/>
</linearGradient>
<linearGradient id="paint25_linear_3016_25182" x1="10.0389" y1="1.0319" x2="11.689" y2="11.9433" gradientUnits="userSpaceOnUse">
<stop stop-color="#FF9999"/>
<stop offset="0.17" stop-color="#C67777"/>
<stop offset="0.4" stop-color="#814D4D"/>
<stop offset="0.6" stop-color="#492C2C"/>
<stop offset="0.78" stop-color="#211414"/>
<stop offset="0.92" stop-color="#090505"/>
<stop offset="1"/>
</linearGradient>
</defs>
</svg>
