<svg width="24" height="25" viewBox="0 0 24 25" fill="none" xmlns="http://www.w3.org/2000/svg">
<path d="M11.314 3.62112C11.7761 3.14719 12.3277 2.76975 12.9369 2.51067C13.546 2.2516 14.2005 2.11606 14.8625 2.11191C15.5244 2.10777 16.1805 2.2351 16.7929 2.48651C17.4052 2.73793 17.9615 3.10844 18.4296 3.57653C18.8976 4.04463 19.268 4.601 19.5194 5.21337C19.7707 5.82574 19.8979 6.48192 19.8937 7.14385C19.8894 7.80578 19.7538 8.46028 19.4946 9.06938C19.2355 9.67848 18.858 10.2301 18.384 10.6921L10.607 18.4701C10.3293 18.7524 9.99841 18.977 9.63349 19.1308C9.26856 19.2847 8.87679 19.3647 8.48077 19.3664C8.08476 19.368 7.69233 19.2913 7.32613 19.1405C6.95992 18.9897 6.6272 18.768 6.34713 18.488C6.06707 18.208 5.84522 17.8753 5.69437 17.5091C5.54352 17.143 5.46666 16.7506 5.46823 16.3545C5.46979 15.9585 5.54975 15.5667 5.70349 15.2018C5.85723 14.8368 6.08171 14.5059 6.36398 14.2281L14.142 6.45012L15.556 7.86412L7.77798 15.6421C7.68247 15.7344 7.60628 15.8447 7.55387 15.9667C7.50147 16.0887 7.47388 16.2199 7.47273 16.3527C7.47157 16.4855 7.49687 16.6172 7.54715 16.7401C7.59744 16.863 7.67169 16.9746 7.76558 17.0685C7.85947 17.1624 7.97113 17.2367 8.09402 17.2869C8.21692 17.3372 8.3486 17.3625 8.48138 17.3614C8.61416 17.3602 8.74538 17.3326 8.86738 17.2802C8.98939 17.2278 9.09973 17.1516 9.19198 17.0561L16.971 9.27812C17.2496 8.99952 17.4706 8.66877 17.6213 8.30476C17.7721 7.94076 17.8497 7.55062 17.8497 7.15662C17.8497 6.76262 17.7721 6.37248 17.6213 6.00847C17.4706 5.64446 17.2496 5.31372 16.971 5.03512C16.6924 4.75652 16.3616 4.53552 15.9976 4.38474C15.6336 4.23397 15.2435 4.15636 14.8495 4.15636C14.4555 4.15636 14.0653 4.23397 13.7013 4.38474C13.3373 4.53552 13.0066 4.75652 12.728 5.03512L4.94998 12.8141C4.03919 13.7571 3.53521 15.0201 3.54661 16.3311C3.558 17.6421 4.08384 18.8962 5.01088 19.8232C5.93792 20.7502 7.19199 21.2761 8.50297 21.2875C9.81395 21.2989 11.077 20.7949 12.02 19.8841L20.506 11.3991L21.92 12.8141L13.435 21.2991C12.1222 22.6119 10.3416 23.3495 8.48498 23.3495C6.62837 23.3495 4.8478 22.6119 3.53498 21.2991C2.22215 19.9863 1.48462 18.2057 1.48462 16.3491C1.48462 14.4925 2.22215 12.7119 3.53498 11.3991L11.314 3.62112Z" fill="black"/>
</svg>
