<svg width="15" height="17" viewBox="0 0 15 17" fill="none" xmlns="http://www.w3.org/2000/svg">
<path d="M13.7044 4.25986L7.34391 0.587636C7.24425 0.530066 7.13118 0.499756 7.01609 0.499756C6.90099 0.499756 6.78793 0.530066 6.68827 0.587636L0.32782 4.25986C0.22813 4.31738 0.145348 4.40015 0.0878005 4.49982C0.0302533 4.5995 -2.89989e-05 4.71257 2.08378e-08 4.82767V12.1721C-9.19762e-06 12.2872 0.0302839 12.4002 0.0878314 12.4998C0.145379 12.5995 0.228151 12.6822 0.32782 12.7397L6.68827 16.4119C6.78793 16.4694 6.90099 16.4998 7.01609 16.4998C7.13118 16.4998 7.24425 16.4694 7.34391 16.4119L13.7044 12.7397C13.804 12.6822 13.8868 12.5995 13.9443 12.4998C14.0019 12.4002 14.0322 12.2872 14.0322 12.1721V4.82767C14.0322 4.71257 14.0019 4.5995 13.9444 4.49982C13.8868 4.40015 13.804 4.31738 13.7044 4.25986Z" fill="url(#paint0_linear_1179_19998)"/>
<path d="M7.01685 16.0632C6.9785 16.0632 6.94083 16.0531 6.90767 16.0339L0.546951 12.3614C0.513718 12.3422 0.486113 12.3146 0.466903 12.2814C0.447693 12.2482 0.437553 12.2105 0.4375 12.1721V4.82766C0.437561 4.78925 0.447701 4.75153 0.466908 4.71827C0.486115 4.68501 0.513716 4.65737 0.546951 4.63812L6.9074 0.965898C6.94062 0.946656 6.97833 0.936523 7.01672 0.936523C7.05511 0.936523 7.09282 0.946656 7.12604 0.965898L13.4868 4.63758C13.52 4.65688 13.5475 4.68452 13.5667 4.71777C13.5859 4.75103 13.5961 4.78872 13.5962 4.82712V12.1721C13.5961 12.2105 13.5859 12.2481 13.5667 12.2813C13.5475 12.3145 13.5199 12.3421 13.4868 12.3614L7.1263 16.0336C7.09305 16.0529 7.0553 16.0631 7.01685 16.0632Z" fill="url(#paint1_linear_1179_19998)"/>
<path d="M13.4325 4.73256L7.0715 1.06034C7.05528 1.05089 7.03688 1.04583 7.01811 1.04565C6.99882 1.04571 6.97987 1.05077 6.96312 1.06034L0.601601 4.73256C0.584944 4.7422 0.571119 4.75607 0.561513 4.77275C0.551907 4.78943 0.546859 4.80834 0.546875 4.82759V12.172C0.54683 12.1913 0.551898 12.2101 0.561558 12.2268C0.571058 12.2435 0.584893 12.2573 0.601601 12.2668L6.96232 15.9393C6.97898 15.9488 6.99785 15.9538 7.01704 15.9537C7.03627 15.9538 7.05518 15.9488 7.07177 15.939L13.4325 12.2668C13.4473 12.2583 13.4598 12.2464 13.4691 12.2321C13.4809 12.2143 13.4872 12.1934 13.4872 12.172V4.82759C13.4873 4.80834 13.4822 4.78941 13.4726 4.77273C13.463 4.75604 13.4492 4.74218 13.4325 4.73256ZM12.9413 11.92L7.01704 15.3405L1.0928 11.92V5.07933L7.01704 1.65911L12.9413 5.07933V11.92Z" fill="url(#paint2_linear_1179_19998)"/>
<path d="M1.09262 11.9201V5.07938C1.09262 5.07938 0.571526 4.75556 0.561382 4.77105C0.551275 4.7881 0.545928 4.80755 0.545899 4.82737V12.1721C0.545854 12.1913 0.550921 12.2102 0.560581 12.2268C0.570725 12.2431 1.09262 11.9201 1.09262 11.9201Z" fill="url(#paint3_linear_1179_19998)"/>
<path d="M7.01713 15.3405L1.09289 11.92C1.09289 11.92 0.55204 12.2102 0.56165 12.2268C0.571151 12.2435 0.584985 12.2573 0.601693 12.2668L6.96241 15.9393C6.97908 15.9488 6.99795 15.9538 7.01713 15.9537C7.03636 15.9537 7.01713 15.3405 7.01713 15.3405Z" fill="url(#paint4_linear_1179_19998)"/>
<path d="M12.9416 11.9202L7.01733 15.3406C7.01733 15.3406 6.99811 15.9546 7.01733 15.9546C7.03656 15.9548 7.05547 15.9497 7.07206 15.94L13.4328 12.2669C13.4476 12.2585 13.4601 12.2466 13.4693 12.2322C13.4824 12.2146 12.9416 11.9202 12.9416 11.9202Z" fill="url(#paint5_linear_1179_19998)"/>
<path d="M13.4692 12.2321C13.481 12.2143 13.4873 12.1934 13.4873 12.172V4.82756C13.4872 4.80827 13.4822 4.78933 13.4726 4.77257C13.463 4.75628 12.9414 5.0793 12.9414 5.0793V11.92C12.9414 11.92 13.4601 12.2457 13.4692 12.2321Z" fill="url(#paint6_linear_1179_19998)"/>
<path d="M7.01702 1.65911L12.9413 5.07933C12.9413 5.07933 13.4819 4.78915 13.4725 4.7726C13.4628 4.75607 13.449 4.74229 13.4325 4.73256L7.07148 1.06034C7.05526 1.05089 7.03686 1.04583 7.01809 1.04565C6.9978 1.04565 7.01702 1.65911 7.01702 1.65911Z" fill="url(#paint7_linear_1179_19998)"/>
<path d="M1.09288 5.0795L7.01712 1.65928C7.01712 1.65928 7.03634 1.04529 7.01712 1.04529C6.99783 1.04535 6.97888 1.0504 6.96213 1.05997L0.60168 4.73273C0.5853 4.74195 0.571524 4.75518 0.561637 4.77117C0.55256 4.78825 1.09288 5.0795 1.09288 5.0795Z" fill="url(#paint8_linear_1179_19998)"/>
<path d="M1.74707 11.5416V5.45749L7.01621 2.41528L12.2854 5.45749V11.5416L7.01621 14.5839L1.74707 11.5416Z" fill="url(#paint9_linear_1179_19998)"/>
<path d="M1.74707 11.4143V11.5416L7.01621 14.5839L12.2854 11.5416V11.4143L7.01621 14.4565L1.74707 11.4143Z" fill="url(#paint10_linear_1179_19998)"/>
<path d="M7.01702 1.65918L1.09277 5.0794V11.9201L7.01702 15.3406L12.9413 11.9201V5.0794L7.01702 1.65918ZM12.2862 11.5418L7.01702 14.5851L1.74788 11.5418V5.45767L7.01702 2.41439L12.2862 5.45767V11.5418Z" fill="#96003D"/>
<path d="M1.22266 11.8454V5.15524L7.01556 1.8103L12.8085 5.15524V11.8454L7.01556 15.19L1.22266 11.8454ZM1.61588 5.38215V11.6174L7.01609 14.7354L12.416 11.6174V5.38215L7.01609 2.26412L1.61588 5.38215Z" fill="url(#paint11_linear_1179_19998)"/>
<path d="M7.01621 2.41528L1.74707 5.45749V5.60886L7.01621 2.56665L12.2854 5.60886V5.45749L7.01621 2.41528Z" fill="url(#paint12_linear_1179_19998)"/>
<path d="M9.08461 11.6093C9.03116 11.6093 8.97834 11.5977 8.92978 11.5754L7.02159 10.7L5.1134 11.5754C5.0535 11.6028 4.98738 11.6138 4.92182 11.6073C4.85626 11.6007 4.79363 11.5769 4.74034 11.5381C4.68705 11.4994 4.64504 11.4471 4.6186 11.3868C4.59216 11.3264 4.58226 11.2601 4.5899 11.1947L4.83257 9.10978L3.41077 7.56546C3.36612 7.51704 3.33517 7.45761 3.32109 7.39328C3.307 7.32895 3.31029 7.26202 3.33062 7.19938C3.35095 7.13674 3.38758 7.08064 3.43676 7.03683C3.48593 6.99303 3.54588 6.9631 3.61045 6.95013L5.66867 6.53635L6.69804 4.70718C6.73036 4.6498 6.77735 4.60204 6.83421 4.56881C6.89106 4.53558 6.95573 4.51807 7.02159 4.51807C7.08744 4.51807 7.15211 4.53558 7.20897 4.56881C7.26583 4.60204 7.31282 4.6498 7.34514 4.70718L8.37425 6.53688L10.4325 6.95039C10.497 6.96342 10.557 6.99338 10.6061 7.03721C10.6553 7.08105 10.6919 7.13717 10.7123 7.19982C10.7326 7.26248 10.7359 7.32941 10.7218 7.39375C10.7077 7.4581 10.6768 7.51754 10.6321 7.56599L9.21061 9.10978L9.45327 11.1947C9.45938 11.2467 9.45439 11.2995 9.43866 11.3495C9.42292 11.3995 9.39678 11.4455 9.36196 11.4847C9.32713 11.5239 9.28442 11.5552 9.23662 11.5767C9.18882 11.5981 9.13701 11.6093 9.08461 11.6093Z" fill="#96003D"/>
<path d="M9.08438 11.4783C9.04963 11.4782 9.0153 11.4707 8.98374 11.4561L7.02136 10.556L5.05871 11.4564C5.01182 11.4779 4.95924 11.4838 4.90876 11.4731C4.85828 11.4625 4.81257 11.4358 4.77841 11.3971C4.75609 11.3718 4.73935 11.3421 4.72928 11.3099C4.71921 11.2777 4.71603 11.2438 4.71995 11.2103L4.96955 9.06557L3.50691 7.47719C3.47803 7.44584 3.45802 7.40738 3.44891 7.36575C3.4398 7.32412 3.44193 7.28081 3.45508 7.24027C3.46823 7.19973 3.49193 7.16342 3.52374 7.13507C3.55555 7.10671 3.59434 7.08732 3.63611 7.07889L5.75333 6.65337L6.81233 4.77107C6.83325 4.73397 6.86365 4.7031 6.90043 4.68161C6.93721 4.66013 6.97903 4.6488 7.02163 4.6488C7.06422 4.6488 7.10604 4.66013 7.14282 4.68161C7.1796 4.7031 7.21 4.73397 7.23092 4.77107L8.28966 6.6531L10.4066 7.07836C10.4484 7.08675 10.4872 7.10611 10.5191 7.13445C10.5509 7.1628 10.5746 7.1991 10.5878 7.23965C10.601 7.28019 10.6031 7.32351 10.5941 7.36516C10.585 7.40681 10.565 7.44529 10.5361 7.47665L9.07317 9.06503L9.32304 11.2097C9.32699 11.2434 9.32377 11.2776 9.31359 11.3099C9.3034 11.3423 9.28648 11.3721 9.26393 11.3975C9.24139 11.4228 9.21373 11.4431 9.18278 11.457C9.15184 11.4709 9.1183 11.478 9.08438 11.478V11.4783Z" fill="url(#paint13_linear_1179_19998)"/>
<path d="M5.2561 8.96697C5.23988 8.91337 5.21167 8.86417 5.17361 8.82308L3.81055 7.34255L5.78387 6.94613C5.83604 6.93566 5.88537 6.91419 5.92856 6.88313C5.97154 6.85323 7.0212 8.3722 7.0212 8.3722C7.0212 8.3722 5.27079 9.01556 5.2561 8.96697Z" fill="url(#paint14_linear_1179_19998)"/>
<path d="M3.81055 7.34255L5.78387 6.94613C5.83604 6.93566 5.88537 6.91419 5.92856 6.88313C5.97154 6.85323 7.0212 8.3722 7.0212 8.3722L3.81055 7.34255Z" fill="url(#paint15_linear_1179_19998)"/>
<path d="M7.02165 10.2436C6.96821 10.2435 6.91537 10.2549 6.86681 10.2772L5.03711 11.1163L5.26989 9.11706C5.2757 9.06638 5.27106 9.01505 5.25628 8.96623C5.24026 8.91284 7.02165 8.37146 7.02165 8.37146C7.02165 8.37146 7.07504 10.2436 7.02165 10.2436Z" fill="url(#paint16_linear_1179_19998)"/>
<path d="M5.03711 11.117L5.26989 9.11779C5.2757 9.06712 5.27106 9.01579 5.25628 8.96697C5.24026 8.91358 7.02165 8.37219 7.02165 8.37219L5.03711 11.117Z" fill="url(#paint17_linear_1179_19998)"/>
<path d="M7.17688 10.278C7.12828 10.2555 7.07536 10.2437 7.02178 10.2436C6.96839 10.2436 7.02178 8.37146 7.02178 8.37146C7.02178 8.37146 8.80556 8.90884 8.78928 8.95876C8.77254 9.00965 8.76717 9.0636 8.77353 9.1168L9.00605 11.116L7.17688 10.278Z" fill="url(#paint18_linear_1179_19998)"/>
<path d="M7.02148 8.37219C7.02148 8.37219 8.80527 8.90957 8.78899 8.95949C8.77225 9.01039 8.76687 9.06433 8.77324 9.11753L9.00575 11.1167L7.02148 8.37219Z" fill="url(#paint19_linear_1179_19998)"/>
<path d="M7.02148 8.3723C7.02148 8.3723 8.07088 6.85067 8.11359 6.8827C8.15698 6.91405 8.2066 6.93572 8.25908 6.94624L10.2321 7.34266L8.86881 8.82372C8.83254 8.86275 8.80521 8.90921 8.78872 8.95987C8.7727 9.01006 7.02148 8.3723 7.02148 8.3723Z" fill="url(#paint20_linear_1179_19998)"/>
<path d="M7.02148 8.3723C7.02148 8.3723 8.07088 6.85067 8.11359 6.8827C8.15698 6.91405 8.2066 6.93572 8.25908 6.94624L10.2321 7.34266L7.02148 8.3723Z" fill="url(#paint21_linear_1179_19998)"/>
<path d="M7.02084 8.3723C7.02084 8.3723 5.88522 6.91393 5.92793 6.88323C5.97173 6.85164 6.00816 6.81093 6.03471 6.76391L7.02084 5.01135L8.00857 6.76551C8.0347 6.81213 8.07057 6.85255 8.11375 6.88404C8.15593 6.91367 7.02084 8.3723 7.02084 8.3723Z" fill="url(#paint22_linear_1179_19998)"/>
<path d="M7.02084 8.3723C7.02084 8.3723 5.88522 6.91393 5.92793 6.88323C5.97173 6.85164 6.00816 6.81093 6.03471 6.76391L7.02084 5.01135V8.3723Z" fill="url(#paint23_linear_1179_19998)"/>
<path d="M7.02147 5.01001L7.00599 8.35281L3.81055 7.34265L6.99744 8.37977L5.03693 11.1171L7.02067 8.39953L9.00574 11.1171L7.04523 8.38111L10.2321 7.34265L7.03615 8.35334L7.02147 5.01001Z" fill="url(#paint24_linear_1179_19998)"/>
<path style="mix-blend-mode:screen" d="M13.7044 4.25986L7.34391 0.587636C7.24425 0.530066 7.13118 0.499756 7.01609 0.499756C6.90099 0.499756 6.78793 0.530066 6.68827 0.587636L0.32782 4.25986C0.22813 4.31738 0.145348 4.40015 0.0878005 4.49982C0.0302533 4.5995 -2.89989e-05 4.71257 2.08378e-08 4.82767V12.1721C-9.19762e-06 12.2872 0.0302839 12.4002 0.0878314 12.4998C0.145379 12.5995 0.228151 12.6822 0.32782 12.7397L6.68827 16.4119C6.78793 16.4694 6.90099 16.4998 7.01609 16.4998C7.13118 16.4998 7.24425 16.4694 7.34391 16.4119L13.7044 12.7397C13.804 12.6822 13.8868 12.5995 13.9443 12.4998C14.0019 12.4002 14.0322 12.2872 14.0322 12.1721V4.82767C14.0322 4.71257 14.0019 4.5995 13.9444 4.49982C13.8868 4.40015 13.804 4.31738 13.7044 4.25986Z" fill="url(#paint25_linear_1179_19998)"/>
<defs>
<linearGradient id="paint0_linear_1179_19998" x1="5.92051" y1="1.25609" x2="8.17707" y2="16.1772" gradientUnits="userSpaceOnUse">
<stop stop-color="#FFA06C"/>
<stop offset="0.71" stop-color="#FF693D"/>
<stop offset="1" stop-color="#FF923D"/>
</linearGradient>
<linearGradient id="paint1_linear_1179_19998" x1="5.98187" y1="1.65544" x2="8.11377" y2="15.7536" gradientUnits="userSpaceOnUse">
<stop stop-color="#FFA23D"/>
<stop offset="1" stop-color="#FFBC3D"/>
</linearGradient>
<linearGradient id="paint2_linear_1179_19998" x1="5.99701" y1="1.75549" x2="8.09794" y2="15.6478" gradientUnits="userSpaceOnUse">
<stop stop-color="#FF7D3D"/>
<stop offset="0.7" stop-color="#FF543D"/>
<stop offset="1" stop-color="#FF703D"/>
</linearGradient>
<linearGradient id="paint3_linear_1179_19998" x1="0.707406" y1="4.94029" x2="0.925774" y2="12.1099" gradientUnits="userSpaceOnUse">
<stop stop-color="#FF343D"/>
<stop offset="0.7" stop-color="#FF523F"/>
<stop offset="1" stop-color="#FF913F"/>
</linearGradient>
<linearGradient id="paint4_linear_1179_19998" x1="3.48079" y1="11.7431" x2="4.17541" y2="16.336" gradientUnits="userSpaceOnUse">
<stop stop-color="#FFB33D"/>
<stop offset="1" stop-color="#FF703D"/>
</linearGradient>
<linearGradient id="paint5_linear_1179_19998" x1="6.94258" y1="15.6578" x2="13.2021" y2="12.1276" gradientUnits="userSpaceOnUse">
<stop stop-color="#FFE0D1"/>
<stop offset="0.24" stop-color="#FFB33D"/>
<stop offset="1" stop-color="#FF813D"/>
</linearGradient>
<linearGradient id="paint6_linear_1179_19998" x1="12.7294" y1="5.16259" x2="13.7804" y2="12.1133" gradientUnits="userSpaceOnUse">
<stop stop-color="#FF5A3D"/>
<stop offset="0.77" stop-color="#FF5E3D"/>
<stop offset="1" stop-color="#FFA73D"/>
</linearGradient>
<linearGradient id="paint7_linear_1179_19998" x1="9.87904" y1="0.796853" x2="10.5734" y2="5.3898" gradientUnits="userSpaceOnUse">
<stop stop-color="#FF4A3D"/>
<stop offset="0.22" stop-color="#FF233D"/>
<stop offset="1" stop-color="#FF523F"/>
</linearGradient>
<linearGradient id="paint8_linear_1179_19998" x1="0.562437" y1="3.06266" x2="7.02566" y2="3.06266" gradientUnits="userSpaceOnUse">
<stop stop-color="#FF523F"/>
<stop offset="1" stop-color="#FF1D3D"/>
</linearGradient>
<linearGradient id="paint9_linear_1179_19998" x1="6.26046" y1="2.74257" x2="7.78904" y2="14.3882" gradientUnits="userSpaceOnUse">
<stop stop-color="#FFCC94"/>
<stop offset="0.73" stop-color="#FF693D"/>
<stop offset="0.83" stop-color="#FF743D"/>
<stop offset="1" stop-color="#FF923D"/>
</linearGradient>
<linearGradient id="paint10_linear_1179_19998" x1="6.92812" y1="10.8067" x2="7.41317" y2="14.5019" gradientUnits="userSpaceOnUse">
<stop offset="0.26" stop-color="#FF5E3D"/>
<stop offset="1" stop-color="#FF1D3D"/>
</linearGradient>
<linearGradient id="paint11_linear_1179_19998" x1="5.86152" y1="2.03962" x2="8.15412" y2="14.8681" gradientUnits="userSpaceOnUse">
<stop stop-color="#AE1543"/>
<stop offset="0.67" stop-color="#B71C3D"/>
<stop offset="1" stop-color="#AE103F"/>
</linearGradient>
<linearGradient id="paint12_linear_1179_19998" x1="6.62325" y1="2.53968" x2="7.11125" y2="6.25782" gradientUnits="userSpaceOnUse">
<stop stop-color="#FFE7D4"/>
<stop offset="1" stop-color="#FFB554"/>
</linearGradient>
<linearGradient id="paint13_linear_1179_19998" x1="3.44337" y1="8.06369" x2="10.5996" y2="8.06369" gradientUnits="userSpaceOnUse">
<stop stop-color="#AE1543"/>
<stop offset="0.67" stop-color="#B71C3D"/>
<stop offset="1" stop-color="#AE103F"/>
</linearGradient>
<linearGradient id="paint14_linear_1179_19998" x1="3.81055" y1="7.92612" x2="7.02147" y2="7.92612" gradientUnits="userSpaceOnUse">
<stop stop-color="#FF693D"/>
<stop offset="1" stop-color="#FFCC94"/>
</linearGradient>
<linearGradient id="paint15_linear_1179_19998" x1="3.84151" y1="7.34229" x2="7.03348" y2="7.68773" gradientUnits="userSpaceOnUse">
<stop stop-color="#FFB554"/>
<stop offset="1" stop-color="#FFE7D4"/>
</linearGradient>
<linearGradient id="paint16_linear_1179_19998" x1="4.90016" y1="10.9545" x2="6.93836" y2="8.73452" gradientUnits="userSpaceOnUse">
<stop stop-color="#FF5D3F"/>
<stop offset="1" stop-color="#FF233D"/>
</linearGradient>
<linearGradient id="paint17_linear_1179_19998" x1="6.12521" y1="8.70589" x2="5.21544" y2="11.1808" gradientUnits="userSpaceOnUse">
<stop stop-color="#FF693D"/>
<stop offset="1" stop-color="#FFE194"/>
</linearGradient>
<linearGradient id="paint18_linear_1179_19998" x1="7.09599" y1="8.82341" x2="9.09841" y2="10.7468" gradientUnits="userSpaceOnUse">
<stop stop-color="#FF523F"/>
<stop offset="1" stop-color="#FF233D"/>
</linearGradient>
<linearGradient id="paint19_linear_1179_19998" x1="7.71717" y1="8.35431" x2="9.28205" y2="10.9382" gradientUnits="userSpaceOnUse">
<stop stop-color="#FF623D"/>
<stop offset="0.66" stop-color="#FF8443"/>
<stop offset="1" stop-color="#FFB943"/>
</linearGradient>
<linearGradient id="paint20_linear_1179_19998" x1="6.92645" y1="8.31438" x2="10.4564" y2="7.4046" gradientUnits="userSpaceOnUse">
<stop stop-color="#FF233D"/>
<stop offset="1" stop-color="#FF3F3F"/>
</linearGradient>
<linearGradient id="paint21_linear_1179_19998" x1="7.28951" y1="7.68757" x2="9.95931" y2="7.10748" gradientUnits="userSpaceOnUse">
<stop stop-color="#FFE194"/>
<stop offset="1" stop-color="#FF693D"/>
</linearGradient>
<linearGradient id="paint22_linear_1179_19998" x1="6.80247" y1="5.11813" x2="7.16633" y2="8.06611" gradientUnits="userSpaceOnUse">
<stop stop-color="#FF693D"/>
<stop offset="1" stop-color="#FFA06C"/>
</linearGradient>
<linearGradient id="paint23_linear_1179_19998" x1="6.71358" y1="4.81434" x2="6.42233" y2="8.23509" gradientUnits="userSpaceOnUse">
<stop offset="0.21" stop-color="#FFE5D4"/>
<stop offset="1" stop-color="#FF693D"/>
</linearGradient>
<linearGradient id="paint24_linear_1179_19998" x1="6.67657" y1="6.19395" x2="7.95901" y2="10.4671" gradientUnits="userSpaceOnUse">
<stop stop-color="#FFF0C7"/>
<stop offset="0.69" stop-color="#FFC23D"/>
<stop offset="1" stop-color="#FF963D"/>
</linearGradient>
<linearGradient id="paint25_linear_1179_19998" x1="5.86952" y1="0.917591" x2="6.83429" y2="7.29726" gradientUnits="userSpaceOnUse">
<stop stop-color="#FF9999"/>
<stop offset="0.17" stop-color="#C67777"/>
<stop offset="0.4" stop-color="#814D4D"/>
<stop offset="0.6" stop-color="#492C2C"/>
<stop offset="0.78" stop-color="#211414"/>
<stop offset="0.92" stop-color="#090505"/>
<stop offset="1"/>
</linearGradient>
</defs>
</svg>
