<svg width="40" height="40" viewBox="0 0 40 40" fill="none" xmlns="http://www.w3.org/2000/svg">
<g clip-path="url(#clip0_315_651)">
<path d="M39.0195 24.7788C36.3969 35.2984 25.7423 41.7004 15.2215 39.0772C4.70504 36.4546 -1.69696 25.7993 0.926764 15.2806C3.54819 4.75984 14.2028 -1.64266 24.7204 0.979921C35.2405 3.6025 41.6421 14.259 39.0192 24.779L39.0194 24.7788H39.0195Z" fill="#F7931A"/>
<path d="M28.6589 17.2022C29.0497 14.5891 27.0602 13.1844 24.3397 12.2473L25.2223 8.70755L23.0675 8.17064L22.2084 11.6172C21.6419 11.4759 21.0602 11.3428 20.482 11.2108L21.3473 7.74151L19.1939 7.20459L18.3109 10.7432C17.8421 10.6365 17.3817 10.531 16.935 10.4198L16.9375 10.4087L13.966 9.66669L13.3928 11.9681C13.3928 11.9681 14.9915 12.3346 14.9578 12.3571C15.8304 12.5749 15.9882 13.1525 15.962 13.6103L14.9567 17.643C15.0167 17.6582 15.0947 17.6803 15.1807 17.7149C15.1088 17.697 15.0323 17.6775 14.9529 17.6585L13.5438 23.3077C13.4372 23.5728 13.1665 23.9706 12.5565 23.8195C12.5781 23.8508 10.9903 23.4287 10.9903 23.4287L9.92055 25.8952L12.7246 26.5942C13.2463 26.7251 13.7575 26.8619 14.2609 26.9906L13.3692 30.571L15.5215 31.1079L16.4045 27.5656C16.9925 27.7252 17.5631 27.8724 18.1217 28.0112L17.2417 31.5369L19.3965 32.0738L20.2881 28.5001C23.9624 29.1955 26.7252 28.9151 27.8881 25.5917C28.8252 22.916 27.8415 21.3726 25.9084 20.3661C27.3164 20.0414 28.3769 19.1154 28.6596 17.2025L28.659 17.202L28.6589 17.2022ZM23.7357 24.1057C23.0698 26.7815 18.5647 25.3351 17.104 24.9724L18.2873 20.229C19.7478 20.5936 24.4317 21.3152 23.7358 24.1057H23.7357ZM24.4021 17.1635C23.7947 19.5973 20.045 18.3608 18.8286 18.0576L19.9014 13.7557C21.1178 14.0589 25.0349 14.6248 24.4023 17.1635H24.4021Z" fill="white"/>
</g>
<defs>
<clipPath id="clip0_315_651">
<rect width="39.2727" height="39.2727" fill="white" transform="translate(0.363632 0.363525)"/>
</clipPath>
</defs>
</svg>
