<svg width="24" height="25" viewBox="0 0 24 25" fill="none" xmlns="http://www.w3.org/2000/svg">
<path d="M3 10.3541C3 9.33011 3.83011 8.5 4.8541 8.5V8.5C5.55638 8.5 6.19839 8.10322 6.51246 7.47508L7.33333 5.83333C7.44329 5.61342 7.49827 5.50346 7.56062 5.40782C7.8859 4.90882 8.41668 4.58078 9.00848 4.51299C9.1219 4.5 9.24484 4.5 9.49071 4.5H14.5093C14.7552 4.5 14.8781 4.5 14.9915 4.51299C15.5833 4.58078 16.1141 4.90882 16.4394 5.40782C16.5017 5.50346 16.5567 5.61342 16.6667 5.83333L17.4875 7.47508C17.8016 8.10322 18.4436 8.5 19.1459 8.5V8.5C20.1699 8.5 21 9.33011 21 10.3541V15.3571C21 17.3619 21 18.3643 20.5402 19.0961C20.3004 19.4777 19.9777 19.8004 19.5961 20.0402C18.8643 20.5 17.8619 20.5 15.8571 20.5H8.14286C6.1381 20.5 5.13571 20.5 4.4039 20.0402C4.02229 19.8004 3.69961 19.4777 3.45983 19.0961C3 18.3643 3 17.3619 3 15.3571V10.3541Z" stroke="#222222" stroke-width="2"/>
<circle cx="12" cy="13.5" r="3" stroke="#222222" stroke-width="2"/>
</svg>
