<svg width="16" height="16" viewBox="0 0 16 16" fill="none" xmlns="http://www.w3.org/2000/svg">
<path d="M13.3331 3.93359H2.66644C1.71044 3.93359 0.933105 4.71159 0.933105 5.66693V11.6669C0.933105 12.6229 1.71111 13.4003 2.66644 13.4003H13.3331C14.2891 13.4003 15.0664 12.6223 15.0664 11.6669V5.66693C15.0664 4.71093 14.2891 3.93359 13.3331 3.93359ZM14.2664 11.6669C14.2664 12.1816 13.8471 12.6003 13.3331 12.6003H2.66644C2.15177 12.6003 1.73311 12.1816 1.73311 11.6669V7.28959H14.2664V11.6669ZM14.2664 6.48893H1.73311V5.66693C1.73311 5.15226 2.15177 4.73359 2.66644 4.73359H13.3331C13.8471 4.73359 14.2664 5.15226 14.2664 5.66693V6.48893ZM10.2664 10.9589C10.2664 10.7376 10.4458 10.5589 10.6664 10.5589H11.9998C12.2204 10.5589 12.3998 10.7383 12.3998 10.9589C12.3998 11.1796 12.2204 11.3589 11.9998 11.3589H10.6664C10.4458 11.3589 10.2664 11.1796 10.2664 10.9589Z" fill="black"/>
</svg>
