<svg width="20" height="20" viewBox="0 0 20 20" fill="none" xmlns="http://www.w3.org/2000/svg">
<path d="M4.96098 16.15L4.96099 16.15L4.98277 16.1445L4.98278 16.1445L7.17276 15.597C7.18625 15.5937 7.19971 15.5903 7.21314 15.587C7.39545 15.5417 7.5707 15.4981 7.73024 15.4078C7.88978 15.3175 8.01729 15.1896 8.14994 15.0566C8.15971 15.0468 8.1695 15.037 8.17933 15.0271L14.1626 9.04383L14.1744 9.03206L14.1744 9.03206L14.1968 9.00969C14.4554 8.75112 14.6839 8.52262 14.8434 8.31365C15.0162 8.08714 15.1542 7.82587 15.1542 7.5C15.1542 7.17413 15.0162 6.91286 14.8433 6.68635C14.6839 6.47737 14.4554 6.24886 14.1967 5.99029L14.1744 5.96794L14.0314 5.82496L14.009 5.80259C13.7505 5.54398 13.522 5.31544 13.313 5.156C13.0865 4.98318 12.8252 4.84518 12.4993 4.84518C12.1735 4.84518 11.9122 4.98318 11.6857 5.156C11.4767 5.31544 11.2482 5.54399 10.9896 5.8026L10.9673 5.82496L4.97222 11.82C4.96239 11.8299 4.95257 11.8396 4.94278 11.8494C4.80976 11.9821 4.68188 12.1096 4.59155 12.2691C4.50122 12.4287 4.45767 12.6039 4.41237 12.7862C4.40903 12.7996 4.40569 12.8131 4.40231 12.8266L3.84937 15.0384C3.84736 15.0464 3.84533 15.0545 3.84328 15.0627C3.81111 15.1911 3.77471 15.3363 3.76263 15.4598C3.74917 15.5974 3.7504 15.8468 3.95148 16.0479C4.15254 16.2489 4.40191 16.2502 4.53951 16.2367C4.66306 16.2246 4.80827 16.1882 4.93666 16.1561C4.94484 16.154 4.95295 16.152 4.96098 16.15Z" stroke="#33363F"/>
<path d="M10.416 6.25L13.7493 9.58333" stroke="#7E869E" stroke-opacity="0.25" stroke-width="0.833333"/>
</svg>
