<svg width="32" height="32" viewBox="0 0 32 32" fill="none" xmlns="http://www.w3.org/2000/svg">
<path d="M13.3335 29.3334V21.3334H9.3335L13.4002 11.0668C13.6224 10.5334 13.9668 10.1112 14.4335 9.80009C14.9002 9.48898 15.4224 9.33343 16.0002 9.33343C16.5779 9.33343 17.1002 9.48898 17.5668 9.80009C18.0335 10.1112 18.3779 10.5334 18.6002 11.0668L22.6668 21.3334H18.6668V29.3334H13.3335ZM16.0002 8.00009C15.2668 8.00009 14.6393 7.7392 14.1175 7.21743C13.5957 6.69565 13.3344 6.06765 13.3335 5.33342C13.3326 4.5992 13.5939 3.97165 14.1175 3.45076C14.6411 2.92987 15.2686 2.66853 16.0002 2.66676C16.7317 2.66498 17.3597 2.92631 17.8842 3.45076C18.4086 3.9752 18.6695 4.60276 18.6668 5.33342C18.6642 6.06409 18.4033 6.69209 17.8842 7.21743C17.3651 7.74276 16.7371 8.00365 16.0002 8.00009Z" fill="black"/>
</svg>
