<svg width="32" height="32" viewBox="0 0 32 32" fill="none" xmlns="http://www.w3.org/2000/svg">
<path d="M16.5011 6.17372C16.5011 6.17376 16.5003 6.17488 16.4987 6.17693C16.5003 6.17471 16.5011 6.17368 16.5011 6.17372ZM14.6333 5.76234C14.6333 5.7623 14.6336 5.76357 14.6341 5.76626C14.6335 5.76372 14.6333 5.76238 14.6333 5.76234ZM15.5002 25.8263C15.5002 25.8262 15.501 25.8251 15.5026 25.8231C15.501 25.8253 15.5002 25.8263 15.5002 25.8263ZM17.368 26.2377C17.368 26.2377 17.3677 26.2364 17.3672 26.2337C17.3678 26.2363 17.368 26.2376 17.368 26.2377ZM13.5071 19.7333H14.6673V24.9732L14.6673 25.044C14.6672 25.5761 14.6672 26.0823 14.7077 26.4589C14.7281 26.6492 14.7698 26.9343 14.8937 27.2115C15.031 27.5187 15.351 27.9767 15.9755 28.1142C16.6 28.2518 17.0828 27.9706 17.3364 27.7495C17.5653 27.55 17.7229 27.3088 17.8214 27.1447C18.0164 26.82 18.229 26.3606 18.4525 25.8777C18.4624 25.8563 18.4723 25.8349 18.4823 25.8134L22.124 17.9472C22.1371 17.919 22.1501 17.8909 22.1631 17.8628C22.5239 17.0837 22.8552 16.3683 23.0315 15.7695C23.2206 15.1272 23.3338 14.2893 22.8278 13.4974C22.3218 12.7056 21.5139 12.4562 20.8516 12.358C20.2341 12.2664 19.4457 12.2665 18.5871 12.2667C18.5562 12.2667 18.5252 12.2667 18.4942 12.2667H17.334V7.02683C17.334 7.00319 17.334 6.97959 17.334 6.95604C17.3341 6.42386 17.3341 5.91774 17.2936 5.54106C17.2732 5.35076 17.2315 5.06573 17.1076 4.78851C16.9703 4.48131 16.6503 4.02332 16.0258 3.88576C15.4013 3.74821 14.9185 4.02941 14.6649 4.2505C14.436 4.45002 14.2784 4.69116 14.1799 4.85525C13.9849 5.18005 13.7723 5.63937 13.5488 6.12234C13.5389 6.14371 13.529 6.16513 13.5191 6.18659L9.87727 14.0528C9.86422 14.081 9.8512 14.1091 9.83822 14.1372C9.47739 14.9163 9.14607 15.6317 8.96975 16.2305C8.78066 16.8728 8.66748 17.7107 9.17349 18.5026C9.6795 19.2944 10.4874 19.5438 11.1497 19.642C11.7672 19.7336 12.5556 19.7335 13.4142 19.7333C13.4451 19.7333 13.4761 19.7333 13.5071 19.7333Z" stroke="#33363F" stroke-width="2.66667"/>
</svg>
