<svg width="24" height="25" viewBox="0 0 24 25" fill="none" xmlns="http://www.w3.org/2000/svg">
<path d="M8 3.5H6C4.58579 3.5 3.87868 3.5 3.43934 3.93934C3 4.37868 3 5.08579 3 6.5V8.5" stroke="#33363F" stroke-width="2" stroke-linecap="round"/>
<path d="M8 21.5H6C4.58579 21.5 3.87868 21.5 3.43934 21.0607C3 20.6213 3 19.9142 3 18.5V16.5" stroke="#33363F" stroke-width="2" stroke-linecap="round"/>
<path d="M16 3.5H18C19.4142 3.5 20.1213 3.5 20.5607 3.93934C21 4.37868 21 5.08579 21 6.5V8.5" stroke="#33363F" stroke-width="2" stroke-linecap="round"/>
<path d="M16 21.5H18C19.4142 21.5 20.1213 21.5 20.5607 21.0607C21 20.6213 21 19.9142 21 18.5V16.5" stroke="#33363F" stroke-width="2" stroke-linecap="round"/>
</svg>
