<svg width="63" height="72" viewBox="0 0 63 72" fill="none" xmlns="http://www.w3.org/2000/svg">
<path d="M61.544 16.7113L33.2805 0.390598C32.8378 0.134721 32.3355 0 31.8242 0C31.3128 0 30.8105 0.134721 30.3678 0.390598L2.09367 16.7113C1.65062 16.967 1.28269 17.3348 1.02693 17.7778C0.771172 18.2208 0.63659 18.7233 0.636719 19.2349V51.8763C0.636678 52.3877 0.771315 52.89 1.02708 53.3328C1.28284 53.7756 1.65071 54.1432 2.09367 54.3987L30.3619 70.7194C30.8046 70.9753 31.3069 71.11 31.8182 71.11C32.3296 71.11 32.8319 70.9753 33.2746 70.7194L61.544 54.3987C61.9866 54.143 62.3542 53.7753 62.6097 53.3325C62.8653 52.8897 62.9998 52.3875 62.9997 51.8763V19.2349C62.9997 18.7235 62.8652 18.2211 62.6097 17.7782C62.3542 17.3352 61.9866 16.9673 61.544 16.7113Z" fill="url(#paint0_linear_1179_16975)"/>
<path d="M31.8187 69.1701C31.6483 69.1703 31.4808 69.1253 31.3335 69.0396L3.0629 52.7177C2.91551 52.6321 2.79312 52.5095 2.70797 52.3619C2.62282 52.2142 2.57787 52.0469 2.57764 51.8765V19.235C2.5779 19.0645 2.62285 18.897 2.70798 18.7492C2.79312 18.6014 2.91549 18.4785 3.0629 18.3927L31.3323 2.07196C31.4799 1.98644 31.6475 1.94141 31.8181 1.94141C31.9888 1.94141 32.1563 1.98644 32.304 2.07196L60.5686 18.3903C60.7162 18.476 60.8387 18.5989 60.924 18.7467C61.0094 18.8945 61.0546 19.062 61.0551 19.2327V51.8765C61.0546 52.047 61.0094 52.2144 60.9241 52.362C60.8387 52.5096 60.7162 52.6322 60.5686 52.7177L32.304 69.0384C32.1566 69.1242 31.9892 69.1696 31.8187 69.1701Z" fill="url(#paint1_linear_1179_16975)"/>
<path d="M60.3314 18.8127L32.0608 2.49201C31.9886 2.45018 31.9069 2.4277 31.8235 2.42676C31.7377 2.42685 31.6535 2.44935 31.5791 2.49201L3.30615 18.8127C3.23323 18.8563 3.17296 18.9183 3.13134 18.9924C3.08972 19.0664 3.06818 19.1501 3.06886 19.2351V51.8765C3.06866 51.9619 3.09119 52.0459 3.13412 52.1197C3.17635 52.194 3.23783 52.2555 3.31209 52.2977L31.5815 68.6196C31.6555 68.662 31.7394 68.6842 31.8247 68.6842C31.91 68.6842 31.9939 68.662 32.0679 68.6196L60.3314 52.2977C60.3975 52.2602 60.4537 52.2073 60.4951 52.1435C60.5473 52.0642 60.5753 51.9714 60.5758 51.8765V19.2351C60.5761 19.1494 60.5536 19.0651 60.5107 18.9909C60.4678 18.9167 60.4059 18.8552 60.3314 18.8127ZM58.1483 50.7565L31.8188 65.9584L5.48802 50.7565V20.3539L31.8188 5.1532L58.1483 20.3539V50.7565Z" fill="url(#paint2_linear_1179_16975)"/>
<path d="M5.48808 50.7562V20.3536C5.48808 20.3536 3.17333 18.9144 3.1318 18.9844C3.08638 19.06 3.06259 19.1466 3.06299 19.2347V51.8762C3.06279 51.9616 3.08531 52.0455 3.12824 52.1194C3.16976 52.1918 5.48808 50.7562 5.48808 50.7562Z" fill="url(#paint3_linear_1179_16975)"/>
<path d="M31.8186 65.9582L5.48784 50.7563C5.48784 50.7563 3.08529 52.046 3.128 52.1196C3.17023 52.1938 3.23171 52.2553 3.30597 52.2975L31.5754 68.6194C31.6476 68.6609 31.7294 68.6829 31.8126 68.6835C31.9028 68.6835 31.8186 65.9582 31.8186 65.9582Z" fill="url(#paint4_linear_1179_16975)"/>
<path d="M58.1483 50.7563L31.8187 65.9582C31.8187 65.9582 31.7333 68.6871 31.8187 68.6871C31.9022 68.6866 31.984 68.6641 32.056 68.6218L60.3313 52.2975C60.3975 52.26 60.4536 52.2071 60.4951 52.1433C60.5449 52.065 58.1483 50.7563 58.1483 50.7563Z" fill="url(#paint5_linear_1179_16975)"/>
<path d="M60.494 52.1432C60.5462 52.0639 60.5743 51.9712 60.5747 51.8763V19.2348C60.5744 19.1491 60.5519 19.0649 60.5095 18.9904C60.4668 18.9181 58.1484 20.3537 58.1484 20.3537V50.7563C58.1484 50.7563 60.4501 52.2037 60.494 52.1432Z" fill="url(#paint6_linear_1179_16975)"/>
<path d="M31.8187 5.1532L58.1482 20.3539C58.1482 20.3539 60.5508 19.0643 60.5092 18.9907C60.4659 18.9169 60.4042 18.8556 60.3301 18.8127L32.0607 2.49201C31.9885 2.45018 31.9068 2.4277 31.8234 2.42676C31.738 2.42676 31.8187 5.1532 31.8187 5.1532Z" fill="url(#paint7_linear_1179_16975)"/>
<path d="M5.48825 20.3538L31.819 5.15314C31.819 5.15314 31.9032 2.42432 31.819 2.42432C31.7332 2.42441 31.649 2.4469 31.5746 2.48957L3.30638 18.8127C3.23449 18.8541 3.17444 18.9134 3.13197 18.9847C3.08689 19.0594 5.48825 20.3538 5.48825 20.3538Z" fill="url(#paint8_linear_1179_16975)"/>
<path d="M8.39941 49.0751V22.0349L31.8186 8.51416L55.2366 22.0349V49.0751L31.8186 62.5958L8.39941 49.0751Z" fill="url(#paint9_linear_1179_16975)"/>
<path d="M8.39941 48.5093V49.0752L31.8186 62.5959L55.2366 49.0752V48.5093L31.8186 62.03L8.39941 48.5093Z" fill="url(#paint10_linear_1179_16975)"/>
<path d="M31.819 5.15283L5.48828 20.3535V50.7562L31.819 65.9581L58.1486 50.7562V20.3535L31.819 5.15283ZM55.237 49.075L31.819 62.6004L8.39982 49.075V22.0347L31.819 8.50928L55.237 22.0347V49.075Z" fill="#912600"/>
<path d="M6.0708 50.4243V20.6908L31.8166 5.82471L57.5624 20.6908V50.4243L31.8166 65.2892L6.0708 50.4243ZM7.81843 21.7029V49.4111L31.819 63.2687L55.8231 49.4111V21.6993L31.819 7.84166L7.81843 21.7029Z" fill="url(#paint11_linear_1179_16975)"/>
<path d="M31.8186 8.51416L8.39941 22.0349V22.7076L31.8186 9.18687L55.2366 22.7076V22.0349L31.8186 8.51416Z" fill="url(#paint12_linear_1179_16975)"/>
<path d="M41.0076 49.3755C40.7704 49.3754 40.5361 49.324 40.3207 49.2248L31.8412 45.3345L23.3605 49.2248C23.0943 49.3468 22.8004 49.3958 22.509 49.3667C22.2176 49.3376 21.9393 49.2315 21.7024 49.0592C21.4656 48.887 21.2789 48.6549 21.1614 48.3867C21.0439 48.1185 20.9999 47.8238 21.0338 47.533L22.1123 38.2669L15.7933 31.4033C15.5945 31.1882 15.4566 30.9241 15.3938 30.6381C15.331 30.3521 15.3456 30.0545 15.4359 29.7759C15.5263 29.4974 15.6893 29.248 15.9081 29.0533C16.1269 28.8587 16.3936 28.7259 16.6808 28.6685L25.8283 26.8295L30.4032 18.7C30.5466 18.445 30.7554 18.2327 31.008 18.085C31.2606 17.9372 31.5479 17.8594 31.8406 17.8594C32.1332 17.8594 32.4205 17.9372 32.6731 18.085C32.9257 18.2327 33.1345 18.445 33.2779 18.7L37.8517 26.8319L46.9992 28.6697C47.2862 28.7274 47.5528 28.8605 47.7714 29.0552C47.9901 29.25 48.153 29.4994 48.2434 29.7779C48.3339 30.0563 48.3486 30.3539 48.2861 30.6399C48.2236 30.926 48.0862 31.1903 47.8878 31.4057L41.5688 38.268L42.6473 47.5342C42.6742 47.7655 42.6519 48 42.5818 48.2221C42.5117 48.4443 42.3954 48.6491 42.2406 48.8231C42.0857 48.9971 41.8958 49.1364 41.6833 49.2318C41.4708 49.3272 41.2406 49.3766 41.0076 49.3767V49.3755Z" fill="#912600"/>
<path d="M41.0079 48.7928C40.8538 48.7924 40.7017 48.7588 40.5618 48.6944L31.8414 44.6937L23.1187 48.6955C22.9103 48.7912 22.6766 48.8173 22.4522 48.7698C22.2279 48.7224 22.0248 48.604 21.8729 48.4321C21.7735 48.3198 21.6989 48.1878 21.6539 48.0447C21.609 47.9016 21.5946 47.7506 21.6119 47.6016L22.7224 38.0697L16.2219 31.0104C16.0936 30.8711 16.0046 30.7002 15.9641 30.5151C15.9236 30.3301 15.9331 30.1376 15.9916 29.9575C16.05 29.7773 16.1553 29.6159 16.2967 29.4899C16.4381 29.3639 16.6105 29.2777 16.7961 29.2402L26.2046 27.349L30.9077 18.9834C31.0006 18.8183 31.1357 18.6808 31.2993 18.5851C31.4629 18.4894 31.6489 18.439 31.8384 18.439C32.0279 18.439 32.214 18.4894 32.3776 18.5851C32.5412 18.6808 32.6763 18.8183 32.7692 18.9834L37.4735 27.3479L46.8831 29.2379C47.0689 29.2752 47.2414 29.3612 47.3829 29.4872C47.5245 29.6131 47.6299 29.7745 47.6885 29.9547C47.7471 30.1349 47.7567 30.3274 47.7162 30.5125C47.6758 30.6976 47.5869 30.8687 47.4586 31.008L40.9569 38.0674L42.0662 47.5993C42.0838 47.749 42.0694 47.9007 42.0242 48.0445C41.9789 48.1883 41.9037 48.3209 41.8035 48.4335C41.7033 48.5462 41.5804 48.6363 41.4428 48.698C41.3053 48.7598 41.1563 48.7917 41.0055 48.7916L41.0079 48.7928Z" fill="url(#paint13_linear_1179_16975)"/>
<path d="M23.9954 37.6317C23.9226 37.3937 23.7973 37.1752 23.6288 36.9922L17.5708 30.4121L26.341 28.6503C26.5725 28.6039 26.7914 28.5084 26.9829 28.3703C27.1751 28.2315 31.8402 34.9883 31.8402 34.9883C31.8402 34.9883 24.0606 37.8476 23.9954 37.6317Z" fill="url(#paint14_linear_1179_16975)"/>
<path d="M17.5708 30.4121L26.341 28.6503C26.5725 28.6039 26.7914 28.5084 26.9829 28.3703C27.1751 28.2315 31.8402 34.9883 31.8402 34.9883L17.5708 30.4121Z" fill="url(#paint15_linear_1179_16975)"/>
<path d="M31.8403 43.3054C31.6032 43.3049 31.3688 43.3559 31.1534 43.4549L23.0215 47.1839L24.0549 38.2986C24.0818 38.0735 24.0616 37.8452 23.9955 37.6283C23.9232 37.391 31.8403 34.9849 31.8403 34.9849C31.8403 34.9849 32.08 43.3054 31.8403 43.3054Z" fill="url(#paint16_linear_1179_16975)"/>
<path d="M23.0215 47.1873L24.0549 38.302C24.0818 38.0769 24.0616 37.8486 23.9955 37.6317C23.9232 37.3944 31.8403 34.9883 31.8403 34.9883L23.0215 47.1873Z" fill="url(#paint17_linear_1179_16975)"/>
<path d="M32.5285 43.4583C32.3126 43.3591 32.0778 43.3081 31.8403 43.3088C31.603 43.3088 31.8403 34.9883 31.8403 34.9883C31.8403 34.9883 39.7693 37.3766 39.6969 37.5985C39.6228 37.8247 39.5985 38.0643 39.6258 38.3008L40.6603 47.1861L32.5285 43.4583Z" fill="url(#paint18_linear_1179_16975)"/>
<path d="M31.8403 34.9883C31.8403 34.9883 39.7693 37.3766 39.697 37.5985C39.6228 37.8247 39.5985 38.0643 39.6258 38.3008L40.6603 47.1861L31.8403 34.9883Z" fill="url(#paint19_linear_1179_16975)"/>
<path d="M31.8403 34.9883C31.8403 34.9883 36.5054 28.2256 36.6953 28.3679C36.8879 28.5075 37.1085 28.6039 37.3419 28.6503L46.1109 30.4122L40.0517 36.9946C39.8905 37.168 39.7691 37.3745 39.6958 37.5997C39.6234 37.8227 31.8403 34.9883 31.8403 34.9883Z" fill="url(#paint20_linear_1179_16975)"/>
<path d="M31.8403 34.9883C31.8403 34.9883 36.5054 28.2256 36.6953 28.3679C36.8879 28.5075 37.1085 28.6039 37.3419 28.6503L46.1109 30.4122L31.8403 34.9883Z" fill="url(#paint21_linear_1179_16975)"/>
<path d="M31.84 34.9887C31.84 34.9887 26.7941 28.5071 26.9827 28.3707C27.1776 28.2305 27.3395 28.0495 27.4573 27.8403L31.8471 20.0454L36.237 27.8415C36.3531 28.0487 36.5125 28.2284 36.7044 28.3683C36.8847 28.5059 31.84 34.9887 31.84 34.9887Z" fill="url(#paint22_linear_1179_16975)"/>
<path d="M31.84 34.9887C31.84 34.9887 26.7941 28.5071 26.9827 28.3707C27.1776 28.2305 27.3395 28.0495 27.4573 27.8403L31.8471 20.0454L31.84 34.9887Z" fill="url(#paint23_linear_1179_16975)"/>
<path d="M31.8402 20.0454L31.7725 34.9021L17.5708 30.4126L31.7346 35.0219L23.0213 47.1877L31.8378 35.1097L40.6602 47.1877L31.9469 35.0278L46.1107 30.4126L31.9066 34.9044L31.8402 20.0454Z" fill="url(#paint24_linear_1179_16975)"/>
<path style="mix-blend-mode:screen" d="M61.544 16.7113L33.2805 0.390598C32.8378 0.134721 32.3355 0 31.8242 0C31.3128 0 30.8105 0.134721 30.3678 0.390598L2.09367 16.7113C1.65062 16.967 1.28269 17.3348 1.02693 17.7778C0.771172 18.2208 0.63659 18.7233 0.636719 19.2349V51.8763C0.636678 52.3877 0.771315 52.89 1.02708 53.3328C1.28284 53.7756 1.65071 54.1432 2.09367 54.3987L30.3619 70.7194C30.8046 70.9753 31.3069 71.11 31.8182 71.11C32.3296 71.11 32.8319 70.9753 33.2746 70.7194L61.544 54.3987C61.9866 54.143 62.3542 53.7753 62.6097 53.3325C62.8653 52.8897 62.9998 52.3875 62.9997 51.8763V19.2349C62.9997 18.7235 62.8652 18.2211 62.6097 17.7782C62.3542 17.3352 61.9866 16.9673 61.544 16.7113Z" fill="url(#paint25_linear_1179_16975)"/>
<defs>
<linearGradient id="paint0_linear_1179_16975" x1="26.9497" y1="3.36145" x2="36.9787" y2="69.6765" gradientUnits="userSpaceOnUse">
<stop stop-color="#FFCA46"/>
<stop offset="0.71" stop-color="#FFA300"/>
<stop offset="1" stop-color="#FFC800"/>
</linearGradient>
<linearGradient id="paint1_linear_1179_16975" x1="27.2189" y1="5.13654" x2="36.6938" y2="67.7938" gradientUnits="userSpaceOnUse">
<stop stop-color="#FFD500"/>
<stop offset="1" stop-color="#FFEA00"/>
</linearGradient>
<linearGradient id="paint2_linear_1179_16975" x1="27.2854" y1="5.58151" x2="36.6227" y2="67.324" gradientUnits="userSpaceOnUse">
<stop stop-color="#FFB600"/>
<stop offset="0.7" stop-color="#FF8C00"/>
<stop offset="1" stop-color="#FFAA00"/>
</linearGradient>
<linearGradient id="paint3_linear_1179_16975" x1="3.77604" y1="19.7354" x2="4.74656" y2="51.5997" gradientUnits="userSpaceOnUse">
<stop stop-color="#FF6A00"/>
<stop offset="0.7" stop-color="#FF8512"/>
<stop offset="1" stop-color="#FFC412"/>
</linearGradient>
<linearGradient id="paint4_linear_1179_16975" x1="16.1018" y1="49.9697" x2="19.1877" y2="70.3825" gradientUnits="userSpaceOnUse">
<stop stop-color="#FFE100"/>
<stop offset="1" stop-color="#FFAA00"/>
</linearGradient>
<linearGradient id="paint5_linear_1179_16975" x1="31.4865" y1="67.3677" x2="59.3062" y2="51.6782" gradientUnits="userSpaceOnUse">
<stop stop-color="#FFF896"/>
<stop offset="0.24" stop-color="#FFE100"/>
<stop offset="1" stop-color="#FFBB00"/>
</linearGradient>
<linearGradient id="paint6_linear_1179_16975" x1="57.2064" y1="20.7238" x2="61.8774" y2="51.6153" gradientUnits="userSpaceOnUse">
<stop stop-color="#FF9100"/>
<stop offset="0.77" stop-color="#FF9500"/>
<stop offset="1" stop-color="#FFD900"/>
</linearGradient>
<linearGradient id="paint7_linear_1179_16975" x1="44.5373" y1="1.32099" x2="47.6245" y2="21.7338" gradientUnits="userSpaceOnUse">
<stop stop-color="#FF8000"/>
<stop offset="0.22" stop-color="#FF5700"/>
<stop offset="1" stop-color="#FF8512"/>
</linearGradient>
<linearGradient id="paint8_linear_1179_16975" x1="3.13079" y1="11.3903" x2="31.857" y2="11.3903" gradientUnits="userSpaceOnUse">
<stop stop-color="#FF8512"/>
<stop offset="1" stop-color="#F55400"/>
</linearGradient>
<linearGradient id="paint9_linear_1179_16975" x1="28.4598" y1="9.96874" x2="35.2534" y2="61.7261" gradientUnits="userSpaceOnUse">
<stop stop-color="#FFE96A"/>
<stop offset="0.73" stop-color="#FFA300"/>
<stop offset="0.83" stop-color="#FFAE00"/>
<stop offset="1" stop-color="#FFC800"/>
</linearGradient>
<linearGradient id="paint10_linear_1179_16975" x1="31.4259" y1="45.8089" x2="33.5817" y2="62.2317" gradientUnits="userSpaceOnUse">
<stop offset="0.26" stop-color="#FF9500"/>
<stop offset="1" stop-color="#FF5500"/>
</linearGradient>
<linearGradient id="paint11_linear_1179_16975" x1="26.6864" y1="6.84386" x2="36.8768" y2="63.8584" gradientUnits="userSpaceOnUse">
<stop stop-color="#A13C1A"/>
<stop offset="0.67" stop-color="#A94A00"/>
<stop offset="1" stop-color="#A13915"/>
</linearGradient>
<linearGradient id="paint12_linear_1179_16975" x1="30.0722" y1="9.06704" x2="32.241" y2="25.5918" gradientUnits="userSpaceOnUse">
<stop stop-color="#FFFFAE"/>
<stop offset="1" stop-color="#FFDD37"/>
</linearGradient>
<linearGradient id="paint13_linear_1179_16975" x1="15.9383" y1="33.617" x2="47.7421" y2="33.617" gradientUnits="userSpaceOnUse">
<stop stop-color="#A13C1A"/>
<stop offset="0.67" stop-color="#A94A00"/>
<stop offset="1" stop-color="#A13915"/>
</linearGradient>
<linearGradient id="paint14_linear_1179_16975" x1="17.5708" y1="33.0057" x2="31.8402" y2="33.0057" gradientUnits="userSpaceOnUse">
<stop stop-color="#FFA300"/>
<stop offset="1" stop-color="#FFE96A"/>
</linearGradient>
<linearGradient id="paint15_linear_1179_16975" x1="17.7084" y1="30.411" x2="31.8947" y2="31.9462" gradientUnits="userSpaceOnUse">
<stop stop-color="#FFDD37"/>
<stop offset="1" stop-color="#FFFFAE"/>
</linearGradient>
<linearGradient id="paint16_linear_1179_16975" x1="22.4117" y1="46.4649" x2="31.4701" y2="36.5984" gradientUnits="userSpaceOnUse">
<stop stop-color="#FF9212"/>
<stop offset="1" stop-color="#FF5700"/>
</linearGradient>
<linearGradient id="paint17_linear_1179_16975" x1="27.8574" y1="36.4713" x2="23.814" y2="47.4709" gradientUnits="userSpaceOnUse">
<stop stop-color="#FFA300"/>
<stop offset="1" stop-color="#FFFF6A"/>
</linearGradient>
<linearGradient id="paint18_linear_1179_16975" x1="32.1702" y1="36.9934" x2="41.0697" y2="45.5417" gradientUnits="userSpaceOnUse">
<stop stop-color="#FF8512"/>
<stop offset="1" stop-color="#FF5700"/>
</linearGradient>
<linearGradient id="paint19_linear_1179_16975" x1="34.9322" y1="34.9088" x2="41.8871" y2="46.3924" gradientUnits="userSpaceOnUse">
<stop stop-color="#FF9B00"/>
<stop offset="0.66" stop-color="#FFB91B"/>
<stop offset="1" stop-color="#FFE31B"/>
</linearGradient>
<linearGradient id="paint20_linear_1179_16975" x1="31.4168" y1="34.7308" x2="47.1063" y2="30.6874" gradientUnits="userSpaceOnUse">
<stop stop-color="#FF5700"/>
<stop offset="1" stop-color="#FF7312"/>
</linearGradient>
<linearGradient id="paint21_linear_1179_16975" x1="33.0315" y1="31.9451" x2="44.896" y2="29.3669" gradientUnits="userSpaceOnUse">
<stop stop-color="#FFFF6A"/>
<stop offset="1" stop-color="#FFA300"/>
</linearGradient>
<linearGradient id="paint22_linear_1179_16975" x1="30.8683" y1="20.5259" x2="32.4866" y2="33.6278" gradientUnits="userSpaceOnUse">
<stop stop-color="#FFA300"/>
<stop offset="1" stop-color="#FFCA46"/>
</linearGradient>
<linearGradient id="paint23_linear_1179_16975" x1="30.4744" y1="19.1757" x2="29.18" y2="34.3788" gradientUnits="userSpaceOnUse">
<stop offset="0.21" stop-color="#FFFF98"/>
<stop offset="1" stop-color="#FFA300"/>
</linearGradient>
<linearGradient id="paint24_linear_1179_16975" x1="30.3085" y1="25.3073" x2="36.0081" y2="44.2987" gradientUnits="userSpaceOnUse">
<stop stop-color="white"/>
<stop offset="0.69" stop-color="#FFED00"/>
<stop offset="1" stop-color="#FFCD00"/>
</linearGradient>
<linearGradient id="paint25_linear_1179_16975" x1="26.7219" y1="1.85704" x2="31.0097" y2="30.2107" gradientUnits="userSpaceOnUse">
<stop stop-color="#FFF48F"/>
<stop offset="0.17" stop-color="#C6BE6F"/>
<stop offset="0.4" stop-color="#817B48"/>
<stop offset="0.6" stop-color="#494629"/>
<stop offset="0.78" stop-color="#212013"/>
<stop offset="0.92" stop-color="#090905"/>
<stop offset="1"/>
</linearGradient>
</defs>
</svg>
