<svg width="16" height="16" viewBox="0 0 16 16" fill="none" xmlns="http://www.w3.org/2000/svg">
<path d="M13.7056 2.02344H9.39361C9.23124 2.02344 9.09961 2.15507 9.09961 2.31744C9.09961 2.47981 9.23124 2.61144 9.39361 2.61144H13.7056C13.868 2.61144 13.9996 2.47981 13.9996 2.31744C13.9996 2.15507 13.868 2.02344 13.7056 2.02344Z" fill="#B3B3B3" stroke="#B3B3B3" stroke-width="0.588"/>
<path d="M13.7056 5.55078H9.39361C9.23124 5.55078 9.09961 5.68241 9.09961 5.84478C9.09961 6.00715 9.23124 6.13878 9.39361 6.13878H13.7056C13.868 6.13878 13.9996 6.00715 13.9996 5.84478C13.9996 5.68241 13.868 5.55078 13.7056 5.55078Z" fill="#B3B3B3" stroke="#B3B3B3" stroke-width="0.588"/>
<path d="M13.7056 9.07812H9.39361C9.23124 9.07812 9.09961 9.20975 9.09961 9.37212C9.09961 9.5345 9.23124 9.66612 9.39361 9.66612H13.7056C13.868 9.66612 13.9996 9.5345 13.9996 9.37212C13.9996 9.20975 13.868 9.07812 13.7056 9.07812Z" fill="#B3B3B3" stroke="#B3B3B3" stroke-width="0.588"/>
<path d="M13.7056 12.6055H9.39361C9.23124 12.6055 9.09961 12.7371 9.09961 12.8995C9.09961 13.0618 9.23124 13.1935 9.39361 13.1935H13.7056C13.868 13.1935 13.9996 13.0618 13.9996 12.8995C13.9996 12.7371 13.868 12.6055 13.7056 12.6055Z" fill="#B3B3B3" stroke="#B3B3B3" stroke-width="0.588"/>
<mask id="mask0_1518_12013" style="mask-type:luminance" maskUnits="userSpaceOnUse" x="1" y="8" width="7" height="7">
<path d="M6.454 8.78516H2.534C2.10101 8.78516 1.75 9.13616 1.75 9.56916V13.4892C1.75 13.9221 2.10101 14.2732 2.534 14.2732H6.454C6.88699 14.2732 7.238 13.9221 7.238 13.4892V9.56916C7.238 9.13616 6.88699 8.78516 6.454 8.78516Z" fill="white"/>
</mask>
<g mask="url(#mask0_1518_12013)">
<path d="M6.454 8.78516H2.534C2.10101 8.78516 1.75 9.13616 1.75 9.56916V13.4892C1.75 13.9221 2.10101 14.2732 2.534 14.2732H6.454C6.88699 14.2732 7.238 13.9221 7.238 13.4892V9.56916C7.238 9.13616 6.88699 8.78516 6.454 8.78516Z" stroke="#B3B3B3" stroke-width="2.352"/>
</g>
<mask id="mask1_1518_12013" style="mask-type:luminance" maskUnits="userSpaceOnUse" x="1" y="1" width="7" height="7">
<path d="M6.454 1.72852H2.534C2.10101 1.72852 1.75 2.07952 1.75 2.51252V6.43252C1.75 6.86551 2.10101 7.21652 2.534 7.21652H6.454C6.88699 7.21652 7.238 6.86551 7.238 6.43252V2.51252C7.238 2.07952 6.88699 1.72852 6.454 1.72852Z" fill="white"/>
</mask>
<g mask="url(#mask1_1518_12013)">
<path d="M6.454 1.72852H2.534C2.10101 1.72852 1.75 2.07952 1.75 2.51252V6.43252C1.75 6.86551 2.10101 7.21652 2.534 7.21652H6.454C6.88699 7.21652 7.238 6.86551 7.238 6.43252V2.51252C7.238 2.07952 6.88699 1.72852 6.454 1.72852Z" stroke="#B3B3B3" stroke-width="2.352"/>
</g>
</svg>
