<svg width="24" height="24" viewBox="0 0 24 24" fill="none" xmlns="http://www.w3.org/2000/svg">
<path d="M6.95748 1.33825C6.62083 1.34625 6.29166 1.43913 6.00048 1.60825C5.77048 1.74084 5.56887 1.91746 5.40718 2.12802C5.24549 2.33857 5.12689 2.57894 5.05816 2.83536C4.98944 3.09179 4.97193 3.35925 5.00664 3.62245C5.04136 3.88564 5.12761 4.13942 5.26048 4.36925L8.49848 9.97925H2.02248C1.48634 9.97925 0.972165 10.1922 0.59306 10.5713C0.213955 10.9504 0.000976563 11.4646 0.000976562 12.0008C0.000976563 12.5369 0.213955 13.0511 0.59306 13.4302C0.972165 13.8093 1.48634 14.0223 2.02248 14.0223H8.49848L5.26048 19.6303C5.12195 19.8604 5.03069 20.1159 4.99202 20.3818C4.95334 20.6476 4.96804 20.9185 5.03524 21.1786C5.10244 21.4387 5.2208 21.6828 5.38341 21.8967C5.54601 22.1106 5.7496 22.2899 5.98229 22.4241C6.21497 22.5584 6.47208 22.645 6.7386 22.6788C7.00512 22.7126 7.27569 22.6929 7.53453 22.621C7.79337 22.549 8.03527 22.4262 8.2461 22.2597C8.45694 22.0932 8.63248 21.8864 8.76248 21.6513L12.0005 16.0453L15.2385 21.6523C15.5117 22.1062 15.9522 22.4348 16.4652 22.5674C16.9782 22.6999 17.5227 22.6258 17.9816 22.361C18.4405 22.0961 18.7772 21.6617 18.9191 21.1512C19.061 20.6407 18.9969 20.0949 18.7405 19.6313L15.5025 14.0213H21.9795C22.5078 14.0095 23.0106 13.7914 23.3801 13.4135C23.7496 13.0357 23.9565 12.5282 23.9565 11.9998C23.9565 11.4713 23.7496 10.9638 23.3801 10.586C23.0106 10.2081 22.5078 9.99001 21.9795 9.97825H15.5025L18.7405 4.37025C18.879 4.14007 18.9703 3.88459 19.0089 3.61874C19.0476 3.35288 19.0329 3.08199 18.9657 2.82188C18.8985 2.56177 18.7802 2.31766 18.6175 2.10381C18.4549 1.88996 18.2513 1.71065 18.0187 1.57637C17.786 1.44209 17.5289 1.35552 17.2624 1.32173C16.9958 1.28793 16.7253 1.30759 16.4664 1.37954C16.2076 1.4515 15.9657 1.57431 15.7549 1.74081C15.544 1.90731 15.3685 2.11415 15.2385 2.34925L12.0005 7.95525L8.76248 2.34825C8.58057 2.03286 8.31679 1.7725 7.99905 1.59471C7.68132 1.41691 7.32144 1.32831 6.95748 1.33825ZM16.9165 2.34425C17.1095 2.33125 17.3095 2.37525 17.4945 2.48225C17.611 2.54708 17.7134 2.63466 17.7954 2.73979C17.8775 2.84491 17.9376 2.96545 17.9722 3.09425C18.0068 3.22305 18.0152 3.35748 17.9969 3.48958C17.9785 3.62168 17.9338 3.74875 17.8655 3.86325L13.7525 10.9883H21.9785C22.5495 10.9883 22.9905 11.4293 22.9905 12.0003C22.9905 12.5713 22.5505 13.0123 21.9785 13.0123H14.9205L13.7525 10.9883L12.5845 8.96525L16.1145 2.85325C16.2925 2.54525 16.5945 2.36525 16.9165 2.34325V2.34425ZM6.98248 2.34825C7.34248 2.33825 7.69048 2.51425 7.88748 2.85425L11.4165 8.96425L10.2485 10.9883L9.08048 13.0123H2.02248C1.45148 13.0123 1.01048 12.5713 1.01048 12.0003C1.01048 11.4293 1.45048 10.9883 2.02248 10.9883H10.2485L6.13548 3.86325C6.06723 3.74885 6.02262 3.62191 6.0043 3.48996C5.98598 3.35801 5.99432 3.22373 6.02882 3.09506C6.06332 2.96638 6.12328 2.84594 6.20515 2.74085C6.28702 2.63577 6.38915 2.54817 6.50548 2.48325C6.65063 2.39893 6.81467 2.35251 6.98248 2.34825ZM9.66648 14.0223H14.3345L17.8655 20.1373C17.9337 20.2517 17.9783 20.3786 17.9967 20.5105C18.015 20.6425 18.0066 20.7768 17.9721 20.9055C17.9376 21.0341 17.8777 21.1546 17.7958 21.2597C17.7139 21.3647 17.6118 21.4523 17.4955 21.5173C17.381 21.5858 17.2539 21.6307 17.1217 21.6492C16.9896 21.6677 16.855 21.6594 16.7261 21.6249C16.5972 21.5904 16.4766 21.5303 16.3713 21.4483C16.2661 21.3662 16.1784 21.2639 16.1135 21.1473L12.0005 14.0253L7.88748 21.1463C7.82273 21.2629 7.73522 21.3653 7.63013 21.4475C7.52504 21.5296 7.40452 21.5899 7.27571 21.6246C7.14691 21.6593 7.01245 21.6677 6.88031 21.6495C6.74817 21.6312 6.62104 21.5866 6.50648 21.5183C6.38993 21.4534 6.28759 21.3658 6.20553 21.2607C6.12346 21.1556 6.06335 21.0351 6.02875 20.9063C5.99415 20.7775 5.98576 20.643 6.0041 20.5109C6.02243 20.3788 6.06711 20.2518 6.13548 20.1373L9.66648 14.0223Z" fill="black"/>
</svg>
