<svg width="32" height="32" viewBox="0 0 32 32" fill="none" xmlns="http://www.w3.org/2000/svg">
<g clip-path="url(#clip0_1179_3382)">
<path d="M16 32C24.8366 32 32 24.8366 32 16C32 7.16344 24.8366 0 16 0C7.16344 0 0 7.16344 0 16C0 24.8366 7.16344 32 16 32Z" fill="#F0F0F0"/>
<path d="M21.1969 11.8262H19.1035C19.1208 12.0563 19.1307 12.2884 19.1307 12.5219C19.1307 14.0696 18.7438 15.5698 18.0693 16.6377C17.8613 16.967 17.5117 17.4322 17.0437 17.7459V11.8262H14.9567V17.7459C14.4888 17.4322 14.1391 16.9671 13.931 16.6377C13.2565 15.5698 12.8697 14.0696 12.8697 12.5219C12.8697 12.2884 12.8796 12.0562 12.8968 11.8262H10.8035C10.79 12.0552 10.7827 12.287 10.7827 12.5219C10.7827 16.8129 13.0745 20.174 16.0001 20.174C18.9257 20.174 21.2175 16.8129 21.2175 12.5219C21.2176 12.287 21.2103 12.0552 21.1969 11.8262Z" fill="#D80027"/>
<path d="M6.60846 7.65219H8.6954V9.0435H10.7823V7.65219H12.8693V9.0435H14.9562V7.65219H17.0432V9.0435H19.1301V7.65219H21.217V9.0435H23.304V7.65219H25.3909V9.0435H30.412C27.8242 3.69156 22.3431 0 15.9998 0C9.65646 0 4.1754 3.69156 1.5874 9.0435H6.60846V7.65219Z" fill="#6DA544"/>
<path d="M25.3911 22.9561V24.3474H23.3042V22.9561H21.2172V24.3474H19.1303V22.9561H17.0433V24.3474H14.9564V22.9561H12.8695V24.3474H10.7825V22.9561H8.6954V24.3474H6.60847V22.9561H1.5874C4.1754 28.308 9.6564 31.9996 15.9998 31.9996C22.3432 31.9996 27.8242 28.308 30.4122 22.9561H25.3911Z" fill="#D80027"/>
</g>
<defs>
<clipPath id="clip0_1179_3382">
<rect width="32" height="32" fill="white"/>
</clipPath>
</defs>
</svg>
