<svg width="53" height="52" viewBox="0 0 53 52" fill="none" xmlns="http://www.w3.org/2000/svg">
<path fill-rule="evenodd" clip-rule="evenodd" d="M52.9998 8.75815C52.9998 3.92116 49.0786 0 44.2416 0H12.1284V25.9864V51.9729H44.2416C49.0786 51.9729 52.9998 48.0517 52.9998 43.2147V8.75815ZM44.2416 25.9864C44.2416 15.9401 36.0975 7.79593 26.0511 7.79593H12.1284V44.1769H26.0511C36.0975 44.1769 44.2416 36.0328 44.2416 25.9864Z" fill="#AFAFAF"/>
<path d="M9.68372 51.9995V10.6096H0.94043V16.8181V45.791C0.94043 49.2198 3.72006 51.9995 7.14891 51.9995H9.68372Z" fill="#AFAFAF"/>
<path d="M12.0674 10.6096H25.4701C33.8713 10.6096 40.6818 17.4201 40.6818 25.8213C40.6818 34.2224 33.8713 41.0329 25.4701 41.0329H12.0674V10.6096Z" fill="#3900FA"/>
<path d="M0.94043 5.3522C0.94043 2.39627 3.33669 0 6.29263 0H9.68372V7.78271H0.94043V5.3522Z" fill="#AFAFAF"/>
</svg>
