<svg width="65" height="74" viewBox="0 0 65 74" fill="none" xmlns="http://www.w3.org/2000/svg">
<path d="M62.8564 17.2461L33.6836 0.403072C33.2265 0.139019 32.7079 0 32.18 0C31.6521 0 31.1335 0.139019 30.6764 0.403072L1.50358 17.2461C1.04634 17.5099 0.666652 17.8895 0.402706 18.3467C0.13876 18.8039 -0.000133006 19.3225 9.55745e-08 19.8504V53.5364C-4.21858e-05 54.0641 0.1389 54.5826 0.402848 55.0395C0.666795 55.4965 1.04644 55.8759 1.50358 56.1395L30.6764 72.9825C31.1335 73.2466 31.6521 73.3856 32.18 73.3856C32.7079 73.3856 33.2265 73.2466 33.6836 72.9825L62.8564 56.1395C63.3135 55.8759 63.6932 55.4965 63.9571 55.0395C64.2211 54.5826 64.36 54.0641 64.36 53.5364V19.8504C64.3601 19.3225 64.2212 18.8039 63.9573 18.3467C63.6933 17.8895 63.3136 17.5099 62.8564 17.2461Z" fill="url(#paint0_linear_2174_40079)"/>
<path d="M32.1808 71.383C32.0049 71.3831 31.8321 71.3367 31.68 71.2484L2.50591 54.4041C2.35349 54.3161 2.22688 54.1896 2.13877 54.0372C2.05066 53.8849 2.00415 53.712 2.00391 53.536V19.85C2.00418 19.6738 2.05069 19.5008 2.13879 19.3483C2.22688 19.1957 2.35348 19.069 2.50591 18.9807L31.6788 2.13766C31.8311 2.0494 32.0041 2.00293 32.1801 2.00293C32.3562 2.00293 32.5292 2.0494 32.6815 2.13766L61.8556 18.9782C62.0079 19.0667 62.1343 19.1935 62.2224 19.346C62.3105 19.4985 62.3571 19.6714 62.3576 19.8476V53.536C62.3571 53.712 62.3105 53.8847 62.2224 54.037C62.1343 54.1894 62.0079 54.3159 61.8556 54.4041L32.6828 71.2471C32.5303 71.3357 32.3571 71.3826 32.1808 71.383Z" fill="url(#paint1_linear_2174_40079)"/>
<path d="M61.605 19.4143L32.4298 2.57125C32.3554 2.52792 32.271 2.50472 32.1849 2.50391C32.0964 2.50417 32.0095 2.52738 31.9326 2.57125L2.75491 19.4143C2.67851 19.4585 2.6151 19.5221 2.57104 19.5986C2.52699 19.6751 2.50383 19.7619 2.50391 19.8501V53.5362C2.5037 53.6243 2.52694 53.711 2.57125 53.7872C2.61483 53.8638 2.67828 53.9273 2.75491 53.9708L31.929 70.8151C32.0054 70.8587 32.092 70.8815 32.18 70.8812C32.2682 70.8818 32.3549 70.8585 32.431 70.8138L61.605 53.9708C61.6729 53.9319 61.7304 53.8773 61.7728 53.8117C61.8272 53.7301 61.8561 53.6342 61.856 53.5362V19.8501C61.8563 19.7618 61.8331 19.675 61.7891 19.5985C61.745 19.522 61.6815 19.4584 61.605 19.4143ZM59.3521 52.3803L32.18 68.0687L5.00783 52.3803V21.0048L32.18 5.3176L59.3521 21.0048V52.3803Z" fill="url(#paint2_linear_2174_40079)"/>
<path d="M5.0076 52.3811V21.0055C5.0076 21.0055 2.61754 19.5203 2.57102 19.5913C2.52466 19.6695 2.50013 19.7588 2.5 19.8497V53.5369C2.49979 53.6251 2.52304 53.7117 2.56734 53.7879C2.61387 53.8626 5.0076 52.3811 5.0076 52.3811Z" fill="url(#paint3_linear_2174_40079)"/>
<path d="M32.1796 68.0683L5.00747 52.3799C5.00747 52.3799 2.52681 53.7108 2.57089 53.7867C2.61447 53.8634 2.67792 53.9268 2.75455 53.9704L31.9286 70.8146C32.0051 70.8582 32.0916 70.881 32.1796 70.8808C32.2678 70.8808 32.1796 68.0683 32.1796 68.0683Z" fill="url(#paint4_linear_2174_40079)"/>
<path d="M59.352 52.3799L32.1798 68.0683C32.1798 68.0683 32.0916 70.8844 32.1798 70.8844C32.268 70.885 32.3547 70.8617 32.4308 70.8171L61.6049 53.9704C61.6727 53.9315 61.7302 53.8769 61.7726 53.8112C61.8326 53.7304 59.352 52.3799 59.352 52.3799Z" fill="url(#paint5_linear_2174_40079)"/>
<path d="M61.7722 53.8122C61.8266 53.7306 61.8556 53.6347 61.8555 53.5367V19.8507C61.8551 19.7622 61.8319 19.6753 61.7881 19.5984C61.7441 19.5237 59.3516 21.0053 59.3516 21.0053V52.3808C59.3516 52.3808 61.7306 53.8746 61.7722 53.8122Z" fill="url(#paint6_linear_2174_40079)"/>
<path d="M32.1803 5.3176L59.3525 21.0048C59.3525 21.0048 61.8319 19.6738 61.7891 19.5979C61.7444 19.5221 61.6812 19.4589 61.6054 19.4143L32.4301 2.57125C32.3557 2.52792 32.2713 2.50472 32.1852 2.50391C32.0922 2.50391 32.1803 5.3176 32.1803 5.3176Z" fill="url(#paint7_linear_2174_40079)"/>
<path d="M5.00741 21.0053L32.1796 5.3181C32.1796 5.3181 32.2677 2.50195 32.1796 2.50195C32.0911 2.50222 32.0042 2.52542 31.9273 2.5693L2.75449 19.4148C2.67937 19.4571 2.61618 19.5177 2.57083 19.5911C2.5292 19.6694 5.00741 21.0053 5.00741 21.0053Z" fill="url(#paint8_linear_2174_40079)"/>
<path d="M8.01367 50.6451V22.7395L32.1811 8.78613L56.3486 22.7395V50.6451L32.1811 64.5985L8.01367 50.6451Z" fill="url(#paint9_linear_2174_40079)"/>
<path fill-rule="evenodd" clip-rule="evenodd" d="M46.5254 27.1408C46.5254 24.4553 44.3484 22.2783 41.663 22.2783H23.834V36.7058V51.1332H41.663C44.3484 51.1332 46.5254 48.9562 46.5254 46.2708V27.1408ZM41.663 36.7058C41.663 31.1281 37.1414 26.6066 31.5638 26.6066H23.834V46.805H31.5638C37.1414 46.805 41.663 42.2834 41.663 36.7058Z" fill="black" fill-opacity="0.19"/>
<path d="M22.4772 51.1473V28.168H17.623V31.6149V47.7004C17.623 49.604 19.1663 51.1473 21.0699 51.1473H22.4772Z" fill="black" fill-opacity="0.19"/>
<path d="M23.8008 28.168H31.2419C35.9061 28.168 39.6873 31.9491 39.6873 36.6134C39.6873 41.2776 35.9061 45.0587 31.2419 45.0587H23.8008V28.168Z" fill="black"/>
<path d="M17.623 25.2498C17.623 23.6087 18.9534 22.2783 20.5945 22.2783H22.4772V26.5992H17.623V25.2498Z" fill="black" fill-opacity="0.19"/>
<path d="M8.01367 50.0615V50.6456L32.1811 64.599L56.3486 50.6456V50.0615L32.1811 64.0149L8.01367 50.0615Z" fill="url(#paint10_linear_2174_40079)"/>
<path d="M32.18 5.31738L5.00781 21.0045V52.3801L32.18 68.0685L59.3521 52.3801V21.0045L32.18 5.31738ZM56.3474 50.6451L32.18 64.6034L8.01252 50.6451V22.7395L32.18 8.78124L56.3474 22.7395V50.6451Z" fill="#96003D"/>
<path d="M5.60742 52.0376V21.3526L32.1772 6.01074L58.7469 21.3526V52.0376L32.1772 67.3783L5.60742 52.0376ZM7.41098 22.3934V50.992L32.1796 65.2931L56.947 50.992V22.3934L32.1796 8.09224L7.41098 22.3934Z" fill="url(#paint11_linear_2174_40079)"/>
<path d="M32.1811 8.78613L8.01367 22.7395V23.4338L32.1811 9.48037L56.3486 23.4338V22.7395L32.1811 8.78613Z" fill="url(#paint12_linear_2174_40079)"/>
<path style="mix-blend-mode:screen" d="M62.8564 17.2461L33.6836 0.403072C33.2265 0.139019 32.7079 0 32.18 0C31.6521 0 31.1335 0.139019 30.6764 0.403072L1.50358 17.2461C1.04634 17.5099 0.666652 17.8895 0.402706 18.3467C0.13876 18.8039 -0.000133006 19.3225 9.55745e-08 19.8504V53.5364C-4.21858e-05 54.0641 0.1389 54.5826 0.402848 55.0395C0.666795 55.4965 1.04644 55.8759 1.50358 56.1395L30.6764 72.9825C31.1335 73.2466 31.6521 73.3856 32.18 73.3856C32.7079 73.3856 33.2265 73.2466 33.6836 72.9825L62.8564 56.1395C63.3135 55.8759 63.6932 55.4965 63.9571 55.0395C64.2211 54.5826 64.36 54.0641 64.36 53.5364V19.8504C64.3601 19.3225 64.2212 18.8039 63.9573 18.3467C63.6933 17.8895 63.3136 17.5099 62.8564 17.2461Z" fill="url(#paint13_linear_2174_40079)"/>
<defs>
<linearGradient id="paint0_linear_2174_40079" x1="27.155" y1="3.469" x2="37.505" y2="71.9063" gradientUnits="userSpaceOnUse">
<stop stop-color="#FFA06C"/>
<stop offset="0.71" stop-color="#FF693D"/>
<stop offset="1" stop-color="#FF923D"/>
</linearGradient>
<linearGradient id="paint1_linear_2174_40079" x1="27.4337" y1="5.30031" x2="37.2119" y2="69.9627" gradientUnits="userSpaceOnUse">
<stop stop-color="#FFA23D"/>
<stop offset="1" stop-color="#FFBC3D"/>
</linearGradient>
<linearGradient id="paint2_linear_2174_40079" x1="27.5015" y1="5.75962" x2="37.1376" y2="69.478" gradientUnits="userSpaceOnUse">
<stop stop-color="#FF7D3D"/>
<stop offset="0.7" stop-color="#FF543D"/>
<stop offset="1" stop-color="#FF703D"/>
</linearGradient>
<linearGradient id="paint3_linear_2174_40079" x1="3.24077" y1="20.3676" x2="4.24234" y2="53.2516" gradientUnits="userSpaceOnUse">
<stop stop-color="#FF343D"/>
<stop offset="0.7" stop-color="#FF523F"/>
<stop offset="1" stop-color="#FF913F"/>
</linearGradient>
<linearGradient id="paint4_linear_2174_40079" x1="15.9598" y1="51.5681" x2="19.1458" y2="72.6341" gradientUnits="userSpaceOnUse">
<stop stop-color="#FFB33D"/>
<stop offset="1" stop-color="#FF703D"/>
</linearGradient>
<linearGradient id="paint5_linear_2174_40079" x1="31.837" y1="69.5229" x2="60.547" y2="53.3313" gradientUnits="userSpaceOnUse">
<stop stop-color="#FFE0D1"/>
<stop offset="0.24" stop-color="#FFB33D"/>
<stop offset="1" stop-color="#FF813D"/>
</linearGradient>
<linearGradient id="paint6_linear_2174_40079" x1="58.3794" y1="21.3873" x2="63.1999" y2="53.2673" gradientUnits="userSpaceOnUse">
<stop stop-color="#FF5A3D"/>
<stop offset="0.77" stop-color="#FF5E3D"/>
<stop offset="1" stop-color="#FFA73D"/>
</linearGradient>
<linearGradient id="paint7_linear_2174_40079" x1="45.3073" y1="1.36275" x2="48.492" y2="22.4288" gradientUnits="userSpaceOnUse">
<stop stop-color="#FF4A3D"/>
<stop offset="0.22" stop-color="#FF233D"/>
<stop offset="1" stop-color="#FF523F"/>
</linearGradient>
<linearGradient id="paint8_linear_2174_40079" x1="2.5745" y1="11.7548" x2="32.2187" y2="11.7548" gradientUnits="userSpaceOnUse">
<stop stop-color="#FF523F"/>
<stop offset="1" stop-color="#FF1D3D"/>
</linearGradient>
<linearGradient id="paint9_linear_2174_40079" x1="28.7148" y1="10.2873" x2="35.7258" y2="63.701" gradientUnits="userSpaceOnUse">
<stop stop-color="#FFCC94"/>
<stop offset="0.73" stop-color="#FF693D"/>
<stop offset="0.83" stop-color="#FF743D"/>
<stop offset="1" stop-color="#FF923D"/>
</linearGradient>
<linearGradient id="paint10_linear_2174_40079" x1="31.7771" y1="47.2748" x2="34.0018" y2="64.2231" gradientUnits="userSpaceOnUse">
<stop offset="0.26" stop-color="#FF5E3D"/>
<stop offset="1" stop-color="#FF1D3D"/>
</linearGradient>
<linearGradient id="paint11_linear_2174_40079" x1="26.884" y1="7.06251" x2="37.3993" y2="65.9016" gradientUnits="userSpaceOnUse">
<stop stop-color="#AE1543"/>
<stop offset="0.67" stop-color="#B71C3D"/>
<stop offset="1" stop-color="#AE103F"/>
</linearGradient>
<linearGradient id="paint12_linear_2174_40079" x1="30.3788" y1="9.35671" x2="32.617" y2="26.4103" gradientUnits="userSpaceOnUse">
<stop stop-color="#FFE7D4"/>
<stop offset="1" stop-color="#FFB554"/>
</linearGradient>
<linearGradient id="paint13_linear_2174_40079" x1="26.9211" y1="1.91644" x2="31.3462" y2="31.1774" gradientUnits="userSpaceOnUse">
<stop stop-color="#FF9999"/>
<stop offset="0.17" stop-color="#C67777"/>
<stop offset="0.4" stop-color="#814D4D"/>
<stop offset="0.6" stop-color="#492C2C"/>
<stop offset="0.78" stop-color="#211414"/>
<stop offset="0.92" stop-color="#090505"/>
<stop offset="1"/>
</linearGradient>
</defs>
</svg>
