<svg width="33" height="32" viewBox="0 0 33 32" fill="none" xmlns="http://www.w3.org/2000/svg">
<path d="M13.8332 29.3334V20.0001H11.1665V12.0001C11.1665 11.2668 11.4278 10.6392 11.9505 10.1174C12.4732 9.59565 13.1007 9.33431 13.8332 9.33343H19.1665C19.8998 9.33343 20.5278 9.59476 21.0505 10.1174C21.5732 10.6401 21.8341 11.2676 21.8332 12.0001V20.0001H19.1665V29.3334H13.8332ZM16.4998 8.00009C15.7665 8.00009 15.1389 7.7392 14.6172 7.21742C14.0954 6.69565 13.8341 6.06765 13.8332 5.33342C13.8323 4.5992 14.0936 3.97165 14.6172 3.45076C15.1407 2.92987 15.7683 2.66853 16.4998 2.66676C17.2314 2.66498 17.8594 2.92631 18.3838 3.45076C18.9083 3.9752 19.1692 4.60276 19.1665 5.33342C19.1638 6.06409 18.903 6.69209 18.3838 7.21742C17.8647 7.74276 17.2367 8.00365 16.4998 8.00009Z" fill="black"/>
</svg>
