<svg width="24" height="24" viewBox="0 0 24 24" fill="none" xmlns="http://www.w3.org/2000/svg">
<path fill-rule="evenodd" clip-rule="evenodd" d="M11.5921 0.128474L5.7485 3.48503L5.71584 3.50349C5.1488 3.83599 4.7683 4.44957 4.7683 5.15174V16.9738L7.9197 15.1638L7.90139 15.1227L7.9004 15.1198L7.88036 15.0723L7.86156 15.0255L7.85884 15.0186L7.84003 14.9706L7.82198 14.9224L7.82148 14.9204L7.82099 14.9199L7.80317 14.8707L7.78585 14.8202L7.78536 14.8188L7.76854 14.7688L7.75196 14.7169L7.75171 14.7159L7.75122 14.7149L7.74676 14.7004L7.74231 14.6863C7.73514 14.6622 7.72796 14.6374 7.72104 14.6128L7.72054 14.612L7.70619 14.5601L7.69209 14.5072L7.69159 14.5055V14.5047L7.68417 14.4749L7.6765 14.4454C7.66413 14.3952 7.653 14.3445 7.64236 14.2935L7.64211 14.2928L7.63148 14.2389L7.62183 14.187V14.1855L7.62133 14.1835V14.1823L7.61168 14.1289L7.60327 14.0755C7.59189 14.0012 7.58224 13.9273 7.57507 13.8542L7.57482 13.852L7.56963 13.7988L7.56492 13.7422L7.56097 13.6859L7.558 13.6322L7.55775 13.6303V13.6295L7.55503 13.5727L7.5533 13.5175V13.5163L7.55231 13.4587L7.55181 13.4021L7.55231 13.3472L7.5533 13.2926L7.55453 13.2557L7.55503 13.2451L7.55726 13.1831L7.55948 13.1452L7.56022 13.1368L7.56072 13.1304L7.56418 13.075L7.57334 12.9672L7.57878 12.9165L7.58546 12.8587L7.59164 12.8112L7.59981 12.7526L7.60748 12.7036L7.61713 12.6455L7.62554 12.5995L7.63667 12.5407L7.64607 12.4934C7.65152 12.4669 7.65523 12.4504 7.65894 12.4344L7.66859 12.3923L7.68343 12.332L7.69481 12.2872L7.70817 12.238L7.71238 12.2222L7.72178 12.1883L7.73118 12.1563L7.74132 12.1235L7.75542 12.0773L7.77002 12.0312L7.78486 11.9864L7.79105 11.969C7.79996 11.9434 7.80886 11.918 7.8195 11.8887L7.8336 11.8516L7.83385 11.8506L7.83632 11.8439C7.84177 11.8299 7.84746 11.8144 7.85686 11.7905L7.87591 11.7435L7.89422 11.6987L7.92118 11.6367L7.93702 11.6008L7.95904 11.5525L7.97932 11.509L8.00332 11.4597L8.02633 11.4142L8.05057 11.367L8.07235 11.3256L8.0862 11.3003L8.09956 11.2754L8.12232 11.2353L8.1243 11.2316C8.13172 11.2185 8.1389 11.2055 8.15077 11.1858L8.17329 11.1477L8.17353 11.1469L8.17774 11.1398L8.20273 11.0989L8.22598 11.0618L8.25963 11.0086L8.26804 10.9963L8.29624 10.9535L8.32519 10.9111C8.37442 10.839 8.42588 10.7689 8.47883 10.701L8.5147 10.6549L8.5387 10.6259L8.55527 10.6052L8.57754 10.5781L8.60055 10.5511L8.62182 10.5262L8.64162 10.5033L8.66215 10.4804L8.69011 10.4492L8.71163 10.4256L8.73316 10.4022L8.75715 10.3766L8.78165 10.3507L8.80639 10.3251L8.82346 10.3079L8.85191 10.2791L8.88061 10.2508L8.89149 10.2402L8.92093 10.2119L8.95087 10.1839L8.96645 10.1693L8.99664 10.1413L9.02781 10.1132L9.03301 10.1088L9.06715 10.0783L9.10252 10.048L9.10624 10.0448L9.10698 10.0443C9.12924 10.0251 9.15077 10.0072 9.16957 9.99189C9.18813 9.97664 9.2094 9.95965 9.23315 9.9407C9.34325 9.85382 9.45681 9.77211 9.57457 9.69631L9.57927 9.69286L9.61861 9.668L9.65769 9.64339L9.66314 9.64019L9.70173 9.61681L9.73983 9.59392L9.75146 9.58728L9.7621 9.58112L9.77298 9.57497C9.79204 9.5639 9.81009 9.55356 9.82617 9.5447L9.83879 9.53781L9.87541 9.51763L9.91277 9.49769L9.92984 9.48883L9.96843 9.46889L10.0065 9.44945L10.0127 9.4465L10.056 9.42533L10.0988 9.40466L10.1003 9.40417C10.1379 9.38645 10.176 9.36897 10.2143 9.35248C10.251 9.33648 10.2898 9.32024 10.3306 9.304C10.5308 9.22351 10.7379 9.15682 10.9506 9.10612L10.9543 9.10513L11.0013 9.09406L11.0478 9.08372L11.0558 9.082L11.1035 9.07215L11.1522 9.0628L11.155 9.06231L11.2017 9.05345L11.2495 9.04533L11.2618 9.04311L11.3079 9.03573L11.3546 9.02908L11.3606 9.02785L11.4088 9.02145L11.4561 9.0153L11.46 9.01481L11.5038 9.00915L11.5036 8.96534V4.22658C11.5036 4.14487 11.5204 4.07965 11.5478 4.03067C11.5716 3.98859 11.6035 3.95733 11.6409 3.93715C11.6787 3.91672 11.7223 3.90638 11.768 3.90638C11.8279 3.90638 11.8915 3.92386 11.9514 3.95684L19.2287 8.14158V5.15174C19.2287 4.47098 18.8704 3.87291 18.3311 3.53425L12.4152 0.136842C12.2596 0.0482391 12.1305 0.00196894 12.0006 0C11.9976 0 11.9947 0 11.9917 0C11.8645 0 11.7396 0.0425784 11.5921 0.128474ZM12.4974 8.99364L12.5424 8.99856L12.5456 8.99905L12.5966 9.0057L12.647 9.01259L12.6542 9.01407L12.7054 9.0217L12.7566 9.03007L12.7584 9.03056L12.8111 9.03991L12.8635 9.05L12.865 9.05025L12.917 9.06108L12.9702 9.0724L12.9724 9.07314L12.9872 9.07658L13.0016 9.07978C13.0266 9.08544 13.0516 9.09184 13.0765 9.09799H13.0773L13.13 9.11153L13.1829 9.12581L13.1847 9.1263L13.1851 9.12679L13.2151 9.13491L13.2443 9.14328C13.294 9.15805 13.344 9.17355 13.3935 9.1898L13.3949 9.19029L13.4467 9.20776L13.4969 9.22548L13.4981 9.22598L13.5001 9.22696L13.5011 9.22721L13.5523 9.24591L13.603 9.26511L13.6035 9.26536C13.674 9.29268 13.7425 9.32147 13.8096 9.35125L13.8118 9.35199L13.8608 9.37463L13.9123 9.39875L13.9632 9.42361L14.0115 9.44773L14.0134 9.44847L14.0142 9.44896L14.0649 9.47505L14.1136 9.50138L14.1146 9.50187L14.1656 9.52969L14.2151 9.5575L14.2623 9.58531L14.3096 9.61361L14.3502 9.63871L14.4029 9.67219L14.435 9.69286L14.4417 9.69729L14.4466 9.70098L14.4533 9.70517L14.4934 9.73175L14.5345 9.75981L14.5827 9.79352L14.6243 9.82355L14.6713 9.8585L14.7094 9.88729L14.7564 9.92397L14.7952 9.95498L14.841 9.99214L14.8769 10.0224L14.9224 10.0613L14.9588 10.0933C14.9791 10.1113 14.9917 10.1226 15.0038 10.1339L15.0357 10.1629L15.0807 10.2063L15.1141 10.2383L15.15 10.2742L15.1869 10.3109L15.2101 10.335L15.2331 10.3601L15.2668 10.3953L15.2992 10.431L15.3309 10.4662L15.343 10.4804C15.3608 10.5009 15.3786 10.521 15.3987 10.5449L15.4239 10.5757L15.4246 10.5762L15.4291 10.5818C15.439 10.5937 15.4491 10.6062 15.4654 10.6261L15.4969 10.666L15.5266 10.7044L15.5612 10.7507L15.5671 10.7586L15.5906 10.7901L15.6216 10.8331L15.6493 10.8725L15.6799 10.9175L15.7084 10.9604L15.7373 11.0047L15.7623 11.0443L15.7779 11.0689L15.7925 11.0928L15.816 11.1324L15.8182 11.1361C15.8259 11.1489 15.8336 11.1617 15.845 11.1816L15.867 11.2203L15.8672 11.2208L15.8714 11.2279L15.8947 11.2697L15.9152 11.3086L15.9301 11.3362L15.9449 11.3642L15.9511 11.377L15.9513 11.3775L15.9518 11.3778L15.9744 11.4231L15.9969 11.4693C16.035 11.5481 16.0703 11.6273 16.103 11.7068L16.1114 11.727L16.125 11.761L16.1386 11.7957L16.1604 11.8533L16.1725 11.8868L16.1834 11.9173L16.1936 11.9458L16.2034 11.9751L16.2166 12.0147L16.2265 12.0453L16.2361 12.0755L16.2564 12.1425L16.2663 12.1769L16.273 12.2001L16.294 12.2778L16.2977 12.2926L16.3078 12.3325L16.317 12.3719L16.322 12.3923L16.3314 12.4326L16.34 12.4737L16.3412 12.4804L16.3507 12.5252L16.3596 12.5705L16.3605 12.5754V12.5764C16.366 12.6052 16.3709 12.6327 16.3749 12.6564C16.3789 12.68 16.3833 12.7068 16.3875 12.7368C16.408 12.8749 16.4224 13.014 16.4301 13.153L16.4303 13.1589L16.4325 13.2055L16.434 13.2512L16.4343 13.2576L16.4353 13.3027L16.436 13.3467V13.3846C16.4363 13.4068 16.436 13.4275 16.4358 13.4457L16.4348 13.5015L16.4333 13.5439L16.4328 13.5628L16.4283 13.6487L16.4281 13.6554L16.4249 13.7036L16.4214 13.7504V13.7521C16.4177 13.7934 16.4137 13.8348 16.409 13.8764C16.4046 13.916 16.3991 13.9573 16.3932 14.0007C16.363 14.2133 16.3175 14.425 16.2556 14.6337L16.2544 14.6374L16.2403 14.6831L16.2262 14.7287L16.2237 14.7363L16.2084 14.7823L16.1923 14.8291L16.1916 14.8316L16.1757 14.8761L16.1587 14.9216L16.1545 14.9332L16.1379 14.9768L16.1206 15.0203L16.1186 15.0262L16.1 15.0705L16.0817 15.1148L16.0802 15.1183L16.0632 15.1589L16.1015 15.1808L20.2269 17.5499C20.2982 17.5908 20.3462 17.6375 20.3754 17.6863C20.4001 17.7274 20.411 17.7707 20.41 17.813C20.4093 17.8556 20.3959 17.8982 20.3732 17.9378C20.343 17.9895 20.2965 18.0355 20.2378 18.0707L13.0318 22.2043L12.9558 22.2476L13.0318 22.2914L15.5587 23.7425C16.1517 24.0834 16.8511 24.0735 17.4157 23.7782L23.3311 20.3803C23.4862 20.2905 23.5911 20.2023 23.6577 20.0913C23.7245 19.9801 23.7514 19.8492 23.7499 19.6752V12.9251C23.744 12.2705 23.4001 11.6355 22.789 11.2845L12.4974 5.37349V8.99364ZM1.20967 11.2855C0.616897 11.6261 0.275482 12.2338 0.25 12.8675L0.250742 19.6629C0.251484 19.8413 0.27573 19.9759 0.338817 20.0886C0.402152 20.2019 0.502844 20.2902 0.654996 20.3763L6.49887 23.7327L6.53103 23.7514C7.10402 24.0735 7.8289 24.0947 8.43998 23.7437L18.6559 17.8763L18.7314 17.8325L15.6193 16.0452L15.58 16.0228L15.5533 16.0589L15.553 16.0594L15.5513 16.0614L15.5199 16.1023L15.4887 16.1419L15.484 16.1475L15.4516 16.1879L15.4187 16.2275L15.4175 16.229L15.4172 16.2295L15.3831 16.2696L15.3479 16.3097L15.3469 16.311L15.3118 16.3506L15.2749 16.3907L15.274 16.3912L15.2732 16.3922L15.2631 16.4033L15.2529 16.4141C15.2356 16.4326 15.2178 16.4508 15.1997 16.4695L15.199 16.47L15.1614 16.5084L15.1221 16.547L15.1208 16.5482L15.1203 16.5485L15.0983 16.5701L15.0763 16.5913C15.0387 16.627 15.0003 16.6619 14.961 16.6966L14.9605 16.6971L14.9189 16.7333L14.8784 16.7678L14.8774 16.7685L14.8756 16.7697L14.8749 16.7705L14.8328 16.8054L14.7908 16.8396C14.7319 16.8866 14.672 16.9314 14.6124 16.9743L14.6109 16.9755L14.5666 17.0067L14.5199 17.039L14.4726 17.0707L14.4276 17.1L14.4261 17.1013L14.4254 17.1015L14.3771 17.1323L14.3299 17.1613L14.3289 17.1618L14.2794 17.1918L14.2304 17.2204L14.1824 17.2477L14.1342 17.274L14.1015 17.2913L14.0924 17.2962L14.0367 17.3252L14.0026 17.3422L13.9951 17.3457L13.9897 17.3484L13.9825 17.3521L13.9395 17.3732L13.841 17.4192L13.7943 17.4402L13.6963 17.4815L13.6406 17.5037L13.5943 17.5216L13.5389 17.5425L13.4949 17.5583L13.438 17.578L13.3922 17.5935C13.3662 17.6021 13.3502 17.6068 13.3341 17.612L13.293 17.6248L13.2329 17.6422L13.1884 17.6545L13.1389 17.6678L13.123 17.672L13.0887 17.6809L13.056 17.6887L13.0226 17.6964L12.9751 17.7077L12.9276 17.7178L12.8813 17.7274L12.863 17.7308C12.8366 17.7362 12.8098 17.7412 12.7789 17.7463L12.7396 17.7527L12.7388 17.753L12.7317 17.7542C12.7166 17.7567 12.7005 17.7596 12.675 17.7633L12.6243 17.7707L12.576 17.7771L12.5186 17.784L12.5088 17.785L12.4694 17.7892L12.4165 17.7946L12.3685 17.7988L12.3138 17.8024L12.2623 17.8056L12.2094 17.8084L12.1621 17.8103L12.105 17.8118L12.0587 17.8125L12.0545 17.8123C12.0392 17.8125 12.0243 17.8128 12.0016 17.8128L11.957 17.8123H11.9479L11.8999 17.8113L11.8561 17.8098L11.7925 17.8074L11.7787 17.8061H11.7779L11.7774 17.8064L11.7265 17.8034L11.675 17.7995C11.5877 17.7931 11.5008 17.784 11.4152 17.7724L11.3937 17.7695L11.3573 17.7643L11.3202 17.7584L11.2938 17.7545L11.2591 17.7485L11.224 17.7424L11.1918 17.7365L11.1621 17.7306L11.1317 17.7247L11.0906 17.7163L11.0278 17.7025L10.9934 17.6949L10.9593 17.6865L10.9244 17.6779L10.9009 17.672L10.8616 17.6617L10.8227 17.6511L10.8079 17.6471L10.7683 17.6358L10.7292 17.6245L10.7089 17.6181L10.6691 17.606L10.6292 17.5932L10.6228 17.5913L10.579 17.5765L10.5352 17.5615L10.5303 17.56L10.5295 17.5598C10.5016 17.5499 10.4754 17.5403 10.4528 17.5317C10.4301 17.5236 10.4048 17.5138 10.3764 17.5024C10.2458 17.4515 10.1179 17.3941 9.99292 17.3309L9.98748 17.3282L9.94641 17.307L9.90534 17.2856L9.89965 17.2824L9.86007 17.261L9.82123 17.2393L9.8096 17.2324L9.79871 17.2265L9.78832 17.2204C9.76878 17.2095 9.75072 17.199 9.73513 17.1899L9.72276 17.1825L9.68689 17.1608L9.65101 17.1387L9.59807 17.1052L9.56195 17.0818L9.55651 17.0781L9.51618 17.0513L9.47684 17.0247L9.47561 17.024C9.44122 17.0003 9.40732 16.976 9.37368 16.9514C9.34152 16.9277 9.30787 16.9024 9.27323 16.8756C9.10302 16.7434 8.94171 16.5982 8.79105 16.4404L8.78857 16.4375L8.75542 16.4025L8.72301 16.3676L8.71732 16.3617L8.68516 16.3252L8.65275 16.2883L8.65077 16.2861L8.6196 16.2502L8.58867 16.2133L8.58076 16.2034L8.55131 16.1675L8.52187 16.1306L8.51816 16.1261L8.48823 16.0877L8.45928 16.0498L8.45705 16.0471L8.43009 16.0122L4.26657 18.4037C4.19556 18.4443 4.13074 18.4625 4.07409 18.4635C4.02584 18.464 3.98255 18.452 3.94593 18.4298C3.90956 18.4079 3.87913 18.3754 3.85588 18.3358C3.82594 18.2843 3.80912 18.2208 3.80788 18.1527L3.81234 9.79057L1.20967 11.2855Z" fill="#BA0B22"/>
<path fill-rule="evenodd" clip-rule="evenodd" d="M8.5 13.3584C8.5 15.291 10.0672 16.8584 11.9997 16.8584C13.9328 16.8584 15.5 15.291 15.5 13.3584C15.5 11.4258 13.9328 9.8584 11.9997 9.8584C10.0672 9.8584 8.5 11.4258 8.5 13.3584Z" fill="#FFC730"/>
</svg>
