<svg width="25" height="24" viewBox="0 0 25 24" fill="none" xmlns="http://www.w3.org/2000/svg">
<path fill-rule="evenodd" clip-rule="evenodd" d="M5.03223 20.9998C5.03223 22.1043 5.92766 22.9998 7.03223 22.9998H17.0322C18.1368 22.9998 19.0322 22.1043 19.0322 20.9998V2.99976C19.0322 1.89519 18.1368 0.999756 17.0322 0.999756H7.03223C5.92766 0.999756 5.03223 1.89519 5.03223 2.99976V20.9998ZM9.03223 20.4998C9.03223 20.7759 9.25608 20.9998 9.53223 20.9998H14.5322C14.8084 20.9998 15.0322 20.7759 15.0322 20.4998C15.0322 20.2236 14.8084 19.9998 14.5322 19.9998H9.53223C9.25608 19.9998 9.03223 20.2236 9.03223 20.4998ZM12.0322 2.99976C12.5845 2.99976 13.0322 3.44747 13.0322 3.99976C13.0322 4.55204 12.5845 4.99976 12.0322 4.99976C11.4799 4.99976 11.0322 4.55204 11.0322 3.99976C11.0322 3.44747 11.4799 2.99976 12.0322 2.99976Z" fill="#33363F"/>
</svg>
