<svg width="96" height="96" viewBox="0 0 96 96" fill="none" xmlns="http://www.w3.org/2000/svg">
<path d="M6.98242 61.0901C6.98242 49.98 11.3959 39.3249 19.252 31.4688C27.108 23.6127 37.7632 19.1992 48.8733 19.1992C59.9835 19.1992 70.6386 23.6127 78.4947 31.4688C86.3507 39.3248 90.7642 49.9799 90.7642 61.0901L79.4966 61.0901C79.4966 52.9683 76.2702 45.1792 70.5272 39.4362C64.7843 33.6932 56.9951 30.4668 48.8733 30.4668C40.7515 30.4669 32.9624 33.6932 27.2194 39.4362C21.4764 45.1792 18.2501 52.9683 18.2501 61.0901H6.98242Z" fill="#D9D9D9"/>
<path d="M47.9989 43.6367L64.908 61.6731H31.0898L47.9989 43.6367Z" fill="#3900FA"/>
</svg>
