<svg width="192" height="170" viewBox="0 0 192 170" fill="none" xmlns="http://www.w3.org/2000/svg">
<circle cx="84.7483" cy="84.7483" r="82.4526" fill="#EFF2FF" stroke="white" stroke-width="4.59133"/>
<mask id="mask0_1_4" style="mask-type:alpha" maskUnits="userSpaceOnUse" x="4" y="4" width="161" height="161">
<circle cx="84.747" cy="84.7485" r="79.7743" fill="white"/>
</mask>
<g mask="url(#mask0_1_4)">
<mask id="mask1_1_4" style="mask-type:luminance" maskUnits="userSpaceOnUse" x="26" y="46" width="124" height="124">
<path d="M26.0081 46.6788H149.483V169.497H26.0081V46.6788Z" fill="white"/>
</mask>
<g mask="url(#mask1_1_4)">
<path d="M134.584 80.8934L105.34 51.8049C104.109 50.6533 102.476 50.0236 100.786 50.0492C99.0969 50.0748 97.4837 50.7536 96.2886 51.9419C95.0936 53.1302 94.4105 54.7345 94.3842 56.4151C94.3579 58.0957 94.9904 59.7204 96.1477 60.9451L83.6085 73.4176L112.853 102.506L125.392 90.0336C126.61 91.2461 128.263 91.9275 129.987 91.9278C130.84 91.9279 131.685 91.7609 132.474 91.4361C133.262 91.1114 133.979 90.6354 134.582 90.0352C135.186 89.4351 135.665 88.7225 135.992 87.9383C136.318 87.1541 136.487 86.3135 136.487 85.4646C136.487 84.6157 136.319 83.7751 135.992 82.9908C135.666 82.2064 135.187 81.4937 134.584 80.8934" fill="#4D64DE"/>
<path d="M100.742 49.9107H52.0024C48.5552 49.9107 45.2493 51.2728 42.8119 53.6973C40.3744 56.1218 39.005 59.4102 39.005 62.8389V153.336C39.005 156.765 40.3744 160.054 42.8119 162.478C45.2493 164.903 48.5552 166.265 52.0024 166.265H123.488C126.935 166.265 130.241 164.903 132.678 162.478C135.116 160.054 136.485 156.765 136.485 153.336V85.4633H107.241C103.992 85.4633 100.742 82.2313 100.742 78.9992V49.9107Z" fill="url(#paint0_linear_1_4)"/>
<path d="M100.742 49.9108H94.2432V78.9993C94.2432 82.4281 95.6125 85.7164 98.05 88.1409C100.487 90.5654 103.793 91.9275 107.241 91.9275H136.485V85.4634H107.241C103.991 85.4634 100.742 82.2313 100.742 78.9993V49.9108Z" fill="white"/>
<path d="M84.4954 85.8762C84.4954 86.7333 84.1531 87.5554 83.5437 88.1616C82.9344 88.7677 82.1079 89.1082 81.2461 89.1082H55.2514C54.3896 89.1082 53.5631 88.7677 52.9538 88.1616C52.3444 87.5554 52.0021 86.7333 52.0021 85.8762C52.0021 85.019 52.3444 84.1969 52.9538 83.5907C53.5631 82.9846 54.3896 82.6441 55.2514 82.6441H81.2461C82.1079 82.6441 82.9344 82.9846 83.5437 83.5907C84.1531 84.1969 84.4954 85.019 84.4954 85.8762Z" fill="white"/>
<path d="M84.4954 135.233C84.4954 136.09 84.1531 136.912 83.5437 137.518C82.9344 138.124 82.1079 138.465 81.2461 138.465H55.2514C54.3896 138.465 53.5631 138.124 52.9538 137.518C52.3444 136.912 52.0021 136.09 52.0021 135.233C52.0021 134.376 52.3444 133.554 52.9538 132.947C53.5631 132.341 54.3896 132.001 55.2514 132.001H81.2461C82.1079 132.001 82.9344 132.341 83.5437 132.947C84.1531 133.554 84.4954 134.376 84.4954 135.233Z" fill="white"/>
<path d="M123.487 101.563C123.487 102.42 123.145 103.242 122.536 103.849C121.926 104.455 121.1 104.795 120.238 104.795H55.2514C54.3896 104.795 53.5631 104.455 52.9538 103.849C52.3444 103.242 52.0021 102.42 52.0021 101.563C52.0021 100.706 52.3444 99.8839 52.9538 99.2778C53.5631 98.6717 54.3896 98.3312 55.2514 98.3312H120.238C121.1 98.3312 121.926 98.6717 122.536 99.2778C123.145 99.8839 123.487 100.706 123.487 101.563Z" fill="white"/>
<path d="M111.402 117.23C111.402 118.093 111.118 118.92 110.613 119.53C110.108 120.14 109.423 120.482 108.709 120.482H54.8572C54.1431 120.482 53.4582 120.14 52.9533 119.53C52.4483 118.92 52.1646 118.093 52.1646 117.23C52.1646 116.368 52.4483 115.54 52.9533 114.931C53.4582 114.321 54.1431 113.978 54.8572 113.978H108.709C109.423 113.978 110.108 114.321 110.613 114.931C111.118 115.54 111.402 116.368 111.402 117.23Z" fill="white"/>
</g>
<path d="M126.016 137.86L124.722 139.059L120.883 134.965L119.52 133.511L120.814 132.312L122.177 133.766L126.016 137.86Z" fill="#B7C2FF"/>
<path d="M122.177 133.766C121.97 133.973 121.758 134.177 121.542 134.378C121.327 134.579 121.106 134.776 120.883 134.964L119.52 133.51L120.817 132.31L122.177 133.766ZM126.223 138.052C126.017 138.26 125.805 138.464 125.589 138.664C125.373 138.865 125.153 139.062 124.93 139.251L123.567 137.796L124.864 136.597L126.223 138.052Z" fill="#5E73E4"/>
<path d="M127.544 118.765C127.394 122.961 125.997 127.019 123.53 130.426C121.063 133.833 117.637 136.436 113.683 137.907C109.73 139.377 105.427 139.65 101.317 138.69C97.2084 137.729 93.4776 135.579 90.5962 132.511C86.7348 128.392 84.6762 122.916 84.8732 117.288C85.0702 111.659 87.5066 106.339 91.6467 102.497C100.253 94.5111 113.791 94.979 121.82 103.542C123.738 105.577 125.232 107.97 126.215 110.584C127.197 113.197 127.649 115.978 127.544 118.765V118.765Z" fill="url(#paint1_linear_1_4)"/>
<path d="M123.557 118.635C123.401 123.105 121.507 127.34 118.275 130.449C115.042 133.557 110.722 135.296 106.226 135.3C106.021 135.3 105.815 135.296 105.607 135.289C104.529 135.252 103.457 135.117 102.404 134.885C100.399 134.441 98.4899 133.644 96.7681 132.53C95.5781 131.758 94.487 130.845 93.5187 129.811C90.4148 126.457 88.7707 122.017 88.9453 117.462C89.1199 112.906 91.099 108.604 94.4508 105.494C97.8025 102.384 102.255 100.72 106.836 100.863C111.417 101.006 115.755 102.946 118.904 106.26C119.598 106.999 120.226 107.797 120.781 108.645C121.902 110.356 122.705 112.254 123.152 114.247C123.474 115.687 123.61 117.161 123.557 118.635V118.635Z" fill="url(#paint2_linear_1_4)"/>
<path d="M111.95 108.792C109.145 107.208 105.822 106.797 102.713 107.65C99.603 108.502 96.9609 110.548 95.3673 113.337" stroke="white" stroke-width="5.73916" stroke-linecap="round" stroke-linejoin="round"/>
<path d="M141.964 155.632C141.234 156.312 140.271 156.69 139.271 156.688H139.131C138.613 156.672 138.104 156.554 137.632 156.341C137.161 156.128 136.737 155.824 136.384 155.447L121.861 140.512L127.638 135.149L142.158 150.076C142.872 150.839 143.252 151.853 143.215 152.894C143.179 153.936 142.729 154.92 141.964 155.632V155.632Z" fill="#4D64DE"/>
<path d="M142.478 155.051C142.113 155.558 141.632 155.972 141.074 156.257C140.516 156.543 139.898 156.692 139.271 156.693H139.131C138.613 156.676 138.103 156.557 137.632 156.344C137.16 156.13 136.736 155.825 136.384 155.448L121.861 140.513L122.797 139.644L137.289 154.545C137.642 154.922 138.066 155.226 138.538 155.439C139.009 155.652 139.519 155.77 140.036 155.786H140.177C141.002 155.788 141.808 155.531 142.478 155.051V155.051Z" fill="#B5C0FF"/>
<path d="M127.556 136.918L141.231 150.521" stroke="white" stroke-width="1.14783" stroke-linecap="round" stroke-linejoin="round"/>
</g>
<g filter="url(#filter0_f_1_4)">
<circle cx="157.444" cy="42.2785" r="18.5566" fill="#FF7070" fill-opacity="0.7"/>
</g>
<circle cx="153.235" cy="38.0698" r="18.5566" fill="url(#paint3_linear_1_4)"/>
<path d="M161.575 42.0495L157.767 38.2611L161.575 34.4728C161.756 34.2936 161.857 34.0505 161.857 33.7971C161.857 33.5437 161.756 33.3007 161.575 33.1215C161.395 32.9423 161.151 32.8416 160.896 32.8416C160.641 32.8416 160.397 32.9423 160.217 33.1215L156.408 36.9099L152.6 33.1215C152.419 32.9423 152.175 32.8416 151.92 32.8416C151.666 32.8416 151.421 32.9423 151.512 33.3913C151.061 33.3007 150.96 33.5437 150.96 33.7971C150.96 34.0505 151.061 34.2936 151.241 34.4728L155.05 38.2611L151.241 42.0495C151.061 42.2287 150.96 42.4717 150.96 42.7252C150.96 42.9786 151.061 43.2216 151.241 43.4008C151.421 43.58 151.666 43.6807 151.92 43.6807C152.175 43.6807 152.419 43.58 152.6 43.4008L156.408 39.6124L160.217 43.4008C160.397 43.58 160.641 43.6807 160.896 43.6807C161.151 43.6807 161.395 43.58 161.575 43.4008C161.756 43.2216 161.857 42.9786 161.857 42.7252C161.857 42.4717 161.756 42.2287 161.575 42.0495Z" fill="white" stroke="white" stroke-width="0.765221"/>
<defs>
<filter id="filter0_f_1_4" x="123.583" y="8.41747" width="67.7221" height="67.7221" filterUnits="userSpaceOnUse" color-interpolation-filters="sRGB">
<feFlood flood-opacity="0" result="BackgroundImageFix"/>
<feBlend mode="normal" in="SourceGraphic" in2="BackgroundImageFix" result="shape"/>
<feGaussianBlur stdDeviation="7.65221" result="effect1_foregroundBlur_1_4"/>
</filter>
<linearGradient id="paint0_linear_1_4" x1="87.7451" y1="166.265" x2="87.7451" y2="49.9107" gradientUnits="userSpaceOnUse">
<stop stop-color="#B5C0FF"/>
<stop offset="1" stop-color="#8895E8"/>
</linearGradient>
<linearGradient id="paint1_linear_1_4" x1="106.209" y1="96.8008" x2="106.209" y2="139.253" gradientUnits="userSpaceOnUse">
<stop stop-color="#B7C2FF"/>
<stop offset="1" stop-color="#4D64DE"/>
</linearGradient>
<linearGradient id="paint2_linear_1_4" x1="106.251" y1="100.855" x2="106.251" y2="135.3" gradientUnits="userSpaceOnUse">
<stop stop-color="#EFF2FF"/>
<stop offset="1" stop-color="white"/>
</linearGradient>
<linearGradient id="paint3_linear_1_4" x1="153.235" y1="19.5132" x2="153.235" y2="56.6264" gradientUnits="userSpaceOnUse">
<stop stop-color="#FF9898"/>
<stop offset="1" stop-color="#FF4F4F"/>
</linearGradient>
</defs>
</svg>
