<svg width="25" height="24" viewBox="0 0 25 24" fill="none" xmlns="http://www.w3.org/2000/svg">
<path fill-rule="evenodd" clip-rule="evenodd" d="M14.4877 2.47338C13.7268 2.1674 12.8974 1.99976 12.0324 1.99976C8.67633 1.99976 5.85696 4.52321 5.48634 7.85874L5.23454 10.125L5.22849 10.179C5.11566 11.1622 4.79562 12.1104 4.28949 12.9608L4.26154 13.0075L3.68351 13.9709L3.65936 14.0111C3.41784 14.4136 3.19902 14.7782 3.05327 15.0877C2.90515 15.4022 2.74678 15.8283 2.82301 16.3115C2.89836 16.789 3.14414 17.2231 3.51486 17.5334C3.88993 17.8474 4.33681 17.9308 4.6827 17.9656C5.02307 17.9998 5.44832 17.9998 5.91771 17.9998L5.96461 17.9998H18.1002L18.1471 17.9998C18.6164 17.9998 19.0417 17.9998 19.3821 17.9656C19.728 17.9308 20.1748 17.8474 20.5499 17.5334C20.9206 17.2231 21.1664 16.789 21.2418 16.3115C21.318 15.8283 21.1596 15.4022 21.0115 15.0877C20.8657 14.7782 20.6469 14.4136 20.4054 14.0111L20.3813 13.9709L19.8032 13.0075L19.7753 12.9608C19.3965 12.3244 19.122 11.6333 18.9605 10.9138C18.6598 10.9702 18.3495 10.9998 18.0324 10.9998C17.6484 10.9998 17.2746 10.9565 16.9154 10.8745C17.1 11.9712 17.4865 13.0256 18.0566 13.9837L18.0882 14.0365L18.6663 14.9999C18.9398 15.4557 19.1046 15.7328 19.2021 15.9399C19.2075 15.9512 19.2123 15.9618 19.2168 15.9718C19.206 15.9731 19.1943 15.9744 19.1819 15.9756C18.9541 15.9985 18.6317 15.9998 18.1002 15.9998H5.96461C5.43302 15.9998 5.11064 15.9985 4.8829 15.9756C4.87045 15.9744 4.8588 15.9731 4.84794 15.9718C4.85242 15.9618 4.85731 15.9512 4.86265 15.9399C4.96017 15.7328 5.12499 15.4557 5.3985 14.9999L5.97653 14.0365L6.00816 13.9837C6.6589 12.8902 7.07038 11.6712 7.21545 10.407L7.22231 10.3458L7.47411 8.0796C7.73218 5.75694 9.69542 3.99976 12.0324 3.99976C12.4954 3.99976 12.9438 4.06874 13.3671 4.19743C13.619 3.5457 14.0036 2.95998 14.4877 2.47338ZM17.0145 4.27779C16.4266 4.62608 16.0324 5.26688 16.0324 5.99976C16.0324 6.14478 16.0478 6.28621 16.0771 6.42247C16.1975 6.64736 16.2999 6.8838 16.3821 7.12996C16.7425 7.65523 17.3472 7.99976 18.0324 7.99976C18.2243 7.99976 18.4098 7.97274 18.5855 7.92229L18.5784 7.85874C18.4262 6.4885 17.8607 5.2553 17.0145 4.27779Z" fill="#33363F"/>
<path d="M9.13445 17.6644C9.30537 18.6213 9.68201 19.4668 10.2059 20.0698C10.7299 20.6729 11.3718 20.9998 12.0322 20.9998C12.6926 20.9998 13.3346 20.6729 13.8585 20.0698C14.3824 19.4668 14.7591 18.6213 14.93 17.6644" stroke="#33363F" stroke-width="2" stroke-linecap="round"/>
<circle cx="18.0322" cy="5.99976" r="2.5" fill="#0040FF" stroke="#0040FF"/>
</svg>
