<svg width="96" height="96" viewBox="0 0 96 96" fill="none" xmlns="http://www.w3.org/2000/svg">
<path d="M6.98242 34.9099C6.98242 46.02 11.3959 56.6751 19.252 64.5312C27.108 72.3873 37.7632 76.8008 48.8733 76.8008C59.9835 76.8008 70.6386 72.3873 78.4947 64.5312C86.3507 56.6752 90.7642 46.0201 90.7642 34.9099L79.4966 34.9099C79.4966 43.0317 76.2702 50.8208 70.5272 56.5638C64.7843 62.3068 56.9951 65.5332 48.8733 65.5332C40.7515 65.5331 32.9624 62.3068 27.2194 56.5638C21.4764 50.8208 18.2501 43.0317 18.2501 34.9099H6.98242Z" fill="#D9D9D9"/>
<path d="M47.9989 52.3633L64.908 34.3269H31.0898L47.9989 52.3633Z" fill="#3900FA"/>
</svg>
