<svg width="54" height="54" viewBox="0 0 54 54" fill="none" xmlns="http://www.w3.org/2000/svg">
<g clip-path="url(#clip0_1179_13799)">
<mask id="mask0_1179_13799" style="mask-type:luminance" maskUnits="userSpaceOnUse" x="0" y="0" width="54" height="54">
<path d="M53.9998 0.666992H0.666504V54.0003H53.9998V0.666992Z" fill="white"/>
</mask>
<g mask="url(#mask0_1179_13799)">
<mask id="mask1_1179_13799" style="mask-type:luminance" maskUnits="userSpaceOnUse" x="0" y="0" width="54" height="54">
<path d="M0.666504 0.666691H53.9998V54H0.666504V0.666691Z" fill="white"/>
</mask>
<g mask="url(#mask1_1179_13799)">
<path d="M28.4019 24.9277V6.13389C28.4019 4.02087 26.6728 2.24712 24.5601 2.28358C22.5082 2.3191 20.8506 3.99858 20.8506 6.05868V24.8429" stroke="#3900FA" stroke-width="3.125" stroke-miterlimit="10" stroke-linecap="round"/>
<path d="M13.3375 24.9274V16.4161C13.3375 14.8022 12.0245 13.4892 10.4024 13.4892C8.7884 13.4892 7.47559 14.8022 7.47559 16.4161L7.47725 39.1587C8.28673 50.8516 15.4589 52.4287 22.3686 52.4287C28.0934 52.4287 33.2354 49.5889 35.7708 45.0499C36.0968 44.5231 36.9791 43.1358 38.0253 41.4927C39.5092 39.1612 40.8566 37.0747 41.8036 35.5936C43.0786 33.5999 44.4373 31.6616 45.8838 29.7888C46.2415 29.3258 46.5343 28.9577 46.6796 28.7991C47.1057 28.3343 47.3864 27.7555 47.4701 27.1306C47.77 24.8914 45.1199 23.2895 42.985 24.0281C42.7016 24.1262 42.4335 24.2641 42.1919 24.442C41.0185 25.3052 37.6297 28.8106 36.3068 31.1227C36.304 31.1275 36.3012 31.1323 36.2985 31.1372C35.965 31.7084 35.0854 31.4628 35.0797 30.8014L35.0792 30.7447V12.3015C35.0792 10.4296 33.5473 8.85831 31.6757 8.8906C29.858 8.92196 28.3894 10.4099 28.3894 12.235L28.4023 24.9274" stroke="#3900FA" stroke-width="3.125" stroke-miterlimit="10" stroke-linecap="round"/>
<path d="M20.8505 24.8429L20.8327 10.7526C20.8327 8.75451 19.269 7.06347 17.2718 7.0043C15.1966 6.94285 13.3732 8.61295 13.3732 10.6746L13.3369 24.9277" stroke="#3900FA" stroke-width="3.125" stroke-miterlimit="10" stroke-linecap="round"/>
</g>
</g>
</g>
<defs>
<clipPath id="clip0_1179_13799">
<rect width="53.3333" height="53.3333" fill="white" transform="translate(0.666504 0.666992)"/>
</clipPath>
</defs>
</svg>
