<svg width="59" height="72" viewBox="0 0 59 72" fill="none" xmlns="http://www.w3.org/2000/svg">
<path d="M28.6927 80.8605C26.2686 80.8605 23.8445 80.8605 21.4204 80.8605C19.7757 80.8605 18.6754 79.8003 18.6697 78.1613C19.2714 59.2814 15.2685 60.7227 28.8962 60.8C41.9909 60.7055 38.1198 59.4247 38.7215 77.9292C38.7215 79.8519 37.7158 80.8605 35.8075 80.8633L28.6927 80.8605Z" fill="#DDDDDD"/>
<path d="M28.3945 56.8088C26.022 56.8088 23.6495 56.7916 21.277 56.8088C19.34 56.932 18.9617 54.7228 18.6981 53.27C18.0248 47.0006 20.6322 42.1323 25.2455 38.1208C28.4834 35.0234 32.9132 33.7282 36.3402 30.9316C39.5322 28.178 39.2056 23.5304 35.8044 21.0833C32.1023 18.43 26.2111 18.1521 22.4145 20.6077C19.7297 22.4931 17.7497 25.261 15.6236 27.7339C14.3686 29.2267 13.1278 29.3872 11.5777 28.2124C8.32071 25.7443 5.0733 23.2677 1.83543 20.7825C0.465784 19.7337 0.285263 18.5188 1.17926 17.0575C10.1479 0.667586 32.9505 -4.662 47.9077 6.74217C57.9365 13.2666 62.3635 27.9316 54.5697 37.82C51.5238 42.118 46.3575 43.9977 42.3145 47.1381C36.6067 51.9376 40.1712 56.4535 35.515 56.8088C33.1424 56.8088 30.769 56.8088 28.3945 56.8088Z" fill="#DDDDDD"/>
</svg>
