<svg width="63" height="72" viewBox="0 0 63 72" fill="none" xmlns="http://www.w3.org/2000/svg">
<path d="M61.5428 16.7113L33.2746 0.390598C32.8319 0.134721 32.3296 0 31.8182 0C31.3069 0 30.8046 0.134721 30.3619 0.390598L2.09367 16.7113C1.65061 16.967 1.28269 17.3348 1.02693 17.7778C0.771172 18.2208 0.63659 18.7233 0.636719 19.2349V51.8763C0.636678 52.3877 0.771308 52.89 1.02707 53.3328C1.28283 53.7756 1.6507 54.1432 2.09367 54.3987L30.3619 70.7194C30.8046 70.9753 31.3069 71.11 31.8182 71.11C32.3296 71.11 32.8319 70.9753 33.2746 70.7194L61.5428 54.3987C61.9857 54.1432 62.3536 53.7756 62.6094 53.3328C62.8651 52.89 62.9998 52.3877 62.9997 51.8763V19.2349C62.9999 18.7233 62.8653 18.2208 62.6095 17.7778C62.3538 17.3348 61.9858 16.967 61.5428 16.7113Z" fill="url(#paint0_linear_1179_16915)"/>
<path d="M31.8178 69.1701C31.6478 69.1701 31.4807 69.1251 31.3337 69.0396L3.06554 52.7177C2.918 52.6322 2.79545 52.5096 2.71009 52.362C2.62474 52.2144 2.57958 52.047 2.5791 51.8765V19.2351C2.57919 19.064 2.62416 18.896 2.70952 18.7477C2.79488 18.5995 2.91764 18.4763 3.06554 18.3903L31.3326 2.07198C31.48 1.98645 31.6474 1.94141 31.8178 1.94141C31.9882 1.94141 32.1556 1.98645 32.3031 2.07198L60.5736 18.3903C60.7212 18.4761 60.8437 18.5989 60.9291 18.7467C61.0144 18.8945 61.0596 19.062 61.0601 19.2327V51.8765C61.0596 52.047 61.0144 52.2144 60.9291 52.362C60.8437 52.5096 60.7212 52.6322 60.5736 52.7177L32.3043 69.0384C32.1565 69.1244 31.9887 69.1698 31.8178 69.1701Z" fill="url(#paint1_linear_1179_16915)"/>
<path d="M60.3301 18.8127L32.0607 2.49201C31.9885 2.45023 31.9068 2.42776 31.8234 2.42676C31.7381 2.427 31.6542 2.44949 31.5802 2.49201L3.30251 18.8127C3.2285 18.8557 3.16702 18.9173 3.12415 18.9914C3.08128 19.0655 3.05851 19.1495 3.05811 19.2351V51.8765C3.05851 51.9619 3.08099 52.0457 3.12336 52.1197C3.16637 52.1938 3.22817 52.2552 3.30251 52.2977L31.5755 68.6196C31.6495 68.662 31.7334 68.6842 31.8187 68.6842C31.904 68.6842 31.9878 68.662 32.0619 68.6196L60.3301 52.2989C60.3963 52.2613 60.4524 52.2085 60.4938 52.1447C60.546 52.0654 60.574 51.9726 60.5745 51.8777V19.2351C60.5741 19.1495 60.5513 19.0655 60.5085 18.9914C60.4656 18.9173 60.4041 18.8557 60.3301 18.8127ZM58.1482 50.7565L31.8175 65.9584L5.48794 50.7565V20.3539L31.8175 5.1532L58.1482 20.3539V50.7565Z" fill="url(#paint2_linear_1179_16915)"/>
<path d="M5.4878 50.7563V20.3537C5.4878 20.3537 3.17305 18.9145 3.13153 18.9833C3.08575 19.0588 3.06154 19.1454 3.06152 19.2337V51.8763C3.06193 51.9616 3.08442 52.0454 3.12678 52.1195C3.1695 52.1919 5.4878 50.7563 5.4878 50.7563Z" fill="url(#paint3_linear_1179_16915)"/>
<path d="M31.8176 65.9582L5.48801 50.7563C5.48801 50.7563 3.08547 52.046 3.127 52.1196C3.17001 52.1936 3.23181 52.255 3.30615 52.2975L31.5755 68.6194C31.6478 68.6609 31.7295 68.683 31.8128 68.6835C31.903 68.6835 31.8176 65.9582 31.8176 65.9582Z" fill="url(#paint4_linear_1179_16915)"/>
<path d="M58.1484 50.7563L31.8177 65.9582C31.8177 65.9582 31.7335 68.6871 31.8177 68.6871C31.9035 68.6875 31.9879 68.665 32.0621 68.6218L60.3303 52.3011C60.3965 52.2636 60.4526 52.2106 60.494 52.1469C60.5451 52.065 58.1484 50.7563 58.1484 50.7563Z" fill="url(#paint5_linear_1179_16915)"/>
<path d="M60.4892 52.1432C60.5413 52.0639 60.5694 51.9712 60.5698 51.8763V19.2348C60.5696 19.1489 60.5467 19.0646 60.5034 18.9904C60.4619 18.9181 58.1436 20.3537 58.1436 20.3537V50.7563C58.1436 50.7563 60.4524 52.2037 60.4892 52.1432Z" fill="url(#paint6_linear_1179_16915)"/>
<path d="M31.8175 5.1532L58.1482 20.3539C58.1482 20.3539 60.5508 19.0643 60.5081 18.9907C60.4655 18.9167 60.4041 18.8553 60.3301 18.8127L32.0607 2.49201C31.9885 2.45023 31.9068 2.42776 31.8234 2.42676C31.7332 2.42676 31.8175 5.1532 31.8175 5.1532Z" fill="url(#paint7_linear_1179_16915)"/>
<path d="M5.4878 20.3538L31.8174 5.15314C31.8174 5.15314 31.9028 2.42432 31.8174 2.42432C31.732 2.42456 31.6482 2.44705 31.5741 2.48957L3.30238 18.8127C3.23049 18.8541 3.17044 18.9134 3.12797 18.9847C3.08645 19.0594 5.4878 20.3538 5.4878 20.3538Z" fill="url(#paint8_linear_1179_16915)"/>
<path d="M8.39941 49.0751V22.0349L31.8186 8.51416L55.2366 22.0349V49.0751L31.8186 62.5958L8.39941 49.0751Z" fill="url(#paint9_linear_1179_16915)"/>
<path d="M8.39941 48.5093V49.0752L31.8186 62.5959L55.2366 49.0752V48.5093L31.8186 62.03L8.39941 48.5093Z" fill="url(#paint10_linear_1179_16915)"/>
<path d="M31.8178 5.15283L5.48828 20.3535V50.7562L31.8178 65.9581L58.1486 50.7562V20.3535L31.8178 5.15283ZM55.237 49.075L31.8178 62.6004L8.40456 49.075V22.0347L31.8226 8.50928L55.2418 22.0347L55.237 49.075Z" fill="#D0D0D0"/>
<path d="M6.0708 50.4243V20.6908L31.8166 5.82471L57.5624 20.6908V50.4243L31.8166 65.2892L6.0708 50.4243ZM7.81843 21.7029V49.4111L31.8178 63.2687L55.8184 49.4111V21.6993L31.8178 7.84166L7.81843 21.7029Z" fill="url(#paint11_linear_1179_16915)"/>
<path d="M31.8186 8.51416L8.39941 22.0349V22.7076L31.8186 9.18687L55.2366 22.7076V22.0349L31.8186 8.51416Z" fill="url(#paint12_linear_1179_16915)"/>
<path d="M41.0076 49.3755C40.7701 49.3753 40.5354 49.3239 40.3195 49.2248L31.8412 45.3345L23.3605 49.2248C23.0943 49.3468 22.8004 49.3958 22.509 49.3667C22.2176 49.3376 21.9393 49.2315 21.7024 49.0592C21.4656 48.887 21.2789 48.6549 21.1614 48.3867C21.0439 48.1185 20.9999 47.8238 21.0339 47.533L22.1123 38.2669L15.7933 31.4033C15.5945 31.1882 15.4566 30.9241 15.3938 30.6381C15.331 30.3521 15.3455 30.0545 15.4359 29.7759C15.5263 29.4974 15.6893 29.248 15.9081 29.0533C16.1269 28.8587 16.3936 28.7259 16.6808 28.6685L25.8283 26.8295L30.4032 18.7C30.5467 18.445 30.7554 18.2327 31.008 18.085C31.2606 17.9372 31.5479 17.8594 31.8406 17.8594C32.1332 17.8594 32.4206 17.9372 32.6731 18.085C32.9257 18.2327 33.1345 18.445 33.2779 18.7L37.8517 26.8319L46.9992 28.6697C47.2862 28.7274 47.5527 28.8605 47.7714 29.0552C47.9901 29.25 48.153 29.4994 48.2435 29.7779C48.3339 30.0563 48.3486 30.3539 48.2861 30.6399C48.2236 30.926 48.0862 31.1903 47.8878 31.4057L41.5688 38.268L42.6473 47.5342C42.6742 47.7655 42.6519 48 42.5818 48.2221C42.5117 48.4443 42.3955 48.6491 42.2406 48.8231C42.0857 48.9971 41.8958 49.1364 41.6833 49.2318C41.4708 49.3272 41.2406 49.3766 41.0076 49.3767V49.3755Z" fill="#D0D0D0"/>
<path d="M41.0078 48.7928C40.8538 48.7924 40.7016 48.7588 40.5617 48.6944L31.8413 44.6937L23.1162 48.6955C22.9078 48.7912 22.6742 48.8173 22.4498 48.7698C22.2254 48.7224 22.0223 48.604 21.8705 48.4321C21.7711 48.3198 21.6965 48.1878 21.6515 48.0447C21.6065 47.9016 21.5922 47.7506 21.6094 47.6016L22.72 38.0697L16.2194 31.0104C16.0911 30.8711 16.0022 30.7002 15.9617 30.5151C15.9212 30.3301 15.9307 30.1376 15.9891 29.9575C16.0476 29.7773 16.1529 29.6159 16.2943 29.4899C16.4356 29.3639 16.608 29.2777 16.7937 29.2402L26.201 27.3479L30.91 18.9834C31.0029 18.8183 31.138 18.6808 31.3016 18.5851C31.4652 18.4894 31.6512 18.439 31.8407 18.439C32.0302 18.439 32.2163 18.4894 32.3799 18.5851C32.5435 18.6808 32.6786 18.8183 32.7715 18.9834L37.4722 27.349L46.8819 29.2391C47.0677 29.2763 47.2401 29.3624 47.3817 29.4883C47.5232 29.6143 47.6287 29.7757 47.6872 29.9559C47.7458 30.1361 47.7554 30.3286 47.715 30.5137C47.6746 30.6988 47.5856 30.8698 47.4573 31.0092L40.9556 38.0686L42.0649 47.6005C42.0825 47.7502 42.0682 47.9019 42.0229 48.0457C41.9776 48.1895 41.9024 48.3221 41.8022 48.4347C41.702 48.5474 41.5791 48.6375 41.4416 48.6992C41.304 48.761 41.155 48.7929 41.0042 48.7928H41.0078Z" fill="url(#paint13_linear_1179_16915)"/>
<path d="M23.9954 37.6317C23.9226 37.3937 23.7973 37.1752 23.6288 36.9922L17.5708 30.4121L26.341 28.6503C26.5725 28.6039 26.7914 28.5084 26.9829 28.3703C27.1751 28.2315 31.8402 34.9883 31.8402 34.9883C31.8402 34.9883 24.0654 37.8476 23.9954 37.6317Z" fill="url(#paint14_linear_1179_16915)"/>
<path d="M17.5708 30.4121L26.341 28.6503C26.5725 28.6039 26.7914 28.5084 26.9829 28.3703C27.1751 28.2315 31.8402 34.9883 31.8402 34.9883L17.5708 30.4121Z" fill="url(#paint15_linear_1179_16915)"/>
<path d="M31.8403 43.3052C31.6032 43.3047 31.3688 43.3557 31.1534 43.4547L23.0215 47.1873L24.0549 38.302C24.0818 38.0769 24.0616 37.8486 23.9955 37.6317C23.9232 37.3944 31.8403 34.9883 31.8403 34.9883C31.8403 34.9883 32.08 43.3052 31.8403 43.3052Z" fill="url(#paint16_linear_1179_16915)"/>
<path d="M23.0215 47.1873L24.0549 38.302C24.0818 38.0769 24.0616 37.8486 23.9955 37.6317C23.9232 37.3944 31.8403 34.9883 31.8403 34.9883L23.0215 47.1873Z" fill="url(#paint17_linear_1179_16915)"/>
<path d="M32.5285 43.4583C32.3126 43.3591 32.0778 43.3081 31.8403 43.3088C31.603 43.3088 31.8403 34.9883 31.8403 34.9883C31.8403 34.9883 39.7693 37.3766 39.6958 37.5985C39.6224 37.8249 39.5985 38.0644 39.6258 38.3008L40.6603 47.1861L32.5285 43.4583Z" fill="url(#paint18_linear_1179_16915)"/>
<path d="M31.8403 34.9883C31.8403 34.9883 39.7693 37.3766 39.6958 37.5985C39.6224 37.8249 39.5985 38.0644 39.6258 38.3008L40.6603 47.1861L31.8403 34.9883Z" fill="url(#paint19_linear_1179_16915)"/>
<path d="M31.8403 34.9883C31.8403 34.9883 36.5054 28.2256 36.6953 28.3679C36.8879 28.5075 37.1085 28.6039 37.3419 28.6503L46.1109 30.4122L40.0517 36.9946C39.891 37.1684 39.7696 37.3748 39.6958 37.5997C39.6234 37.8227 31.8403 34.9883 31.8403 34.9883Z" fill="url(#paint20_linear_1179_16915)"/>
<path d="M31.8403 34.9883C31.8403 34.9883 36.5054 28.2256 36.6953 28.3679C36.8879 28.5075 37.1085 28.6039 37.3419 28.6503L46.1109 30.4122L31.8403 34.9883Z" fill="url(#paint21_linear_1179_16915)"/>
<path d="M31.84 34.9887C31.84 34.9887 26.7941 28.5071 26.9827 28.3707C27.178 28.231 27.34 28.0499 27.4573 27.8403L31.8471 20.0454L36.237 27.8415C36.3531 28.0487 36.5125 28.2284 36.7044 28.3683C36.8848 28.5059 31.84 34.9887 31.84 34.9887Z" fill="url(#paint22_linear_1179_16915)"/>
<path d="M31.84 34.9887C31.84 34.9887 26.7941 28.5071 26.9827 28.3707C27.178 28.231 27.34 28.0499 27.4573 27.8403L31.8471 20.0454L31.84 34.9887Z" fill="url(#paint23_linear_1179_16915)"/>
<path d="M31.8402 20.0454L31.7725 34.9021L17.5708 30.4126L31.7346 35.0219L23.0213 47.1877L31.8366 35.1097L40.6602 47.1877L31.9469 35.0278L46.1107 30.4126L31.9066 34.9044L31.8402 20.0454Z" fill="url(#paint24_linear_1179_16915)"/>
<path style="mix-blend-mode:screen" d="M61.5428 16.7113L33.2746 0.390598C32.8319 0.134721 32.3296 0 31.8182 0C31.3069 0 30.8046 0.134721 30.3619 0.390598L2.09367 16.7113C1.65061 16.967 1.28269 17.3348 1.02693 17.7778C0.771172 18.2208 0.63659 18.7233 0.636719 19.2349V51.8763C0.636678 52.3877 0.771308 52.89 1.02707 53.3328C1.28283 53.7756 1.6507 54.1432 2.09367 54.3987L30.3619 70.7194C30.8046 70.9753 31.3069 71.11 31.8182 71.11C32.3296 71.11 32.8319 70.9753 33.2746 70.7194L61.5428 54.3987C61.9857 54.1432 62.3536 53.7756 62.6094 53.3328C62.8651 52.89 62.9998 52.3877 62.9997 51.8763V19.2349C62.9999 18.7233 62.8653 18.2208 62.6095 17.7778C62.3538 17.3348 61.9858 16.967 61.5428 16.7113Z" fill="url(#paint25_linear_1179_16915)"/>
<defs>
<linearGradient id="paint0_linear_1179_16915" x1="26.9497" y1="3.36145" x2="36.9775" y2="69.6765" gradientUnits="userSpaceOnUse">
<stop stop-color="#A2CED8"/>
<stop offset="0.71" stop-color="#AFAFAF"/>
<stop offset="1" stop-color="#B6B6B6"/>
</linearGradient>
<linearGradient id="paint1_linear_1179_16915" x1="27.218" y1="5.13657" x2="36.6941" y2="67.7938" gradientUnits="userSpaceOnUse">
<stop stop-color="#EAEAEA"/>
<stop offset="1" stop-color="#E7E7E7"/>
</linearGradient>
<linearGradient id="paint2_linear_1179_16915" x1="27.2853" y1="5.58151" x2="36.6226" y2="67.324" gradientUnits="userSpaceOnUse">
<stop stop-color="#B1B1B1"/>
<stop offset="0.7" stop-color="#A7A7A7"/>
<stop offset="1" stop-color="#B1B1B1"/>
</linearGradient>
<linearGradient id="paint3_linear_1179_16915" x1="3.77576" y1="19.7356" x2="4.74627" y2="51.5999" gradientUnits="userSpaceOnUse">
<stop stop-color="#B0B0B0"/>
<stop offset="0.7" stop-color="#BABABA"/>
<stop offset="1" stop-color="#BFBFBF"/>
</linearGradient>
<linearGradient id="paint4_linear_1179_16915" x1="16.1008" y1="49.9697" x2="19.1879" y2="70.3825" gradientUnits="userSpaceOnUse">
<stop stop-color="#DEDEDE"/>
<stop offset="1" stop-color="#D7D7D7"/>
</linearGradient>
<linearGradient id="paint5_linear_1179_16915" x1="31.4867" y1="67.3677" x2="59.3064" y2="51.6782" gradientUnits="userSpaceOnUse">
<stop stop-color="#9CC8D5"/>
<stop offset="0.36" stop-color="#C5C5C5"/>
<stop offset="1" stop-color="#C0C0C0"/>
</linearGradient>
<linearGradient id="paint6_linear_1179_16915" x1="57.2051" y1="20.7238" x2="61.8773" y2="51.6153" gradientUnits="userSpaceOnUse">
<stop stop-color="#B5B5B5"/>
<stop offset="0.77" stop-color="#B0B0B0"/>
<stop offset="1" stop-color="#E4E4E4"/>
</linearGradient>
<linearGradient id="paint7_linear_1179_16915" x1="44.5373" y1="1.32099" x2="47.6245" y2="21.7338" gradientUnits="userSpaceOnUse">
<stop stop-color="#A3A3A3"/>
<stop offset="1" stop-color="#B7B7B7"/>
</linearGradient>
<linearGradient id="paint8_linear_1179_16915" x1="3.13035" y1="11.3903" x2="31.8553" y2="11.3903" gradientUnits="userSpaceOnUse">
<stop stop-color="#C2C2C2"/>
<stop offset="1" stop-color="#A9A9A9"/>
</linearGradient>
<linearGradient id="paint9_linear_1179_16915" x1="28.4598" y1="9.96874" x2="35.2534" y2="61.7261" gradientUnits="userSpaceOnUse">
<stop stop-color="white"/>
<stop offset="0.73" stop-color="#B6B6B6"/>
<stop offset="0.9" stop-color="#B5B5B5"/>
<stop offset="1" stop-color="#A5A5A5"/>
</linearGradient>
<linearGradient id="paint10_linear_1179_16915" x1="31.4259" y1="45.8089" x2="33.5817" y2="62.2317" gradientUnits="userSpaceOnUse">
<stop stop-color="#D1D1D1"/>
<stop offset="1" stop-color="#A9A9A9"/>
</linearGradient>
<linearGradient id="paint11_linear_1179_16915" x1="26.6864" y1="6.84386" x2="36.8768" y2="63.8584" gradientUnits="userSpaceOnUse">
<stop stop-color="#858585"/>
<stop offset="0.67" stop-color="#8B8B8B"/>
<stop offset="1" stop-color="#8C8C8C"/>
</linearGradient>
<linearGradient id="paint12_linear_1179_16915" x1="30.0722" y1="9.06704" x2="32.241" y2="25.5918" gradientUnits="userSpaceOnUse">
<stop stop-color="white"/>
<stop offset="1" stop-color="#CDCDCD"/>
</linearGradient>
<linearGradient id="paint13_linear_1179_16915" x1="15.9383" y1="33.617" x2="47.742" y2="33.617" gradientUnits="userSpaceOnUse">
<stop stop-color="#8E8E8E"/>
<stop offset="0.33" stop-color="#949494"/>
<stop offset="1" stop-color="#7C7C7C"/>
</linearGradient>
<linearGradient id="paint14_linear_1179_16915" x1="17.5708" y1="33.0057" x2="31.8402" y2="33.0057" gradientUnits="userSpaceOnUse">
<stop stop-color="#AAAAAA"/>
<stop offset="1" stop-color="white"/>
</linearGradient>
<linearGradient id="paint15_linear_1179_16915" x1="18.6386" y1="28.5577" x2="33.1785" y2="32.7672" gradientUnits="userSpaceOnUse">
<stop stop-color="#E1E1E1"/>
<stop offset="0.16" stop-color="#EAEAEA"/>
<stop offset="0.42" stop-color="#F0F0F0"/>
<stop offset="0.76" stop-color="#F6F6F6"/>
<stop offset="1" stop-color="white"/>
</linearGradient>
<linearGradient id="paint16_linear_1179_16915" x1="22.4117" y1="46.4647" x2="31.4701" y2="36.5983" gradientUnits="userSpaceOnUse">
<stop stop-color="#D3D3D3"/>
<stop offset="1" stop-color="#B4B4B4"/>
</linearGradient>
<linearGradient id="paint17_linear_1179_16915" x1="27.8574" y1="36.4713" x2="23.8128" y2="47.4709" gradientUnits="userSpaceOnUse">
<stop stop-color="#C8C8C8"/>
<stop offset="1" stop-color="white"/>
</linearGradient>
<linearGradient id="paint18_linear_1179_16915" x1="32.1702" y1="36.9934" x2="41.0697" y2="45.5417" gradientUnits="userSpaceOnUse">
<stop stop-color="#DCDCDC"/>
<stop offset="1" stop-color="#B0B0B0"/>
</linearGradient>
<linearGradient id="paint19_linear_1179_16915" x1="34.9322" y1="34.9088" x2="41.8871" y2="46.3924" gradientUnits="userSpaceOnUse">
<stop stop-color="#C8C8C8"/>
<stop offset="0.29" stop-color="#C4C4C4"/>
<stop offset="0.51" stop-color="#D5D5D5"/>
<stop offset="0.7" stop-color="#D7D7D7"/>
<stop offset="0.88" stop-color="#ECECEC"/>
<stop offset="1" stop-color="#FCFCFC"/>
</linearGradient>
<linearGradient id="paint20_linear_1179_16915" x1="31.4168" y1="34.7308" x2="47.1063" y2="30.6874" gradientUnits="userSpaceOnUse">
<stop stop-color="#D0D0D0"/>
<stop offset="1" stop-color="#D8D8D8"/>
</linearGradient>
<linearGradient id="paint21_linear_1179_16915" x1="33.0315" y1="31.9451" x2="44.896" y2="29.3669" gradientUnits="userSpaceOnUse">
<stop stop-color="white"/>
<stop offset="1" stop-color="#858585"/>
</linearGradient>
<linearGradient id="paint22_linear_1179_16915" x1="30.8683" y1="20.5259" x2="32.4866" y2="33.6278" gradientUnits="userSpaceOnUse">
<stop stop-color="#A5A5A5"/>
<stop offset="1" stop-color="#D8D8D8"/>
</linearGradient>
<linearGradient id="paint23_linear_1179_16915" x1="30.4732" y1="19.1757" x2="29.18" y2="34.3788" gradientUnits="userSpaceOnUse">
<stop offset="0.21" stop-color="white"/>
<stop offset="1" stop-color="#D8D8D8"/>
</linearGradient>
<linearGradient id="paint24_linear_1179_16915" x1="30.3085" y1="25.3073" x2="36.0081" y2="44.2987" gradientUnits="userSpaceOnUse">
<stop stop-color="#DEDEDE"/>
<stop offset="1" stop-color="#E0E0E0"/>
</linearGradient>
<linearGradient id="paint25_linear_1179_16915" x1="26.7219" y1="1.85704" x2="31.0097" y2="30.2107" gradientUnits="userSpaceOnUse">
<stop stop-color="white"/>
<stop offset="0.17" stop-color="#CACACA"/>
<stop offset="0.4" stop-color="#878787"/>
<stop offset="0.6" stop-color="#454545"/>
<stop offset="0.78" stop-color="#222222"/>
<stop offset="0.92"/>
<stop offset="1"/>
</linearGradient>
</defs>
</svg>
