<svg width="54" height="54" viewBox="0 0 54 54" fill="none" xmlns="http://www.w3.org/2000/svg">
<g clip-path="url(#clip0_1179_23569)">
<path d="M26.946 53.89C19.7487 53.89 12.9823 51.0872 7.89291 45.9981C2.80378 40.9087 0.000976562 34.1423 0.000976562 26.945C0.000976562 19.7477 2.80378 12.9813 7.89291 7.89194C12.9823 2.80281 19.7487 0 26.946 0C34.1432 0 40.9097 2.80281 45.999 7.89194C51.0882 12.9813 53.891 19.7477 53.891 26.945C53.891 34.1423 51.0882 40.9087 45.999 45.9981C40.9097 51.0872 34.1432 53.89 26.946 53.89Z" fill="url(#paint0_linear_1179_23569)"/>
<path d="M26.9462 6.31543C15.5709 6.31543 6.31641 15.5699 6.31641 26.9452C6.31641 38.3205 15.5709 47.575 26.9462 47.575C38.3215 47.575 47.5759 38.3205 47.5759 26.9452C47.5759 15.5699 38.3215 6.31543 26.9462 6.31543ZM33.7478 32.3993C33.4865 33.9537 32.7045 35.3959 31.546 36.4604C30.6464 37.2869 29.5775 37.8428 28.4005 38.1066V39.5757C28.4005 40.4476 27.6936 41.1545 26.8217 41.1545C25.9497 41.1545 25.2428 40.4476 25.2428 39.5757V38.247C23.7261 38.1419 22.5134 37.7728 20.7642 36.6283C20.0345 36.1509 19.83 35.1725 20.3073 34.4427C20.7848 33.7128 21.7633 33.5085 22.4929 33.9858C23.5942 34.7064 24.2647 34.983 25.2428 35.0801V27.0607C24.0408 26.5186 23.1551 26.0017 22.4358 25.4375C21.0048 24.3152 20.3528 22.3615 20.7339 20.3389C21.1507 18.1272 22.6878 16.3683 24.7457 15.7485C24.914 15.6978 25.0792 15.6543 25.2428 15.614V14.3147C25.2428 13.4428 25.9497 12.7359 26.8217 12.7359C27.6936 12.7359 28.4005 13.4428 28.4005 14.3147V15.4309C30.1898 15.6917 31.4478 16.5561 32.0453 17.2417C32.6182 17.899 32.5498 18.8964 31.8925 19.4692C31.2374 20.0404 30.2444 19.9742 29.6707 19.3228C29.641 19.2925 29.2221 18.8785 28.4006 18.6543V24.9421C28.7712 25.081 29.1421 25.215 29.5053 25.3434C31.1104 25.9109 32.3512 26.9269 33.0932 28.2817C33.7577 29.4952 33.9902 30.9575 33.7478 32.3993ZM25.2428 18.9398V23.5231C24.925 23.3388 24.6344 23.149 24.3845 22.953C23.8923 22.5669 23.6773 21.7705 23.837 20.9237C23.9712 20.2117 24.4096 19.3691 25.2428 18.9398ZM30.6339 31.8759C30.4418 33.019 29.6835 34.2289 28.4005 34.7962V28.302C28.418 28.3082 28.4351 28.3144 28.4528 28.3207C30.8866 29.1807 30.7375 31.2593 30.6339 31.8759Z" fill="url(#paint1_linear_1179_23569)"/>
</g>
<defs>
<linearGradient id="paint0_linear_1179_23569" x1="26.946" y1="53.89" x2="26.946" y2="0" gradientUnits="userSpaceOnUse">
<stop stop-color="#5558FF"/>
<stop offset="1" stop-color="#00C0FF"/>
</linearGradient>
<linearGradient id="paint1_linear_1179_23569" x1="26.9462" y1="47.575" x2="26.9462" y2="6.31543" gradientUnits="userSpaceOnUse">
<stop stop-color="#ADDCFF"/>
<stop offset="0.5028" stop-color="#EAF6FF"/>
<stop offset="1" stop-color="#EAF6FF"/>
</linearGradient>
<clipPath id="clip0_1179_23569">
<rect width="53.89" height="53.89" fill="white"/>
</clipPath>
</defs>
</svg>
