<svg width="54" height="54" viewBox="0 0 54 54" fill="none" xmlns="http://www.w3.org/2000/svg">
<g clip-path="url(#clip0_1179_23560)">
<path d="M22.6302 28.4186C14.7952 28.4186 8.4209 22.0443 8.4209 14.2093C8.4209 6.37428 14.7952 0 22.6302 0C30.4652 0 36.8395 6.37428 36.8395 14.2093C36.8395 22.0443 30.4652 28.4186 22.6302 28.4186ZM42.8389 53.89C36.745 53.89 31.7873 48.9322 31.7873 42.8383C31.7873 36.7445 36.745 31.7867 42.8389 31.7867C48.9328 31.7867 53.8906 36.7445 53.8906 42.8383C53.8906 48.9322 48.9328 53.89 42.8389 53.89Z" fill="url(#paint0_linear_1179_23560)"/>
<path d="M42.8393 53.89H1.57979C0.707862 53.89 0.000976562 53.1831 0.000976562 52.3112V46.838C0.000976562 37.4134 5.84899 29.1045 14.371 25.7648C16.7002 27.4343 19.5525 28.4185 22.6306 28.4185C25.7086 28.4185 28.561 27.4343 30.8902 25.7646C34.4172 27.1468 37.4858 29.3803 39.8717 32.1919C35.2144 33.4917 31.7877 37.7721 31.7877 42.8383C31.7877 48.9322 36.7454 53.89 42.8393 53.89ZM47.0495 41.2595H44.4181V38.6281C44.4181 37.7562 43.7112 37.0493 42.8393 37.0493C41.9674 37.0493 41.2605 37.7562 41.2605 38.6281V41.2595H38.6292C37.7572 41.2595 37.0504 41.9664 37.0504 42.8383C37.0504 43.7102 37.7572 44.4171 38.6292 44.4171H41.2605V47.0485C41.2605 47.9204 41.9674 48.6273 42.8393 48.6273C43.7112 48.6273 44.4181 47.9204 44.4181 47.0485V44.4171H47.0495C47.9214 44.4171 48.6283 43.7102 48.6283 42.8383C48.6283 41.9664 47.9214 41.2595 47.0495 41.2595Z" fill="url(#paint1_linear_1179_23560)"/>
</g>
<defs>
<linearGradient id="paint0_linear_1179_23560" x1="31.1557" y1="53.89" x2="31.1557" y2="0" gradientUnits="userSpaceOnUse">
<stop stop-color="#ADDCFF"/>
<stop offset="0.5028" stop-color="#EAF6FF"/>
<stop offset="1" stop-color="#EAF6FF"/>
</linearGradient>
<linearGradient id="paint1_linear_1179_23560" x1="24.3146" y1="53.89" x2="24.3146" y2="25.7646" gradientUnits="userSpaceOnUse">
<stop stop-color="#5558FF"/>
<stop offset="1" stop-color="#00C0FF"/>
</linearGradient>
<clipPath id="clip0_1179_23560">
<rect width="53.89" height="53.89" fill="white"/>
</clipPath>
</defs>
</svg>
