<svg width="54" height="54" viewBox="0 0 54 54" fill="none" xmlns="http://www.w3.org/2000/svg">
<g clip-path="url(#clip0_1179_23551)">
<path d="M19.2663 26.0068C19.8244 27.994 20.8961 29.8694 22.4591 31.4324C24.0222 32.9954 25.8976 34.0671 27.8848 34.6253L29.1575 38.1308L34.6502 34.6924C36.7266 34.134 38.6915 33.0623 40.3214 31.4324L50.1907 21.5631C55.1252 16.6286 55.1252 8.6354 50.1907 3.70089C45.2562 -1.23363 37.263 -1.23363 32.3285 3.70089L22.4591 13.5702C20.8293 15.2001 19.7576 17.165 19.1992 19.2414L22.4591 22.5013L25.9646 19.3085C26.5565 18.1789 26.651 18.3952 36.794 8.16649C39.2501 5.71039 43.2691 5.7105 45.7251 8.16649C48.1811 10.6225 48.1812 14.6415 45.7251 17.0976L35.8558 26.9669C35.4762 27.3465 35.052 27.6813 34.583 27.9271L29.1574 24.7342L22.459 22.5014L19.2663 26.0068Z" fill="url(#paint0_linear_1179_23551)"/>
<path d="M31.3898 40.3633L21.564 50.1891C16.6297 55.1234 8.6363 55.1236 3.70178 50.1891C-1.23273 45.2546 -1.23252 37.2613 3.70178 32.3268L13.5276 22.5011C15.1576 20.871 17.1224 19.7994 19.1987 19.2412C21.4093 18.6384 23.7537 18.6606 25.9641 19.3082C27.9513 19.8664 29.8267 20.9381 31.3898 22.5011C32.9528 24.0641 34.0244 25.9395 34.5826 27.9267C32.1714 29.3557 29.0007 29.0431 26.9243 26.9666C24.8478 24.89 21.6771 24.5775 19.2659 26.0065C18.7971 26.252 18.3729 26.5868 17.9932 26.9666L8.16739 36.7925C5.7114 39.2484 5.7114 43.2676 8.16739 45.7236C10.6234 48.1796 14.6425 48.1796 17.0985 45.7236C27.1751 35.5615 27.2923 35.7553 27.8843 34.6252C30.0948 35.2726 32.439 35.295 34.6497 34.6922C34.0915 36.7685 33.0198 38.7333 31.3898 40.3633Z" fill="url(#paint1_linear_1179_23551)"/>
</g>
<defs>
<linearGradient id="paint0_linear_1179_23551" x1="22.4584" y1="31.4299" x2="50.1857" y2="3.70261" gradientUnits="userSpaceOnUse">
<stop stop-color="#BECCFF"/>
<stop offset="1" stop-color="#F1F5FF"/>
</linearGradient>
<linearGradient id="paint1_linear_1179_23551" x1="3.70403" y1="50.1838" x2="31.3878" y2="22.5" gradientUnits="userSpaceOnUse">
<stop stop-color="#3A95FF"/>
<stop offset="1" stop-color="#81A4FF"/>
</linearGradient>
<clipPath id="clip0_1179_23551">
<rect width="53.89" height="53.89" fill="white"/>
</clipPath>
</defs>
</svg>
