<svg width="25" height="24" viewBox="0 0 25 24" fill="none" xmlns="http://www.w3.org/2000/svg">
<path d="M14.928 3.38822C14.9875 3.32862 15.0581 3.28133 15.1359 3.24907C15.2136 3.2168 15.297 3.2002 15.3811 3.2002C15.4653 3.2002 15.5487 3.2168 15.6264 3.24907C15.7042 3.28133 15.7748 3.32862 15.8343 3.38822L19.6743 7.22822C19.7339 7.28767 19.7811 7.35829 19.8134 7.43605C19.8457 7.5138 19.8623 7.59716 19.8623 7.68134C19.8623 7.76552 19.8457 7.84888 19.8134 7.92663C19.7811 8.00438 19.7339 8.07501 19.6743 8.13446L15.8343 11.9745C15.7748 12.034 15.7041 12.0812 15.6264 12.1134C15.5486 12.1456 15.4653 12.1621 15.3811 12.1621C15.297 12.1621 15.2137 12.1456 15.1359 12.1134C15.0582 12.0812 14.9875 12.034 14.928 11.9745C14.8685 11.915 14.8213 11.8443 14.7891 11.7666C14.7569 11.6888 14.7403 11.6055 14.7403 11.5213C14.7403 11.4372 14.7569 11.3539 14.7891 11.2761C14.8213 11.1984 14.8685 11.1277 14.928 11.0682L17.6762 8.32134H5.14114C4.97141 8.32134 4.80862 8.25391 4.6886 8.13389C4.56857 8.01386 4.50114 7.85108 4.50114 7.68134C4.50114 7.5116 4.56857 7.34881 4.6886 7.22879C4.80862 7.10877 4.97141 7.04134 5.14114 7.04134H17.6762L14.928 4.29446C14.8684 4.23501 14.8211 4.16438 14.7889 4.08663C14.7566 4.00888 14.74 3.92552 14.74 3.84134C14.74 3.75716 14.7566 3.6738 14.7889 3.59605C14.8211 3.51829 14.8684 3.44767 14.928 3.38822ZM9.43426 12.3482C9.49386 12.4077 9.54115 12.4783 9.57342 12.556C9.60568 12.6338 9.62229 12.7172 9.62229 12.8013C9.62229 12.8855 9.60568 12.9689 9.57342 13.0466C9.54115 13.1244 9.49386 13.195 9.43426 13.2545L6.6861 16.0013H19.2211C19.3909 16.0013 19.5537 16.0688 19.6737 16.1888C19.7937 16.3088 19.8611 16.4716 19.8611 16.6413C19.8611 16.8111 19.7937 16.9739 19.6737 17.0939C19.5537 17.2139 19.3909 17.2813 19.2211 17.2813H6.6861L9.43426 20.0282C9.55444 20.1484 9.62195 20.3114 9.62195 20.4813C9.62195 20.6513 9.55444 20.8143 9.43426 20.9345C9.31409 21.0546 9.1511 21.1221 8.98114 21.1221C8.81119 21.1221 8.6482 21.0546 8.52802 20.9345L4.68802 17.0945C4.62842 17.035 4.58114 16.9644 4.54887 16.8866C4.51661 16.8089 4.5 16.7255 4.5 16.6413C4.5 16.5572 4.51661 16.4738 4.54887 16.396C4.58114 16.3183 4.62842 16.2477 4.68802 16.1882L8.52802 12.3482C8.58747 12.2886 8.6581 12.2413 8.73585 12.2091C8.81361 12.1768 8.89696 12.1602 8.98114 12.1602C9.06533 12.1602 9.14868 12.1768 9.22643 12.2091C9.30419 12.2413 9.37481 12.2886 9.43426 12.3482Z" fill="black"/>
</svg>
