<svg width="348" height="320" viewBox="0 0 348 320" fill="none" xmlns="http://www.w3.org/2000/svg">
<path d="M174.532 273.288C104.602 273.288 47.7056 216.392 47.7056 146.442C47.7056 76.5513 104.602 19.6353 174.532 19.6353C244.462 19.6353 301.358 76.5513 301.358 146.442C301.358 216.392 244.462 273.288 174.532 273.288ZM174.532 80.2611C138.01 80.2611 108.312 109.939 108.312 146.442C108.312 182.984 138.01 212.662 174.532 212.662C211.034 212.662 240.732 182.964 240.732 146.442C240.732 109.939 211.034 80.2611 174.532 80.2611Z" fill="#F4F4F4"/>
<path d="M174.532 273.288C104.602 273.288 47.7056 216.392 47.7056 146.442C47.7056 76.5513 104.602 19.6353 174.532 19.6353C244.462 19.6353 301.358 76.5513 301.358 146.442C301.358 216.392 244.462 273.288 174.532 273.288ZM174.532 80.2611C138.01 80.2611 108.312 109.939 108.312 146.442C108.312 182.984 138.01 212.662 174.532 212.662C211.034 212.662 240.732 182.964 240.732 146.442C240.732 109.939 211.034 80.2611 174.532 80.2611Z" fill="url(#paint0_linear_1179_20565)"/>
<path d="M65.5996 81.8481L113.112 121.862C119.838 105.138 133.189 91.8069 149.912 85.0619L109.918 37.5492C91.7068 48.3809 76.4512 63.6366 65.5996 81.8481ZM235.951 121.842L283.464 81.8283C272.632 63.6366 257.396 48.3809 239.185 37.5492L199.131 85.0619C215.875 91.7871 229.226 105.158 235.951 121.842ZM199.131 207.881L239.185 255.394C257.376 244.542 272.612 229.286 283.464 211.114L235.951 171.101C229.226 187.804 215.875 201.156 199.131 207.881ZM113.112 171.101L65.5996 211.114C76.4512 229.326 91.7068 244.542 109.899 255.394L149.912 207.901C133.189 201.156 119.838 187.804 113.112 171.101Z" fill="#0602C1"/>
<g filter="url(#filter0_f_1179_20565)">
<path d="M286.392 146.074C286.392 208.067 236.137 258.322 174.145 258.322C112.153 258.322 61.8979 208.067 61.8979 146.074C61.8979 84.0821 112.153 33.8274 174.145 33.8274C236.137 33.8274 286.392 84.0821 286.392 146.074ZM100.747 146.074C100.747 186.611 133.608 219.473 174.145 219.473C214.682 219.473 247.543 186.611 247.543 146.074C247.543 105.538 214.682 72.6761 174.145 72.6761C133.608 72.6761 100.747 105.538 100.747 146.074Z" fill="url(#paint1_linear_1179_20565)"/>
</g>
<g filter="url(#filter1_d_1179_20565)">
<path fill-rule="evenodd" clip-rule="evenodd" d="M233.494 106.788C233.494 95.7664 224.56 86.8318 213.538 86.8318H140.366V146.044V205.256H213.538C224.56 205.256 233.494 196.321 233.494 185.3V106.788ZM213.538 146.044C213.538 123.153 194.981 104.595 172.09 104.595H140.366V187.492H172.09C194.981 187.492 213.538 168.935 213.538 146.044Z" fill="white"/>
<path d="M134.795 205.317V111.007H114.873V125.153V191.17C114.873 198.983 121.206 205.317 129.019 205.317H134.795Z" fill="white"/>
<path d="M140.226 111.007H170.765C189.908 111.007 205.426 126.525 205.426 145.668C205.426 164.81 189.908 180.328 170.765 180.328H140.226V111.007Z" fill="#3900FA"/>
<path d="M114.873 99.0272C114.873 92.2919 120.333 86.8318 127.068 86.8318H134.795V104.565H114.873V99.0272Z" fill="white"/>
</g>
<rect x="9" y="71.2432" width="329" height="241.267" fill="url(#paint2_linear_1179_20565)"/>
<defs>
<filter id="filter0_f_1179_20565" x="0.484615" y="-27.5859" width="347.321" height="347.321" filterUnits="userSpaceOnUse" color-interpolation-filters="sRGB">
<feFlood flood-opacity="0" result="BackgroundImageFix"/>
<feBlend mode="normal" in="SourceGraphic" in2="BackgroundImageFix" result="shape"/>
<feGaussianBlur stdDeviation="30.7067" result="effect1_foregroundBlur_1179_20565"/>
</filter>
<filter id="filter1_d_1179_20565" x="65.8451" y="70.0592" width="216.676" height="216.54" filterUnits="userSpaceOnUse" color-interpolation-filters="sRGB">
<feFlood flood-opacity="0" result="BackgroundImageFix"/>
<feColorMatrix in="SourceAlpha" type="matrix" values="0 0 0 0 0 0 0 0 0 0 0 0 0 0 0 0 0 0 127 0" result="hardAlpha"/>
<feMorphology radius="15.4824" operator="erode" in="SourceAlpha" result="effect1_dropShadow_1179_20565"/>
<feOffset dy="32.2549"/>
<feGaussianBlur stdDeviation="32.2549"/>
<feComposite in2="hardAlpha" operator="out"/>
<feColorMatrix type="matrix" values="0 0 0 0 0 0 0 0 0 0 0 0 0 0 0 0 0 0 0.47 0"/>
<feBlend mode="normal" in2="BackgroundImageFix" result="effect1_dropShadow_1179_20565"/>
<feBlend mode="normal" in="SourceGraphic" in2="effect1_dropShadow_1179_20565" result="shape"/>
</filter>
<linearGradient id="paint0_linear_1179_20565" x1="174.532" y1="19.6353" x2="174.532" y2="273.288" gradientUnits="userSpaceOnUse">
<stop stop-color="white"/>
<stop offset="1" stop-color="#D4C9FF"/>
</linearGradient>
<linearGradient id="paint1_linear_1179_20565" x1="174.145" y1="33.8274" x2="174.145" y2="258.322" gradientUnits="userSpaceOnUse">
<stop stop-color="white"/>
<stop offset="1" stop-color="#D4C9FF"/>
</linearGradient>
<linearGradient id="paint2_linear_1179_20565" x1="173.5" y1="71.2432" x2="173.5" y2="259.612" gradientUnits="userSpaceOnUse">
<stop stop-color="white" stop-opacity="0"/>
<stop offset="1" stop-color="white"/>
</linearGradient>
</defs>
</svg>
