<svg width="43" height="43" viewBox="0 0 43 43" fill="none" xmlns="http://www.w3.org/2000/svg">
<path d="M40.1466 13.5323C38.2733 11.8026 35.6819 9.16126 33.5713 7.28796L33.4464 7.20054C33.2386 7.03367 33.0043 6.90281 32.7533 6.81339C27.6642 5.86425 3.97937 1.43701 3.51728 1.49321C3.38781 1.51134 3.26404 1.55828 3.15511 1.63058L3.03647 1.72425C2.89038 1.87261 2.77942 2.05185 2.71176 2.24877L2.68054 2.32995V2.7733V2.84198C5.34688 10.2665 15.8748 34.5882 17.948 40.2956C18.0728 40.6827 18.3101 41.4195 18.7535 41.457H18.8534C19.0907 41.457 20.1023 40.1207 20.1023 40.1207C20.1023 40.1207 38.1859 18.1906 40.0155 15.8552C40.2523 15.5675 40.4614 15.2581 40.6399 14.931C40.6855 14.6751 40.664 14.4118 40.5775 14.1667C40.4911 13.9215 40.3426 13.703 40.1466 13.5323ZM24.7418 16.0862L32.4598 9.68578L36.987 13.857L24.7418 16.0862ZM21.7445 15.6679L8.45656 4.77773L29.9558 8.74289L21.7445 15.6679ZM22.9434 18.5215L36.5436 16.3298L20.9952 35.0628L22.9434 18.5215ZM6.65194 5.86425L20.633 17.7285L18.6099 35.0753L6.65194 5.86425Z" fill="#FF060A"/>
</svg>
