<svg width="60" height="60" viewBox="0 0 60 60" fill="none" xmlns="http://www.w3.org/2000/svg">
<path fill-rule="evenodd" clip-rule="evenodd" d="M30 5C23.8978 5 18.652 8.6436 16.3093 13.8634C16.1003 14.3291 15.9606 14.64 15.8552 14.8618C15.8292 14.9164 15.8081 14.9595 15.7913 14.9932C15.7772 14.9938 15.7608 14.9944 15.7419 14.995C15.5829 14.9997 15.365 15 15 15C9.47715 15 5 19.4772 5 25C5 30.5228 9.47715 35 15 35H15.4289L20.4289 30H15C12.2386 30 10 27.7614 10 25C10 22.2386 12.2386 20 15 20L15.1605 20.0002H15.1605C15.6794 20.0014 16.2836 20.0028 16.7858 19.9017C17.3171 19.7948 17.9313 19.6173 18.535 19.2266C19.1386 18.8358 19.5521 18.3481 19.8672 17.9071C20.0843 17.6034 20.2555 17.2512 20.3707 17.0088C20.5028 16.7311 20.6651 16.3693 20.8588 15.9377L20.871 15.9107C22.4368 12.4218 25.9383 10 30 10C34.0617 10 37.5632 12.4218 39.129 15.9107L39.1412 15.9378C39.3349 16.3693 39.4972 16.7311 39.6293 17.0088C39.7445 17.2512 39.9157 17.6034 40.1328 17.9071C40.4479 18.3481 40.8614 18.8358 41.465 19.2266C42.0687 19.6173 42.6829 19.7948 43.2142 19.9017C43.7164 20.0028 44.3206 20.0014 44.8395 20.0002L45 20C47.7614 20 50 22.2386 50 25C50 27.7614 47.7614 30 45 30H39.5711L44.5711 35H45C50.5228 35 55 30.5228 55 25C55 19.4772 50.5228 15 45 15C44.635 15 44.4171 14.9997 44.2581 14.995C44.2392 14.9944 44.2228 14.9938 44.2087 14.9932C44.1918 14.9595 44.1708 14.9164 44.1448 14.8618C44.0394 14.64 43.8997 14.3291 43.6907 13.8634C41.348 8.6436 36.1022 5 30 5ZM15.7439 15.0842L15.7443 15.0834L15.7444 15.0833C15.7441 15.0839 15.7439 15.0842 15.7439 15.0842ZM44.2556 15.0833L44.2557 15.0834L44.2561 15.0842C44.2561 15.0842 44.2559 15.0839 44.2556 15.0833Z" fill="#5D2FFB"/>
<path d="M30 30L28.2322 28.2322L30 26.4645L31.7678 28.2322L30 30ZM32.5 52.5C32.5 53.8807 31.3807 55 30 55C28.6193 55 27.5 53.8807 27.5 52.5L32.5 52.5ZM18.2322 38.2322L28.2322 28.2322L31.7678 31.7678L21.7678 41.7678L18.2322 38.2322ZM31.7678 28.2322L41.7678 38.2322L38.2322 41.7678L28.2322 31.7678L31.7678 28.2322ZM32.5 30L32.5 52.5L27.5 52.5L27.5 30L32.5 30Z" fill="#5D2FFB"/>
</svg>
