<svg width="25" height="24" viewBox="0 0 25 24" fill="none" xmlns="http://www.w3.org/2000/svg">
<path d="M20.5 5C21.0523 5 21.5 4.55228 21.5 4C21.5 3.44772 21.0523 3 20.5 3V5ZM6.00001 5L20.5 5V3L6.00001 3L6.00001 5ZM6.00001 10H14V8L6.00001 8V10ZM4.50001 6.5C4.50001 5.67157 5.17158 5 6.00001 5L6.00001 3C4.06701 3 2.50001 4.567 2.50001 6.5L4.50001 6.5ZM2.50001 6.5C2.50001 8.433 4.06701 10 6.00001 10V8C5.17158 8 4.50001 7.32843 4.50001 6.5L2.50001 6.5Z" fill="white"/>
<path d="M3.5 12L3.5 6.5" stroke="white" stroke-width="2"/>
<path d="M3.5 8.5H3V9L3 19V19.0329C2.99998 19.4762 2.99995 19.8581 3.04107 20.1639C3.08514 20.4917 3.18451 20.8058 3.43934 21.0607L3.43934 21.0607C3.69417 21.3155 4.00835 21.4149 4.33611 21.4589C4.64193 21.5 5.02384 21.5 5.46708 21.5L5.5 21.5L19.5 21.5C19.511 21.5 19.522 21.5 19.5329 21.5C19.9762 21.5 20.3581 21.5 20.6639 21.4589C20.9917 21.4149 21.3058 21.3155 21.5607 21.0607C21.8155 20.8058 21.9149 20.4917 21.9589 20.1639C22 19.8581 22 19.4762 22 19.0329C22 19.022 22 19.011 22 19V18V17.5H21.5H18.5C17.1193 17.5 16 16.3807 16 15C16 13.6193 17.1193 12.5 18.5 12.5H21.5H22V12V11L22 10.9671C22 10.5238 22 10.1419 21.9589 9.8361C21.9149 9.50835 21.8155 9.19417 21.5607 8.93934C21.3058 8.68451 20.9917 8.58514 20.6639 8.54107C20.3581 8.49995 19.9762 8.49997 19.5329 8.5L19.5 8.5L3.5 8.5Z" fill="white" stroke="white"/>
</svg>
