<svg width="34" height="34" viewBox="0 0 34 34" fill="none" xmlns="http://www.w3.org/2000/svg">
<path d="M20.9206 6.6559L30.3038 22.2843C31.6523 24.529 30.9899 27.4822 28.8237 28.8796C28.0967 29.3504 27.2492 29.6013 26.383 29.6022H7.61517C5.06527 29.6022 2.99707 27.4598 2.99707 24.8146C2.99707 23.9199 3.23932 23.0447 3.69441 22.2843L13.079 6.6559C14.4261 4.41127 17.2743 3.72373 19.4405 5.1212C20.0398 5.50768 20.5467 6.03278 20.9206 6.6559ZM17.812 7.83073C17.6405 7.72047 17.4485 7.6461 17.2476 7.61212C17.0466 7.57813 16.8408 7.58524 16.6427 7.63301C16.4445 7.68078 16.2581 7.76822 16.0947 7.89005C15.9313 8.01188 15.7943 8.16557 15.6919 8.34183L6.30872 23.9731C6.15629 24.2278 6.07595 24.5192 6.07627 24.816C6.07627 25.6982 6.76521 26.4124 7.61657 26.4124H26.3816C26.6701 26.4124 26.9515 26.3283 27.1952 26.1715C27.5448 25.9392 27.7913 25.581 27.8834 25.1715C27.9755 24.7619 27.906 24.3327 27.6895 23.9731L18.3063 8.34183C18.1832 8.13602 18.0146 7.96118 17.8134 7.83073H17.812ZM16.9998 24.0011C16.6284 24.0011 16.2723 23.8536 16.0097 23.591C15.7471 23.3284 15.5995 22.9722 15.5995 22.6008C15.5995 22.2294 15.7471 21.8733 16.0097 21.6107C16.2723 21.3481 16.6284 21.2005 16.9998 21.2005C17.3712 21.2005 17.7273 21.3481 17.9899 21.6107C18.2525 21.8733 18.4001 22.2294 18.4001 22.6008C18.4001 22.9722 18.2525 23.3284 17.9899 23.591C17.7273 23.8536 17.3712 24.0011 16.9998 24.0011ZM16.9998 11.3986C17.3712 11.3986 17.7273 11.5462 17.9899 11.8088C18.2525 12.0714 18.4001 12.4275 18.4001 12.7989V18.4C18.4001 18.7714 18.2525 19.1275 17.9899 19.3901C17.7273 19.6527 17.3712 19.8003 16.9998 19.8003C16.6284 19.8003 16.2723 19.6527 16.0097 19.3901C15.7471 19.1275 15.5995 18.7714 15.5995 18.4V12.7989C15.5995 12.4275 15.7471 12.0714 16.0097 11.8088C16.2723 11.5462 16.6284 11.3986 16.9998 11.3986Z" fill="#5D2FFB"/>
</svg>
