<svg width="84" height="84" viewBox="0 0 84 84" fill="none" xmlns="http://www.w3.org/2000/svg">
<g filter="url(#filter0_dd_1930_7761)">
<rect x="5" y="1" width="74" height="74" rx="10" fill="white"/>
<rect x="5.5" y="1.5" width="73" height="73" rx="9.5" stroke="#E6E6E6"/>
<g clip-path="url(#clip0_1930_7761)">
<path fill-rule="evenodd" clip-rule="evenodd" d="M55.3195 37.9923V53.9847H52.46C51.4714 53.9847 49.6004 53.9847 49.6004 53.9847C49.6004 53.9847 49.6004 52.745 49.6004 52.2712V50.1183L45.6644 52.3078C42.3393 54.8186 34.0716 54.469 31.299 51.7C28.818 49.2223 28.2152 42.7557 30.1311 39.1792C31.5232 36.5816 37.1074 34.5654 42.9078 34.5654H47.3127V31.7096V29.0059L39.3058 28.8539H31.299V25.4269V22H43.3092H55.3195V37.9923ZM36.2278 46.4043C35.1262 43.536 37.4151 40.9235 41.7125 40.1421C43.8491 39.7538 45.9824 39.3676 46.4548 39.2854C46.6314 39.2542 47.3127 39.2854 47.3127 39.2854V42.3776V45.2899C47.3127 45.2899 45.3373 46.5205 44.3993 46.9469C40.3044 48.8099 37.0708 48.5952 36.2278 46.4043Z" fill="#FF7D00"/>
</g>
</g>
<defs>
<filter id="filter0_dd_1930_7761" x="0" y="0" width="84" height="84" filterUnits="userSpaceOnUse" color-interpolation-filters="sRGB">
<feFlood flood-opacity="0" result="BackgroundImageFix"/>
<feColorMatrix in="SourceAlpha" type="matrix" values="0 0 0 0 0 0 0 0 0 0 0 0 0 0 0 0 0 0 127 0" result="hardAlpha"/>
<feMorphology radius="1" operator="erode" in="SourceAlpha" result="effect1_dropShadow_1930_7761"/>
<feOffset dy="2"/>
<feGaussianBlur stdDeviation="2"/>
<feComposite in2="hardAlpha" operator="out"/>
<feColorMatrix type="matrix" values="0 0 0 0 0 0 0 0 0 0 0 0 0 0 0 0 0 0 0.06 0"/>
<feBlend mode="normal" in2="BackgroundImageFix" result="effect1_dropShadow_1930_7761"/>
<feColorMatrix in="SourceAlpha" type="matrix" values="0 0 0 0 0 0 0 0 0 0 0 0 0 0 0 0 0 0 127 0" result="hardAlpha"/>
<feMorphology radius="1" operator="erode" in="SourceAlpha" result="effect2_dropShadow_1930_7761"/>
<feOffset dy="4"/>
<feGaussianBlur stdDeviation="3"/>
<feComposite in2="hardAlpha" operator="out"/>
<feColorMatrix type="matrix" values="0 0 0 0 0 0 0 0 0 0 0 0 0 0 0 0 0 0 0.1 0"/>
<feBlend mode="normal" in2="effect1_dropShadow_1930_7761" result="effect2_dropShadow_1930_7761"/>
<feBlend mode="normal" in="SourceGraphic" in2="effect2_dropShadow_1930_7761" result="shape"/>
</filter>
<clipPath id="clip0_1930_7761">
<rect width="26.3195" height="32" fill="white" transform="translate(29 22)"/>
</clipPath>
</defs>
</svg>
