<svg width="84" height="84" viewBox="0 0 84 84" fill="none" xmlns="http://www.w3.org/2000/svg">
<g filter="url(#filter0_dd_1930_7769)">
<rect x="5" y="1" width="74" height="74" rx="10" fill="white"/>
<rect x="5.5" y="1.5" width="73" height="73" rx="9.5" stroke="#E6E6E6"/>
<g clip-path="url(#clip0_1930_7769)">
<path d="M42 22C33.1637 22 26 29.1632 26 38H58C58 29.1632 50.8368 22 42 22Z" fill="#129C78"/>
<path d="M42 54C50.8368 54 58 46.8364 58 38H26C26 46.8364 33.1637 54 42 54Z" fill="#129C78"/>
<path opacity="0.2" fill-rule="evenodd" clip-rule="evenodd" d="M45.1568 40.3793C44.9973 40.3793 44.8398 40.4146 44.6955 40.4825C44.478 40.5849 44.3007 40.7566 44.1913 40.9708C44.0819 41.1849 44.0467 41.4292 44.0912 41.6655C44.1856 42.1893 44.6781 42.548 45.2106 42.548H46.8868L47.8587 42.4117C46.3037 44.693 43.6043 45.7423 40.6524 45.2792C38.25 44.9017 36.1875 43.2766 35.3124 41.0062C33.3375 35.8517 37.1019 30.9306 42.0069 30.9306C44.5637 30.9306 46.8049 32.4274 48.0905 34.2343V34.2736C48.2526 34.5118 48.5023 34.6762 48.7851 34.7308C49.068 34.7854 49.3611 34.7257 49.6 34.5649C49.8223 34.411 49.9783 34.1786 50.0362 33.9145C50.0943 33.6503 50.0501 33.374 49.9124 33.1411H49.9206C49.0124 31.7186 47.7373 30.5673 46.2298 29.8083C44.7222 29.0494 43.038 28.711 41.3543 28.8287C36.6794 29.1436 32.8937 32.9718 32.6249 37.6518C32.3124 43.0987 36.6331 47.5461 42.0069 47.5461C43.348 47.5514 44.6743 47.2665 45.895 46.7109C47.1156 46.1556 48.2017 45.3425 49.0787 44.328L48.8749 45.4699V46.501C48.8749 47.0324 49.2331 47.5255 49.7575 47.6198C49.9143 47.6495 50.0756 47.6442 50.2301 47.6042C50.3846 47.5644 50.5284 47.4909 50.6512 47.389C50.7741 47.2874 50.8728 47.1596 50.9406 47.0152C51.0086 46.8707 51.0438 46.7133 51.0436 46.5537V40.3793H45.1568Z" fill="black"/>
<path fill-rule="evenodd" clip-rule="evenodd" d="M45.1568 40.1688C44.9973 40.1688 44.8398 40.2041 44.6955 40.272C44.478 40.3744 44.3007 40.5461 44.1913 40.7602C44.0819 40.9743 44.0467 41.2187 44.0912 41.455C44.1856 41.9788 44.6781 42.3375 45.2106 42.3375H46.8868L47.8587 42.2012C46.3037 44.4825 43.6043 45.5318 40.6524 45.0686C38.25 44.6912 36.1875 43.0661 35.3124 40.7957C33.3375 35.6412 37.1019 30.7201 42.0069 30.7201C44.5637 30.7201 46.8049 32.2169 48.0905 34.0238V34.0631C48.2526 34.3013 48.5023 34.4657 48.7851 34.5203C49.068 34.5749 49.3611 34.5152 49.6 34.3543C49.8223 34.2005 49.9783 33.9681 50.0362 33.704C50.0943 33.4398 50.0501 33.1635 49.9124 32.9306H49.9206C49.0124 31.5081 47.7373 30.3567 46.2298 29.5978C44.7222 28.8389 43.038 28.5005 41.3543 28.6182C36.6794 28.9331 32.8937 32.7613 32.6249 37.4413C32.3124 42.8881 36.6331 47.3356 42.0069 47.3356C43.348 47.3409 44.6743 47.056 45.895 46.5004C47.1156 45.9451 48.2017 45.132 49.0787 44.1175L48.8749 45.2594V46.2905C48.8749 46.8219 49.2331 47.315 49.7575 47.4093C49.9143 47.439 50.0756 47.4337 50.2301 47.3937C50.3846 47.3539 50.5284 47.2804 50.6512 47.1785C50.7741 47.0769 50.8728 46.9491 50.9406 46.8046C51.0086 46.6602 51.0438 46.5027 51.0436 46.3432V40.1688H45.1568Z" fill="white"/>
</g>
</g>
<defs>
<filter id="filter0_dd_1930_7769" x="0" y="0" width="84" height="84" filterUnits="userSpaceOnUse" color-interpolation-filters="sRGB">
<feFlood flood-opacity="0" result="BackgroundImageFix"/>
<feColorMatrix in="SourceAlpha" type="matrix" values="0 0 0 0 0 0 0 0 0 0 0 0 0 0 0 0 0 0 127 0" result="hardAlpha"/>
<feMorphology radius="1" operator="erode" in="SourceAlpha" result="effect1_dropShadow_1930_7769"/>
<feOffset dy="2"/>
<feGaussianBlur stdDeviation="2"/>
<feComposite in2="hardAlpha" operator="out"/>
<feColorMatrix type="matrix" values="0 0 0 0 0 0 0 0 0 0 0 0 0 0 0 0 0 0 0.06 0"/>
<feBlend mode="normal" in2="BackgroundImageFix" result="effect1_dropShadow_1930_7769"/>
<feColorMatrix in="SourceAlpha" type="matrix" values="0 0 0 0 0 0 0 0 0 0 0 0 0 0 0 0 0 0 127 0" result="hardAlpha"/>
<feMorphology radius="1" operator="erode" in="SourceAlpha" result="effect2_dropShadow_1930_7769"/>
<feOffset dy="4"/>
<feGaussianBlur stdDeviation="3"/>
<feComposite in2="hardAlpha" operator="out"/>
<feColorMatrix type="matrix" values="0 0 0 0 0 0 0 0 0 0 0 0 0 0 0 0 0 0 0.1 0"/>
<feBlend mode="normal" in2="effect1_dropShadow_1930_7769" result="effect2_dropShadow_1930_7769"/>
<feBlend mode="normal" in="SourceGraphic" in2="effect2_dropShadow_1930_7769" result="shape"/>
</filter>
<clipPath id="clip0_1930_7769">
<rect width="32" height="32" fill="white" transform="translate(26 22)"/>
</clipPath>
</defs>
</svg>
