<svg width="79" height="84" viewBox="0 0 79 84" fill="none" xmlns="http://www.w3.org/2000/svg">
<g filter="url(#filter0_dd_1930_7801)">
<rect y="1" width="74" height="74" rx="10" fill="white"/>
<rect x="0.5" y="1.5" width="73" height="73" rx="9.5" stroke="#E6E6E6"/>
<g clip-path="url(#clip0_1930_7801)">
<path d="M37 54C45.8366 54 53 46.8366 53 38C53 29.1634 45.8366 22 37 22C28.1634 22 21 29.1634 21 38C21 46.8366 28.1634 54 37 54Z" fill="#FF4500"/>
<path d="M47.672 38C47.6752 38.2192 47.648 38.438 47.5904 38.6496C47.5328 38.8612 47.4456 39.064 47.3312 39.2512C47.2172 39.4384 47.0772 39.6088 46.9156 39.7572C46.754 39.9056 46.5724 40.0304 46.376 40.128C46.3804 40.1864 46.384 40.2452 46.386 40.304C46.3908 40.4213 46.3908 40.5387 46.386 40.656C46.384 40.7148 46.3804 40.7736 46.376 40.832C46.376 44.416 42.2 47.328 37.048 47.328C31.896 47.328 27.72 44.416 27.72 40.832C27.7156 40.7736 27.712 40.7148 27.71 40.656C27.7052 40.5387 27.7052 40.4213 27.71 40.304C27.712 40.2452 27.7156 40.1864 27.72 40.128C27.4123 39.9866 27.139 39.78 26.919 39.5225C26.6991 39.265 26.5377 38.9628 26.446 38.6368C26.3545 38.3107 26.335 37.9685 26.3889 37.6341C26.4427 37.2996 26.5687 36.9809 26.758 36.7C26.9471 36.4191 27.1951 36.1828 27.4847 36.0073C27.7743 35.8319 28.0987 35.7216 28.4352 35.684C28.7718 35.6463 29.1125 35.6822 29.4338 35.7892C29.7551 35.8963 30.0493 36.0719 30.296 36.304C30.7539 35.9936 31.2337 35.7168 31.7316 35.4756C32.2296 35.2348 32.7444 35.03 33.272 34.8636C33.7996 34.6972 34.3388 34.5696 34.8848 34.4812C35.4308 34.3928 35.9828 34.3444 36.536 34.336L37.72 28.784C37.7332 28.7196 37.7592 28.6588 37.7964 28.6044C37.8332 28.5504 37.8808 28.504 37.9356 28.4684C37.9908 28.4328 38.0524 28.4084 38.1172 28.3964C38.1816 28.3848 38.248 28.386 38.312 28.4L42.232 29.184C42.6276 28.5044 43.458 28.2132 44.1912 28.4964C44.9244 28.7796 45.3436 29.5536 45.1796 30.3224C45.016 31.0912 44.3176 31.6272 43.5328 31.5868C42.7476 31.5464 42.108 30.9416 42.024 30.16L38.6 29.44L37.56 34.432C38.1064 34.4436 38.6516 34.4948 39.1908 34.5848C40.2706 34.7648 41.3187 35.0997 42.3028 35.5792C42.7943 35.8184 43.2679 36.0927 43.72 36.4C44.045 36.0879 44.4535 35.8766 44.896 35.7916C45.3385 35.7063 45.7963 35.7509 46.214 35.92C46.6318 36.089 46.9917 36.3754 47.2504 36.7444C47.5092 37.1135 47.6556 37.5496 47.672 38V38ZM31.7936 40.2124C31.8744 40.4064 31.992 40.5828 32.1408 40.7312C32.2892 40.88 32.4656 40.9976 32.6596 41.0784C32.8538 41.1587 33.0619 41.2 33.272 41.2C33.9192 41.2 34.5024 40.81 34.7504 40.2124C34.998 39.6144 34.8608 38.9264 34.4032 38.4688C33.9456 38.0112 33.2576 37.874 32.6596 38.1216C32.062 38.3696 31.672 38.9528 31.672 39.6C31.672 39.81 31.7132 40.018 31.7936 40.2124V40.2124ZM40.9576 44.0532C41.0396 43.9732 41.0864 43.864 41.088 43.7496C41.0896 43.6348 41.0452 43.5244 40.9652 43.4424C40.8852 43.3604 40.776 43.3136 40.6616 43.312C40.5468 43.3104 40.4364 43.3548 40.344 43.424C40.1034 43.5966 39.8486 43.7484 39.5824 43.878C39.3161 44.0076 39.0394 44.1145 38.7552 44.1976C38.4712 44.2804 38.1804 44.3392 37.8864 44.3732C37.592 44.4072 37.2956 44.416 37 44.4C36.7048 44.4132 36.4088 44.4012 36.1156 44.3644C35.8223 44.328 35.5327 44.2664 35.25 44.1804C34.9668 44.0948 34.692 43.9852 34.4276 43.8532C34.1632 43.7212 33.9104 43.5668 33.672 43.392C33.5892 43.324 33.484 43.2892 33.3768 43.2944C33.2696 43.2996 33.1684 43.3448 33.0924 43.4204C33.0168 43.4964 32.9716 43.5976 32.9664 43.7048C32.9612 43.812 32.996 43.9172 33.064 44C33.3452 44.212 33.644 44.3992 33.9572 44.56C34.2704 44.7208 34.5972 44.854 34.9332 44.9588C35.2692 45.0636 35.6136 45.1392 35.9628 45.1852C36.312 45.2308 36.6644 45.2464 37.016 45.232C37.3676 45.2464 37.72 45.2308 38.0692 45.1852C38.7686 45.0932 39.447 44.8817 40.0748 44.56C40.388 44.3992 40.6868 44.212 40.968 44L40.9576 44.0532ZM40.664 41.328C40.8808 41.3304 41.096 41.2884 41.2964 41.2052C41.4968 41.1216 41.678 40.9984 41.8292 40.8428C41.9804 40.6872 42.098 40.5024 42.1756 40.2996C42.2533 40.097 42.2888 39.8808 42.28 39.664C42.28 39.0168 41.89 38.4336 41.2924 38.1856C40.6944 37.938 40.0064 38.0752 39.5488 38.5328C39.0912 38.9904 38.954 39.6784 39.2016 40.2764C39.4496 40.874 40.0328 41.264 40.68 41.264L40.664 41.328Z" fill="white"/>
</g>
</g>
<defs>
<filter id="filter0_dd_1930_7801" x="-5" y="0" width="84" height="84" filterUnits="userSpaceOnUse" color-interpolation-filters="sRGB">
<feFlood flood-opacity="0" result="BackgroundImageFix"/>
<feColorMatrix in="SourceAlpha" type="matrix" values="0 0 0 0 0 0 0 0 0 0 0 0 0 0 0 0 0 0 127 0" result="hardAlpha"/>
<feMorphology radius="1" operator="erode" in="SourceAlpha" result="effect1_dropShadow_1930_7801"/>
<feOffset dy="2"/>
<feGaussianBlur stdDeviation="2"/>
<feComposite in2="hardAlpha" operator="out"/>
<feColorMatrix type="matrix" values="0 0 0 0 0 0 0 0 0 0 0 0 0 0 0 0 0 0 0.06 0"/>
<feBlend mode="normal" in2="BackgroundImageFix" result="effect1_dropShadow_1930_7801"/>
<feColorMatrix in="SourceAlpha" type="matrix" values="0 0 0 0 0 0 0 0 0 0 0 0 0 0 0 0 0 0 127 0" result="hardAlpha"/>
<feMorphology radius="1" operator="erode" in="SourceAlpha" result="effect2_dropShadow_1930_7801"/>
<feOffset dy="4"/>
<feGaussianBlur stdDeviation="3"/>
<feComposite in2="hardAlpha" operator="out"/>
<feColorMatrix type="matrix" values="0 0 0 0 0 0 0 0 0 0 0 0 0 0 0 0 0 0 0.1 0"/>
<feBlend mode="normal" in2="effect1_dropShadow_1930_7801" result="effect2_dropShadow_1930_7801"/>
<feBlend mode="normal" in="SourceGraphic" in2="effect2_dropShadow_1930_7801" result="shape"/>
</filter>
<clipPath id="clip0_1930_7801">
<rect width="32" height="32" fill="white" transform="translate(21 22)"/>
</clipPath>
</defs>
</svg>
