<svg width="266" height="176" viewBox="0 0 266 176" fill="none" xmlns="http://www.w3.org/2000/svg">
<g filter="url(#filter0_d_1935_4159)">
<g clip-path="url(#clip0_1935_4159)">
<rect x="38" y="13" width="190" height="100" rx="10" fill="url(#paint0_linear_1935_4159)"/>
<g opacity="0.7">
<rect x="49.3862" y="24.3862" width="31.2276" height="23.7262" rx="3.61379" fill="#8C8C8C" fill-opacity="0.26" stroke="white" stroke-width="0.772414"/>
<path d="M49.5 31.5362H58C59.1046 31.5362 60 32.4317 60 33.5362V37.4396M60 48.0154V43.3429M60 43.3429V37.4396M60 43.3429H49.5M60 37.4396H49.5" stroke="white" stroke-width="0.772414"/>
<path d="M80.5 31.5362H70.5M70.5 31.5362V37.4396M70.5 31.5362V24.5024M70.5 48.0154V43.3429M70.5 43.3429V37.4396M70.5 43.3429H80.5M70.5 37.4396H80.5" stroke="white" stroke-width="0.772414"/>
</g>
<rect x="118" y="1" width="110" height="123" fill="black"/>
<path d="M146.14 71.0539C149.602 82.5928 160.309 91 172.982 91C188.456 91 201 78.4637 201 63C201 47.5361 188.456 35 172.982 35C158.134 35 145.984 46.5434 145.024 61.1397C145.024 65.3333 145.024 67.0833 146.14 71.0539Z" fill="url(#paint1_linear_1935_4159)"/>
<path d="M171.541 56.1257L164.685 66.0788C163.069 66.0054 161.442 66.4626 160.091 67.3502L145.037 61.1566C145.037 61.1566 144.688 66.884 146.14 71.1525L156.783 75.5411C157.317 77.9277 158.956 80.0211 161.373 81.0282C165.327 82.6793 169.887 80.7974 171.532 76.8438C171.96 75.8103 172.159 74.7264 172.13 73.6448L182.181 66.6436C188.051 66.6436 192.823 61.8608 192.823 55.9873C192.823 50.1133 188.051 45.3348 182.181 45.3348C176.511 45.3348 171.223 50.2823 171.541 56.1257ZM169.894 76.1564C168.621 79.2112 165.108 80.6604 162.055 79.389C160.646 78.8026 159.583 77.7283 158.969 76.4472L162.433 77.8821C164.685 78.8194 167.269 77.7523 168.205 75.5027C169.144 73.2507 168.078 70.6646 165.828 69.7272L162.247 68.2443C163.628 67.7204 165.199 67.7011 166.667 68.3116C168.147 68.9269 169.295 70.0853 169.903 71.5659C170.512 73.0464 170.51 74.6807 169.894 76.1564ZM182.181 63.0865C178.273 63.0865 175.091 59.902 175.091 55.9873C175.091 52.0757 178.273 48.8902 182.181 48.8902C186.091 48.8902 189.273 52.0757 189.273 55.9873C189.273 59.902 186.091 63.0865 182.181 63.0865ZM176.868 55.9765C176.868 53.0315 179.254 50.643 182.193 50.643C185.134 50.643 187.52 53.0315 187.52 55.9765C187.52 58.9216 185.134 61.308 182.193 61.308C179.254 61.308 176.868 58.9216 176.868 55.9765Z" fill="white"/>
</g>
</g>
<defs>
<filter id="filter0_d_1935_4159" x="0" y="0" width="266" height="176" filterUnits="userSpaceOnUse" color-interpolation-filters="sRGB">
<feFlood flood-opacity="0" result="BackgroundImageFix"/>
<feColorMatrix in="SourceAlpha" type="matrix" values="0 0 0 0 0 0 0 0 0 0 0 0 0 0 0 0 0 0 127 0" result="hardAlpha"/>
<feMorphology radius="12" operator="erode" in="SourceAlpha" result="effect1_dropShadow_1935_4159"/>
<feOffset dy="25"/>
<feGaussianBlur stdDeviation="25"/>
<feComposite in2="hardAlpha" operator="out"/>
<feColorMatrix type="matrix" values="0 0 0 0 0 0 0 0 0 0 0 0 0 0 0 0 0 0 0.25 0"/>
<feBlend mode="normal" in2="BackgroundImageFix" result="effect1_dropShadow_1935_4159"/>
<feBlend mode="normal" in="SourceGraphic" in2="effect1_dropShadow_1935_4159" result="shape"/>
</filter>
<linearGradient id="paint0_linear_1935_4159" x1="133" y1="13" x2="133" y2="113" gradientUnits="userSpaceOnUse">
<stop stop-color="#147BAD"/>
<stop offset="1" stop-color="#083247"/>
</linearGradient>
<linearGradient id="paint1_linear_1935_4159" x1="173.012" y1="35" x2="173.012" y2="91" gradientUnits="userSpaceOnUse">
<stop stop-color="#111D2E"/>
<stop offset="0.21248" stop-color="#051839"/>
<stop offset="0.40695" stop-color="#0A1B48"/>
<stop offset="0.5811" stop-color="#132E62"/>
<stop offset="0.7376" stop-color="#144B7E"/>
<stop offset="0.87279" stop-color="#136497"/>
<stop offset="1" stop-color="#1387B8"/>
</linearGradient>
<clipPath id="clip0_1935_4159">
<rect x="38" y="13" width="190" height="100" rx="10" fill="white"/>
</clipPath>
</defs>
</svg>
