<svg width="560" height="282" viewBox="0 0 560 282" fill="none" xmlns="http://www.w3.org/2000/svg">
<g filter="url(#filter0_d_5647_7119)">
<g clip-path="url(#clip0_5647_7119)">
<rect x="2" y="1" width="556" height="278" rx="15" fill="#3292F1"/>
<g opacity="0.5" filter="url(#filter1_d_5647_7119)">
<rect x="98.7292" y="148.729" width="365.541" height="190.954" rx="30.5527" fill="white"/>
</g>
<rect x="112.915" y="160.732" width="337.171" height="163.675" rx="27.2792" fill="black"/>
<rect x="118.37" y="165.097" width="325.168" height="62.1966" rx="22.9145" fill="white"/>
<path d="M151.804 203.195V191.677H148.13V190.204H157.022V191.677H153.366V203.195H151.804ZM157.253 199.158C157.253 200.015 157.54 200.743 158.113 201.341C158.687 201.932 159.382 202.228 160.199 202.228C161.009 202.228 161.698 201.932 162.266 201.341C162.834 200.743 163.118 200.015 163.118 199.158C163.118 198.3 162.834 197.575 162.266 196.983C161.698 196.386 161.009 196.087 160.199 196.087C159.376 196.087 158.678 196.386 158.105 196.983C157.537 197.575 157.253 198.3 157.253 199.158ZM155.78 199.158C155.78 198.56 155.889 197.998 156.108 197.472C156.327 196.939 156.646 196.466 157.066 196.052C157.486 195.638 157.963 195.324 158.495 195.111C159.027 194.892 159.595 194.783 160.199 194.783C160.79 194.783 161.349 194.892 161.876 195.111C162.408 195.33 162.891 195.649 163.322 196.069C163.742 196.478 164.062 196.948 164.281 197.48C164.5 198.007 164.609 198.566 164.609 199.158C164.609 199.749 164.5 200.308 164.281 200.835C164.062 201.355 163.742 201.82 163.322 202.228C162.891 202.654 162.405 202.979 161.867 203.204C161.335 203.429 160.779 203.541 160.199 203.541C159.601 203.541 159.033 203.429 158.495 203.204C157.963 202.985 157.486 202.669 157.066 202.255C156.646 201.829 156.327 201.355 156.108 200.835C155.889 200.314 155.78 199.755 155.78 199.158ZM166.996 196.22H165.505V195.076H166.996V191.801H168.416V195.076H169.907V196.22H168.416V203.195H166.996V196.22ZM177.698 199.211C177.698 198.294 177.447 197.557 176.944 197.001C176.447 196.439 175.796 196.158 174.992 196.158C174.157 196.158 173.507 196.416 173.039 196.93C172.572 197.445 172.338 198.164 172.338 199.087C172.338 200.069 172.572 200.826 173.039 201.358C173.513 201.891 174.181 202.157 175.045 202.157C175.873 202.157 176.521 201.9 176.988 201.385C177.461 200.864 177.698 200.14 177.698 199.211ZM179.047 195.076V203.195H177.698V201.722C177.373 202.314 176.956 202.766 176.447 203.08C175.944 203.387 175.379 203.541 174.752 203.541C173.587 203.541 172.646 203.142 171.93 202.343C171.22 201.539 170.865 200.477 170.865 199.158C170.865 197.821 171.211 196.759 171.903 195.972C172.596 195.179 173.521 194.783 174.681 194.783C175.361 194.783 175.95 194.937 176.447 195.244C176.95 195.546 177.355 195.998 177.663 196.602V195.076H179.047ZM181.904 203.195V189.441H183.324V203.195H181.904ZM197.806 199.175C197.806 198.27 197.555 197.543 197.052 196.992C196.549 196.436 195.887 196.158 195.064 196.158C194.242 196.158 193.6 196.41 193.139 196.912C192.677 197.415 192.447 198.11 192.447 198.998C192.447 199.998 192.68 200.781 193.148 201.349C193.615 201.911 194.26 202.192 195.082 202.192C195.934 202.192 196.6 201.926 197.079 201.394C197.564 200.861 197.806 200.122 197.806 199.175ZM199.155 189.441V203.195H197.806V201.722C197.487 202.308 197.073 202.757 196.564 203.071C196.055 203.385 195.487 203.541 194.86 203.541C193.695 203.541 192.754 203.142 192.038 202.343C191.328 201.539 190.973 200.477 190.973 199.158C190.973 197.826 191.323 196.765 192.021 195.972C192.719 195.179 193.648 194.783 194.807 194.783C195.481 194.783 196.067 194.937 196.564 195.244C197.061 195.546 197.463 195.998 197.771 196.602V189.441H199.155ZM203.299 195.076V199.069C203.299 200.234 203.471 201.051 203.814 201.518C204.163 201.979 204.749 202.21 205.571 202.21C206.393 202.21 206.973 201.982 207.31 201.527C207.653 201.065 207.825 200.246 207.825 199.069V195.076H209.245V199.814C209.245 201.039 208.931 201.968 208.304 202.601C207.677 203.228 206.754 203.541 205.536 203.541C204.329 203.541 203.412 203.225 202.785 202.592C202.158 201.959 201.844 201.033 201.844 199.814V195.076H203.299ZM217.693 198.217C217.646 197.501 217.406 196.951 216.974 196.566C216.548 196.176 215.962 195.981 215.217 195.981C214.543 195.981 213.981 196.185 213.531 196.593C213.081 196.995 212.821 197.537 212.75 198.217H217.693ZM219.184 199.344H212.75V199.468C212.75 200.338 212.999 201.042 213.495 201.58C213.992 202.113 214.64 202.379 215.439 202.379C215.983 202.379 216.474 202.234 216.912 201.944C217.35 201.648 217.737 201.204 218.074 200.613L219.13 201.323C218.722 202.056 218.202 202.61 217.569 202.982C216.936 203.355 216.202 203.541 215.368 203.541C214.131 203.541 213.132 203.133 212.368 202.317C211.605 201.5 211.224 200.429 211.224 199.104C211.224 197.832 211.602 196.791 212.36 195.981C213.117 195.17 214.09 194.765 215.279 194.765C216.48 194.765 217.43 195.15 218.128 195.919C218.832 196.688 219.184 197.738 219.184 199.069V199.344ZM226.86 196.22H225.369V195.076H226.86V191.801H228.279V195.076H229.77V196.22H228.279V203.195H226.86V196.22ZM232.166 199.158C232.166 200.015 232.453 200.743 233.027 201.341C233.601 201.932 234.296 202.228 235.112 202.228C235.923 202.228 236.612 201.932 237.18 201.341C237.748 200.743 238.032 200.015 238.032 199.158C238.032 198.3 237.748 197.575 237.18 196.983C236.612 196.386 235.923 196.087 235.112 196.087C234.29 196.087 233.592 196.386 233.018 196.983C232.45 197.575 232.166 198.3 232.166 199.158ZM230.693 199.158C230.693 198.56 230.803 197.998 231.021 197.472C231.24 196.939 231.56 196.466 231.98 196.052C232.4 195.638 232.876 195.324 233.409 195.111C233.941 194.892 234.509 194.783 235.112 194.783C235.704 194.783 236.263 194.892 236.789 195.111C237.322 195.33 237.804 195.649 238.236 196.069C238.656 196.478 238.975 196.948 239.194 197.48C239.413 198.007 239.523 198.566 239.523 199.158C239.523 199.749 239.413 200.308 239.194 200.835C238.975 201.355 238.656 201.82 238.236 202.228C237.804 202.654 237.319 202.979 236.781 203.204C236.248 203.429 235.692 203.541 235.112 203.541C234.515 203.541 233.947 203.429 233.409 203.204C232.876 202.985 232.4 202.669 231.98 202.255C231.56 201.829 231.24 201.355 231.021 200.835C230.803 200.314 230.693 199.755 230.693 199.158ZM247.908 199.175C247.908 198.27 247.657 197.543 247.154 196.992C246.651 196.436 245.989 196.158 245.166 196.158C244.344 196.158 243.702 196.41 243.241 196.912C242.779 197.415 242.549 198.11 242.549 198.998C242.549 199.998 242.782 200.781 243.25 201.349C243.717 201.911 244.362 202.192 245.184 202.192C246.036 202.192 246.702 201.926 247.181 201.394C247.666 200.861 247.908 200.122 247.908 199.175ZM249.257 189.441V203.195H247.908V201.722C247.589 202.308 247.175 202.757 246.666 203.071C246.157 203.385 245.589 203.541 244.962 203.541C243.797 203.541 242.856 203.142 242.14 202.343C241.431 201.539 241.076 200.477 241.076 199.158C241.076 197.826 241.425 196.765 242.123 195.972C242.821 195.179 243.75 194.783 244.909 194.783C245.584 194.783 246.169 194.937 246.666 195.244C247.163 195.546 247.565 195.998 247.873 196.602V189.441H249.257ZM258.309 199.211C258.309 198.294 258.057 197.557 257.554 197.001C257.057 196.439 256.407 196.158 255.602 196.158C254.768 196.158 254.117 196.416 253.65 196.93C253.183 197.445 252.949 198.164 252.949 199.087C252.949 200.069 253.183 200.826 253.65 201.358C254.123 201.891 254.792 202.157 255.655 202.157C256.484 202.157 257.131 201.9 257.599 201.385C258.072 200.864 258.309 200.14 258.309 199.211ZM259.658 195.076V203.195H258.309V201.722C257.983 202.314 257.566 202.766 257.057 203.08C256.555 203.387 255.99 203.541 255.363 203.541C254.197 203.541 253.256 203.142 252.541 202.343C251.831 201.539 251.476 200.477 251.476 199.158C251.476 197.821 251.822 196.759 252.514 195.972C253.206 195.179 254.132 194.783 255.292 194.783C255.972 194.783 256.561 194.937 257.057 195.244C257.56 195.546 257.966 195.998 258.273 196.602V195.076H259.658ZM262.116 207.153L264.316 202.397L261.131 195.076H262.737L265.097 200.906L267.6 195.076H269.126L263.677 207.153H262.116ZM270.883 196.345C270.883 196.055 270.987 195.806 271.194 195.599C271.401 195.392 271.649 195.289 271.939 195.289C272.229 195.289 272.474 195.392 272.676 195.599C272.883 195.806 272.986 196.055 272.986 196.345C272.986 196.64 272.886 196.892 272.684 197.099C272.483 197.3 272.235 197.401 271.939 197.401C271.643 197.401 271.392 197.3 271.185 197.099C270.984 196.892 270.883 196.64 270.883 196.345ZM270.883 202.308C270.883 202.018 270.984 201.772 271.185 201.571C271.392 201.37 271.643 201.27 271.939 201.27C272.229 201.27 272.474 201.37 272.676 201.571C272.883 201.772 272.986 202.018 272.986 202.308C272.986 202.598 272.886 202.846 272.684 203.053C272.483 203.254 272.235 203.355 271.939 203.355C271.643 203.355 271.392 203.254 271.185 203.053C270.984 202.846 270.883 202.598 270.883 202.308Z" fill="black"/>
<path d="M353.48 187.329V189.529C354.789 189.662 355.892 190.013 356.788 190.583L355.443 193.2C354.668 192.606 353.905 192.309 353.153 192.309C352.693 192.309 352.317 192.418 352.027 192.636C351.736 192.842 351.59 193.078 351.59 193.345C351.59 193.587 351.706 193.818 351.936 194.036C352.166 194.254 352.469 194.429 352.844 194.563L353.917 194.926C355.116 195.338 355.982 195.847 356.516 196.453C357.049 197.046 357.315 197.822 357.315 198.779C357.315 199.361 357.249 199.875 357.115 200.324C356.982 200.772 356.764 201.172 356.461 201.523C356.158 201.875 355.758 202.184 355.262 202.45C354.777 202.717 354.183 202.959 353.48 203.177V205.431H351.808V203.268C351.433 203.268 351.033 203.225 350.609 203.141C350.185 203.044 349.767 202.923 349.355 202.777C348.943 202.62 348.555 202.444 348.192 202.25C347.841 202.044 347.55 201.832 347.32 201.614L348.792 198.87C349.931 199.875 351.039 200.378 352.117 200.378C352.566 200.378 352.953 200.257 353.281 200.015C353.62 199.772 353.789 199.457 353.789 199.07C353.789 198.537 353.396 198.143 352.608 197.888L351.572 197.561C350.954 197.367 350.427 197.155 349.991 196.925C349.555 196.695 349.198 196.428 348.919 196.126C348.64 195.823 348.434 195.483 348.301 195.108C348.168 194.72 348.101 194.278 348.101 193.781C348.101 193.26 348.174 192.757 348.319 192.273C348.477 191.788 348.707 191.358 349.01 190.982C349.325 190.595 349.712 190.274 350.173 190.019C350.633 189.753 351.178 189.589 351.808 189.529V187.329H353.48ZM361.053 203.195L364.942 198.724H364.87C364.531 198.93 364.252 199.058 364.034 199.106C363.816 199.142 363.622 199.161 363.452 199.161C362.786 199.161 362.168 199.033 361.598 198.779C361.041 198.525 360.557 198.179 360.145 197.743C359.745 197.295 359.43 196.774 359.2 196.18C358.969 195.586 358.854 194.95 358.854 194.272C358.854 193.545 358.988 192.872 359.254 192.255C359.521 191.625 359.902 191.079 360.399 190.619C360.908 190.146 361.52 189.777 362.235 189.51C362.949 189.244 363.755 189.111 364.652 189.111C365.56 189.111 366.372 189.244 367.087 189.51C367.802 189.777 368.408 190.14 368.904 190.601C369.413 191.061 369.801 191.6 370.067 192.218C370.334 192.824 370.467 193.472 370.467 194.163C370.467 194.938 370.292 195.78 369.94 196.689C369.601 197.586 369.074 198.47 368.359 199.342L365.179 203.195H361.053ZM366.942 194.199C366.942 193.884 366.881 193.593 366.76 193.327C366.639 193.048 366.475 192.806 366.269 192.6C366.063 192.394 365.821 192.23 365.542 192.109C365.276 191.988 364.985 191.927 364.67 191.927C364.355 191.927 364.058 191.988 363.779 192.109C363.513 192.23 363.277 192.394 363.071 192.6C362.865 192.806 362.701 193.048 362.58 193.327C362.459 193.593 362.398 193.884 362.398 194.199C362.398 194.514 362.459 194.811 362.58 195.09C362.701 195.356 362.865 195.593 363.071 195.798C363.277 196.004 363.513 196.168 363.779 196.289C364.058 196.41 364.355 196.471 364.67 196.471C364.985 196.471 365.276 196.41 365.542 196.289C365.821 196.168 366.063 196.004 366.269 195.798C366.475 195.593 366.639 195.356 366.76 195.09C366.881 194.811 366.942 194.514 366.942 194.199ZM380.639 189.492L376.75 193.963H376.822C377.162 193.757 377.44 193.636 377.658 193.599C377.876 193.551 378.07 193.527 378.24 193.527C378.906 193.527 379.518 193.654 380.076 193.908C380.633 194.163 381.117 194.514 381.529 194.962C381.941 195.399 382.262 195.914 382.493 196.507C382.723 197.101 382.838 197.737 382.838 198.415C382.838 199.142 382.705 199.821 382.438 200.451C382.172 201.069 381.784 201.614 381.275 202.087C380.778 202.547 380.172 202.91 379.458 203.177C378.743 203.444 377.937 203.577 377.04 203.577C376.132 203.577 375.32 203.444 374.605 203.177C373.89 202.91 373.279 202.547 372.77 202.087C372.273 201.626 371.891 201.093 371.625 200.487C371.358 199.869 371.225 199.215 371.225 198.525C371.225 197.749 371.395 196.913 371.734 196.017C372.085 195.108 372.618 194.217 373.333 193.345L376.513 189.492H380.639ZM374.751 198.488C374.751 198.803 374.811 199.1 374.932 199.379C375.053 199.645 375.217 199.882 375.423 200.087C375.629 200.293 375.865 200.457 376.132 200.578C376.41 200.699 376.707 200.76 377.022 200.76C377.337 200.76 377.628 200.699 377.895 200.578C378.173 200.457 378.416 200.293 378.622 200.087C378.828 199.882 378.991 199.645 379.112 199.379C379.233 199.1 379.294 198.803 379.294 198.488C379.294 198.173 379.233 197.882 379.112 197.616C378.991 197.337 378.828 197.095 378.622 196.889C378.416 196.683 378.173 196.519 377.895 196.398C377.628 196.277 377.337 196.216 377.022 196.216C376.707 196.216 376.41 196.277 376.132 196.398C375.865 196.519 375.629 196.683 375.423 196.889C375.217 197.095 375.053 197.337 374.932 197.616C374.811 197.882 374.751 198.173 374.751 198.488ZM384.159 201.451C384.159 201.16 384.213 200.887 384.322 200.633C384.432 200.366 384.583 200.136 384.777 199.942C384.971 199.748 385.195 199.597 385.449 199.488C385.716 199.379 385.994 199.324 386.285 199.324C386.576 199.324 386.849 199.379 387.103 199.488C387.37 199.597 387.6 199.748 387.794 199.942C387.988 200.136 388.139 200.366 388.248 200.633C388.357 200.887 388.412 201.16 388.412 201.451C388.412 201.741 388.357 202.02 388.248 202.287C388.139 202.541 387.988 202.765 387.794 202.959C387.6 203.153 387.37 203.304 387.103 203.413C386.849 203.522 386.576 203.577 386.285 203.577C385.994 203.577 385.716 203.522 385.449 203.413C385.195 203.304 384.971 203.153 384.777 202.959C384.583 202.765 384.432 202.541 384.322 202.287C384.213 202.02 384.159 201.741 384.159 201.451ZM393.261 196.326C393.261 196.931 393.316 197.483 393.425 197.979C393.534 198.476 393.685 198.906 393.879 199.27C394.085 199.633 394.327 199.918 394.606 200.124C394.885 200.318 395.2 200.415 395.551 200.415C395.89 200.415 396.199 200.318 396.478 200.124C396.769 199.918 397.011 199.633 397.205 199.27C397.399 198.906 397.55 198.476 397.659 197.979C397.768 197.483 397.823 196.931 397.823 196.326C397.823 195.732 397.768 195.187 397.659 194.69C397.55 194.181 397.399 193.751 397.205 193.4C397.011 193.036 396.769 192.757 396.478 192.564C396.199 192.358 395.89 192.255 395.551 192.255C395.2 192.255 394.885 192.358 394.606 192.564C394.327 192.757 394.085 193.036 393.879 193.4C393.685 193.751 393.534 194.181 393.425 194.69C393.316 195.187 393.261 195.732 393.261 196.326ZM389.735 196.326C389.735 195.235 389.875 194.248 390.153 193.363C390.444 192.467 390.844 191.703 391.353 191.073C391.874 190.443 392.486 189.959 393.188 189.619C393.903 189.268 394.691 189.092 395.551 189.092C396.399 189.092 397.181 189.268 397.895 189.619C398.61 189.959 399.222 190.443 399.731 191.073C400.24 191.703 400.634 192.467 400.912 193.363C401.203 194.248 401.348 195.235 401.348 196.326C401.348 197.416 401.203 198.409 400.912 199.306C400.634 200.19 400.24 200.954 399.731 201.596C399.222 202.226 398.61 202.717 397.895 203.068C397.181 203.407 396.399 203.577 395.551 203.577C394.691 203.577 393.903 203.407 393.188 203.068C392.486 202.717 391.874 202.226 391.353 201.596C390.844 200.954 390.444 200.19 390.153 199.306C389.875 198.409 389.735 197.416 389.735 196.326ZM405.614 196.326C405.614 196.931 405.668 197.483 405.777 197.979C405.886 198.476 406.038 198.906 406.232 199.27C406.437 199.633 406.68 199.918 406.958 200.124C407.237 200.318 407.552 200.415 407.904 200.415C408.243 200.415 408.552 200.318 408.83 200.124C409.121 199.918 409.363 199.633 409.557 199.27C409.751 198.906 409.903 198.476 410.012 197.979C410.121 197.483 410.175 196.931 410.175 196.326C410.175 195.732 410.121 195.187 410.012 194.69C409.903 194.181 409.751 193.751 409.557 193.4C409.363 193.036 409.121 192.757 408.83 192.564C408.552 192.358 408.243 192.255 407.904 192.255C407.552 192.255 407.237 192.358 406.958 192.564C406.68 192.757 406.437 193.036 406.232 193.4C406.038 193.751 405.886 194.181 405.777 194.69C405.668 195.187 405.614 195.732 405.614 196.326ZM402.088 196.326C402.088 195.235 402.227 194.248 402.506 193.363C402.797 192.467 403.197 191.703 403.705 191.073C404.226 190.443 404.838 189.959 405.541 189.619C406.256 189.268 407.043 189.092 407.904 189.092C408.752 189.092 409.533 189.268 410.248 189.619C410.963 189.959 411.575 190.443 412.083 191.073C412.592 191.703 412.986 192.467 413.265 193.363C413.556 194.248 413.701 195.235 413.701 196.326C413.701 197.416 413.556 198.409 413.265 199.306C412.986 200.19 412.592 200.954 412.083 201.596C411.575 202.226 410.963 202.717 410.248 203.068C409.533 203.407 408.752 203.577 407.904 203.577C407.043 203.577 406.256 203.407 405.541 203.068C404.838 202.717 404.226 202.226 403.705 201.596C403.197 200.954 402.797 200.19 402.506 199.306C402.227 198.409 402.088 197.416 402.088 196.326Z" fill="#3292F1"/>
<rect opacity="0.5" x="90" y="140" width="383" height="208.413" rx="30.5527" stroke="url(#paint0_linear_5647_7119)" stroke-width="0.892774" stroke-linecap="round" stroke-linejoin="round"/>
<g filter="url(#filter2_ddi_5647_7119)">
<rect x="119.844" y="230.527" width="323.312" height="130.319" rx="29.4615" fill="#63ACF4"/>
<rect x="119.844" y="230.527" width="323.312" height="130.319" rx="29.4615" fill="url(#paint1_radial_5647_7119)"/>
<path d="M236.878 272.281C236.122 272.441 235.453 272.521 234.871 272.521C233.678 272.521 232.637 272.245 231.75 271.692C230.877 271.154 230.201 270.383 229.72 269.379C229.255 268.39 229.022 267.24 229.022 265.931C229.022 264.49 229.298 262.963 229.851 261.348L232.47 262.374C231.99 263.77 231.75 264.978 231.75 265.996C231.75 267.102 232.012 267.946 232.536 268.528C233.074 269.124 233.838 269.422 234.827 269.422C235.322 269.422 235.802 269.364 236.267 269.248C237.271 269.015 237.999 268.819 238.45 268.659C238.915 268.513 239.264 268.309 239.497 268.048C239.73 267.786 239.846 267.422 239.846 266.956C239.846 266.84 239.832 266.651 239.803 266.389L238.908 260.388L241.636 259.951L241.767 260.846C242.247 264.061 242.494 265.763 242.509 265.953C242.567 266.316 242.596 266.695 242.596 267.087C242.596 268.091 242.378 268.921 241.941 269.575C241.505 270.244 240.872 270.783 240.043 271.19C239.228 271.612 238.173 271.976 236.878 272.281ZM234.063 258.424H236.944V261.304H234.063V258.424ZM245.295 252.138L248.066 252.007L248.634 267.087L245.884 267.218L245.295 252.138ZM252.494 269.706C254.196 269.357 255.389 269.081 256.073 268.877C256.757 268.688 257.237 268.462 257.513 268.2C257.804 267.953 257.942 267.597 257.928 267.131H255.593C254.312 267.131 253.287 266.731 252.516 265.931C251.759 265.116 251.381 264.025 251.381 262.657C251.381 261.799 251.563 260.999 251.926 260.257C252.305 259.5 252.821 258.896 253.476 258.445C254.145 257.994 254.887 257.769 255.702 257.769C256.502 257.769 257.229 257.987 257.884 258.424C258.553 258.845 259.092 259.442 259.499 260.213C259.921 260.97 260.183 261.835 260.285 262.81L260.416 264.032H261.66L261.834 265.582L261.66 267.131H261.594H260.699C260.714 268.28 260.467 269.19 259.957 269.859C259.463 270.528 258.684 271.067 257.622 271.474C256.56 271.896 255.033 272.31 253.039 272.718L252.494 269.706ZM254.152 262.657C254.152 263.137 254.254 263.487 254.458 263.705C254.676 263.923 255.054 264.032 255.593 264.032H257.622L257.535 263.137C257.448 262.395 257.244 261.835 256.924 261.457C256.618 261.064 256.226 260.868 255.745 260.868C255.251 260.868 254.858 261.042 254.567 261.391C254.291 261.726 254.152 262.148 254.152 262.657ZM261.451 264.032H265.62C266.231 264.032 266.682 263.945 266.973 263.77C267.278 263.596 267.431 263.297 267.431 262.875C267.431 262.643 267.387 262.366 267.3 262.046L266.449 258.795L269.111 258.009L270.006 261.413C270.152 261.937 270.224 262.461 270.224 262.985C270.224 263.814 270.028 264.541 269.635 265.167C269.242 265.793 268.697 266.28 267.998 266.629C267.3 266.964 266.507 267.131 265.62 267.131H261.451V264.032ZM261.997 269.073H264.529V271.627H261.997V269.073ZM266.471 269.073H269.002V271.627H266.471V269.073ZM272.936 252.138L275.708 252.007L276.275 267.087L273.526 267.218L272.936 252.138ZM288.726 267.131C287.679 267.131 286.842 266.971 286.216 266.651C285.605 266.331 285.154 265.814 284.863 265.101C284.572 264.374 284.398 263.399 284.34 262.177L283.947 252.138L286.697 252.007L287.089 262.177C287.119 262.803 287.162 263.232 287.22 263.465C287.293 263.697 287.431 263.85 287.635 263.923C287.839 263.996 288.202 264.032 288.726 264.032H288.944L289.119 265.582L288.944 267.131H288.726ZM288.731 264.032H290.455C291.08 264.032 291.539 263.945 291.83 263.77C292.135 263.596 292.288 263.29 292.288 262.854C292.288 262.635 292.244 262.366 292.157 262.046L291.284 258.795L293.946 258.009L294.819 261.261C294.965 261.828 295.038 262.381 295.038 262.919C295.038 264.199 294.616 265.225 293.772 265.996C292.928 266.753 291.822 267.131 290.455 267.131H288.731V264.032ZM288.971 268.921H291.851V271.779H288.971V268.921ZM311.463 267.131C309.819 267.131 308.582 267.116 307.753 267.087C306.938 267.058 306.291 267 305.81 266.913C305.345 266.826 304.894 266.687 304.457 266.498C303.686 266.164 303.097 265.669 302.69 265.014C302.297 264.359 302.1 263.603 302.1 262.745C302.1 262.25 302.166 261.741 302.297 261.217L303.126 258.031L305.789 258.838L304.938 262.133C304.865 262.395 304.828 262.606 304.828 262.766C304.828 262.985 304.887 263.166 305.003 263.312C305.119 263.443 305.301 263.559 305.549 263.661C305.854 263.807 306.371 263.908 307.098 263.967C307.825 264.01 309.317 264.032 311.572 264.032H316.722C317.275 264.032 317.653 263.959 317.857 263.814C318.075 263.668 318.17 263.421 318.141 263.072V263.028L317.901 260.344L320.65 260.082L320.89 262.766V262.81C320.934 263.305 321.043 263.632 321.218 263.792C321.407 263.952 321.771 264.032 322.309 264.032H322.549L322.724 265.582L322.549 267.131H322.309C321.174 267.131 320.25 266.84 319.537 266.258C318.795 266.84 317.857 267.131 316.722 267.131H311.572H311.463ZM308.124 256.481H310.677V259.013H308.124V256.481ZM312.598 256.481H315.151V259.013H312.598V256.481ZM322.297 264.032H322.755C324.108 264.032 325.25 264.003 326.181 263.945C327.113 263.887 328.015 263.734 328.887 263.487L332.99 262.504L329.455 260.715C329.135 260.54 328.786 260.453 328.407 260.453C328.029 260.453 327.673 260.548 327.338 260.737C327.018 260.911 326.763 261.173 326.574 261.522L326.203 262.221L323.803 260.715L324.217 259.929C324.683 259.1 325.279 258.46 326.007 258.009C326.734 257.558 327.513 257.332 328.342 257.332C329.186 257.332 330.008 257.558 330.808 258.009L336.307 261.195L335.915 264.774L329.586 266.476C328.538 266.753 327.469 266.935 326.378 267.022C325.301 267.095 324.086 267.131 322.733 267.131H322.297V264.032ZM326.705 252.509H329.586V255.368H326.705V252.509ZM339.003 252.138L341.775 252.007L342.342 267.087L339.592 267.218L339.003 252.138ZM349.017 267.131C348.261 267.131 347.592 267 347.01 266.738C346.428 266.462 345.969 266.091 345.635 265.625C345.315 265.16 345.14 264.65 345.111 264.098C345.096 263.879 345.089 263.407 345.089 262.679H347.621C347.621 263.086 347.635 263.385 347.664 263.574C347.679 263.748 347.752 263.872 347.882 263.945C348.028 264.003 348.246 264.032 348.537 264.032H351.025C351.854 264.032 352.269 263.785 352.269 263.29C352.269 263.188 352.24 263.036 352.182 262.832C351.92 262.104 351.476 261.217 350.85 260.169C350.225 259.107 349.548 258.053 348.821 257.005L351.069 255.172C351.942 256.365 352.735 257.594 353.447 258.86C354.16 260.111 354.626 261.195 354.844 262.112C354.946 262.504 354.997 262.919 354.997 263.356C354.997 264.461 354.611 265.371 353.84 266.084C353.084 266.782 352.022 267.131 350.654 267.131H349.017ZM361.645 267.131C361.398 267.131 361.216 267.124 361.099 267.109C361.158 268.535 360.787 269.641 359.986 270.426C359.201 271.227 357.964 271.859 356.276 272.325L354.923 272.718L354.203 269.728L355.556 269.335C356.589 269.059 357.309 268.775 357.717 268.484C358.139 268.193 358.35 267.749 358.35 267.153C358.35 267.051 358.335 266.884 358.306 266.651L357.433 260.388L360.161 259.973L360.314 261.151C360.357 261.341 360.459 261.908 360.619 262.854C360.707 263.334 360.823 263.654 360.968 263.814C361.114 263.959 361.339 264.032 361.645 264.032H361.754L361.929 265.582L361.754 267.131H361.645ZM361.617 264.032H365.785C366.397 264.032 366.848 263.945 367.139 263.77C367.444 263.596 367.597 263.297 367.597 262.875C367.597 262.643 367.553 262.366 367.466 262.046L366.615 258.795L369.277 258.009L370.172 261.413C370.317 261.937 370.39 262.461 370.39 262.985C370.39 263.814 370.194 264.541 369.801 265.167C369.408 265.793 368.863 266.28 368.164 266.629C367.466 266.964 366.673 267.131 365.785 267.131H361.617V264.032ZM365.414 268.964L365.393 271.714H362.665L362.643 268.964H365.414ZM365.065 272.761H367.51V275.031H365.065V272.761ZM367.139 268.964H369.91L369.888 271.714H367.139V268.964Z" fill="white"/>
<path d="M196.934 261.499L195.97 260.534L195.006 261.499L195.97 262.463L196.934 261.499ZM217.394 262.863C218.147 262.863 218.758 262.252 218.758 261.499C218.758 260.745 218.147 260.135 217.394 260.135V262.863ZM204.154 252.35L195.97 260.534L197.899 262.463L206.083 254.279L204.154 252.35ZM195.97 262.463L204.154 270.647L206.083 268.718L197.899 260.534L195.97 262.463ZM196.934 262.863H217.394V260.135H196.934V262.863Z" fill="white"/>
</g>
<g filter="url(#filter3_f_5647_7119)">
<circle cx="535" cy="279" r="71" fill="white"/>
</g>
<g filter="url(#filter4_f_5647_7119)">
<circle cx="-14" cy="-24" r="104" fill="white"/>
</g>
</g>
<rect x="2.5" y="1.5" width="555" height="277" rx="14.5" stroke="#E6E6E6"/>
</g>
<defs>
<filter id="filter0_d_5647_7119" x="0" y="0" width="560" height="282" filterUnits="userSpaceOnUse" color-interpolation-filters="sRGB">
<feFlood flood-opacity="0" result="BackgroundImageFix"/>
<feColorMatrix in="SourceAlpha" type="matrix" values="0 0 0 0 0 0 0 0 0 0 0 0 0 0 0 0 0 0 127 0" result="hardAlpha"/>
<feOffset dy="1"/>
<feGaussianBlur stdDeviation="1"/>
<feComposite in2="hardAlpha" operator="out"/>
<feColorMatrix type="matrix" values="0 0 0 0 0 0 0 0 0 0 0 0 0 0 0 0 0 0 0.05 0"/>
<feBlend mode="normal" in2="BackgroundImageFix" result="effect1_dropShadow_5647_7119"/>
<feBlend mode="normal" in="SourceGraphic" in2="effect1_dropShadow_5647_7119" result="shape"/>
</filter>
<filter id="filter1_d_5647_7119" x="50.7073" y="100.707" width="525.072" height="350.485" filterUnits="userSpaceOnUse" color-interpolation-filters="sRGB">
<feFlood flood-opacity="0" result="BackgroundImageFix"/>
<feColorMatrix in="SourceAlpha" type="matrix" values="0 0 0 0 0 0 0 0 0 0 0 0 0 0 0 0 0 0 127 0" result="hardAlpha"/>
<feOffset dx="31.7433" dy="31.7433"/>
<feGaussianBlur stdDeviation="39.8826"/>
<feColorMatrix type="matrix" values="0 0 0 0 0 0 0 0 0 0 0 0 0 0 0 0 0 0 0.9 0"/>
<feBlend mode="normal" in2="BackgroundImageFix" result="effect1_dropShadow_5647_7119"/>
<feBlend mode="normal" in="SourceGraphic" in2="effect1_dropShadow_5647_7119" result="shape"/>
</filter>
<filter id="filter2_ddi_5647_7119" x="108.932" y="227.254" width="345.135" height="152.143" filterUnits="userSpaceOnUse" color-interpolation-filters="sRGB">
<feFlood flood-opacity="0" result="BackgroundImageFix"/>
<feColorMatrix in="SourceAlpha" type="matrix" values="0 0 0 0 0 0 0 0 0 0 0 0 0 0 0 0 0 0 127 0" result="hardAlpha"/>
<feMorphology radius="3.2735" operator="erode" in="SourceAlpha" result="effect1_dropShadow_5647_7119"/>
<feOffset dy="7.63818"/>
<feGaussianBlur stdDeviation="7.09259"/>
<feColorMatrix type="matrix" values="0 0 0 0 0 0 0 0 0 0 0 0 0 0 0 0 0 0 0.3 0"/>
<feBlend mode="normal" in2="BackgroundImageFix" result="effect1_dropShadow_5647_7119"/>
<feColorMatrix in="SourceAlpha" type="matrix" values="0 0 0 0 0 0 0 0 0 0 0 0 0 0 0 0 0 0 127 0" result="hardAlpha"/>
<feOffset dy="2.18234"/>
<feGaussianBlur stdDeviation="2.18234"/>
<feColorMatrix type="matrix" values="0 0 0 0 0 0 0 0 0 0 0 0 0 0 0 0 0 0 0.4 0"/>
<feBlend mode="normal" in2="effect1_dropShadow_5647_7119" result="effect2_dropShadow_5647_7119"/>
<feBlend mode="normal" in="SourceGraphic" in2="effect2_dropShadow_5647_7119" result="shape"/>
<feColorMatrix in="SourceAlpha" type="matrix" values="0 0 0 0 0 0 0 0 0 0 0 0 0 0 0 0 0 0 127 0" result="hardAlpha"/>
<feOffset dy="-3.2735"/>
<feComposite in2="hardAlpha" operator="arithmetic" k2="-1" k3="1"/>
<feColorMatrix type="matrix" values="0 0 0 0 0 0 0 0 0 0 0 0 0 0 0 0 0 0 0.2 0"/>
<feBlend mode="normal" in2="shape" result="effect3_innerShadow_5647_7119"/>
</filter>
<filter id="filter3_f_5647_7119" x="259.54" y="3.53999" width="550.92" height="550.92" filterUnits="userSpaceOnUse" color-interpolation-filters="sRGB">
<feFlood flood-opacity="0" result="BackgroundImageFix"/>
<feBlend mode="normal" in="SourceGraphic" in2="BackgroundImageFix" result="shape"/>
<feGaussianBlur stdDeviation="102.23" result="effect1_foregroundBlur_5647_7119"/>
</filter>
<filter id="filter4_f_5647_7119" x="-342.46" y="-352.46" width="656.92" height="656.92" filterUnits="userSpaceOnUse" color-interpolation-filters="sRGB">
<feFlood flood-opacity="0" result="BackgroundImageFix"/>
<feBlend mode="normal" in="SourceGraphic" in2="BackgroundImageFix" result="shape"/>
<feGaussianBlur stdDeviation="112.23" result="effect1_foregroundBlur_5647_7119"/>
</filter>
<linearGradient id="paint0_linear_5647_7119" x1="281.5" y1="140" x2="281.5" y2="348.413" gradientUnits="userSpaceOnUse">
<stop stop-color="white"/>
<stop offset="1" stop-color="white"/>
</linearGradient>
<radialGradient id="paint1_radial_5647_7119" cx="0" cy="0" r="1" gradientUnits="userSpaceOnUse" gradientTransform="translate(281.5 230.527) rotate(90) scale(130.319 323.312)">
<stop stop-color="white" stop-opacity="0.3"/>
<stop offset="1" stop-color="white" stop-opacity="0"/>
</radialGradient>
<clipPath id="clip0_5647_7119">
<rect x="2" y="1" width="556" height="278" rx="15" fill="white"/>
</clipPath>
</defs>
</svg>
