<svg width="362" height="125" viewBox="0 0 362 125" fill="none" xmlns="http://www.w3.org/2000/svg">
<g filter="url(#filter0_d_2978_8726)">
<g clip-path="url(#clip0_2978_8726)">
<rect x="2" y="1" width="358" height="121" rx="15" fill="black"/>
<path d="M366.62 156.454L321.101 73.6479C319.323 70.4169 317.882 61.736 317.882 54.2695V-41.7155C317.882 -49.182 319.323 -52.6154 321.101 -49.3844L366.62 33.4218C368.397 36.6527 369.839 45.3337 369.839 52.8002V148.785C369.839 156.252 368.397 159.685 366.62 156.454Z" fill="url(#paint0_linear_2978_8726)" stroke="#3292F1" stroke-width="0.749649" stroke-miterlimit="10"/>
<path d="M-1.44582 172.054L44.0731 89.2476C45.8504 86.0167 47.2922 77.3357 47.2922 69.8692V-26.1158C47.2922 -33.5823 45.8504 -37.0157 44.0731 -33.7847L-1.44582 49.0215C-3.22309 52.2525 -4.66489 60.9334 -4.66489 68.3999V164.385C-4.66489 171.851 -3.22309 175.285 -1.44582 172.054Z" fill="url(#paint1_linear_2978_8726)" stroke="#3292F1" stroke-width="0.749649" stroke-miterlimit="10"/>
<path d="M32.7884 39C32.095 39 31.4684 38.8667 30.9084 38.6C30.3617 38.32 29.9284 37.9533 29.6084 37.5C29.3017 37.0333 29.1484 36.5333 29.1484 36C29.135 35.8267 29.1284 35.4 29.1284 34.72H31.7684L31.7884 35.46C31.8017 35.58 31.8417 35.6667 31.9084 35.72C31.9884 35.76 32.115 35.78 32.2884 35.78H34.6084C35.235 35.78 35.5017 35.5667 35.4084 35.14L35.3484 34.9L33.8684 29.06L36.6684 28.28L38.1484 34.16C38.2684 34.64 38.3684 34.9867 38.4484 35.2C38.5284 35.4133 38.615 35.5667 38.7084 35.66C38.815 35.74 38.9617 35.78 39.1484 35.78H40.1284L40.3084 37.4L40.1284 39H39.1484C38.2817 39 37.555 38.72 36.9684 38.16C36.235 38.72 35.3217 39 34.2284 39H32.7884ZM39.9215 35.78H43.6015C44.0815 35.78 44.3948 35.7333 44.5415 35.64C44.7015 35.5333 44.7682 35.3467 44.7415 35.08L44.5215 32.62L47.3815 32.32L47.6015 34.78L47.6215 34.94C47.6482 35.3 47.7282 35.5333 47.8615 35.64C48.0082 35.7333 48.2948 35.78 48.7215 35.78L48.9015 37.4L48.7215 39C47.6948 39 46.8548 38.7467 46.2015 38.24C45.4815 38.7467 44.6148 39 43.6015 39H39.9215V35.78ZM39.4215 40.74H44.6015V43.26H39.4215V40.74ZM48.5152 35.78H49.7752C50.2286 35.78 50.5352 35.7333 50.6952 35.64C50.8552 35.5467 50.9219 35.3867 50.8952 35.16V35.08L50.6752 32.62L53.5552 32.32L53.7752 34.78V34.88C53.8152 35.2667 53.9019 35.5133 54.0352 35.62C54.1686 35.7267 54.4552 35.78 54.8952 35.78L55.0752 37.4L54.8952 39C53.8686 39 53.0219 38.7467 52.3552 38.24C51.6619 38.7467 50.8019 39 49.7752 39H48.5152V35.78ZM49.8952 27.6H52.7152V30.44H49.8952V27.6ZM54.6871 35.78H59.1471C59.3738 35.78 59.5338 35.74 59.6271 35.66C59.7338 35.5533 59.7871 35.4333 59.7871 35.3C59.7871 35.1667 59.7404 35.0333 59.6471 34.9L55.2471 28.68L55.8871 26.24L63.1271 23.58L64.1271 26.6L58.8271 28.54L61.8071 32.96C62.4338 33.8933 62.7471 34.8267 62.7471 35.76C62.7471 36.48 62.5404 37.12 62.1271 37.68C61.8204 38.0933 61.4071 38.42 60.8871 38.66C60.3804 38.8867 59.7871 39 59.1071 39H54.6871V35.78ZM73.5891 39C72.8958 39 72.2691 38.8667 71.7091 38.6C71.1625 38.32 70.7291 37.9533 70.4091 37.5C70.1025 37.0333 69.9491 36.5333 69.9491 36C69.9358 35.8267 69.9291 35.4 69.9291 34.72H72.5691L72.5891 35.46C72.6025 35.58 72.6425 35.6667 72.7091 35.72C72.7891 35.76 72.9158 35.78 73.0891 35.78H75.4091C76.0358 35.78 76.3025 35.5667 76.2091 35.14L76.1491 34.9L74.6691 29.06L77.4691 28.28L78.9491 34.16C79.0691 34.64 79.1691 34.9867 79.2491 35.2C79.3291 35.4133 79.4158 35.5667 79.5091 35.66C79.6158 35.74 79.7625 35.78 79.9491 35.78H80.9291L81.1091 37.4L80.9291 39H79.9491C79.0825 39 78.3558 38.72 77.7691 38.16C77.0358 38.72 76.1225 39 75.0291 39H73.5891ZM80.7223 35.78H82.0223H82.4023C82.0556 35.26 81.9089 34.7667 81.9623 34.3L82.0823 33.12C82.1489 32.4 82.3689 31.7533 82.7423 31.18C83.1289 30.6067 83.6223 30.16 84.2223 29.84C84.8223 29.52 85.4689 29.36 86.1623 29.36C86.9489 29.36 87.6556 29.58 88.2823 30.02C88.9223 30.4467 89.4089 31.0133 89.7423 31.72C90.0889 32.4133 90.2423 33.1533 90.2023 33.94L90.1423 34.88C90.1289 35.1733 90.0289 35.4733 89.8423 35.78H91.3423L91.5223 37.4L91.3423 39H89.8223C88.6489 39 87.3956 38.76 86.0623 38.28C84.6889 38.76 83.3423 39 82.0223 39H80.7223V35.78ZM83.4823 25.52H88.6623V28.04H83.4823V25.52ZM84.8223 34.42C85.1023 34.7533 85.4889 35.02 85.9823 35.22C86.6889 35.02 87.1223 34.7933 87.2823 34.54L87.3823 33.9C87.4223 33.5667 87.3156 33.26 87.0623 32.98C86.8223 32.7 86.5156 32.56 86.1423 32.56C85.8223 32.56 85.5356 32.66 85.2823 32.86C85.0423 33.06 84.9089 33.32 84.8823 33.64L84.8223 34.42ZM91.152 35.78H92.732C93.2653 35.78 93.652 35.72 93.892 35.6C94.132 35.4667 94.252 35.2333 94.252 34.9C94.252 34.7133 94.212 34.48 94.132 34.2L93.332 31.22L96.092 30.4L96.892 33.38C97.0386 33.9667 97.112 34.4867 97.112 34.94C97.112 35.74 96.932 36.4467 96.572 37.06C96.212 37.6733 95.6986 38.1533 95.032 38.5C94.3653 38.8333 93.5986 39 92.732 39H91.152V35.78ZM92.352 25.98H95.192V28.82H92.352V25.98ZM103.786 25.08L106.646 24.92L107.186 38.96L104.326 39.1L103.786 25.08ZM107.58 41L108.96 40.62C109.84 40.3667 110.44 40.12 110.76 39.88C111.093 39.64 111.26 39.2867 111.26 38.82C111.26 38.74 111.247 38.5933 111.22 38.38L110.42 32.64L113.24 32.22L113.82 36.38L114.04 38.02C114.093 38.3533 114.12 38.7067 114.12 39.08C114.12 40.32 113.767 41.2933 113.06 42C112.353 42.72 111.24 43.2933 109.72 43.72L108.34 44.1L107.58 41ZM124.077 39C123.384 39 122.757 38.8667 122.197 38.6C121.651 38.32 121.217 37.9533 120.897 37.5C120.591 37.0333 120.437 36.5333 120.437 36C120.424 35.8267 120.417 35.4 120.417 34.72H123.057L123.077 35.46C123.091 35.58 123.131 35.6667 123.197 35.72C123.277 35.76 123.404 35.78 123.577 35.78H126.177C126.711 35.78 126.977 35.62 126.977 35.3C126.977 35.1533 126.951 35.02 126.897 34.9C126.657 34.26 126.251 33.46 125.677 32.5C125.117 31.54 124.511 30.5867 123.857 29.64L126.177 27.74C126.977 28.8333 127.704 29.9667 128.357 31.14C129.024 32.3 129.464 33.3067 129.677 34.16C129.771 34.5333 129.817 34.9267 129.817 35.34C129.817 36.0333 129.651 36.66 129.317 37.22C128.997 37.7667 128.531 38.2 127.917 38.52C127.317 38.84 126.604 39 125.777 39H124.077ZM133.062 40.98C134.515 40.6733 135.542 40.4333 136.142 40.26C136.755 40.1 137.195 39.9267 137.462 39.74C137.728 39.5667 137.875 39.32 137.902 39H135.922C135.122 39 134.415 38.8267 133.802 38.48C133.202 38.12 132.735 37.6133 132.402 36.96C132.068 36.3067 131.902 35.5467 131.902 34.68C131.902 33.8667 132.082 33.1067 132.442 32.4C132.802 31.68 133.295 31.1067 133.922 30.68C134.562 30.2533 135.275 30.04 136.062 30.04C136.822 30.04 137.508 30.2467 138.122 30.66C138.748 31.0733 139.255 31.6467 139.642 32.38C140.042 33.1 140.295 33.92 140.402 34.84L140.502 35.78H141.622L141.802 37.4L141.622 39H141.562H140.802C140.802 40.0267 140.562 40.8467 140.082 41.46C139.602 42.0733 138.862 42.5733 137.862 42.96C136.875 43.3467 135.468 43.7333 133.642 44.12L133.062 40.98ZM134.782 34.74C134.782 35.1267 134.862 35.4 135.022 35.56C135.182 35.7067 135.482 35.78 135.922 35.78H137.602L137.542 35.18C137.475 34.54 137.308 34.06 137.042 33.74C136.788 33.42 136.455 33.26 136.042 33.26C135.655 33.26 135.348 33.4 135.122 33.68C134.895 33.96 134.782 34.3133 134.782 34.74ZM141.425 35.78H141.905C143.092 35.78 144.132 35.7533 145.025 35.7C145.919 35.6333 146.772 35.5 147.585 35.3L150.965 34.5L148.065 33.1C147.799 32.9667 147.499 32.9 147.165 32.9C146.845 32.9 146.552 32.9733 146.285 33.12C146.019 33.2667 145.805 33.4867 145.645 33.78L145.305 34.4L142.805 32.82L143.205 32.12C143.645 31.32 144.205 30.7067 144.885 30.28C145.579 29.8533 146.319 29.64 147.105 29.64C147.932 29.64 148.712 29.8533 149.445 30.28L154.485 33.16L154.085 36.86L148.285 38.4C147.312 38.6533 146.305 38.82 145.265 38.9C144.225 38.9667 143.099 39 141.885 39H141.425V35.78ZM145.505 25.08H148.345V27.9H145.505V25.08ZM269.438 43.72C268.838 43.8667 268.205 43.94 267.538 43.94C266.405 43.94 265.418 43.68 264.578 43.16C263.751 42.6533 263.118 41.9267 262.678 40.98C262.238 40.0467 262.018 38.96 262.018 37.72C262.018 36.3467 262.278 34.92 262.798 33.44L265.518 34.52C265.078 35.7733 264.858 36.86 264.858 37.78C264.858 38.7267 265.085 39.4533 265.538 39.96C266.005 40.4667 266.671 40.72 267.538 40.72C267.951 40.72 268.365 40.6733 268.778 40.58C269.725 40.3667 270.418 40.18 270.858 40.02C271.298 39.86 271.591 39.6733 271.738 39.46C271.885 39.2467 271.938 38.96 271.898 38.6C271.871 38.5067 271.765 38.42 271.578 38.34L269.338 37.62L270.218 34.56C272.178 35.1067 273.445 35.4467 274.018 35.58C274.591 35.7133 275.111 35.78 275.578 35.78L275.758 37.4L275.578 39L274.758 38.98C274.758 40.22 274.331 41.2133 273.478 41.96C272.638 42.7067 271.291 43.2933 269.438 43.72ZM275.371 35.78H279.051C279.531 35.78 279.844 35.7333 279.991 35.64C280.151 35.5333 280.217 35.3467 280.191 35.08L279.971 32.62L282.831 32.32L283.051 34.78L283.071 34.94C283.097 35.3 283.177 35.5333 283.311 35.64C283.457 35.7333 283.744 35.78 284.171 35.78L284.351 37.4L284.171 39C283.144 39 282.304 38.7467 281.651 38.24C280.931 38.7467 280.064 39 279.051 39H275.371V35.78ZM276.131 27.78H281.331V30.3H276.131V27.78ZM283.964 35.78H284.444C285.631 35.78 286.671 35.7533 287.564 35.7C288.458 35.6333 289.311 35.5 290.124 35.3L293.504 34.5L290.604 33.1C290.338 32.9667 290.038 32.9 289.704 32.9C289.384 32.9 289.091 32.9733 288.824 33.12C288.558 33.2667 288.344 33.4867 288.184 33.78L287.844 34.4L285.344 32.82L285.744 32.12C286.184 31.32 286.744 30.7067 287.424 30.28C288.118 29.8533 288.858 29.64 289.644 29.64C290.471 29.64 291.251 29.8533 291.984 30.28L297.024 33.16L296.624 36.86L290.824 38.4C289.851 38.6533 288.844 38.82 287.804 38.9C286.764 38.9667 285.638 39 284.424 39H283.964V35.78ZM299.469 25.08L302.329 24.92L302.869 38.96L300.009 39.1L299.469 25.08ZM303.264 41L304.644 40.62C305.524 40.3667 306.124 40.12 306.444 39.88C306.777 39.64 306.944 39.2867 306.944 38.82C306.944 38.74 306.93 38.5933 306.904 38.38L306.104 32.64L308.924 32.22L309.504 36.38L309.724 38.02C309.777 38.3533 309.804 38.7067 309.804 39.08C309.804 40.32 309.45 41.2933 308.744 42C308.037 42.72 306.924 43.2933 305.404 43.72L304.024 44.1L303.264 41ZM320.281 37.52C320.201 37.5333 320.081 37.54 319.921 37.54C319.161 37.54 318.421 37.2667 317.701 36.72C316.994 36.1733 316.508 35.5067 316.241 34.72C316.108 34.32 316.041 33.9 316.041 33.46C316.041 32.58 316.288 31.7733 316.781 31.04C317.288 30.2933 317.941 29.7933 318.741 29.54L321.221 28.72V28.08H324.081V34.26C324.081 34.6867 324.248 35.0467 324.581 35.34C324.914 35.6333 325.321 35.78 325.801 35.78H326.181L326.361 37.4L326.181 39H325.801C325.081 39 324.408 38.84 323.781 38.52C323.168 38.2 322.648 37.7667 322.221 37.22L320.281 37.52ZM318.941 33.58C318.981 33.8067 319.108 34 319.321 34.16C319.534 34.32 319.768 34.3733 320.021 34.32L321.221 34.12V31.9L319.641 32.44C319.401 32.52 319.221 32.6467 319.101 32.82C318.981 32.98 318.921 33.16 318.921 33.36C318.921 33.4533 318.928 33.5267 318.941 33.58ZM325.976 35.78H327.556C328.09 35.78 328.476 35.72 328.716 35.6C328.956 35.4667 329.076 35.2333 329.076 34.9C329.076 34.7133 329.036 34.48 328.956 34.2L328.156 31.22L330.916 30.4L331.716 33.38C331.863 33.9667 331.936 34.4867 331.936 34.94C331.936 35.74 331.756 36.4467 331.396 37.06C331.036 37.6733 330.523 38.1533 329.856 38.5C329.19 38.8333 328.423 39 327.556 39H325.976V35.78ZM326.136 40.56H328.956V43.4H326.136V40.56Z" fill="white"/>
<path d="M168.169 43.72C167.569 43.8667 166.942 43.94 166.289 43.94C165.155 43.94 164.169 43.68 163.329 43.16C162.502 42.6533 161.862 41.9267 161.409 40.98C160.969 40.0467 160.749 38.9533 160.749 37.7C160.749 36.34 161.009 34.92 161.529 33.44L164.249 34.52C163.809 35.7733 163.589 36.8667 163.589 37.8C163.589 38.7467 163.815 39.4733 164.269 39.98C164.735 40.4867 165.395 40.74 166.249 40.74C166.595 40.74 167.015 40.6867 167.509 40.58C169.655 40.0867 170.729 39.7867 170.729 39.68C170.729 39.6533 170.635 39.6133 170.449 39.56C170.262 39.5067 170.122 39.4667 170.029 39.44C169.442 39.2933 168.935 39.1467 168.509 39C167.575 38.6533 166.875 38.24 166.409 37.76C165.942 37.28 165.709 36.6467 165.709 35.86C165.709 35.3267 165.802 34.76 165.989 34.16C166.362 32.9467 166.975 31.9533 167.829 31.18C168.695 30.4067 169.689 30.02 170.809 30.02C171.222 30.02 171.635 30.08 172.049 30.2L173.349 30.56L172.609 33.66L171.309 33.3C171.135 33.2467 170.949 33.22 170.749 33.22C170.175 33.22 169.722 33.4267 169.389 33.84C169.069 34.2533 168.849 34.6467 168.729 35.02C168.689 35.14 168.669 35.2467 168.669 35.34C168.669 35.5 168.749 35.6333 168.909 35.74C169.069 35.8333 169.389 35.96 169.869 36.12L170.429 36.3C171.189 36.54 171.755 36.74 172.129 36.9C172.515 37.06 172.829 37.2867 173.069 37.58C173.309 37.8733 173.482 38.28 173.589 38.8C173.629 39.0267 173.649 39.2333 173.649 39.42C173.649 40.4333 173.162 41.3067 172.189 42.04C171.229 42.7733 169.889 43.3333 168.169 43.72ZM174.631 41L176.011 40.62C176.891 40.3667 177.491 40.12 177.811 39.88C178.144 39.64 178.311 39.2867 178.311 38.82C178.311 38.74 178.298 38.5933 178.271 38.38L177.471 32.64L180.291 32.22L180.871 36.38L181.091 38.02C181.144 38.3533 181.171 38.7067 181.171 39.08C181.171 40.32 180.818 41.2933 180.111 42C179.404 42.72 178.291 43.2933 176.771 43.72L175.391 44.1L174.631 41ZM183.723 35.78H188.743C189.196 35.78 189.496 35.7133 189.643 35.58C189.803 35.4467 189.876 35.2467 189.863 34.98L189.483 25.08L192.363 24.92L192.743 34.84C192.783 35.6267 192.643 36.3333 192.323 36.96C192.003 37.5867 191.536 38.0867 190.923 38.46C190.31 38.82 189.583 39 188.743 39H183.723V35.78ZM185.423 25.74L187.103 34.34L184.303 34.92L182.623 26.3L185.423 25.74ZM198.472 39C197.779 39 197.152 38.8667 196.592 38.6C196.045 38.32 195.612 37.9533 195.292 37.5C194.985 37.0333 194.832 36.5333 194.832 36C194.819 35.8267 194.812 35.4 194.812 34.72H197.452L197.472 35.46C197.485 35.58 197.525 35.6667 197.592 35.72C197.672 35.76 197.799 35.78 197.972 35.78H200.572C201.105 35.78 201.372 35.62 201.372 35.3C201.372 35.1533 201.345 35.02 201.292 34.9C201.052 34.26 200.645 33.46 200.072 32.5C199.512 31.54 198.905 30.5867 198.252 29.64L200.572 27.74C201.372 28.8333 202.099 29.9667 202.752 31.14C203.419 32.3 203.859 33.3067 204.072 34.16C204.165 34.5333 204.212 34.9267 204.212 35.34C204.212 36.0333 204.045 36.66 203.712 37.22C203.392 37.7667 202.925 38.2 202.312 38.52C201.712 38.84 200.999 39 200.172 39H198.472ZM214.195 39C213.501 39 212.875 38.8667 212.315 38.6C211.768 38.32 211.335 37.9533 211.015 37.5C210.708 37.0333 210.555 36.5333 210.555 36C210.541 35.8267 210.535 35.4 210.535 34.72H213.175L213.195 35.46C213.208 35.58 213.248 35.6667 213.315 35.72C213.395 35.76 213.521 35.78 213.695 35.78H216.015C216.641 35.78 216.908 35.5667 216.815 35.14L216.755 34.9L215.275 29.06L218.075 28.28L219.555 34.16C219.675 34.64 219.775 34.9867 219.855 35.2C219.935 35.4133 220.021 35.5667 220.115 35.66C220.221 35.74 220.368 35.78 220.555 35.78H221.535L221.715 37.4L221.535 39H220.555C219.688 39 218.961 38.72 218.375 38.16C217.641 38.72 216.728 39 215.635 39H214.195ZM221.328 35.78H221.548C221.841 35.78 222.108 35.72 222.348 35.6C222.588 35.48 222.768 35.3133 222.888 35.1L224.428 32.12C224.734 31.52 225.181 31.0533 225.768 30.72C226.354 30.3733 226.988 30.2 227.668 30.2C228.281 30.2 228.854 30.34 229.388 30.62C230.694 31.3267 231.348 32.4533 231.348 34C231.348 35 231.068 36.1133 230.508 37.34C230.254 37.9 229.894 38.3333 229.428 38.64C228.974 38.9467 228.481 39.1 227.948 39.1C227.494 39.1 227.061 38.9933 226.648 38.78L224.528 37.68C223.728 38.56 222.734 39 221.548 39H221.328V35.78ZM228.348 36.02L228.628 35.42C228.774 35.0867 228.848 34.76 228.848 34.44C228.848 33.9067 228.641 33.54 228.228 33.34C228.068 33.26 227.894 33.22 227.708 33.22C227.481 33.22 227.261 33.2867 227.048 33.42C226.848 33.5533 226.688 33.7467 226.568 34L226.108 34.9L228.348 36.02ZM233.949 27.06L236.809 26.92L237.249 38.96L234.389 39.1L233.949 27.06ZM232.229 25.88C232.229 25.28 232.409 24.8 232.769 24.44C233.129 24.0667 233.589 23.88 234.149 23.88C234.242 23.88 234.395 23.8933 234.609 23.92L236.629 24.3C236.695 24.3133 236.782 24.32 236.889 24.32C237.182 24.32 237.329 24.1933 237.329 23.94V23.86L238.769 23.76V24.26C238.769 24.86 238.589 25.34 238.229 25.7C237.882 26.06 237.429 26.24 236.869 26.24C236.655 26.24 236.495 26.2267 236.389 26.2L234.369 25.82C234.315 25.8067 234.242 25.8 234.149 25.8C233.829 25.8 233.669 25.9333 233.669 26.2V26.26L232.229 26.38V25.88ZM237.736 41L239.116 40.62C239.996 40.3667 240.596 40.12 240.916 39.88C241.25 39.64 241.416 39.2867 241.416 38.82C241.416 38.74 241.403 38.5933 241.376 38.38L240.576 32.64L243.396 32.22L243.976 36.38L244.196 38.02C244.25 38.3533 244.276 38.7067 244.276 39.08C244.276 40.32 243.923 41.2933 243.216 42C242.51 42.72 241.396 43.2933 239.876 43.72L238.496 44.1L237.736 41ZM249.995 39C249.302 39 248.675 38.8667 248.115 38.6C247.569 38.32 247.135 37.9533 246.815 37.5C246.509 37.0333 246.355 36.5333 246.355 36C246.342 35.8267 246.335 35.4 246.335 34.72H248.975L248.995 35.46C249.009 35.58 249.049 35.6667 249.115 35.72C249.195 35.76 249.322 35.78 249.495 35.78H252.095C252.629 35.78 252.895 35.62 252.895 35.3C252.895 35.1533 252.869 35.02 252.815 34.9C252.575 34.26 252.169 33.46 251.595 32.5C251.035 31.54 250.429 30.5867 249.775 29.64L252.095 27.74C252.895 28.8333 253.622 29.9667 254.275 31.14C254.942 32.3 255.382 33.3067 255.595 34.16C255.689 34.5333 255.735 34.9267 255.735 35.34C255.735 36.0333 255.569 36.66 255.235 37.22C254.915 37.7667 254.449 38.2 253.835 38.52C253.235 38.84 252.522 39 251.695 39H249.995Z" fill="#3292F1"/>
<rect x="128" y="66" width="105.585" height="39.4309" rx="8.6748" fill="white"/>
<path d="M141.406 85.7155L140.849 85.1578L140.291 85.7155L140.849 86.2731L141.406 85.7155ZM153.236 86.5041C153.671 86.5041 154.024 86.151 154.024 85.7155C154.024 85.2799 153.671 84.9268 153.236 84.9268V86.5041ZM145.581 80.4261L140.849 85.1578L141.964 86.2731L146.696 81.5414L145.581 80.4261ZM140.849 86.2731L145.581 91.0048L146.696 89.8895L141.964 85.1578L140.849 86.2731ZM141.406 86.5041H153.236V84.9268H141.406V86.5041Z" fill="#3292F1"/>
<path d="M173.421 89.252C172.799 89.252 172.29 89.0459 171.895 88.6338C171.499 89.0459 170.978 89.252 170.33 89.252C169.977 89.252 169.657 89.1805 169.371 89.0375C169.38 89.1048 169.384 89.2016 169.384 89.3277C169.384 89.8997 169.253 90.3708 168.993 90.7409C168.74 91.1195 168.383 91.4181 167.92 91.6368C167.457 91.8639 166.873 92.0616 166.166 92.2299C165.746 92.3224 165.363 92.3686 165.018 92.3686C164.345 92.3686 163.76 92.2172 163.264 91.9144C162.776 91.6116 162.398 91.1826 162.128 90.6274C161.868 90.0722 161.737 89.4245 161.737 88.6842C161.737 87.8767 161.901 87.0018 162.229 86.0597L163.542 86.5897C163.264 87.372 163.125 88.0828 163.125 88.7221C163.125 89.395 163.285 89.9124 163.605 90.2741C163.933 90.6358 164.4 90.8166 165.005 90.8166C165.3 90.8166 165.582 90.783 165.851 90.7157C166.431 90.5811 166.856 90.4676 167.125 90.375C167.403 90.2825 167.617 90.1521 167.769 89.9839C167.92 89.8156 167.996 89.5801 167.996 89.2773C167.996 89.21 167.987 89.0922 167.971 88.924L167.466 85.4667L168.829 85.2395L169.043 86.6906C169.144 87.0691 169.287 87.3341 169.472 87.4855C169.666 87.6285 169.952 87.7 170.33 87.7C170.7 87.7 170.948 87.6327 171.075 87.4981C171.201 87.3551 171.264 87.1659 171.264 86.9303V85.3657H172.551V86.9303C172.551 87.1995 172.618 87.3972 172.753 87.5234C172.896 87.6411 173.119 87.7 173.421 87.7C173.716 87.7 173.943 87.6454 174.103 87.536C174.271 87.4182 174.355 87.2205 174.355 86.943C174.355 86.842 174.326 86.6654 174.267 86.413L173.762 84.5329L175.087 84.1292L175.592 86.0092C175.684 86.3625 175.731 86.678 175.731 86.9556C175.731 87.4182 175.63 87.822 175.428 88.1669C175.226 88.5118 174.948 88.781 174.595 88.9744C174.25 89.1595 173.859 89.252 173.421 89.252ZM169.838 82.3627H171.289L171.302 83.8137H169.838V82.3627ZM171.163 80.5583H172.475V81.7822H171.163V80.5583ZM172.324 82.3627H173.775V83.8137H172.311L172.324 82.3627ZM175.314 90.9807L176.008 90.7914C176.437 90.6736 176.773 90.5601 177.017 90.4507C177.261 90.3498 177.451 90.211 177.585 90.0343C177.72 89.8661 177.787 89.6432 177.787 89.3656C177.787 89.3067 177.779 89.21 177.762 89.0754L177.257 85.454L178.62 85.2395L178.986 87.9019L179.124 88.8987C179.15 89.109 179.162 89.3067 179.162 89.4918C179.162 90.2573 178.931 90.8503 178.468 91.2709C178.006 91.6915 177.308 92.0322 176.374 92.2929L175.68 92.4822L175.314 90.9807ZM183.01 89.252C182.421 89.252 181.954 89.1637 181.609 88.9871C181.273 88.8104 181.025 88.5244 180.865 88.129C180.705 87.7337 180.608 87.1953 180.575 86.5139L180.348 80.7097L181.736 80.634L181.963 86.5139C181.98 86.8925 182.009 87.1617 182.051 87.3215C182.102 87.4729 182.194 87.5739 182.329 87.6243C182.463 87.6748 182.69 87.7 183.01 87.7H183.136L183.225 88.4823L183.136 89.252H183.01ZM183.014 87.7H183.796C183.998 87.7 184.225 87.6874 184.477 87.6622C184.099 87.2668 183.926 86.8967 183.96 86.5518L184.036 85.8073C184.069 85.3952 184.196 85.025 184.414 84.697C184.641 84.3689 184.927 84.1123 185.272 83.9273C185.626 83.7422 186.004 83.6497 186.408 83.6497C186.879 83.6497 187.295 83.7759 187.657 84.0282C188.019 84.2806 188.296 84.6129 188.49 85.025C188.683 85.4288 188.768 85.8536 188.742 86.2994L188.704 86.8672C188.696 87.1364 188.553 87.4098 188.275 87.6874C188.368 87.6958 188.515 87.7 188.717 87.7H189.613L189.701 88.4823L189.613 89.252H188.717C187.952 89.252 187.161 89.0964 186.345 88.7852C185.453 89.0964 184.604 89.252 183.796 89.252H183.014V87.7ZM185.348 86.6023C185.407 86.7116 185.516 86.8294 185.676 86.9556C185.836 87.0733 186.038 87.1827 186.282 87.2836C186.879 87.0986 187.224 86.9051 187.316 86.7032L187.38 86.2742C187.405 86.005 187.325 85.7569 187.14 85.5298C186.955 85.3026 186.707 85.1891 186.395 85.1891C186.135 85.1891 185.907 85.2732 185.714 85.4414C185.52 85.6013 185.411 85.8073 185.386 86.0597L185.348 86.6023ZM185.664 81.2018H187.19V82.7286H185.664V81.2018ZM196.246 89.252C195.624 89.252 195.115 89.0459 194.719 88.6338C194.324 89.0459 193.802 89.252 193.155 89.252C192.557 89.252 192.057 89.0417 191.653 88.6211C191.258 89.0417 190.732 89.252 190.076 89.252H189.483V87.7H190.076C190.446 87.7 190.69 87.6327 190.808 87.4981C190.934 87.3636 190.997 87.1743 190.997 86.9303V85.3657H192.297V86.9303V86.9682C192.297 87.1953 192.368 87.3762 192.511 87.5108C192.654 87.6369 192.869 87.7 193.155 87.7C193.508 87.7 193.748 87.6369 193.874 87.5108C194.008 87.3762 194.08 87.1995 194.088 86.9808V86.9303V85.3657H195.375V86.9303V86.9682C195.375 87.4561 195.666 87.7 196.246 87.7C196.54 87.7 196.768 87.6454 196.927 87.536C197.096 87.4182 197.18 87.2205 197.18 86.943C197.18 86.8336 197.15 86.6527 197.091 86.4004L196.587 84.5203L197.912 84.1292L198.416 86.0092C198.509 86.3625 198.555 86.678 198.555 86.9556C198.555 87.4182 198.454 87.822 198.252 88.1669C198.05 88.5118 197.773 88.781 197.42 88.9744C197.075 89.1595 196.683 89.252 196.246 89.252ZM208.082 89.252C207.132 89.252 206.417 89.2436 205.937 89.2268C205.458 89.21 205.088 89.1763 204.827 89.1259C204.566 89.0754 204.314 88.9997 204.07 88.8987C203.649 88.7137 203.325 88.4445 203.098 88.0912C202.879 87.7295 202.77 87.3131 202.77 86.842C202.77 86.5981 202.812 86.3079 202.896 85.9714L203.363 84.1544L204.701 84.5456L204.209 86.4256C204.166 86.6107 204.145 86.7495 204.145 86.842C204.145 86.9934 204.183 87.1196 204.259 87.2205C204.335 87.3215 204.457 87.4098 204.625 87.4855C204.81 87.5696 205.113 87.6285 205.533 87.6622C205.954 87.6874 206.825 87.7 208.145 87.7H211.123C211.468 87.7 211.712 87.6454 211.855 87.536C211.998 87.4266 212.061 87.2584 212.044 87.0313V86.9934L211.905 85.4414L213.293 85.3026L213.432 86.8546V86.8925C213.466 87.2121 213.542 87.4266 213.659 87.536C213.786 87.6454 214.017 87.7 214.353 87.7H214.492L214.58 88.4823L214.492 89.252H214.353C213.68 89.252 213.15 89.0712 212.763 88.7095C212.334 89.0712 211.788 89.252 211.123 89.252H208.145H208.082ZM206.278 83.3216H207.628V84.6844H206.278V83.3216ZM208.751 83.3216H210.101V84.6844H208.751V83.3216ZM214.349 87.7H215.144C215.489 87.7 215.733 87.6454 215.876 87.536C216.019 87.4266 216.082 87.2584 216.065 87.0313V86.9934L215.926 85.4414L217.314 85.3026L217.453 86.8546V86.8925C217.487 87.2121 217.562 87.4266 217.68 87.536C217.806 87.6454 218.038 87.7 218.374 87.7L218.462 88.4823L218.374 89.252C217.684 89.252 217.154 89.0712 216.784 88.7095C216.372 89.0712 215.825 89.252 215.144 89.252H214.349V87.7ZM214.299 90.3119H215.825V91.8387H214.299V90.3119ZM218.243 87.7H220.135C220.514 87.7 220.8 87.6411 220.993 87.5234C221.195 87.4056 221.296 87.1995 221.296 86.9051C221.296 86.7537 221.271 86.5854 221.221 86.4004L220.729 84.5203L222.053 84.1292L222.571 86.0849C222.655 86.3878 222.697 86.678 222.697 86.9556C222.697 87.4266 222.583 87.8346 222.356 88.1795C222.138 88.5244 221.83 88.7894 221.435 88.9744C221.048 89.1595 220.615 89.252 220.135 89.252H218.243V87.7ZM218.659 81.5299H220.11L220.123 82.9936H218.647L218.659 81.5299ZM219.984 79.7255H221.284V80.9495H219.984V79.7255ZM221.132 81.5299H222.583L222.596 82.9936H221.132V81.5299Z" fill="#3292F1"/>
</g>
</g>
<defs>
<filter id="filter0_d_2978_8726" x="0" y="0" width="362" height="125" filterUnits="userSpaceOnUse" color-interpolation-filters="sRGB">
<feFlood flood-opacity="0" result="BackgroundImageFix"/>
<feColorMatrix in="SourceAlpha" type="matrix" values="0 0 0 0 0 0 0 0 0 0 0 0 0 0 0 0 0 0 127 0" result="hardAlpha"/>
<feOffset dy="1"/>
<feGaussianBlur stdDeviation="1"/>
<feComposite in2="hardAlpha" operator="out"/>
<feColorMatrix type="matrix" values="0 0 0 0 0 0 0 0 0 0 0 0 0 0 0 0 0 0 0.05 0"/>
<feBlend mode="normal" in2="BackgroundImageFix" result="effect1_dropShadow_2978_8726"/>
<feBlend mode="normal" in="SourceGraphic" in2="effect1_dropShadow_2978_8726" result="shape"/>
</filter>
<linearGradient id="paint0_linear_2978_8726" x1="321.641" y1="-37.7574" x2="534.007" y2="50.1357" gradientUnits="userSpaceOnUse">
<stop stop-color="#4693CA" stop-opacity="0"/>
<stop offset="0.28" stop-color="#68A1D6" stop-opacity="0.3"/>
<stop offset="0.63" stop-color="#82C1E5" stop-opacity="0.67"/>
<stop offset="0.88" stop-color="#82C1EF" stop-opacity="0.91"/>
<stop offset="1" stop-color="#82BDF3"/>
</linearGradient>
<linearGradient id="paint1_linear_2978_8726" x1="43.533" y1="-22.1577" x2="-168.834" y2="65.7354" gradientUnits="userSpaceOnUse">
<stop stop-color="#4693CA" stop-opacity="0"/>
<stop offset="0.28" stop-color="#68A1D6" stop-opacity="0.3"/>
<stop offset="0.63" stop-color="#82C1E5" stop-opacity="0.67"/>
<stop offset="0.88" stop-color="#82C1EF" stop-opacity="0.91"/>
<stop offset="1" stop-color="#82BDF3"/>
</linearGradient>
<clipPath id="clip0_2978_8726">
<rect x="2" y="1" width="358" height="121" rx="15" fill="white"/>
</clipPath>
</defs>
</svg>
