<svg width="560" height="282" viewBox="0 0 560 282" fill="none" xmlns="http://www.w3.org/2000/svg">
<g filter="url(#filter0_d_1900_2845)">
<g clip-path="url(#clip0_1900_2845)">
<rect x="2" y="1" width="556" height="278" rx="15" fill="#3292F1"/>
<g opacity="0.5" filter="url(#filter1_d_1900_2845)">
<rect x="98.7293" y="148.729" width="365.541" height="190.954" rx="30.5527" fill="white"/>
</g>
<rect x="112.914" y="160.732" width="337.171" height="163.675" rx="27.2792" fill="black"/>
<rect x="118.37" y="165.097" width="325.168" height="62.1966" rx="22.9145" fill="white"/>
<path d="M151.804 203.195V191.677H148.13V190.204H157.022V191.677H153.366V203.195H151.804ZM157.253 199.158C157.253 200.015 157.54 200.743 158.113 201.341C158.687 201.932 159.382 202.228 160.199 202.228C161.009 202.228 161.698 201.932 162.266 201.341C162.834 200.743 163.118 200.015 163.118 199.158C163.118 198.3 162.834 197.575 162.266 196.983C161.698 196.386 161.009 196.087 160.199 196.087C159.376 196.087 158.678 196.386 158.105 196.983C157.537 197.575 157.253 198.3 157.253 199.158ZM155.78 199.158C155.78 198.56 155.889 197.998 156.108 197.472C156.327 196.939 156.646 196.466 157.066 196.052C157.486 195.638 157.963 195.324 158.495 195.111C159.027 194.892 159.595 194.783 160.199 194.783C160.79 194.783 161.349 194.892 161.876 195.111C162.408 195.33 162.891 195.649 163.322 196.069C163.742 196.478 164.062 196.948 164.281 197.48C164.5 198.007 164.609 198.566 164.609 199.158C164.609 199.749 164.5 200.308 164.281 200.835C164.062 201.355 163.742 201.82 163.322 202.228C162.891 202.654 162.405 202.979 161.867 203.204C161.335 203.429 160.779 203.541 160.199 203.541C159.601 203.541 159.033 203.429 158.495 203.204C157.963 202.985 157.486 202.669 157.066 202.255C156.646 201.829 156.327 201.355 156.108 200.835C155.889 200.314 155.78 199.755 155.78 199.158ZM166.996 196.22H165.505V195.076H166.996V191.801H168.416V195.076H169.907V196.22H168.416V203.195H166.996V196.22ZM177.698 199.211C177.698 198.294 177.447 197.557 176.944 197.001C176.447 196.439 175.796 196.158 174.992 196.158C174.157 196.158 173.507 196.416 173.039 196.93C172.572 197.445 172.338 198.164 172.338 199.087C172.338 200.069 172.572 200.826 173.039 201.358C173.513 201.891 174.181 202.157 175.045 202.157C175.873 202.157 176.521 201.9 176.988 201.385C177.461 200.864 177.698 200.14 177.698 199.211ZM179.047 195.076V203.195H177.698V201.722C177.373 202.314 176.956 202.766 176.447 203.08C175.944 203.387 175.379 203.541 174.752 203.541C173.587 203.541 172.646 203.142 171.93 202.343C171.22 201.539 170.865 200.477 170.865 199.158C170.865 197.821 171.211 196.759 171.903 195.972C172.596 195.179 173.521 194.783 174.681 194.783C175.361 194.783 175.95 194.937 176.447 195.244C176.95 195.546 177.355 195.998 177.663 196.602V195.076H179.047ZM181.904 203.195V189.441H183.324V203.195H181.904ZM197.806 199.175C197.806 198.27 197.555 197.543 197.052 196.992C196.549 196.436 195.887 196.158 195.064 196.158C194.242 196.158 193.6 196.41 193.139 196.912C192.677 197.415 192.447 198.11 192.447 198.998C192.447 199.998 192.68 200.781 193.148 201.349C193.615 201.911 194.26 202.192 195.082 202.192C195.934 202.192 196.6 201.926 197.079 201.394C197.564 200.861 197.806 200.122 197.806 199.175ZM199.155 189.441V203.195H197.806V201.722C197.487 202.308 197.073 202.757 196.564 203.071C196.055 203.385 195.487 203.541 194.86 203.541C193.695 203.541 192.754 203.142 192.038 202.343C191.328 201.539 190.973 200.477 190.973 199.158C190.973 197.826 191.323 196.765 192.021 195.972C192.719 195.179 193.648 194.783 194.807 194.783C195.481 194.783 196.067 194.937 196.564 195.244C197.061 195.546 197.463 195.998 197.771 196.602V189.441H199.155ZM203.299 195.076V199.069C203.299 200.234 203.471 201.051 203.814 201.518C204.163 201.979 204.749 202.21 205.571 202.21C206.393 202.21 206.973 201.982 207.31 201.527C207.653 201.065 207.825 200.246 207.825 199.069V195.076H209.245V199.814C209.245 201.039 208.931 201.968 208.304 202.601C207.677 203.228 206.754 203.541 205.536 203.541C204.329 203.541 203.412 203.225 202.785 202.592C202.158 201.959 201.844 201.033 201.844 199.814V195.076H203.299ZM217.693 198.217C217.646 197.501 217.406 196.951 216.974 196.566C216.548 196.176 215.962 195.981 215.217 195.981C214.543 195.981 213.981 196.185 213.531 196.593C213.081 196.995 212.821 197.537 212.75 198.217H217.693ZM219.184 199.344H212.75V199.468C212.75 200.338 212.999 201.042 213.495 201.58C213.992 202.113 214.64 202.379 215.439 202.379C215.983 202.379 216.474 202.234 216.912 201.944C217.35 201.648 217.737 201.204 218.074 200.613L219.13 201.323C218.722 202.056 218.202 202.61 217.569 202.982C216.936 203.355 216.202 203.541 215.368 203.541C214.131 203.541 213.132 203.133 212.368 202.317C211.605 201.5 211.224 200.429 211.224 199.104C211.224 197.832 211.602 196.791 212.36 195.981C213.117 195.17 214.09 194.765 215.279 194.765C216.48 194.765 217.43 195.15 218.128 195.919C218.832 196.688 219.184 197.738 219.184 199.069V199.344ZM226.86 196.22H225.369V195.076H226.86V191.801H228.279V195.076H229.77V196.22H228.279V203.195H226.86V196.22ZM232.166 199.158C232.166 200.015 232.453 200.743 233.027 201.341C233.601 201.932 234.296 202.228 235.112 202.228C235.923 202.228 236.612 201.932 237.18 201.341C237.748 200.743 238.032 200.015 238.032 199.158C238.032 198.3 237.748 197.575 237.18 196.983C236.612 196.386 235.923 196.087 235.112 196.087C234.29 196.087 233.592 196.386 233.018 196.983C232.45 197.575 232.166 198.3 232.166 199.158ZM230.693 199.158C230.693 198.56 230.803 197.998 231.021 197.472C231.24 196.939 231.56 196.466 231.98 196.052C232.4 195.638 232.876 195.324 233.409 195.111C233.941 194.892 234.509 194.783 235.112 194.783C235.704 194.783 236.263 194.892 236.789 195.111C237.322 195.33 237.804 195.649 238.236 196.069C238.656 196.478 238.975 196.948 239.194 197.48C239.413 198.007 239.523 198.566 239.523 199.158C239.523 199.749 239.413 200.308 239.194 200.835C238.975 201.355 238.656 201.82 238.236 202.228C237.804 202.654 237.319 202.979 236.781 203.204C236.248 203.429 235.692 203.541 235.112 203.541C234.515 203.541 233.947 203.429 233.409 203.204C232.876 202.985 232.4 202.669 231.98 202.255C231.56 201.829 231.24 201.355 231.021 200.835C230.803 200.314 230.693 199.755 230.693 199.158ZM247.908 199.175C247.908 198.27 247.657 197.543 247.154 196.992C246.651 196.436 245.989 196.158 245.166 196.158C244.344 196.158 243.702 196.41 243.241 196.912C242.779 197.415 242.549 198.11 242.549 198.998C242.549 199.998 242.782 200.781 243.25 201.349C243.717 201.911 244.362 202.192 245.184 202.192C246.036 202.192 246.702 201.926 247.181 201.394C247.666 200.861 247.908 200.122 247.908 199.175ZM249.257 189.441V203.195H247.908V201.722C247.589 202.308 247.175 202.757 246.666 203.071C246.157 203.385 245.589 203.541 244.962 203.541C243.797 203.541 242.856 203.142 242.14 202.343C241.431 201.539 241.076 200.477 241.076 199.158C241.076 197.826 241.425 196.765 242.123 195.972C242.821 195.179 243.75 194.783 244.909 194.783C245.584 194.783 246.169 194.937 246.666 195.244C247.163 195.546 247.565 195.998 247.873 196.602V189.441H249.257ZM258.309 199.211C258.309 198.294 258.057 197.557 257.554 197.001C257.057 196.439 256.407 196.158 255.602 196.158C254.768 196.158 254.117 196.416 253.65 196.93C253.183 197.445 252.949 198.164 252.949 199.087C252.949 200.069 253.183 200.826 253.65 201.358C254.123 201.891 254.792 202.157 255.655 202.157C256.484 202.157 257.131 201.9 257.599 201.385C258.072 200.864 258.309 200.14 258.309 199.211ZM259.658 195.076V203.195H258.309V201.722C257.983 202.314 257.566 202.766 257.057 203.08C256.555 203.387 255.99 203.541 255.363 203.541C254.197 203.541 253.256 203.142 252.541 202.343C251.831 201.539 251.476 200.477 251.476 199.158C251.476 197.821 251.822 196.759 252.514 195.972C253.206 195.179 254.132 194.783 255.292 194.783C255.972 194.783 256.561 194.937 257.057 195.244C257.56 195.546 257.966 195.998 258.273 196.602V195.076H259.658ZM262.116 207.153L264.316 202.397L261.131 195.076H262.737L265.097 200.906L267.6 195.076H269.126L263.677 207.153H262.116ZM270.883 196.345C270.883 196.055 270.987 195.806 271.194 195.599C271.401 195.392 271.649 195.289 271.939 195.289C272.229 195.289 272.474 195.392 272.676 195.599C272.883 195.806 272.986 196.055 272.986 196.345C272.986 196.64 272.886 196.892 272.684 197.099C272.483 197.3 272.235 197.401 271.939 197.401C271.643 197.401 271.392 197.3 271.185 197.099C270.984 196.892 270.883 196.64 270.883 196.345ZM270.883 202.308C270.883 202.018 270.984 201.772 271.185 201.571C271.392 201.37 271.643 201.27 271.939 201.27C272.229 201.27 272.474 201.37 272.676 201.571C272.883 201.772 272.986 202.018 272.986 202.308C272.986 202.598 272.886 202.846 272.684 203.053C272.483 203.254 272.235 203.355 271.939 203.355C271.643 203.355 271.392 203.254 271.185 203.053C270.984 202.846 270.883 202.598 270.883 202.308Z" fill="black"/>
<path d="M353.48 187.329V189.529C354.789 189.662 355.892 190.013 356.788 190.583L355.443 193.2C354.668 192.606 353.905 192.309 353.153 192.309C352.693 192.309 352.317 192.418 352.027 192.636C351.736 192.842 351.59 193.078 351.59 193.345C351.59 193.587 351.705 193.818 351.936 194.036C352.166 194.254 352.469 194.429 352.844 194.563L353.917 194.926C355.116 195.338 355.982 195.847 356.515 196.453C357.049 197.046 357.315 197.822 357.315 198.779C357.315 199.361 357.248 199.875 357.115 200.324C356.982 200.772 356.764 201.172 356.461 201.523C356.158 201.875 355.758 202.184 355.261 202.45C354.777 202.717 354.183 202.959 353.48 203.177V205.431H351.808V203.268C351.433 203.268 351.033 203.225 350.609 203.141C350.185 203.044 349.767 202.923 349.355 202.777C348.943 202.62 348.555 202.444 348.192 202.25C347.841 202.044 347.55 201.832 347.32 201.614L348.792 198.87C349.931 199.875 351.039 200.378 352.117 200.378C352.566 200.378 352.953 200.257 353.281 200.015C353.62 199.772 353.789 199.457 353.789 199.07C353.789 198.537 353.396 198.143 352.608 197.888L351.572 197.561C350.954 197.367 350.427 197.155 349.991 196.925C349.555 196.695 349.198 196.428 348.919 196.126C348.64 195.823 348.434 195.483 348.301 195.108C348.168 194.72 348.101 194.278 348.101 193.781C348.101 193.26 348.174 192.757 348.319 192.273C348.477 191.788 348.707 191.358 349.01 190.982C349.325 190.595 349.712 190.274 350.173 190.019C350.633 189.753 351.178 189.589 351.808 189.529V187.329H353.48ZM361.053 203.195L364.942 198.724H364.87C364.53 198.93 364.252 199.058 364.034 199.106C363.816 199.142 363.622 199.161 363.452 199.161C362.786 199.161 362.168 199.033 361.598 198.779C361.041 198.525 360.556 198.179 360.145 197.743C359.745 197.295 359.43 196.774 359.2 196.18C358.969 195.586 358.854 194.95 358.854 194.272C358.854 193.545 358.987 192.872 359.254 192.255C359.521 191.625 359.902 191.079 360.399 190.619C360.908 190.146 361.52 189.777 362.235 189.51C362.949 189.244 363.755 189.111 364.652 189.111C365.56 189.111 366.372 189.244 367.087 189.51C367.802 189.777 368.408 190.14 368.904 190.601C369.413 191.061 369.801 191.6 370.067 192.218C370.334 192.824 370.467 193.472 370.467 194.163C370.467 194.938 370.292 195.78 369.94 196.689C369.601 197.586 369.074 198.47 368.359 199.342L365.179 203.195H361.053ZM366.942 194.199C366.942 193.884 366.881 193.593 366.76 193.327C366.639 193.048 366.475 192.806 366.269 192.6C366.063 192.394 365.821 192.23 365.542 192.109C365.276 191.988 364.985 191.927 364.67 191.927C364.355 191.927 364.058 191.988 363.779 192.109C363.513 192.23 363.276 192.394 363.071 192.6C362.865 192.806 362.701 193.048 362.58 193.327C362.459 193.593 362.398 193.884 362.398 194.199C362.398 194.514 362.459 194.811 362.58 195.09C362.701 195.356 362.865 195.593 363.071 195.798C363.276 196.004 363.513 196.168 363.779 196.289C364.058 196.41 364.355 196.471 364.67 196.471C364.985 196.471 365.276 196.41 365.542 196.289C365.821 196.168 366.063 196.004 366.269 195.798C366.475 195.593 366.639 195.356 366.76 195.09C366.881 194.811 366.942 194.514 366.942 194.199ZM380.639 189.492L376.75 193.963H376.822C377.162 193.757 377.44 193.636 377.658 193.599C377.876 193.551 378.07 193.527 378.24 193.527C378.906 193.527 379.518 193.654 380.075 193.908C380.633 194.163 381.117 194.514 381.529 194.962C381.941 195.399 382.262 195.914 382.493 196.507C382.723 197.101 382.838 197.737 382.838 198.415C382.838 199.142 382.705 199.821 382.438 200.451C382.172 201.069 381.784 201.614 381.275 202.087C380.778 202.547 380.172 202.91 379.458 203.177C378.743 203.444 377.937 203.577 377.04 203.577C376.132 203.577 375.32 203.444 374.605 203.177C373.89 202.91 373.278 202.547 372.77 202.087C372.273 201.626 371.891 201.093 371.625 200.487C371.358 199.869 371.225 199.215 371.225 198.525C371.225 197.749 371.394 196.913 371.734 196.017C372.085 195.108 372.618 194.217 373.333 193.345L376.513 189.492H380.639ZM374.751 198.488C374.751 198.803 374.811 199.1 374.932 199.379C375.053 199.645 375.217 199.882 375.423 200.087C375.629 200.293 375.865 200.457 376.132 200.578C376.41 200.699 376.707 200.76 377.022 200.76C377.337 200.76 377.628 200.699 377.895 200.578C378.173 200.457 378.416 200.293 378.622 200.087C378.828 199.882 378.991 199.645 379.112 199.379C379.233 199.1 379.294 198.803 379.294 198.488C379.294 198.173 379.233 197.882 379.112 197.616C378.991 197.337 378.828 197.095 378.622 196.889C378.416 196.683 378.173 196.519 377.895 196.398C377.628 196.277 377.337 196.216 377.022 196.216C376.707 196.216 376.41 196.277 376.132 196.398C375.865 196.519 375.629 196.683 375.423 196.889C375.217 197.095 375.053 197.337 374.932 197.616C374.811 197.882 374.751 198.173 374.751 198.488ZM384.159 201.451C384.159 201.16 384.213 200.887 384.322 200.633C384.431 200.366 384.583 200.136 384.777 199.942C384.971 199.748 385.195 199.597 385.449 199.488C385.716 199.379 385.994 199.324 386.285 199.324C386.576 199.324 386.849 199.379 387.103 199.488C387.37 199.597 387.6 199.748 387.794 199.942C387.987 200.136 388.139 200.366 388.248 200.633C388.357 200.887 388.412 201.16 388.412 201.451C388.412 201.741 388.357 202.02 388.248 202.287C388.139 202.541 387.987 202.765 387.794 202.959C387.6 203.153 387.37 203.304 387.103 203.413C386.849 203.522 386.576 203.577 386.285 203.577C385.994 203.577 385.716 203.522 385.449 203.413C385.195 203.304 384.971 203.153 384.777 202.959C384.583 202.765 384.431 202.541 384.322 202.287C384.213 202.02 384.159 201.741 384.159 201.451ZM393.261 196.326C393.261 196.931 393.316 197.483 393.425 197.979C393.534 198.476 393.685 198.906 393.879 199.27C394.085 199.633 394.327 199.918 394.606 200.124C394.885 200.318 395.2 200.415 395.551 200.415C395.89 200.415 396.199 200.318 396.478 200.124C396.769 199.918 397.011 199.633 397.205 199.27C397.399 198.906 397.55 198.476 397.659 197.979C397.768 197.483 397.823 196.931 397.823 196.326C397.823 195.732 397.768 195.187 397.659 194.69C397.55 194.181 397.399 193.751 397.205 193.4C397.011 193.036 396.769 192.757 396.478 192.564C396.199 192.358 395.89 192.255 395.551 192.255C395.2 192.255 394.885 192.358 394.606 192.564C394.327 192.757 394.085 193.036 393.879 193.4C393.685 193.751 393.534 194.181 393.425 194.69C393.316 195.187 393.261 195.732 393.261 196.326ZM389.735 196.326C389.735 195.235 389.875 194.248 390.153 193.363C390.444 192.467 390.844 191.703 391.353 191.073C391.874 190.443 392.486 189.959 393.188 189.619C393.903 189.268 394.691 189.092 395.551 189.092C396.399 189.092 397.181 189.268 397.895 189.619C398.61 189.959 399.222 190.443 399.731 191.073C400.24 191.703 400.634 192.467 400.912 193.363C401.203 194.248 401.348 195.235 401.348 196.326C401.348 197.416 401.203 198.409 400.912 199.306C400.634 200.19 400.24 200.954 399.731 201.596C399.222 202.226 398.61 202.717 397.895 203.068C397.181 203.407 396.399 203.577 395.551 203.577C394.691 203.577 393.903 203.407 393.188 203.068C392.486 202.717 391.874 202.226 391.353 201.596C390.844 200.954 390.444 200.19 390.153 199.306C389.875 198.409 389.735 197.416 389.735 196.326ZM405.614 196.326C405.614 196.931 405.668 197.483 405.777 197.979C405.886 198.476 406.038 198.906 406.231 199.27C406.437 199.633 406.68 199.918 406.958 200.124C407.237 200.318 407.552 200.415 407.903 200.415C408.243 200.415 408.552 200.318 408.83 200.124C409.121 199.918 409.363 199.633 409.557 199.27C409.751 198.906 409.903 198.476 410.012 197.979C410.121 197.483 410.175 196.931 410.175 196.326C410.175 195.732 410.121 195.187 410.012 194.69C409.903 194.181 409.751 193.751 409.557 193.4C409.363 193.036 409.121 192.757 408.83 192.564C408.552 192.358 408.243 192.255 407.903 192.255C407.552 192.255 407.237 192.358 406.958 192.564C406.68 192.757 406.437 193.036 406.231 193.4C406.038 193.751 405.886 194.181 405.777 194.69C405.668 195.187 405.614 195.732 405.614 196.326ZM402.088 196.326C402.088 195.235 402.227 194.248 402.506 193.363C402.797 192.467 403.196 191.703 403.705 191.073C404.226 190.443 404.838 189.959 405.541 189.619C406.256 189.268 407.043 189.092 407.903 189.092C408.752 189.092 409.533 189.268 410.248 189.619C410.963 189.959 411.575 190.443 412.083 191.073C412.592 191.703 412.986 192.467 413.265 193.363C413.556 194.248 413.701 195.235 413.701 196.326C413.701 197.416 413.556 198.409 413.265 199.306C412.986 200.19 412.592 200.954 412.083 201.596C411.575 202.226 410.963 202.717 410.248 203.068C409.533 203.407 408.752 203.577 407.903 203.577C407.043 203.577 406.256 203.407 405.541 203.068C404.838 202.717 404.226 202.226 403.705 201.596C403.196 200.954 402.797 200.19 402.506 199.306C402.227 198.409 402.088 197.416 402.088 196.326Z" fill="#3292F1"/>
<rect opacity="0.5" x="90" y="140" width="383" height="208.413" rx="30.5527" stroke="url(#paint0_linear_1900_2845)" stroke-width="0.892774" stroke-linecap="round" stroke-linejoin="round"/>
<g filter="url(#filter2_ddi_1900_2845)">
<rect x="119.844" y="230.527" width="323.312" height="130.319" rx="29.4615" fill="#63ACF4"/>
<rect x="119.844" y="230.527" width="323.312" height="130.319" rx="29.4615" fill="url(#paint1_radial_1900_2845)"/>
<path d="M236.878 272.281C236.122 272.441 235.453 272.521 234.871 272.521C233.678 272.521 232.637 272.245 231.75 271.692C230.877 271.154 230.201 270.383 229.72 269.379C229.255 268.39 229.022 267.24 229.022 265.931C229.022 264.49 229.298 262.963 229.851 261.348L232.47 262.374C231.99 263.77 231.75 264.978 231.75 265.996C231.75 267.102 232.012 267.946 232.536 268.528C233.074 269.124 233.838 269.422 234.827 269.422C235.322 269.422 235.802 269.364 236.267 269.248C237.271 269.015 237.999 268.819 238.45 268.659C238.915 268.513 239.264 268.31 239.497 268.048C239.73 267.786 239.846 267.422 239.846 266.956C239.846 266.84 239.832 266.651 239.803 266.389L238.908 260.388L241.636 259.951L241.767 260.846C242.247 264.061 242.494 265.763 242.509 265.953C242.567 266.316 242.596 266.695 242.596 267.087C242.596 268.091 242.378 268.921 241.941 269.575C241.505 270.245 240.872 270.783 240.043 271.19C239.228 271.612 238.173 271.976 236.878 272.281ZM234.063 258.424H236.944V261.304H234.063V258.424ZM245.295 252.138L248.066 252.007L248.634 267.087L245.884 267.218L245.295 252.138ZM252.494 269.706C254.196 269.357 255.389 269.081 256.073 268.877C256.757 268.688 257.237 268.462 257.513 268.2C257.804 267.953 257.942 267.597 257.928 267.131H255.593C254.312 267.131 253.287 266.731 252.516 265.931C251.759 265.116 251.381 264.025 251.381 262.657C251.381 261.799 251.563 260.999 251.926 260.257C252.305 259.5 252.821 258.896 253.476 258.445C254.145 257.994 254.887 257.769 255.702 257.769C256.502 257.769 257.229 257.987 257.884 258.424C258.553 258.845 259.092 259.442 259.499 260.213C259.921 260.97 260.183 261.835 260.285 262.81L260.416 264.032H261.66L261.834 265.582L261.66 267.131H261.594H260.699C260.714 268.28 260.467 269.19 259.957 269.859C259.463 270.528 258.684 271.067 257.622 271.474C256.56 271.896 255.033 272.31 253.039 272.718L252.494 269.706ZM254.152 262.657C254.152 263.137 254.254 263.487 254.458 263.705C254.676 263.923 255.054 264.032 255.593 264.032H257.622L257.535 263.137C257.448 262.395 257.244 261.835 256.924 261.457C256.618 261.064 256.226 260.868 255.745 260.868C255.251 260.868 254.858 261.042 254.567 261.391C254.291 261.726 254.152 262.148 254.152 262.657ZM261.451 264.032H265.62C266.231 264.032 266.682 263.945 266.973 263.77C267.278 263.596 267.431 263.297 267.431 262.875C267.431 262.643 267.387 262.366 267.3 262.046L266.449 258.795L269.111 258.009L270.006 261.413C270.152 261.937 270.224 262.461 270.224 262.985C270.224 263.814 270.028 264.541 269.635 265.167C269.242 265.793 268.697 266.28 267.998 266.629C267.3 266.964 266.507 267.131 265.62 267.131H261.451V264.032ZM261.997 269.073H264.529V271.627H261.997V269.073ZM266.471 269.073H269.002V271.627H266.471V269.073ZM272.936 252.138L275.708 252.007L276.275 267.087L273.526 267.218L272.936 252.138ZM288.726 267.131C287.679 267.131 286.842 266.971 286.216 266.651C285.605 266.331 285.154 265.814 284.863 265.101C284.572 264.374 284.398 263.399 284.34 262.177L283.947 252.138L286.697 252.007L287.089 262.177C287.119 262.803 287.162 263.232 287.22 263.465C287.293 263.697 287.431 263.85 287.635 263.923C287.839 263.996 288.202 264.032 288.726 264.032H288.944L289.119 265.582L288.944 267.131H288.726ZM288.731 264.032H290.455C291.08 264.032 291.539 263.945 291.83 263.77C292.135 263.596 292.288 263.29 292.288 262.854C292.288 262.635 292.244 262.366 292.157 262.046L291.284 258.795L293.946 258.009L294.819 261.261C294.965 261.828 295.038 262.381 295.038 262.919C295.038 264.199 294.616 265.225 293.772 265.996C292.928 266.753 291.822 267.131 290.455 267.131H288.731V264.032ZM288.971 268.921H291.851V271.779H288.971V268.921ZM311.463 267.131C309.819 267.131 308.582 267.116 307.753 267.087C306.938 267.058 306.291 267 305.81 266.913C305.345 266.826 304.894 266.687 304.457 266.498C303.686 266.164 303.097 265.669 302.69 265.014C302.297 264.359 302.1 263.603 302.1 262.745C302.1 262.25 302.166 261.741 302.297 261.217L303.126 258.031L305.789 258.838L304.938 262.133C304.865 262.395 304.828 262.606 304.828 262.766C304.828 262.985 304.887 263.166 305.003 263.312C305.119 263.443 305.301 263.559 305.549 263.661C305.854 263.807 306.371 263.908 307.098 263.967C307.825 264.01 309.317 264.032 311.572 264.032H316.722C317.275 264.032 317.653 263.959 317.857 263.814C318.075 263.668 318.17 263.421 318.141 263.072V263.028L317.901 260.344L320.65 260.082L320.89 262.766V262.81C320.934 263.305 321.043 263.632 321.218 263.792C321.407 263.952 321.771 264.032 322.309 264.032H322.549L322.724 265.582L322.549 267.131H322.309C321.174 267.131 320.25 266.84 319.537 266.258C318.795 266.84 317.857 267.131 316.722 267.131H311.572H311.463ZM308.124 256.481H310.677V259.013H308.124V256.481ZM312.598 256.481H315.151V259.013H312.598V256.481ZM322.297 264.032H322.755C324.108 264.032 325.25 264.003 326.181 263.945C327.113 263.887 328.015 263.734 328.887 263.487L332.99 262.504L329.455 260.715C329.135 260.54 328.786 260.453 328.407 260.453C328.029 260.453 327.673 260.548 327.338 260.737C327.018 260.911 326.763 261.173 326.574 261.522L326.203 262.221L323.803 260.715L324.217 259.929C324.683 259.1 325.279 258.46 326.007 258.009C326.734 257.558 327.513 257.332 328.342 257.332C329.186 257.332 330.008 257.558 330.808 258.009L336.307 261.195L335.915 264.774L329.586 266.476C328.538 266.753 327.469 266.935 326.378 267.022C325.301 267.095 324.086 267.131 322.733 267.131H322.297V264.032ZM326.705 252.509H329.586V255.368H326.705V252.509ZM339.003 252.138L341.775 252.007L342.342 267.087L339.592 267.218L339.003 252.138ZM349.017 267.131C348.261 267.131 347.592 267 347.01 266.738C346.428 266.462 345.969 266.091 345.635 265.625C345.315 265.16 345.14 264.65 345.111 264.098C345.096 263.879 345.089 263.407 345.089 262.679H347.621C347.621 263.086 347.635 263.385 347.664 263.574C347.679 263.748 347.752 263.872 347.882 263.945C348.028 264.003 348.246 264.032 348.537 264.032H351.025C351.854 264.032 352.269 263.785 352.269 263.29C352.269 263.188 352.24 263.036 352.182 262.832C351.92 262.104 351.476 261.217 350.85 260.169C350.225 259.107 349.548 258.053 348.821 257.005L351.069 255.172C351.942 256.365 352.735 257.594 353.447 258.86C354.16 260.111 354.626 261.195 354.844 262.112C354.946 262.504 354.997 262.919 354.997 263.356C354.997 264.461 354.611 265.371 353.84 266.084C353.084 266.782 352.022 267.131 350.654 267.131H349.017ZM361.645 267.131C361.398 267.131 361.216 267.124 361.099 267.109C361.158 268.535 360.787 269.641 359.986 270.426C359.201 271.227 357.964 271.859 356.276 272.325L354.923 272.718L354.203 269.728L355.556 269.335C356.589 269.059 357.309 268.775 357.717 268.484C358.139 268.193 358.35 267.749 358.35 267.153C358.35 267.051 358.335 266.884 358.306 266.651L357.433 260.388L360.161 259.973L360.314 261.151C360.357 261.341 360.459 261.908 360.619 262.854C360.707 263.334 360.823 263.654 360.968 263.814C361.114 263.959 361.339 264.032 361.645 264.032H361.754L361.929 265.582L361.754 267.131H361.645ZM361.617 264.032H365.785C366.397 264.032 366.848 263.945 367.139 263.77C367.444 263.596 367.597 263.297 367.597 262.875C367.597 262.643 367.553 262.366 367.466 262.046L366.615 258.795L369.277 258.009L370.172 261.413C370.317 261.937 370.39 262.461 370.39 262.985C370.39 263.814 370.194 264.541 369.801 265.167C369.408 265.793 368.863 266.28 368.164 266.629C367.466 266.964 366.673 267.131 365.785 267.131H361.617V264.032ZM365.414 268.964L365.393 271.714H362.665L362.643 268.964H365.414ZM365.065 272.761H367.51V275.031H365.065V272.761ZM367.139 268.964H369.91L369.888 271.714H367.139V268.964Z" fill="white"/>
<path d="M196.934 261.499L195.97 260.534L195.006 261.499L195.97 262.463L196.934 261.499ZM217.394 262.863C218.147 262.863 218.758 262.252 218.758 261.499C218.758 260.745 218.147 260.135 217.394 260.135V262.863ZM204.154 252.35L195.97 260.534L197.899 262.463L206.083 254.279L204.154 252.35ZM195.97 262.463L204.154 270.647L206.083 268.718L197.899 260.534L195.97 262.463ZM196.934 262.863H217.394V260.135H196.934V262.863Z" fill="white"/>
</g>
<g filter="url(#filter3_dd_1900_2845)">
<rect x="218.909" y="30" width="123.183" height="26.7174" rx="13.3587" fill="white" shape-rendering="crispEdges"/>
<path d="M238.744 46.8587C237.949 46.8587 237.352 46.8517 236.951 46.8376C236.557 46.8236 236.244 46.7954 236.012 46.7532C235.787 46.7111 235.569 46.6443 235.358 46.5529C234.986 46.3912 234.701 46.1521 234.504 45.8358C234.314 45.5194 234.219 45.1538 234.219 44.739C234.219 44.5 234.251 44.2539 234.314 44.0008L234.715 42.4612L236.002 42.8514L235.59 44.4438C235.555 44.5703 235.538 44.6722 235.538 44.7496C235.538 44.855 235.566 44.9429 235.622 45.0132C235.678 45.0765 235.766 45.1327 235.886 45.1819C236.033 45.2523 236.283 45.3015 236.634 45.3296C236.986 45.3507 237.707 45.3612 238.796 45.3612H241.285C241.552 45.3612 241.735 45.3261 241.833 45.2558C241.939 45.1855 241.985 45.0659 241.971 44.8972V44.8761L241.855 43.579L243.183 43.4525L243.299 44.7496V44.7707C243.32 45.0097 243.373 45.1679 243.457 45.2452C243.549 45.3226 243.725 45.3612 243.985 45.3612H244.101L244.185 46.11L244.101 46.8587H243.985C243.436 46.8587 242.99 46.7181 242.645 46.4369C242.287 46.7181 241.833 46.8587 241.285 46.8587H238.796H238.744ZM237.13 41.7124H238.364V42.9357H237.13V41.7124ZM239.292 41.7124H240.526V42.9357H239.292V41.7124ZM247.332 46.7216C246.981 46.7919 245.905 46.8376 244.105 46.8587H243.979V45.3612H244.084L244.949 45.3507C244.914 45.2593 244.875 45.1222 244.833 44.9394C244.805 44.7425 244.791 44.5984 244.791 44.507C244.791 44.1555 244.865 43.8251 245.012 43.5157C245.167 43.1994 245.378 42.9357 245.645 42.7248C245.912 42.5139 246.222 42.3768 246.573 42.3135C246.686 42.2995 246.78 42.2924 246.858 42.2924C247.266 42.2924 247.789 42.3768 248.429 42.5455L248.071 43.9903C247.543 43.8497 247.164 43.7794 246.932 43.7794C246.7 43.7794 246.506 43.8497 246.352 43.9903C246.204 44.1309 246.13 44.3067 246.13 44.5176C246.13 44.7144 246.204 44.8867 246.352 45.0343C246.506 45.1819 246.686 45.2593 246.889 45.2663L247.1 45.2558L248.893 44.9183L249.146 46.3736L247.332 46.7216ZM252.607 46.8587C252.101 46.8587 251.696 46.7814 251.394 46.6267C251.099 46.472 250.881 46.2225 250.74 45.878C250.6 45.5264 250.515 45.0554 250.487 44.4648L250.297 39.6139L251.626 39.5506L251.816 44.4648C251.83 44.7672 251.851 44.9746 251.879 45.087C251.914 45.1995 251.981 45.2733 252.08 45.3085C252.178 45.3436 252.354 45.3612 252.607 45.3612H252.712L252.797 46.11L252.712 46.8587H252.607ZM258.23 46.8587C257.731 46.8587 257.309 46.697 256.964 46.3736C256.627 46.697 256.195 46.8587 255.667 46.8587C255.175 46.8587 254.76 46.69 254.423 46.3525C254.071 46.69 253.632 46.8587 253.105 46.8587H252.609V45.3612H253.105C253.379 45.3612 253.562 45.3155 253.653 45.2241C253.744 45.1327 253.79 45.0027 253.79 44.8339V44.8129V43.5052H255.034V44.8129C255.034 45.1784 255.245 45.3612 255.667 45.3612C255.941 45.3612 256.124 45.319 256.216 45.2347C256.307 45.1433 256.353 45.0097 256.353 44.8339V44.8129V43.5052H257.608V44.8129V44.855C257.608 45.0238 257.657 45.1503 257.755 45.2347C257.861 45.319 258.019 45.3612 258.23 45.3612C258.462 45.3612 258.634 45.3226 258.747 45.2452C258.866 45.1609 258.926 45.0202 258.926 44.8234C258.926 44.7109 258.905 44.5703 258.863 44.4016L258.441 42.8303L259.717 42.4506L260.139 44.0219C260.216 44.3172 260.255 44.5879 260.255 44.8339C260.255 45.2347 260.167 45.5897 259.991 45.8991C259.822 46.2014 259.583 46.4369 259.274 46.6056C258.972 46.7743 258.624 46.8587 258.23 46.8587ZM268.039 39.8353L268.218 41.607C268.225 41.6492 268.229 41.7124 268.229 41.7968C268.229 42.1272 268.141 42.4401 267.965 42.7354C267.789 43.0236 267.55 43.2556 267.248 43.4314C266.953 43.6071 266.633 43.695 266.288 43.695H266.025C265.835 43.695 265.627 43.6599 265.402 43.5896L265.708 46.7532L264.369 46.9009L263.694 39.983L265.033 39.8353L265.212 41.7124C265.241 41.8882 265.304 42.0147 265.402 42.0921C265.501 42.1624 265.638 42.1975 265.814 42.1975H266.288C266.478 42.1975 266.626 42.1589 266.731 42.0815C266.844 41.9972 266.893 41.8812 266.879 41.7335L266.699 39.983L268.039 39.8353ZM274.486 46.8587C274.367 46.8587 274.279 46.8552 274.222 46.8482C274.251 47.5371 274.071 48.0715 273.685 48.4511C273.305 48.8378 272.707 49.1436 271.892 49.3686L271.238 49.5584L270.89 48.1136L271.544 47.9238C272.043 47.7902 272.391 47.6531 272.588 47.5125C272.792 47.3719 272.894 47.1575 272.894 46.8692C272.894 46.82 272.887 46.7392 272.873 46.6267L272.451 43.6001L273.769 43.3997L273.843 43.9692C273.864 44.0606 273.913 44.3348 273.99 44.7918C274.033 45.0238 274.089 45.1784 274.159 45.2558C274.229 45.3261 274.338 45.3612 274.486 45.3612H274.539L274.623 46.11L274.539 46.8587H274.486ZM274.473 45.3612H276.487C276.782 45.3612 277 45.319 277.141 45.2347C277.288 45.1503 277.362 45.0062 277.362 44.8023C277.362 44.6898 277.341 44.5562 277.299 44.4016L276.888 42.8303L278.174 42.4506L278.607 44.0957C278.677 44.3488 278.712 44.6019 278.712 44.855C278.712 45.2558 278.617 45.6073 278.427 45.9096C278.237 46.2119 277.974 46.4474 277.636 46.6162C277.299 46.7779 276.916 46.8587 276.487 46.8587H274.473V45.3612ZM274.736 47.7973H275.96V49.0311H274.736V47.7973ZM276.898 47.7973H278.121V49.0311H276.898V47.7973ZM278.614 48.1136L279.268 47.9238C279.767 47.7902 280.115 47.6531 280.312 47.5125C280.516 47.3719 280.618 47.1575 280.618 46.8692C280.618 46.82 280.61 46.7392 280.596 46.6267L280.175 43.6001L281.493 43.3997L281.799 45.6038L281.915 46.4474C281.943 46.7005 281.957 46.8763 281.957 46.9747C281.957 47.6215 281.763 48.1277 281.377 48.4933C280.99 48.8659 280.403 49.1577 279.616 49.3686L278.962 49.5584L278.614 48.1136ZM280.048 40.9321H281.43V42.3241H280.048V40.9321ZM292.501 46.8587C292.283 46.8587 292.079 46.8376 291.889 46.7954C291.861 47.3087 291.742 47.727 291.531 48.0504C291.32 48.3738 291.021 48.6339 290.634 48.8307C290.255 49.0276 289.759 49.1998 289.148 49.3475C288.789 49.4318 288.455 49.474 288.146 49.474C287.576 49.474 287.077 49.3404 286.648 49.0733C286.226 48.8132 285.903 48.4405 285.678 47.9554C285.453 47.4774 285.341 46.922 285.341 46.2892C285.341 45.6143 285.478 44.8761 285.752 44.0747L287.017 44.5808C286.792 45.2276 286.68 45.8077 286.68 46.3209C286.68 46.8552 286.803 47.2665 287.049 47.5547C287.302 47.85 287.664 47.9976 288.135 47.9976C288.346 47.9976 288.578 47.966 288.831 47.9027C289.365 47.7691 289.738 47.6602 289.949 47.5758C290.167 47.4914 290.325 47.3649 290.424 47.1962C290.522 47.0274 290.564 46.7708 290.55 46.4263L290.286 39.6139L291.626 39.5506L291.826 44.7918C291.861 45.0167 291.932 45.1679 292.037 45.2452C292.142 45.3226 292.297 45.3612 292.501 45.3612H292.712L292.796 46.11L292.712 46.8587H292.501ZM292.608 45.3612H294.622C294.918 45.3612 295.136 45.319 295.276 45.2347C295.424 45.1503 295.498 45.0062 295.498 44.8023C295.498 44.6898 295.477 44.5562 295.434 44.4016L295.023 42.8303L296.31 42.4506L296.742 44.0957C296.812 44.3488 296.848 44.6019 296.848 44.855C296.848 45.2558 296.753 45.6073 296.563 45.9096C296.373 46.2119 296.109 46.4474 295.772 46.6162C295.434 46.7779 295.051 46.8587 294.622 46.8587H292.608V45.3612ZM292.872 47.7973H294.095V49.0311H292.872V47.7973ZM295.034 47.7973H296.257V49.0311H295.034V47.7973ZM298.506 48.1031C299.329 47.9344 299.905 47.8008 300.236 47.7024C300.566 47.611 300.798 47.502 300.932 47.3754C301.072 47.2559 301.139 47.0837 301.132 46.8587H300.004C299.385 46.8587 298.889 46.6654 298.517 46.2787C298.151 45.885 297.968 45.3577 297.968 44.6969C297.968 44.2821 298.056 43.8954 298.232 43.5368C298.415 43.1712 298.664 42.8795 298.981 42.6615C299.304 42.4436 299.663 42.3346 300.056 42.3346C300.443 42.3346 300.794 42.4401 301.111 42.651C301.434 42.8549 301.694 43.1431 301.891 43.5157C302.095 43.8813 302.222 44.2996 302.271 44.7707L302.334 45.3612H302.935L303.02 46.11L302.935 46.8587H302.904H302.471C302.478 47.4141 302.359 47.8535 302.113 48.1769C301.874 48.5003 301.497 48.7604 300.984 48.9573C300.471 49.1612 299.733 49.3615 298.77 49.5584L298.506 48.1031ZM299.307 44.6969C299.307 44.9289 299.357 45.0976 299.455 45.203C299.561 45.3085 299.743 45.3612 300.004 45.3612H300.984L300.942 44.9289C300.9 44.5703 300.801 44.2996 300.647 44.1168C300.499 43.927 300.309 43.8321 300.077 43.8321C299.838 43.8321 299.648 43.9165 299.508 44.0852C299.374 44.2469 299.307 44.4508 299.307 44.6969ZM302.835 45.3612H303.056C303.956 45.3472 304.916 45.2066 305.935 44.9394L307.96 44.4121L306.209 43.6212C306.04 43.5368 305.875 43.4946 305.714 43.4946C305.538 43.4946 305.373 43.5403 305.218 43.6317C305.063 43.7231 304.94 43.8532 304.849 44.0219L304.659 44.3594L303.499 43.6317L303.699 43.2521C303.931 42.8443 304.22 42.535 304.564 42.3241C304.909 42.1132 305.281 42.0077 305.682 42.0077C306.076 42.0077 306.469 42.1097 306.863 42.3135L309.563 43.7477L309.373 45.319C309.436 45.3472 309.517 45.3612 309.615 45.3612H310.301L310.385 46.11L310.301 46.8587H309.615C309.271 46.8587 308.951 46.7708 308.656 46.5951C308.361 46.4123 308.128 46.1697 307.96 45.8674L306.315 46.3736C305.78 46.5353 305.232 46.6583 304.67 46.7427C304.107 46.82 303.566 46.8587 303.046 46.8587H302.835V45.3612ZM310.198 45.3612H311.811C312.107 45.3612 312.325 45.319 312.465 45.2347C312.613 45.1503 312.687 45.0027 312.687 44.7918C312.687 44.6793 312.666 44.5492 312.623 44.4016L312.212 42.8303L313.488 42.4506L313.931 44.0957C314.001 44.3488 314.037 44.5949 314.037 44.8339C314.037 45.2417 313.942 45.6003 313.752 45.9096C313.562 46.2119 313.298 46.4474 312.961 46.6162C312.623 46.7779 312.24 46.8587 311.811 46.8587H310.198V45.3612ZM310.535 40.2782H311.759V41.5121H310.535V40.2782ZM312.697 40.2782H313.921V41.5121H312.697V40.2782Z" fill="black"/>
<circle cx="323.929" cy="43.3587" r="3.51521" fill="#3292F1"/>
</g>
<path d="M181.279 90.4373C180.585 90.584 179.972 90.6573 179.439 90.6573C178.345 90.6573 177.392 90.404 176.579 89.8973C175.779 89.404 175.159 88.6973 174.719 87.7773C174.292 86.8707 174.079 85.8173 174.079 84.6173C174.079 83.2973 174.332 81.8973 174.839 80.4173L177.239 81.3573C176.799 82.6373 176.579 83.744 176.579 84.6773C176.579 85.6907 176.819 86.464 177.299 86.9973C177.792 87.544 178.492 87.8173 179.399 87.8173C179.852 87.8173 180.292 87.764 180.719 87.6573C181.719 87.4307 182.525 87.2107 183.139 86.9973C183.765 86.784 184.079 86.624 184.079 86.5173C184.065 86.4773 183.985 86.4307 183.839 86.3773C183.692 86.324 183.545 86.2773 183.399 86.2373C183.252 86.1973 183.145 86.164 183.079 86.1373C182.519 85.9773 182.092 85.8507 181.799 85.7573C180.879 85.4507 180.185 85.0707 179.719 84.6173C179.265 84.1507 179.039 83.5307 179.039 82.7573C179.039 82.304 179.132 81.7573 179.319 81.1173C179.665 79.984 180.252 79.0373 181.079 78.2773C181.905 77.504 182.859 77.1173 183.939 77.1173C184.339 77.1173 184.745 77.1773 185.159 77.2973L186.459 77.6573L185.799 80.3973L184.499 80.0373C184.259 79.9707 184.052 79.9373 183.879 79.9373C183.439 79.9373 183.065 80.064 182.759 80.3173C182.452 80.5707 182.212 80.8507 182.039 81.1573C181.879 81.464 181.779 81.7107 181.739 81.8973C181.685 82.1373 181.659 82.284 181.659 82.3373C181.659 82.5507 181.745 82.7107 181.919 82.8173C182.105 82.924 182.459 83.0573 182.979 83.2173C183.072 83.244 183.152 83.2707 183.219 83.2973C183.285 83.324 183.352 83.344 183.419 83.3573C184.232 83.5973 184.819 83.7973 185.179 83.9573C185.552 84.1173 185.859 84.3373 186.099 84.6173C186.339 84.884 186.505 85.264 186.599 85.7573C186.625 85.8773 186.639 86.0573 186.639 86.2973C186.639 87.2573 186.165 88.0907 185.219 88.7973C184.285 89.504 182.972 90.0507 181.279 90.4373ZM187.609 88.0973L188.849 87.7373C189.796 87.484 190.456 87.224 190.829 86.9573C191.216 86.6907 191.409 86.284 191.409 85.7373C191.409 85.644 191.396 85.4907 191.369 85.2773L190.569 79.5373L193.069 79.1573L193.649 83.3373L193.869 84.9373C193.923 85.4173 193.949 85.7507 193.949 85.9373C193.949 87.164 193.583 88.124 192.849 88.8173C192.116 89.524 191.003 90.0773 189.509 90.4773L188.269 90.8373L187.609 88.0973ZM196.505 82.8773H201.485C202.005 82.8773 202.352 82.7907 202.525 82.6173C202.712 82.4307 202.798 82.184 202.785 81.8773L202.405 71.9773L204.925 71.8573L205.305 81.7573C205.345 82.4907 205.212 83.1573 204.905 83.7573C204.612 84.3573 204.172 84.8373 203.585 85.1973C202.998 85.544 202.298 85.7173 201.485 85.7173H196.505V82.8773ZM197.945 72.6373L199.585 81.4573L197.105 81.9573L195.465 73.1573L197.945 72.6373ZM211.021 85.7173C210.327 85.7173 209.714 85.5973 209.181 85.3573C208.647 85.104 208.227 84.764 207.921 84.3373C207.627 83.9107 207.467 83.444 207.441 82.9373C207.427 82.7373 207.421 82.304 207.421 81.6373H209.741C209.741 82.0107 209.754 82.284 209.781 82.4573C209.794 82.6173 209.861 82.7307 209.981 82.7973C210.114 82.8507 210.314 82.8773 210.581 82.8773H212.861C213.621 82.8773 214.001 82.6507 214.001 82.1973C214.001 82.104 213.974 81.964 213.921 81.7773C213.681 81.1107 213.274 80.2973 212.701 79.3373C212.127 78.364 211.507 77.3973 210.841 76.4373L212.901 74.7573C213.701 75.8507 214.427 76.9773 215.081 78.1373C215.734 79.284 216.161 80.2773 216.361 81.1173C216.454 81.4773 216.501 81.8573 216.501 82.2573C216.501 83.2707 216.147 84.104 215.441 84.7573C214.747 85.3973 213.774 85.7173 212.521 85.7173H211.021ZM231.565 85.7173C230.058 85.7173 228.925 85.704 228.165 85.6773C227.418 85.6507 226.825 85.5973 226.385 85.5173C225.958 85.4373 225.545 85.3107 225.145 85.1373C224.438 84.8307 223.898 84.3773 223.525 83.7773C223.165 83.1773 222.985 82.484 222.985 81.6973C222.985 81.244 223.045 80.7773 223.165 80.2973L223.925 77.3773L226.365 78.1173L225.585 81.1373C225.518 81.3773 225.485 81.5707 225.485 81.7173C225.485 81.9173 225.538 82.084 225.645 82.2173C225.752 82.3373 225.918 82.444 226.145 82.5373C226.425 82.6707 226.898 82.764 227.565 82.8173C228.232 82.8573 229.598 82.8773 231.665 82.8773H236.385C236.892 82.8773 237.238 82.8107 237.425 82.6773C237.625 82.544 237.712 82.3173 237.685 81.9973V81.9573L237.465 79.4973L239.985 79.2573L240.205 81.7173V81.7573C240.245 82.2107 240.345 82.5107 240.505 82.6573C240.678 82.804 241.012 82.8773 241.505 82.8773H241.725L241.885 84.2973L241.725 85.7173H241.505C240.465 85.7173 239.618 85.4507 238.965 84.9173C238.285 85.4507 237.425 85.7173 236.385 85.7173H231.665H231.565ZM228.505 75.9573H230.845V78.2773H228.505V75.9573ZM232.605 75.9573H234.945V78.2773H232.605V75.9573ZM241.494 82.8773H247.694L247.854 84.2973L247.694 85.7173H241.494V82.8773ZM247.49 82.8773H253.69L253.85 84.2973L253.69 85.7173H247.49V82.8773ZM253.486 82.8773H259.686L259.846 84.2973L259.686 85.7173H253.486V82.8773ZM259.482 82.8773H265.682L265.842 84.2973L265.682 85.7173H259.482V82.8773ZM265.478 82.8773H271.678L271.838 84.2973L271.678 85.7173H265.478V82.8773ZM271.474 82.8773H277.674L277.834 84.2973L277.674 85.7173H271.474V82.8773ZM277.47 82.8773H277.89C279.13 82.8773 280.177 82.8507 281.03 82.7973C281.884 82.744 282.71 82.604 283.51 82.3773L287.27 81.4773L284.03 79.8373C283.737 79.6773 283.417 79.5973 283.07 79.5973C282.724 79.5973 282.397 79.684 282.09 79.8573C281.797 80.0173 281.564 80.2573 281.39 80.5773L281.05 81.2173L278.85 79.8373L279.23 79.1173C279.657 78.3573 280.204 77.7707 280.87 77.3573C281.537 76.944 282.25 76.7373 283.01 76.7373C283.784 76.7373 284.537 76.944 285.27 77.3573L290.31 80.2773L289.95 83.5573L284.15 85.1173C283.19 85.3707 282.21 85.5373 281.21 85.6173C280.224 85.684 279.11 85.7173 277.87 85.7173H277.47V82.8773ZM281.51 72.3173H284.15V74.9373H281.51V72.3173ZM292.781 71.9773L295.321 71.8573L295.841 85.6773L293.321 85.7973L292.781 71.9773ZM301.958 85.7173C301.265 85.7173 300.652 85.5973 300.118 85.3573C299.585 85.104 299.165 84.764 298.858 84.3373C298.565 83.9107 298.405 83.444 298.378 82.9373C298.365 82.7373 298.358 82.304 298.358 81.6373H300.678C300.678 82.0107 300.692 82.284 300.718 82.4573C300.732 82.6173 300.798 82.7307 300.918 82.7973C301.052 82.8507 301.252 82.8773 301.518 82.8773H303.798C304.558 82.8773 304.938 82.6507 304.938 82.1973C304.938 82.104 304.912 81.964 304.858 81.7773C304.618 81.1107 304.212 80.2973 303.638 79.3373C303.065 78.364 302.445 77.3973 301.778 76.4373L303.838 74.7573C304.638 75.8507 305.365 76.9773 306.018 78.1373C306.672 79.284 307.098 80.2773 307.298 81.1173C307.392 81.4773 307.438 81.8573 307.438 82.2573C307.438 83.2707 307.085 84.104 306.378 84.7573C305.685 85.3973 304.712 85.7173 303.458 85.7173H301.958ZM313.531 85.7173C313.304 85.7173 313.138 85.7107 313.031 85.6973C313.084 87.004 312.744 88.0173 312.011 88.7373C311.291 89.4707 310.158 90.0507 308.611 90.4773L307.371 90.8373L306.711 88.0973L307.951 87.7373C308.898 87.484 309.558 87.224 309.931 86.9573C310.318 86.6907 310.511 86.284 310.511 85.7373C310.511 85.644 310.498 85.4907 310.471 85.2773L309.671 79.5373L312.171 79.1573L312.311 80.2373C312.351 80.4107 312.444 80.9307 312.591 81.7973C312.671 82.2373 312.778 82.5307 312.911 82.6773C313.044 82.8107 313.251 82.8773 313.531 82.8773H313.631L313.791 84.2973L313.631 85.7173H313.531ZM313.505 82.8773H317.325C317.885 82.8773 318.299 82.7973 318.565 82.6373C318.845 82.4773 318.985 82.204 318.985 81.8173C318.985 81.604 318.945 81.3507 318.865 81.0573L318.085 78.0773L320.525 77.3573L321.345 80.4773C321.479 80.9573 321.545 81.4373 321.545 81.9173C321.545 82.6773 321.365 83.344 321.005 83.9173C320.645 84.4907 320.145 84.9373 319.505 85.2573C318.865 85.564 318.139 85.7173 317.325 85.7173H313.505V82.8773ZM316.985 87.3973L316.965 89.9173H314.465L314.445 87.3973H316.985ZM316.665 90.8773H318.905V92.9573H316.665V90.8773ZM318.565 87.3973H321.105L321.085 89.9173H318.565V87.3973ZM336.504 85.7173C335.024 85.7173 333.911 85.704 333.164 85.6773C332.417 85.6507 331.831 85.5973 331.404 85.5173C330.977 85.4373 330.571 85.3107 330.184 85.1373C329.477 84.8307 328.937 84.3773 328.564 83.7773C328.204 83.1773 328.024 82.484 328.024 81.6973C328.024 81.244 328.084 80.7773 328.204 80.2973L328.964 77.3773L331.404 78.1173L330.624 81.1373C330.557 81.3773 330.524 81.5707 330.524 81.7173C330.524 81.9173 330.577 82.084 330.684 82.2173C330.791 82.3373 330.957 82.444 331.184 82.5373C331.464 82.6707 331.937 82.764 332.604 82.8173C333.271 82.8573 334.637 82.8773 336.704 82.8773H336.724C338.737 82.8773 340.071 82.8507 340.724 82.7973C341.377 82.744 341.864 82.6573 342.184 82.5373C342.411 82.444 342.577 82.3307 342.684 82.1973C342.791 82.0507 342.844 81.8573 342.844 81.6173C342.844 81.404 342.804 81.1507 342.724 80.8573L341.964 78.0773L344.404 77.3573L345.164 80.1373C345.297 80.6307 345.364 81.1373 345.364 81.6573C345.364 82.4573 345.177 83.164 344.804 83.7773C344.444 84.3773 343.911 84.8307 343.204 85.1373C342.817 85.3107 342.397 85.4373 341.944 85.5173C341.491 85.5973 340.877 85.6507 340.104 85.6773C339.344 85.704 338.217 85.7173 336.724 85.7173H336.704H336.504ZM333.444 75.9573H335.784V78.2773H333.444V75.9573ZM337.544 75.9573H339.884V78.2773H337.544V75.9573ZM351.919 85.7173C350.959 85.7173 350.193 85.5707 349.619 85.2773C349.059 84.984 348.646 84.5107 348.379 83.8573C348.113 83.1907 347.953 82.2973 347.899 81.1773L347.539 71.9773L350.059 71.8573L350.419 81.1773C350.446 81.7507 350.486 82.144 350.539 82.3573C350.606 82.5707 350.733 82.7107 350.919 82.7773C351.106 82.844 351.439 82.8773 351.919 82.8773H352.119L352.279 84.2973L352.119 85.7173H351.919ZM351.923 82.8773H352.143C352.477 82.8773 352.77 82.8107 353.023 82.6773C353.29 82.5307 353.497 82.3373 353.643 82.0973L355.163 79.1173C355.457 78.544 355.877 78.0973 356.423 77.7773C356.983 77.4573 357.583 77.2973 358.223 77.2973C358.823 77.2973 359.37 77.4307 359.863 77.6973C360.503 78.044 360.977 78.4973 361.283 79.0573C361.603 79.6173 361.763 80.2573 361.763 80.9773C361.763 81.964 361.497 83.0307 360.963 84.1773C360.723 84.6973 360.383 85.104 359.943 85.3973C359.517 85.6773 359.05 85.8173 358.543 85.8173C358.13 85.8173 357.723 85.7173 357.323 85.5173L355.083 84.3573C354.297 85.264 353.317 85.7173 352.143 85.7173H351.923V82.8773ZM358.843 83.0973C358.91 83.1373 358.95 83.1573 358.963 83.1573C358.99 83.1573 359.017 83.1307 359.043 83.0773L359.283 82.4773C359.457 82.0907 359.543 81.7173 359.543 81.3573C359.543 81.064 359.483 80.8107 359.363 80.5973C359.243 80.3707 359.07 80.204 358.843 80.0973C358.67 80.004 358.477 79.9573 358.263 79.9573C358.023 79.9573 357.79 80.0307 357.563 80.1773C357.35 80.3107 357.177 80.5173 357.043 80.7973L356.483 81.9173L358.843 83.0973ZM367.095 85.7173C366.402 85.7173 365.788 85.5973 365.255 85.3573C364.722 85.104 364.302 84.764 363.995 84.3373C363.702 83.9107 363.542 83.444 363.515 82.9373C363.502 82.7373 363.495 82.304 363.495 81.6373H365.815C365.815 82.0107 365.828 82.284 365.855 82.4573C365.868 82.6173 365.935 82.7307 366.055 82.7973C366.188 82.8507 366.388 82.8773 366.655 82.8773H368.695C369.455 82.8773 369.835 82.6507 369.835 82.1973C369.835 82.1173 369.828 82.0573 369.815 82.0173L369.755 81.7773L368.275 75.9173L370.735 75.2373L372.235 81.1173C372.408 81.824 372.562 82.2973 372.695 82.5373C372.842 82.764 373.075 82.8773 373.395 82.8773H374.375L374.535 84.2973L374.375 85.7173H373.395C372.515 85.7173 371.788 85.4173 371.215 84.8173C370.482 85.4173 369.528 85.7173 368.355 85.7173H367.095ZM374.17 82.8773H374.59C375.83 82.8773 376.876 82.8507 377.73 82.7973C378.583 82.744 379.41 82.604 380.21 82.3773L383.97 81.4773L380.73 79.8373C380.436 79.6773 380.116 79.5973 379.77 79.5973C379.423 79.5973 379.096 79.684 378.79 79.8573C378.496 80.0173 378.263 80.2573 378.09 80.5773L377.75 81.2173L375.55 79.8373L375.93 79.1173C376.356 78.3573 376.903 77.7707 377.57 77.3573C378.236 76.944 378.95 76.7373 379.71 76.7373C380.483 76.7373 381.236 76.944 381.97 77.3573L387.01 80.2773L386.65 83.5573L380.85 85.1173C379.89 85.3707 378.91 85.5373 377.91 85.6173C376.923 85.684 375.81 85.7173 374.57 85.7173H374.17V82.8773ZM378.21 72.3173H380.85V74.9373H378.21V72.3173Z" fill="white"/>
<path d="M236 115.717L235.293 115.01L234.586 115.717L235.293 116.424L236 115.717ZM251 116.717C251.552 116.717 252 116.27 252 115.717C252 115.165 251.552 114.717 251 114.717V116.717ZM241.293 109.01L235.293 115.01L236.707 116.424L242.707 110.424L241.293 109.01ZM235.293 116.424L241.293 122.424L242.707 121.01L236.707 115.01L235.293 116.424ZM236 116.717H251V114.717H236V116.717Z" fill="white"/>
<path d="M264.495 122.717C263.673 122.717 263.007 122.525 262.495 122.141C261.993 121.747 261.727 121.251 261.695 120.653C261.663 120.472 261.647 120.131 261.647 119.629H263.279C263.279 119.928 263.289 120.157 263.311 120.317C263.343 120.477 263.423 120.589 263.551 120.653C263.689 120.717 263.903 120.749 264.191 120.749H265.615C266.393 120.749 266.783 120.515 266.783 120.045C266.783 119.992 266.772 119.912 266.751 119.805L266.719 119.693L265.519 115.005L267.231 114.525L268.415 119.245C268.575 119.832 268.719 120.232 268.847 120.445C268.975 120.648 269.188 120.749 269.487 120.749H270.271L270.383 121.741L270.271 122.717H269.487C268.783 122.717 268.201 122.461 267.743 121.949C267.177 122.461 266.388 122.717 265.375 122.717H264.495ZM270.107 120.749H272.796C273.254 120.749 273.569 120.68 273.74 120.541C273.921 120.392 274.001 120.163 273.98 119.853L273.804 117.885L275.548 117.709L275.724 119.677V119.789C275.766 120.163 275.868 120.419 276.028 120.557C276.188 120.685 276.476 120.749 276.892 120.749L277.004 121.741L276.892 122.717C276.038 122.717 275.366 122.488 274.876 122.029C274.332 122.488 273.638 122.717 272.796 122.717H270.107V120.749ZM269.227 124.221H270.956V125.933H269.227V124.221ZM272.364 124.221H274.076V125.933H272.364V124.221ZM276.732 120.749H277.741C278.178 120.749 278.487 120.68 278.669 120.541C278.85 120.403 278.93 120.189 278.909 119.901V119.853L278.733 117.885L280.493 117.709L280.669 119.677V119.725C280.711 120.131 280.807 120.403 280.957 120.541C281.117 120.68 281.41 120.749 281.837 120.749L281.949 121.741L281.837 122.717C280.962 122.717 280.29 122.488 279.821 122.029C279.298 122.488 278.605 122.717 277.741 122.717H276.732V120.749ZM277.949 114.189H279.885V116.125H277.949V114.189ZM281.67 120.749H285.11C285.313 120.749 285.483 120.707 285.622 120.621C285.803 120.472 285.894 120.285 285.894 120.061C285.894 119.891 285.846 119.736 285.75 119.597L282.214 114.589L282.614 113.101L288.39 110.973L289.014 112.813L284.39 114.493L287.078 118.413C287.483 119.032 287.686 119.661 287.686 120.301C287.686 120.909 287.499 121.427 287.126 121.853C286.913 122.131 286.63 122.344 286.278 122.493C285.937 122.643 285.542 122.717 285.094 122.717H281.67V120.749ZM298.212 127.085C298.127 127.096 298.004 127.101 297.844 127.101C297.151 127.101 296.506 126.925 295.908 126.573C295.311 126.232 294.836 125.757 294.484 125.149C294.132 124.541 293.956 123.869 293.956 123.133C293.956 122.387 294.154 121.699 294.548 121.069C294.943 120.44 295.476 119.955 296.148 119.613C295.86 119.197 295.668 118.744 295.572 118.253C295.54 118.04 295.524 117.837 295.524 117.645C295.524 117.133 295.631 116.653 295.844 116.205C296.068 115.747 296.378 115.363 296.772 115.053C297.167 114.744 297.615 114.547 298.116 114.461C298.287 114.44 298.431 114.429 298.548 114.429C299.156 114.429 299.93 114.552 300.868 114.797L300.404 116.701C299.423 116.435 298.762 116.333 298.42 116.397C298.068 116.461 297.786 116.605 297.572 116.829C297.37 117.053 297.268 117.32 297.268 117.629C297.268 118.003 297.402 118.312 297.668 118.557C297.935 118.803 298.26 118.925 298.644 118.925C298.762 118.925 298.852 118.92 298.916 118.909L301.636 118.413L301.94 120.349L297.668 121.133C297.082 121.24 296.607 121.48 296.244 121.853C295.882 122.227 295.7 122.653 295.7 123.133C295.7 123.528 295.807 123.885 296.02 124.205C296.244 124.525 296.538 124.765 296.9 124.925C297.263 125.096 297.642 125.165 298.036 125.133L302.34 124.685L302.516 126.653L298.212 127.085ZM304.961 124.909C306.283 124.643 307.206 124.429 307.729 124.269C308.262 124.109 308.625 123.907 308.817 123.661C309.009 123.416 309.083 123.053 309.041 122.573C308.443 122.669 307.83 122.717 307.201 122.717C306.635 122.717 306.129 122.584 305.681 122.317C305.233 122.051 304.881 121.683 304.625 121.213C304.369 120.733 304.241 120.195 304.241 119.597C304.241 119 304.369 118.44 304.625 117.917C304.891 117.384 305.254 116.957 305.713 116.637C306.182 116.317 306.71 116.157 307.297 116.157C308.161 116.157 308.881 116.488 309.457 117.149C310.043 117.8 310.395 118.653 310.513 119.709L310.785 122.301C310.806 122.461 310.817 122.691 310.817 122.989C310.817 123.779 310.63 124.403 310.257 124.861C309.883 125.32 309.318 125.688 308.561 125.965C307.803 126.243 306.72 126.531 305.312 126.829L304.961 124.909ZM306.017 119.613C306.017 119.965 306.118 120.243 306.321 120.445C306.523 120.648 306.817 120.749 307.201 120.749C307.745 120.749 308.294 120.707 308.849 120.621L308.785 119.949C308.721 119.373 308.555 118.925 308.289 118.605C308.033 118.285 307.702 118.125 307.297 118.125C306.902 118.125 306.587 118.269 306.353 118.557C306.129 118.845 306.017 119.197 306.017 119.613ZM316.721 122.717C316.582 122.717 316.406 122.707 316.193 122.685C316.257 123.773 315.995 124.605 315.409 125.181C314.822 125.768 313.905 126.232 312.657 126.573L311.777 126.813L311.312 124.909L312.193 124.669C312.737 124.52 313.163 124.376 313.473 124.237C313.782 124.109 314.022 123.933 314.193 123.709C314.363 123.496 314.449 123.213 314.449 122.861C314.449 122.787 314.438 122.664 314.417 122.493L313.777 117.901L315.505 117.629L315.585 118.189L315.841 119.709C315.915 120.136 316.011 120.419 316.129 120.557C316.246 120.685 316.443 120.749 316.721 120.749H316.817L316.929 121.741L316.817 122.717H316.721ZM325.277 122.717C324.488 122.717 323.843 122.456 323.341 121.933C322.84 122.456 322.179 122.717 321.357 122.717C320.6 122.717 319.965 122.451 319.453 121.917C318.952 122.451 318.285 122.717 317.453 122.717H316.701V120.749H317.453C317.923 120.749 318.232 120.664 318.381 120.493C318.541 120.323 318.621 120.083 318.621 119.773V117.789H320.269V119.773V119.821C320.269 120.109 320.36 120.339 320.541 120.509C320.723 120.669 320.995 120.749 321.357 120.749C321.805 120.749 322.109 120.669 322.269 120.509C322.44 120.339 322.531 120.115 322.541 119.837V119.773V117.789H324.173V119.773V119.821C324.173 120.44 324.541 120.749 325.277 120.749C325.651 120.749 325.939 120.68 326.141 120.541C326.355 120.392 326.461 120.141 326.461 119.789C326.461 119.651 326.424 119.421 326.349 119.101L325.709 116.717L327.389 116.221L328.029 118.605C328.147 119.053 328.205 119.453 328.205 119.805C328.205 120.392 328.077 120.904 327.821 121.341C327.565 121.779 327.213 122.12 326.765 122.365C326.328 122.6 325.832 122.717 325.277 122.717ZM320.813 113.997H322.653L322.669 115.837H320.813V113.997ZM322.493 111.709H324.157V113.261H322.493V111.709ZM323.965 113.997H325.805V115.837H323.949L323.965 113.997Z" fill="white"/>
<g filter="url(#filter4_f_1900_2845)">
<circle cx="535" cy="279" r="71" fill="white"/>
</g>
<g filter="url(#filter5_f_1900_2845)">
<circle cx="-14" cy="-24" r="104" fill="white"/>
</g>
</g>
<rect x="2.5" y="1.5" width="555" height="277" rx="14.5" stroke="#E6E6E6"/>
</g>
<defs>
<filter id="filter0_d_1900_2845" x="0" y="0" width="560" height="282" filterUnits="userSpaceOnUse" color-interpolation-filters="sRGB">
<feFlood flood-opacity="0" result="BackgroundImageFix"/>
<feColorMatrix in="SourceAlpha" type="matrix" values="0 0 0 0 0 0 0 0 0 0 0 0 0 0 0 0 0 0 127 0" result="hardAlpha"/>
<feOffset dy="1"/>
<feGaussianBlur stdDeviation="1"/>
<feComposite in2="hardAlpha" operator="out"/>
<feColorMatrix type="matrix" values="0 0 0 0 0 0 0 0 0 0 0 0 0 0 0 0 0 0 0.05 0"/>
<feBlend mode="normal" in2="BackgroundImageFix" result="effect1_dropShadow_1900_2845"/>
<feBlend mode="normal" in="SourceGraphic" in2="effect1_dropShadow_1900_2845" result="shape"/>
</filter>
<filter id="filter1_d_1900_2845" x="50.7073" y="100.707" width="525.072" height="350.485" filterUnits="userSpaceOnUse" color-interpolation-filters="sRGB">
<feFlood flood-opacity="0" result="BackgroundImageFix"/>
<feColorMatrix in="SourceAlpha" type="matrix" values="0 0 0 0 0 0 0 0 0 0 0 0 0 0 0 0 0 0 127 0" result="hardAlpha"/>
<feOffset dx="31.7433" dy="31.7433"/>
<feGaussianBlur stdDeviation="39.8826"/>
<feColorMatrix type="matrix" values="0 0 0 0 0 0 0 0 0 0 0 0 0 0 0 0 0 0 0.9 0"/>
<feBlend mode="normal" in2="BackgroundImageFix" result="effect1_dropShadow_1900_2845"/>
<feBlend mode="normal" in="SourceGraphic" in2="effect1_dropShadow_1900_2845" result="shape"/>
</filter>
<filter id="filter2_ddi_1900_2845" x="108.932" y="227.254" width="345.135" height="152.143" filterUnits="userSpaceOnUse" color-interpolation-filters="sRGB">
<feFlood flood-opacity="0" result="BackgroundImageFix"/>
<feColorMatrix in="SourceAlpha" type="matrix" values="0 0 0 0 0 0 0 0 0 0 0 0 0 0 0 0 0 0 127 0" result="hardAlpha"/>
<feMorphology radius="3.2735" operator="erode" in="SourceAlpha" result="effect1_dropShadow_1900_2845"/>
<feOffset dy="7.63818"/>
<feGaussianBlur stdDeviation="7.09259"/>
<feColorMatrix type="matrix" values="0 0 0 0 0 0 0 0 0 0 0 0 0 0 0 0 0 0 0.3 0"/>
<feBlend mode="normal" in2="BackgroundImageFix" result="effect1_dropShadow_1900_2845"/>
<feColorMatrix in="SourceAlpha" type="matrix" values="0 0 0 0 0 0 0 0 0 0 0 0 0 0 0 0 0 0 127 0" result="hardAlpha"/>
<feOffset dy="2.18234"/>
<feGaussianBlur stdDeviation="2.18234"/>
<feColorMatrix type="matrix" values="0 0 0 0 0 0 0 0 0 0 0 0 0 0 0 0 0 0 0.4 0"/>
<feBlend mode="normal" in2="effect1_dropShadow_1900_2845" result="effect2_dropShadow_1900_2845"/>
<feBlend mode="normal" in="SourceGraphic" in2="effect2_dropShadow_1900_2845" result="shape"/>
<feColorMatrix in="SourceAlpha" type="matrix" values="0 0 0 0 0 0 0 0 0 0 0 0 0 0 0 0 0 0 127 0" result="hardAlpha"/>
<feOffset dy="-3.2735"/>
<feComposite in2="hardAlpha" operator="arithmetic" k2="-1" k3="1"/>
<feColorMatrix type="matrix" values="0 0 0 0 0 0 0 0 0 0 0 0 0 0 0 0 0 0 0.2 0"/>
<feBlend mode="normal" in2="shape" result="effect3_innerShadow_1900_2845"/>
</filter>
<filter id="filter3_dd_1900_2845" x="206.909" y="28" width="147.182" height="50.7173" filterUnits="userSpaceOnUse" color-interpolation-filters="sRGB">
<feFlood flood-opacity="0" result="BackgroundImageFix"/>
<feColorMatrix in="SourceAlpha" type="matrix" values="0 0 0 0 0 0 0 0 0 0 0 0 0 0 0 0 0 0 127 0" result="hardAlpha"/>
<feMorphology radius="2" operator="erode" in="SourceAlpha" result="effect1_dropShadow_1900_2845"/>
<feOffset dy="4"/>
<feGaussianBlur stdDeviation="3"/>
<feComposite in2="hardAlpha" operator="out"/>
<feColorMatrix type="matrix" values="0 0 0 0 0 0 0 0 0 0 0 0 0 0 0 0 0 0 0.05 0"/>
<feBlend mode="normal" in2="BackgroundImageFix" result="effect1_dropShadow_1900_2845"/>
<feColorMatrix in="SourceAlpha" type="matrix" values="0 0 0 0 0 0 0 0 0 0 0 0 0 0 0 0 0 0 127 0" result="hardAlpha"/>
<feMorphology radius="3" operator="erode" in="SourceAlpha" result="effect2_dropShadow_1900_2845"/>
<feOffset dy="10"/>
<feGaussianBlur stdDeviation="7.5"/>
<feComposite in2="hardAlpha" operator="out"/>
<feColorMatrix type="matrix" values="0 0 0 0 0 0 0 0 0 0 0 0 0 0 0 0 0 0 0.1 0"/>
<feBlend mode="normal" in2="effect1_dropShadow_1900_2845" result="effect2_dropShadow_1900_2845"/>
<feBlend mode="normal" in="SourceGraphic" in2="effect2_dropShadow_1900_2845" result="shape"/>
</filter>
<filter id="filter4_f_1900_2845" x="259.54" y="3.53999" width="550.92" height="550.92" filterUnits="userSpaceOnUse" color-interpolation-filters="sRGB">
<feFlood flood-opacity="0" result="BackgroundImageFix"/>
<feBlend mode="normal" in="SourceGraphic" in2="BackgroundImageFix" result="shape"/>
<feGaussianBlur stdDeviation="102.23" result="effect1_foregroundBlur_1900_2845"/>
</filter>
<filter id="filter5_f_1900_2845" x="-342.46" y="-352.46" width="656.92" height="656.92" filterUnits="userSpaceOnUse" color-interpolation-filters="sRGB">
<feFlood flood-opacity="0" result="BackgroundImageFix"/>
<feBlend mode="normal" in="SourceGraphic" in2="BackgroundImageFix" result="shape"/>
<feGaussianBlur stdDeviation="112.23" result="effect1_foregroundBlur_1900_2845"/>
</filter>
<linearGradient id="paint0_linear_1900_2845" x1="281.5" y1="140" x2="281.5" y2="348.413" gradientUnits="userSpaceOnUse">
<stop stop-color="white"/>
<stop offset="1" stop-color="white"/>
</linearGradient>
<radialGradient id="paint1_radial_1900_2845" cx="0" cy="0" r="1" gradientUnits="userSpaceOnUse" gradientTransform="translate(281.5 230.527) rotate(90) scale(130.319 323.312)">
<stop stop-color="white" stop-opacity="0.3"/>
<stop offset="1" stop-color="white" stop-opacity="0"/>
</radialGradient>
<clipPath id="clip0_1900_2845">
<rect x="2" y="1" width="556" height="278" rx="15" fill="white"/>
</clipPath>
</defs>
</svg>
