<svg width="1132" height="125" viewBox="0 0 1132 125" fill="none" xmlns="http://www.w3.org/2000/svg">
<g filter="url(#filter0_d_1906_3008)">
<g clip-path="url(#clip0_1906_3008)">
<rect x="2" y="1" width="1128" height="121" rx="15" fill="black"/>
<g filter="url(#filter1_d_1906_3008)">
<path d="M750.916 85.108C753.422 86.5549 753.437 88.9018 750.948 90.3487L729.908 102.575C727.417 104.022 723.365 104.022 720.859 102.575L699.68 90.3487C697.174 88.9018 697.159 86.5549 699.65 85.108L720.69 72.8813C723.178 71.4344 727.231 71.4369 729.737 72.8813L750.916 85.108Z" fill="url(#paint0_linear_1906_3008)"/>
<path d="M750.916 68.8562C753.422 70.3032 753.437 72.65 750.948 74.097L729.908 86.3237C727.417 87.7706 723.365 87.7706 720.859 86.3237L699.68 74.097C697.174 72.65 697.159 70.3032 699.65 68.8562L720.69 56.6295C723.178 55.1826 727.231 55.1851 729.737 56.6295L750.916 68.8562Z" fill="url(#paint1_linear_1906_3008)"/>
<path d="M725.346 102.889C724.225 102.889 723.104 102.635 722.226 102.13L684.36 80.2699C683.443 79.7404 682.936 79.0095 682.936 78.2139C682.936 77.4233 683.433 76.6974 684.34 76.1678L721.96 54.3075C723.703 53.2956 726.44 53.2956 728.193 54.3075L766.059 76.1678C766.976 76.6974 767.483 77.4283 767.483 78.2239C767.483 79.0144 766.986 79.7429 766.079 80.2699L728.461 102.133C727.591 102.64 726.47 102.891 725.349 102.891L725.346 102.889ZM725.073 54.4094C724.093 54.4094 723.114 54.6207 722.388 55.0434L684.768 76.9037C684.134 77.2717 683.786 77.7366 683.786 78.2089C683.786 78.6888 684.141 79.1562 684.785 79.5266L722.651 101.387C724.141 102.247 726.552 102.247 728.029 101.387L765.649 79.5241C766.283 79.1561 766.631 78.6912 766.631 78.2189C766.631 77.7391 766.275 77.2717 765.631 76.9012L727.765 55.0409C727.034 54.6182 726.052 54.4069 725.073 54.4069V54.4094Z" fill="url(#paint2_linear_1906_3008)"/>
<path d="M752.788 71.6828C752.783 71.75 752.778 71.8171 752.766 71.8842C752.756 71.9389 752.738 71.9936 752.726 72.0483C752.708 72.1129 752.694 72.1776 752.671 72.2397C752.654 72.2919 752.629 72.3442 752.607 72.3939C752.577 72.461 752.549 72.5281 752.512 72.5928C752.487 72.64 752.455 72.6872 752.428 72.7345C752.38 72.8091 752.333 72.8836 752.278 72.9582C752.226 73.0278 752.171 73.0999 752.112 73.167C752.097 73.1845 752.084 73.2019 752.07 73.2168C751.988 73.3063 751.896 73.3933 751.801 73.4803C751.739 73.535 751.672 73.5897 751.605 73.6419C751.545 73.6891 751.49 73.7364 751.426 73.7836C751.354 73.8358 751.274 73.8855 751.194 73.9377C751.115 73.99 751.038 74.0422 750.953 74.0944L729.913 86.3211C729.722 86.4329 729.518 86.5324 729.309 86.6269C729.25 86.6542 729.187 86.6791 729.125 86.7039C728.961 86.7735 728.795 86.8357 728.623 86.8954C728.561 86.9152 728.501 86.9401 728.439 86.9575C728.332 86.9923 728.22 87.0221 728.108 87.052C728.024 87.0744 727.942 87.0992 727.857 87.1191C727.74 87.1465 727.621 87.1713 727.504 87.1937C727.425 87.2111 727.345 87.2285 727.263 87.2434C727.024 87.2857 726.781 87.318 726.535 87.3453C726.46 87.3528 726.383 87.3578 726.308 87.3652C726.164 87.3777 726.02 87.3876 725.876 87.3951C725.784 87.4 725.689 87.4 725.597 87.4025C725.481 87.4025 725.364 87.405 725.247 87.4025C725.15 87.4025 725.05 87.3976 724.954 87.3951C724.844 87.3901 724.737 87.3851 724.628 87.3777C724.528 87.3702 724.431 87.3627 724.332 87.3528C724.225 87.3429 724.118 87.3304 724.011 87.318C723.914 87.3056 723.82 87.2931 723.725 87.2782C723.611 87.2608 723.499 87.2409 723.385 87.2185C723.295 87.2011 723.208 87.1837 723.121 87.1639C722.987 87.134 722.855 87.1017 722.723 87.0669C722.651 87.047 722.577 87.0296 722.505 87.0072C722.271 86.9376 722.04 86.863 721.819 86.776C721.709 86.7338 721.602 86.6865 721.495 86.6393C721.441 86.6144 721.383 86.592 721.329 86.5672C721.167 86.4901 721.011 86.4106 720.859 86.3236L699.68 74.0969C698.576 73.4604 697.957 72.6475 697.82 71.8146C697.8 71.6953 697.79 71.5759 697.793 71.4566L697.773 78.4103C697.77 79.3649 698.399 80.3221 699.662 81.0505L720.841 93.2772C720.993 93.3642 721.15 93.4463 721.311 93.5208C721.366 93.5457 721.423 93.5681 721.478 93.5929C721.572 93.6352 721.667 93.68 721.766 93.7172C721.779 93.7222 721.791 93.7247 721.801 93.7297C722.022 93.8167 722.254 93.8938 722.487 93.9609C722.507 93.9659 722.525 93.9733 722.542 93.9808C722.597 93.9957 722.651 94.0056 722.706 94.0205C722.838 94.0554 722.97 94.0877 723.104 94.1175C723.139 94.125 723.173 94.1349 723.211 94.1424C723.263 94.1523 723.318 94.1598 723.37 94.1697C723.482 94.1921 723.594 94.212 723.708 94.2294C723.753 94.2368 723.797 94.2468 723.845 94.2542C723.894 94.2617 723.944 94.2642 723.994 94.2717C724.101 94.2841 724.205 94.2965 724.312 94.3065C724.364 94.3114 724.414 94.3189 724.466 94.3239C724.513 94.3288 724.561 94.3288 724.61 94.3313C724.717 94.3388 724.827 94.3437 724.934 94.3487C724.988 94.3487 725.043 94.3562 725.098 94.3587C725.142 94.3587 725.185 94.3587 725.227 94.3587C725.344 94.3587 725.461 94.3587 725.578 94.3587C725.637 94.3587 725.694 94.3587 725.754 94.3587C725.789 94.3587 725.821 94.3537 725.856 94.3512C726 94.3437 726.144 94.3338 726.289 94.3214C726.346 94.3164 726.405 94.3164 726.463 94.3089C726.48 94.3089 726.497 94.304 726.515 94.3015C726.761 94.2766 727.002 94.2418 727.241 94.1996C727.253 94.1996 727.266 94.1971 727.278 94.1946C727.348 94.1821 727.415 94.1647 727.484 94.1498C727.601 94.125 727.721 94.1026 727.835 94.0752C727.919 94.0554 728.004 94.0305 728.089 94.0081C728.198 93.9783 728.31 93.9485 728.417 93.9137C728.439 93.9062 728.464 93.9012 728.486 93.8938C728.526 93.8813 728.561 93.8639 728.601 93.8515C728.772 93.7918 728.939 93.7297 729.103 93.6601C729.165 93.6352 729.225 93.6103 729.284 93.583C729.493 93.4885 729.697 93.3891 729.888 93.2772L750.928 81.0505C750.956 81.0356 750.981 81.0207 751.005 81.0033C751.065 80.9685 751.115 80.9287 751.172 80.8914C751.249 80.8417 751.329 80.792 751.401 80.7397C751.465 80.6925 751.52 80.6453 751.58 80.598C751.647 80.5433 751.714 80.4911 751.776 80.4364C751.789 80.4265 751.804 80.4141 751.816 80.4041C751.898 80.3271 751.975 80.25 752.047 80.1729C752.062 80.1555 752.075 80.1406 752.089 80.1232C752.132 80.076 752.174 80.0262 752.214 79.979C752.231 79.9566 752.241 79.9342 752.258 79.9144C752.313 79.8398 752.363 79.7677 752.408 79.6906C752.428 79.6583 752.452 79.6285 752.47 79.5961C752.48 79.5812 752.485 79.5638 752.492 79.5464C752.527 79.4818 752.557 79.4147 752.584 79.3475C752.602 79.3077 752.624 79.2705 752.639 79.2307C752.644 79.2182 752.646 79.2033 752.651 79.1909C752.674 79.1263 752.689 79.0641 752.706 78.9995C752.718 78.9572 752.733 78.9149 752.743 78.8702C752.746 78.8578 752.743 78.8478 752.748 78.8354C752.761 78.7683 752.766 78.7011 752.771 78.634C752.776 78.5893 752.786 78.547 752.786 78.5022C752.786 78.4824 752.786 78.465 752.786 78.4451L752.805 71.4914C752.805 71.5536 752.795 71.6157 752.791 71.6779L752.788 71.6828Z" fill="url(#paint3_linear_1906_3008)"/>
<path d="M725.389 85.277C724.066 85.277 722.806 84.9862 721.925 84.479L700.746 72.2523C700.12 71.8893 699.923 71.5487 699.923 71.4667C699.923 71.3871 700.112 71.0565 700.721 70.701L721.761 58.4743C722.631 57.9696 723.887 57.6787 725.205 57.6787C726.527 57.6787 727.79 57.9696 728.67 58.4792L749.849 70.7059C750.476 71.0689 750.672 71.4095 750.672 71.4915C750.672 71.5711 750.483 71.9018 749.877 72.2548L728.837 84.4815C727.967 84.9886 726.709 85.277 725.391 85.277H725.389Z" fill="url(#paint4_linear_1906_3008)"/>
<path d="M714.266 64.3364C720.24 60.7713 730.008 60.6346 736.042 64.0256C742.075 67.4167 742.125 73.0751 736.151 76.6377C730.177 80.2003 720.409 80.342 714.375 76.9509C708.341 73.5599 708.292 67.899 714.266 64.3339" fill="#262B38"/>
<path d="M733.501 62.8771C737.103 64.15 740.867 66.8276 740.611 70.8874C739.457 59.1579 710.805 59.3667 709.83 71.4169C709.776 61.5172 726.497 60.0678 733.501 62.8796V62.8771Z" fill="url(#paint5_linear_1906_3008)"/>
<path d="M714.877 77.8409C722.313 81.5875 740.265 80.6104 741.414 70.211C741.673 83.6584 709.117 84.1009 709.005 70.7679C708.893 73.3957 711.568 76.4238 714.877 77.8434V77.8409Z" fill="url(#paint6_linear_1906_3008)"/>
<path d="M736.733 76.9658C743.02 73.2143 742.968 67.2551 736.618 63.685C730.264 60.1125 719.979 60.2617 713.689 64.0132C707.399 67.7672 707.451 73.724 713.803 77.294C720.155 80.8641 730.44 80.7199 736.733 76.9658ZM714.266 64.3364C720.24 60.7713 730.008 60.6346 736.041 64.0256C742.075 67.4167 742.125 73.0751 736.151 76.6377C730.177 80.2003 720.409 80.342 714.375 76.9509C708.341 73.5599 708.291 67.899 714.266 64.3339" fill="url(#paint7_linear_1906_3008)"/>
<path d="M730.132 67.8865C732.337 64.4507 725.766 62.6955 725.287 62.6931C724.508 64.4209 722.83 68.1426 722.065 69.8406C722.843 69.0674 723.984 68.7716 725.15 68.7318L730.13 67.8865H730.132Z" fill="url(#paint8_linear_1906_3008)"/>
<path d="M735.49 70.6959C738.063 69.162 737.434 66.7778 737.399 66.6535C734.438 67.1557 728.064 68.2372 725.152 68.7319C727.979 68.4037 730.674 71.3348 726.987 72.6152C729.503 72.0484 733.237 71.9464 735.49 70.6959Z" fill="url(#paint9_linear_1906_3008)"/>
<path d="M727.773 72.2572C730.505 70.5467 727.248 68.446 725.15 68.7319C723.069 68.5081 719.984 70.7655 722.679 72.3318C724.123 73.1199 726.306 73.105 727.77 72.2572H727.773Z" fill="white"/>
<path d="M737.324 74.7781L731.969 71.7674C730.679 71.9862 729.217 72.2348 728.079 72.4287L727.054 74.701C730.868 77.4557 737.168 75.0143 737.322 74.7781H737.324Z" fill="url(#paint10_linear_1906_3008)"/>
<path d="M722.122 71.924C721.463 71.2926 721.446 70.4945 722.067 69.8407L723.377 66.9344C719.566 64.1823 713.266 66.6212 713.11 66.8573C715.287 68.0805 719.981 70.7208 722.122 71.924Z" fill="url(#paint11_linear_1906_3008)"/>
<path d="M725.274 72.9035C723.002 73.1073 720.396 70.7306 718.462 69.8654C714.79 70.119 712.297 72.6698 713.038 74.9819C715.996 74.4797 722.368 73.3957 725.274 72.9035Z" fill="url(#paint12_linear_1906_3008)"/>
<path d="M725.145 78.9423C725.811 77.4655 727.435 73.8632 728.081 72.4287C726.216 72.8066 722.226 73.3958 720.304 73.7488C718.097 77.1846 724.665 78.9398 725.147 78.9423H725.145Z" fill="url(#paint13_linear_1906_3008)"/>
<path opacity="0.8" d="M709.614 34.0107H740.397V70.1612H740.375C740.589 72.6125 739.075 75.0837 735.84 76.9036C729.806 80.2946 720.038 80.1554 714.064 76.5903C711.051 74.7929 709.574 72.4634 709.619 70.1612H709.617V34.0107H709.614Z" fill="url(#paint14_linear_1906_3008)"/>
<path opacity="0.8" d="M714.509 44.2337H735.505V68.8885H735.49C735.634 70.5591 734.605 72.2447 732.397 73.4878C728.282 75.8023 721.62 75.7054 717.545 73.274C715.491 72.0483 714.482 70.4597 714.512 68.8885V44.2337H714.509Z" fill="url(#paint15_linear_1906_3008)"/>
<path d="M944.487 73.5549L896.923 46.0933C895.066 45.0218 893.559 42.1429 893.559 39.6667V7.83457C893.559 5.3584 895.066 4.21976 896.923 5.29128L944.487 32.7529C946.344 33.8244 947.851 36.7033 947.851 39.1795V71.0116C947.851 73.4878 946.344 74.6264 944.487 73.5549Z" fill="url(#paint16_linear_1906_3008)" stroke="#3292F1" stroke-width="0.248611" stroke-miterlimit="10"/>
<path d="M914.855 23.6041L899.416 14.6914C898.763 14.3135 898.23 13.2992 898.23 12.4265C898.23 11.5539 898.763 11.1512 899.416 11.529L914.855 20.4417C915.509 20.8196 916.041 21.834 916.041 22.7066C916.041 23.5792 915.509 23.982 914.855 23.6041Z" fill="url(#paint17_linear_1906_3008)"/>
<path d="M904.958 24.1262L899.419 20.9291C898.765 20.5512 898.233 19.5369 898.233 18.6643C898.233 17.7916 898.765 17.3889 899.419 17.7668L904.958 20.9639C905.612 21.3418 906.144 22.3561 906.144 23.2288C906.144 24.1014 905.612 24.5041 904.958 24.1262Z" fill="url(#paint18_linear_1906_3008)"/>
<path opacity="0.8" d="M859.213 121.53H889.996V157.68H889.974C890.188 160.131 888.674 162.603 885.439 164.422C879.406 167.813 869.638 167.674 863.664 164.109C860.65 162.312 859.174 159.982 859.218 157.68H859.216V121.53H859.213Z" fill="url(#paint19_linear_1906_3008)"/>
<path opacity="0.3" d="M797.108 136.739L884.181 86.4678L858.875 71.8569L771.802 122.129C764.858 126.139 754.635 127.556 745.195 125.895C721.791 121.773 695.369 125.09 677.098 135.862C651.096 151.196 651.464 175.677 677.911 190.947C704.483 206.288 747.43 206.365 773.838 191.121C792.136 180.557 797.687 165.409 790.532 151.997C787.646 146.587 790.211 140.72 797.108 136.737V136.739Z" fill="url(#paint20_linear_1906_3008)"/>
<path opacity="0.5" d="M859.042 86.5398C858.98 86.4329 858.843 86.3956 858.736 86.4578L765.718 140.163C765.636 140.116 765.557 140.066 765.475 140.019C743.182 127.148 707.024 127.083 684.87 139.874C674.145 146.067 668.235 154.329 668.235 163.139C668.235 172.027 674.232 180.383 685.121 186.67C696.314 193.132 710.999 196.366 725.655 196.366C740.31 196.366 754.695 193.184 765.726 186.817C776.453 180.624 782.36 172.363 782.36 163.552C782.36 154.741 776.612 146.664 766.161 140.426L858.96 86.8481C859.067 86.786 859.104 86.6492 859.042 86.5423V86.5398ZM781.913 163.55C781.913 172.191 776.085 180.316 765.502 186.427C754.531 192.761 740.111 195.924 725.655 195.924C711.081 195.924 696.475 192.707 685.345 186.283C674.6 180.08 668.683 171.861 668.683 163.139C668.683 154.498 674.51 146.373 685.094 140.262C696.065 133.928 710.484 130.765 724.941 130.765C739.398 130.765 754.121 133.982 765.251 140.406C775.996 146.609 781.913 154.828 781.913 163.55Z" fill="white"/>
<path d="M756.02 149.391C756.132 153.933 753.188 158.471 747.194 161.879C735.45 168.557 716.458 168.375 704.769 161.479C699.048 158.105 696.139 153.744 696.033 149.391V96.7131H756.022L756.017 149.391H756.02Z" fill="url(#paint21_linear_1906_3008)"/>
<path d="M914.738 112.97L895.682 101.969L886.083 107.51L906.069 119.051C908.752 120.6 912.056 120.6 914.736 119.051C917.075 117.701 917.075 114.322 914.736 112.972L914.738 112.97Z" fill="url(#paint22_linear_1906_3008)"/>
<path d="M892.241 126.186L873.185 115.185L863.587 120.726L883.572 132.267C886.255 133.816 889.559 133.816 892.239 132.267C894.578 130.917 894.578 127.538 892.239 126.188L892.241 126.186Z" fill="url(#paint23_linear_1906_3008)"/>
<path d="M798.324 72.0631L783.33 63.4065C780.816 61.9546 777.719 61.9546 775.205 63.4065C772.744 64.8261 772.744 68.3787 775.205 69.7983L789.655 78.1417C792.337 79.6905 795.641 79.6905 798.321 78.1417C800.661 76.7917 800.661 73.4131 798.321 72.0631H798.324Z" fill="url(#paint24_linear_1906_3008)"/>
<path d="M802.344 58.3921C798.46 58.3921 795.313 55.2446 795.313 51.3613V34.5751C795.313 30.8758 797.051 27.6637 799.964 25.9806C802.883 24.295 806.548 24.3995 809.767 26.2566L819.47 31.8603C822.834 33.8019 823.985 38.1004 822.044 41.4641C820.102 44.8278 815.803 45.9789 812.44 44.0372L809.372 42.2671V51.3638C809.372 55.2471 806.224 58.3945 802.341 58.3945L802.344 58.3921Z" fill="url(#paint25_linear_1906_3008)"/>
<path d="M780.043 71.7474C776.16 71.7474 773.013 68.6 773.013 64.7167V47.9304C773.013 44.2311 774.75 41.0191 777.664 39.336C780.583 37.6504 784.247 37.7548 787.467 39.6119L797.17 45.2156C800.534 47.1573 801.685 51.4558 799.743 54.8195C797.802 58.1832 793.503 59.3342 790.139 57.3926L787.071 55.6225V64.7192C787.071 68.6025 783.924 71.7499 780.041 71.7499L780.043 71.7474Z" fill="url(#paint26_linear_1906_3008)"/>
<path d="M780.043 71.7474C776.16 71.7474 773.013 68.6 773.013 64.7167V47.9304C773.013 44.2311 774.75 41.0191 777.664 39.336C780.583 37.6504 784.247 37.7548 787.467 39.6119L797.17 45.2156C800.534 47.1573 801.685 51.4558 799.743 54.8195C797.802 58.1832 793.503 59.3342 790.139 57.3926L787.071 55.6225V64.7192C787.071 68.6025 783.924 71.7499 780.041 71.7499L780.043 71.7474Z" fill="#3292F1"/>
<path d="M799.743 54.817C799.771 54.7673 799.798 54.7176 799.823 54.6703C799.388 54.004 798.794 53.4273 798.058 53.0021L790.806 48.8155C788.399 47.4258 785.659 47.3487 783.479 48.6092C781.301 49.8672 780.003 52.2663 780.003 55.0333V67.5807C780.003 69.1544 780.697 70.5665 781.793 71.5286C784.832 70.7505 787.076 67.9959 787.076 64.7167V55.62L790.144 57.3901C793.506 59.3318 797.807 58.1807 799.748 54.817H799.743Z" fill="black" fill-opacity="0.3"/>
<path d="M907.399 37.72C913.731 41.3771 913.764 47.3015 907.474 50.9586L861.921 77.4307C855.631 81.0853 845.401 81.0878 839.068 77.4307L793.217 50.9586C786.887 47.304 786.855 41.3771 793.145 37.7225L838.698 11.2504C844.988 7.59583 855.218 7.59335 861.55 11.2504L907.402 37.7225L907.399 37.72Z" fill="url(#paint27_linear_1906_3008)"/>
<path d="M850.507 74.9198C847.148 74.9198 843.934 74.1764 841.691 72.8812L795.84 46.4091C794.222 45.4743 793.697 44.5917 793.697 44.3108C793.697 44.0373 794.204 43.1771 795.78 42.2622L841.333 15.7901C843.553 14.4998 846.753 13.759 850.107 13.759C853.466 13.759 856.678 14.5023 858.92 15.7951L904.771 42.2672C906.392 43.202 906.917 44.087 906.917 44.368C906.917 44.6414 906.41 45.5016 904.834 46.4165L859.281 72.8886C857.06 74.1789 853.861 74.9198 850.507 74.9198Z" fill="url(#paint28_linear_1906_3008)"/>
<path d="M912.158 44.6688C912.021 47.1922 910.171 49.2233 908.143 50.541C907.439 51.0656 862.667 76.941 861.921 77.4283C858.495 79.3824 854.492 80.1406 850.577 80.168C846.606 80.1605 842.547 79.3998 839.066 77.4283L793.215 50.9562C790.719 49.5366 788.456 47.2345 788.446 44.2934L788.372 90.7364C788.364 93.148 789.955 95.562 793.14 97.3992L795.805 98.9381V65.4726C795.805 63.884 797.523 62.892 798.9 63.6851L835.13 84.6032C837.042 85.707 838.221 87.7481 838.221 89.9558V123.426L838.991 123.871C839.454 124.137 839.934 124.383 840.421 124.602C843.568 126.027 847.059 126.609 850.5 126.611C854.413 126.584 858.418 125.825 861.844 123.871C862.672 123.347 907.262 97.5409 908.063 96.984C908.844 96.4719 909.572 95.8802 910.206 95.199C911.312 94.0106 912.088 92.4693 912.093 90.8259L912.168 44.3829C912.168 44.4774 912.16 44.5718 912.155 44.6688H912.158Z" fill="url(#paint29_linear_1906_3008)"/>
<path d="M912.158 44.6688C912.021 47.1922 910.171 49.2233 908.143 50.541C907.439 51.0656 862.667 76.941 861.921 77.4283C858.495 79.3824 854.492 80.1406 850.577 80.168C846.606 80.1605 842.547 79.3998 839.066 77.4283L793.215 50.9562C790.719 49.5366 788.456 47.2345 788.446 44.2934L788.372 90.7364C788.364 93.148 789.955 95.562 793.14 97.3992L795.805 98.9381V65.4726C795.805 63.884 797.523 62.892 798.9 63.6851L835.13 84.6032C837.042 85.707 838.221 87.7481 838.221 89.9558V123.426L838.991 123.871C839.454 124.137 839.934 124.383 840.421 124.602C843.568 126.027 847.059 126.609 850.5 126.611C854.413 126.584 858.418 125.825 861.844 123.871C862.672 123.347 907.262 97.5409 908.063 96.984C908.844 96.4719 909.572 95.8802 910.206 95.199C911.312 94.0106 912.088 92.4693 912.093 90.8259L912.168 44.3829C912.168 44.4774 912.16 44.5718 912.155 44.6688H912.158Z" fill="url(#paint30_linear_1906_3008)"/>
<path d="M788.399 69.7809L788.394 72.5405C789.234 73.9824 790.634 75.3001 792.511 76.384L795.805 78.2859V77.2517L792.959 75.6084C790.226 74.0322 788.61 71.9637 788.399 69.7834V69.7809Z" fill="url(#paint31_linear_1906_3008)"/>
<path d="M850.51 105.892C854.763 105.892 859.015 104.954 862.242 103.077L908.177 76.3816C909.952 75.3499 911.283 74.1217 912.115 72.7742C912.115 72.0085 912.115 71.2279 912.12 70.4348C911.705 72.3715 910.186 74.1789 907.727 75.6059L861.792 102.302C855.581 105.912 845.445 105.909 839.195 102.302L838.221 101.74V102.774L838.748 103.077C841.997 104.954 846.256 105.892 850.51 105.892Z" fill="url(#paint32_linear_1906_3008)"/>
<path d="M827.886 80.4215L798.9 63.6875C797.526 62.8944 795.805 63.8864 795.805 65.475V98.9406H795.808L827.883 80.4215H827.886Z" fill="url(#paint33_linear_1906_3008)"/>
<path d="M846.728 51.1774C847.305 50.8442 847.738 50.5061 848.023 50.1655C848.309 49.8249 848.461 49.4495 848.471 49.0443C848.483 48.639 848.367 48.1915 848.123 47.7018C847.879 47.212 847.509 46.6576 847.009 46.0361C846.164 44.9621 845.465 43.9428 844.916 42.9856C844.366 42.026 844.063 41.1086 844.001 40.2335C843.941 39.3584 844.18 38.5131 844.722 37.7001C845.261 36.8872 846.204 36.0916 847.551 35.3135C848.717 34.6397 849.975 34.1375 851.325 33.8044C852.672 33.4738 854.062 33.3072 855.497 33.3122C856.929 33.3146 858.371 33.4762 859.818 33.797C861.264 34.1177 862.674 34.6025 864.041 35.2488L868.449 32.7031L871.766 34.6174L867.296 37.198C868.32 37.9786 869.061 38.7965 869.521 39.6468C869.981 40.4995 870.142 41.3547 870.011 42.2124C869.876 43.0701 869.441 43.9254 868.703 44.7756C867.965 45.6259 866.908 46.4463 865.536 47.2394L859.547 43.7812C861.195 42.829 862.085 41.9216 862.217 41.0539C862.351 40.1863 861.844 39.423 860.695 38.7617C860.074 38.4037 859.445 38.1476 858.811 37.996C858.177 37.8443 857.553 37.7772 856.939 37.7946C856.325 37.812 855.73 37.909 855.154 38.083C854.577 38.257 854.032 38.4907 853.525 38.7841C853.018 39.0775 852.625 39.3832 852.352 39.7015C852.078 40.0197 851.934 40.3777 851.924 40.7755C851.912 41.1732 852.031 41.6232 852.282 42.1229C852.533 42.6251 852.909 43.2094 853.408 43.8781C854.214 44.9621 854.883 45.9814 855.42 46.941C855.957 47.9007 856.25 48.8205 856.302 49.6981C856.354 50.5782 856.111 51.4235 855.571 52.2364C855.032 53.0494 854.097 53.8425 852.764 54.6107C851.556 55.3093 850.273 55.8214 848.918 56.1496C847.564 56.4777 846.176 56.6369 844.757 56.6244C843.337 56.6145 841.908 56.438 840.466 56.0974C839.024 55.7568 837.619 55.262 836.254 54.6156L832.155 56.9824L828.858 55.0805L832.935 52.7262C831.911 51.9928 831.071 51.1972 830.412 50.342C829.753 49.4868 829.398 48.5943 829.343 47.667C829.291 46.7396 829.604 45.7924 830.288 44.8229C830.971 43.8533 832.137 42.8936 833.786 41.9415L839.775 45.3996C838.8 45.9615 838.114 46.506 837.716 47.0305C837.318 47.5551 837.139 48.0523 837.177 48.5272C837.214 48.9995 837.425 49.4396 837.813 49.8473C838.201 50.255 838.678 50.6205 839.245 50.9461C839.894 51.3215 840.553 51.5975 841.221 51.779C841.89 51.9605 842.549 52.055 843.195 52.0624C843.842 52.0724 844.466 52.0003 845.065 51.8461C845.664 51.692 846.216 51.4682 846.726 51.1749L846.728 51.1774Z" fill="#05122B"/>
<path d="M848.023 48.194C848.312 47.8534 848.461 47.478 848.471 47.0727C848.483 46.6675 848.367 46.22 848.123 45.7302C847.879 45.2405 847.509 44.6861 847.009 44.0645C846.164 42.9905 845.465 41.9712 844.916 41.0141C844.366 40.0544 844.063 39.1371 844.001 38.2619C843.941 37.3868 843.971 32.5538 843.971 32.5538C843.971 32.5538 846.204 34.1176 847.549 33.3419C848.715 32.6682 849.973 32.166 851.323 31.8329C852.67 31.5022 854.763 29.7072 856.195 29.7097C857.627 29.7122 859.124 30.4406 860.573 30.7613C862.02 31.0821 862.669 32.6284 864.036 33.2748L868.444 30.729L871.761 32.6433L867.291 35.2239C868.315 36.0046 870.04 34.0803 870.04 34.0803C870.04 34.0803 870.137 39.3807 870.003 40.2384C869.869 41.0961 869.434 41.9513 868.695 42.8016C867.957 43.6518 866.9 44.4722 865.528 45.2653L859.539 41.8071C861.187 40.855 862.077 39.9475 862.209 39.0799C862.343 38.2122 861.836 37.449 860.688 36.7877C860.066 36.4297 859.437 36.1736 858.803 36.022C858.169 35.8703 857.545 35.8032 856.931 35.8206C856.317 35.838 855.723 35.9349 855.146 36.109C854.569 36.283 854.025 36.5167 853.518 36.8101C853.011 37.1034 852.618 37.4092 852.344 37.7274C852.071 38.0456 851.927 38.4037 851.917 38.8014C851.904 39.1992 852.024 39.6492 852.275 40.1489C852.526 40.6511 852.901 41.2353 853.401 41.9041C854.206 42.988 856.29 42.8389 856.29 42.8389C856.29 42.8389 856.24 46.8465 856.295 47.7266C856.347 48.6067 856.103 49.4519 855.564 50.2649C855.024 51.0778 854.09 51.8709 852.757 52.6391C851.549 53.3377 850.266 53.8499 848.911 54.178C847.556 54.5062 846.169 54.6653 844.749 54.6529C843.33 54.6429 841.9 54.4664 840.458 54.1258C839.016 53.7852 837.612 53.2905 836.247 52.6441L832.147 55.0109L828.851 53.109L832.928 50.7547C831.904 50.0212 831.063 49.2257 830.404 48.3705C829.746 47.5152 829.39 46.6227 829.335 45.6954C829.283 44.7681 829.34 39.8108 829.34 39.8108C829.34 39.8108 832.13 40.9246 833.778 39.9724L839.767 38.0183V43.4306C838.793 43.9924 838.106 44.5369 837.709 45.0615C837.311 45.586 837.132 46.0832 837.169 46.5581C837.206 47.0305 837.763 47.0901 838.151 47.4978C838.539 47.9031 847.728 48.537 848.014 48.194H848.023Z" fill="url(#paint34_linear_1906_3008)"/>
<path d="M865.528 39.8555L859.539 36.3973V41.8096L865.528 45.2678V39.8555Z" fill="url(#paint35_linear_1906_3008)"/>
<path d="M871.761 27.2361V32.6459L868.621 34.431L865.486 29.3444L871.761 27.2361Z" fill="url(#paint36_linear_1906_3008)"/>
<path d="M846.728 43.7936C847.305 43.4604 847.738 43.1223 848.023 42.7817C848.309 42.4411 848.461 42.0657 848.471 41.6605C848.483 41.2552 848.367 40.8077 848.123 40.318C847.879 39.8282 847.509 39.2738 847.009 38.6523C846.164 37.5783 845.465 36.559 844.916 35.6018C844.366 34.6422 844.063 33.7248 844.001 32.8497C843.941 31.9746 844.18 31.1293 844.722 30.3164C845.261 29.5034 846.204 28.7078 847.551 27.9297C848.717 27.256 849.975 26.7538 851.325 26.4206C852.672 26.09 854.062 25.9234 855.497 25.9284C856.931 25.9333 858.371 26.0925 859.818 26.4132C861.264 26.7339 862.674 27.2187 864.041 27.8651L868.449 25.3193L871.766 27.2336L867.296 29.8142C868.32 30.5948 869.061 31.4127 869.521 32.263C869.981 33.1157 870.142 33.9709 870.011 34.8286C869.876 35.6864 869.441 36.5416 868.703 37.3918C867.965 38.2421 866.908 39.0625 865.536 39.8556L859.547 36.3974C861.195 35.4452 862.085 34.5378 862.217 33.6701C862.351 32.8025 861.844 32.0392 860.695 31.3779C860.074 31.0199 859.445 30.7639 858.811 30.6122C858.177 30.4606 857.553 30.3934 856.939 30.4108C856.325 30.4282 855.73 30.5252 855.154 30.6992C854.577 30.8732 854.032 31.1069 853.525 31.4003C853.018 31.6937 852.625 31.9995 852.352 32.3177C852.078 32.6359 851.934 32.9939 851.924 33.3917C851.912 33.7895 852.031 34.2394 852.282 34.7392C852.533 35.2413 852.909 35.8256 853.408 36.4943C854.214 37.5783 854.883 38.5976 855.42 39.5572C855.957 40.5169 856.25 41.4367 856.302 42.3143C856.354 43.1944 856.111 44.0397 855.571 44.8527C855.032 45.6656 854.097 46.4587 852.764 47.2269C851.556 47.9255 850.273 48.4376 848.918 48.7658C847.564 49.094 846.176 49.2531 844.757 49.2406C843.337 49.2307 841.908 49.0542 840.466 48.7136C839.024 48.373 837.619 47.8782 836.254 47.2319L832.155 49.5986L828.858 47.6968L832.935 45.3424C831.911 44.609 831.071 43.8134 830.412 42.9582C829.753 42.103 829.398 41.2105 829.343 40.2832C829.291 39.3559 829.604 38.4086 830.288 37.4391C830.971 36.4695 832.137 35.5098 833.786 34.5577L839.775 38.0158C838.8 38.5777 838.114 39.1222 837.716 39.6467C837.318 40.1713 837.139 40.6685 837.177 41.1434C837.214 41.6157 837.425 42.0558 837.813 42.4635C838.201 42.8712 838.678 43.2367 839.245 43.5624C839.894 43.9378 840.553 44.2137 841.221 44.3952C841.89 44.5767 842.549 44.6712 843.195 44.6786C843.842 44.6886 844.466 44.6165 845.065 44.4623C845.664 44.3082 846.216 44.0844 846.726 43.7911L846.728 43.7936Z" fill="url(#paint37_linear_1906_3008)"/>
<path d="M836.249 47.2343V52.6466L832.152 55.0134V49.6011L836.249 47.2343Z" fill="url(#paint38_linear_1906_3008)"/>
<path d="M832.152 49.6012V55.0134L828.856 53.1115V47.6993L832.152 49.6012Z" fill="url(#paint39_linear_1906_3008)"/>
<path d="M902.643 89.8737L862.987 112.768C861.988 113.345 861.18 112.733 861.18 111.401V92.1311C861.18 90.801 861.99 89.2522 862.987 88.6779L902.643 65.7833C903.643 65.2065 904.451 65.8181 904.451 67.1506V86.4205C904.451 87.7505 903.64 89.2994 902.643 89.8737Z" fill="url(#paint40_linear_1906_3008)"/>
<path d="M902.79 65.7087C902.817 65.8578 902.832 66.0194 902.832 66.1935V85.4633C902.832 86.7934 902.022 88.3422 901.025 88.9165L861.369 111.811C861.319 111.838 861.272 111.863 861.225 111.886C861.399 112.87 862.125 113.268 862.992 112.768L902.648 89.8737C903.648 89.2969 904.456 87.7505 904.456 86.4205V67.1506C904.456 65.8852 903.722 65.2711 902.793 65.7087H902.79Z" fill="url(#paint41_linear_1906_3008)"/>
<path d="M888.241 133.629C884.358 133.629 881.211 130.482 881.211 126.598V109.939C881.143 109.69 880.9 109.278 880.718 109.099L871.112 103.552C867.751 101.611 866.597 97.3121 868.539 93.9484C870.481 90.5847 874.779 89.4336 878.143 91.3752L887.846 96.9764C892.147 99.4601 895.27 104.857 895.27 109.807V126.593C895.27 130.477 892.122 133.624 888.239 133.624L888.241 133.629Z" fill="url(#paint42_linear_1906_3008)"/>
<path d="M881.452 100.885L872.835 95.91C871.288 95.0175 869.516 94.8633 867.93 95.3357C866.948 98.416 868.198 101.872 871.114 103.555L880.721 109.101C880.902 109.28 881.143 109.691 881.213 109.942V126.601C881.213 129.209 882.633 131.481 884.741 132.695C886.707 131.643 888.045 129.572 888.045 127.185V112.279C888.045 107.883 885.273 103.092 881.452 100.885Z" fill="url(#paint43_linear_1906_3008)"/>
<path d="M910.736 120.413C906.852 120.413 903.705 117.266 903.705 113.382V96.7229C903.638 96.4743 903.394 96.0616 903.213 95.8826L893.606 90.3361C890.245 88.3945 889.092 84.096 891.033 80.7323C892.975 77.3686 897.273 76.2175 900.637 78.1591L910.34 83.7604C914.641 86.244 917.764 91.6413 917.764 96.5912V113.377C917.764 117.261 914.616 120.408 910.733 120.408L910.736 120.413Z" fill="url(#paint44_linear_1906_3008)"/>
<path d="M903.946 87.6684L895.329 82.6937C893.783 81.8012 892.01 81.6471 890.424 82.1194C889.442 85.1997 890.693 88.6554 893.609 90.3385L903.215 95.885C903.397 96.064 903.638 96.4742 903.707 96.7253V113.385C903.707 115.993 905.127 118.265 907.235 119.478C909.202 118.427 910.539 116.356 910.539 113.969V99.0623C910.539 94.6668 907.767 89.8761 903.946 87.6684Z" fill="white" fill-opacity="0.47"/>
<path d="M835.374 84.8343L798.711 63.6676C797.811 63.148 796.755 63.4438 796.196 64.1772L766.084 104.952L821.206 137.03L838.099 123.334V89.548C838.099 87.6014 837.06 85.8039 835.374 84.8294V84.8343Z" fill="url(#paint45_linear_1906_3008)"/>
<path d="M778.611 49.2334L749.83 32.6162C748.706 31.9673 747.793 30.2271 747.793 28.7279V9.46555C747.793 7.96642 748.706 7.27777 749.83 7.92665L778.611 24.5438C779.735 25.1927 780.647 26.933 780.647 28.4321V47.6945C780.647 49.1936 779.735 49.8823 778.611 49.2334Z" fill="url(#paint46_linear_1906_3008)" stroke="#3292F1" stroke-width="0.248611" stroke-miterlimit="10"/>
<path d="M760.681 19.0072L751.341 13.6148C750.946 13.3861 750.623 12.772 750.623 12.245C750.623 11.7155 750.943 11.4743 751.341 11.703L760.681 17.0954C761.077 17.3241 761.4 17.9382 761.4 18.4652C761.4 18.9948 761.079 19.2359 760.681 19.0072Z" fill="url(#paint47_linear_1906_3008)"/>
<path d="M754.692 19.323L751.341 17.3888C750.946 17.1601 750.623 16.546 750.623 16.019C750.623 15.4894 750.943 15.2483 751.341 15.477L754.692 17.4112C755.088 17.6399 755.411 18.254 755.411 18.7811C755.411 19.3106 755.09 19.5517 754.692 19.323Z" fill="url(#paint48_linear_1906_3008)"/>
</g>
<path d="M1150.86 156.454L1007.43 73.6479C1001.83 70.4169 997.292 61.736 997.292 54.2695V-41.7155C997.292 -49.182 1001.83 -52.6154 1007.43 -49.3844L1150.86 33.4218C1156.46 36.6527 1161 45.3337 1161 52.8002V148.785C1161 156.252 1156.46 159.685 1150.86 156.454Z" fill="url(#paint49_linear_1906_3008)" stroke="#3292F1" stroke-width="0.749649" stroke-miterlimit="10"/>
<path d="M-8.85722 172.054L134.566 89.2476C140.165 86.0167 144.708 77.3357 144.708 69.8692V-26.1158C144.708 -33.5823 140.165 -37.0157 134.566 -33.7847L-8.85722 49.0215C-14.4571 52.2525 -19 60.9334 -19 68.3999V164.385C-19 171.851 -14.4571 175.285 -8.85722 172.054Z" fill="url(#paint50_linear_1906_3008)" stroke="#3292F1" stroke-width="0.749649" stroke-miterlimit="10"/>
<path d="M228.828 45C227.996 45 227.244 44.84 226.572 44.52C225.916 44.184 225.396 43.744 225.012 43.2C224.644 42.64 224.46 42.04 224.46 41.4C224.444 41.192 224.436 40.68 224.436 39.864H227.604L227.628 40.752C227.644 40.896 227.692 41 227.772 41.064C227.868 41.112 228.02 41.136 228.228 41.136H231.012C231.764 41.136 232.084 40.88 231.972 40.368L231.9 40.08L230.124 33.072L233.484 32.136L235.26 39.192C235.404 39.768 235.524 40.184 235.62 40.44C235.716 40.696 235.82 40.88 235.932 40.992C236.06 41.088 236.236 41.136 236.46 41.136H237.636L237.852 43.08L237.636 45H236.46C235.42 45 234.548 44.664 233.844 43.992C232.964 44.664 231.868 45 230.556 45H228.828ZM237.388 41.136H241.804C242.38 41.136 242.756 41.08 242.932 40.968C243.124 40.84 243.204 40.616 243.172 40.296L242.908 37.344L246.34 36.984L246.604 39.936L246.628 40.128C246.66 40.56 246.756 40.84 246.916 40.968C247.092 41.08 247.436 41.136 247.948 41.136L248.164 43.08L247.948 45C246.716 45 245.708 44.696 244.924 44.088C244.06 44.696 243.02 45 241.804 45H237.388V41.136ZM236.788 47.088H243.004V50.112H236.788V47.088ZM247.7 41.136H249.212C249.756 41.136 250.124 41.08 250.316 40.968C250.508 40.856 250.588 40.664 250.556 40.392V40.296L250.292 37.344L253.748 36.984L254.012 39.936V40.056C254.06 40.52 254.164 40.816 254.324 40.944C254.484 41.072 254.828 41.136 255.356 41.136L255.572 43.08L255.356 45C254.124 45 253.108 44.696 252.308 44.088C251.476 44.696 250.444 45 249.212 45H247.7V41.136ZM249.356 31.32H252.74V34.728H249.356V31.32ZM255.107 41.136H260.459C260.731 41.136 260.923 41.088 261.035 40.992C261.163 40.864 261.227 40.72 261.227 40.56C261.227 40.4 261.171 40.24 261.059 40.08L255.779 32.616L256.547 29.688L265.235 26.496L266.435 30.12L260.075 32.448L263.651 37.752C264.403 38.872 264.779 39.992 264.779 41.112C264.779 41.976 264.531 42.744 264.035 43.416C263.667 43.912 263.171 44.304 262.547 44.592C261.939 44.864 261.227 45 260.411 45H255.107V41.136ZM277.789 45C276.957 45 276.205 44.84 275.533 44.52C274.877 44.184 274.357 43.744 273.973 43.2C273.605 42.64 273.421 42.04 273.421 41.4C273.405 41.192 273.397 40.68 273.397 39.864H276.565L276.589 40.752C276.605 40.896 276.653 41 276.733 41.064C276.829 41.112 276.981 41.136 277.189 41.136H279.973C280.725 41.136 281.045 40.88 280.933 40.368L280.861 40.08L279.085 33.072L282.445 32.136L284.221 39.192C284.365 39.768 284.485 40.184 284.581 40.44C284.677 40.696 284.781 40.88 284.893 40.992C285.021 41.088 285.197 41.136 285.421 41.136H286.597L286.813 43.08L286.597 45H285.421C284.381 45 283.509 44.664 282.805 43.992C281.925 44.664 280.829 45 279.517 45H277.789ZM286.349 41.136H287.909H288.365C287.949 40.512 287.773 39.92 287.837 39.36L287.981 37.944C288.061 37.08 288.325 36.304 288.773 35.616C289.237 34.928 289.829 34.392 290.549 34.008C291.269 33.624 292.045 33.432 292.877 33.432C293.821 33.432 294.669 33.696 295.421 34.224C296.189 34.736 296.773 35.416 297.173 36.264C297.589 37.096 297.773 37.984 297.725 38.928L297.653 40.056C297.637 40.408 297.517 40.768 297.293 41.136H299.093L299.309 43.08L299.093 45H297.269C295.861 45 294.357 44.712 292.757 44.136C291.109 44.712 289.493 45 287.909 45H286.349V41.136ZM289.661 28.824H295.877V31.848H289.661V28.824ZM291.269 39.504C291.605 39.904 292.069 40.224 292.661 40.464C293.509 40.224 294.029 39.952 294.221 39.648L294.341 38.88C294.389 38.48 294.261 38.112 293.957 37.776C293.669 37.44 293.301 37.272 292.853 37.272C292.469 37.272 292.125 37.392 291.821 37.632C291.533 37.872 291.373 38.184 291.341 38.568L291.269 39.504ZM298.864 41.136H300.76C301.4 41.136 301.864 41.064 302.152 40.92C302.44 40.76 302.584 40.48 302.584 40.08C302.584 39.856 302.536 39.576 302.44 39.24L301.48 35.664L304.792 34.68L305.752 38.256C305.928 38.96 306.016 39.584 306.016 40.128C306.016 41.088 305.8 41.936 305.368 42.672C304.936 43.408 304.32 43.984 303.52 44.4C302.72 44.8 301.8 45 300.76 45H298.864V41.136ZM300.304 29.376H303.712V32.784H300.304V29.376ZM314.025 28.296L317.457 28.104L318.105 44.952L314.673 45.12L314.025 28.296ZM318.578 47.4L320.234 46.944C321.29 46.64 322.01 46.344 322.394 46.056C322.794 45.768 322.994 45.344 322.994 44.784C322.994 44.688 322.978 44.512 322.946 44.256L321.986 37.368L325.37 36.864L326.066 41.856L326.33 43.824C326.394 44.224 326.426 44.648 326.426 45.096C326.426 46.584 326.002 47.752 325.154 48.6C324.306 49.464 322.97 50.152 321.146 50.664L319.49 51.12L318.578 47.4ZM338.375 45C337.543 45 336.791 44.84 336.119 44.52C335.463 44.184 334.943 43.744 334.559 43.2C334.191 42.64 334.007 42.04 334.007 41.4C333.991 41.192 333.983 40.68 333.983 39.864H337.151L337.175 40.752C337.191 40.896 337.239 41 337.319 41.064C337.415 41.112 337.567 41.136 337.775 41.136H340.895C341.535 41.136 341.855 40.944 341.855 40.56C341.855 40.384 341.823 40.224 341.759 40.08C341.471 39.312 340.983 38.352 340.295 37.2C339.623 36.048 338.895 34.904 338.111 33.768L340.895 31.488C341.855 32.8 342.727 34.16 343.511 35.568C344.311 36.96 344.839 38.168 345.095 39.192C345.207 39.64 345.263 40.112 345.263 40.608C345.263 41.44 345.063 42.192 344.663 42.864C344.279 43.52 343.719 44.04 342.983 44.424C342.263 44.808 341.407 45 340.415 45H338.375ZM349.156 47.376C350.9 47.008 352.132 46.72 352.852 46.512C353.588 46.32 354.116 46.112 354.436 45.888C354.756 45.68 354.932 45.384 354.964 45H352.588C351.628 45 350.78 44.792 350.044 44.376C349.324 43.944 348.764 43.336 348.364 42.552C347.964 41.768 347.764 40.856 347.764 39.816C347.764 38.84 347.98 37.928 348.412 37.08C348.844 36.216 349.436 35.528 350.188 35.016C350.956 34.504 351.812 34.248 352.756 34.248C353.668 34.248 354.492 34.496 355.228 34.992C355.98 35.488 356.588 36.176 357.052 37.056C357.532 37.92 357.836 38.904 357.964 40.008L358.084 41.136H359.428L359.644 43.08L359.428 45H359.356H358.444C358.444 46.232 358.156 47.216 357.58 47.952C357.004 48.688 356.116 49.288 354.916 49.752C353.732 50.216 352.044 50.68 349.852 51.144L349.156 47.376ZM351.22 39.888C351.22 40.352 351.316 40.68 351.508 40.872C351.7 41.048 352.06 41.136 352.588 41.136H354.604L354.532 40.416C354.452 39.648 354.252 39.072 353.932 38.688C353.628 38.304 353.228 38.112 352.732 38.112C352.268 38.112 351.9 38.28 351.628 38.616C351.356 38.952 351.22 39.376 351.22 39.888ZM359.192 41.136H359.769C361.193 41.136 362.441 41.104 363.513 41.04C364.585 40.96 365.609 40.8 366.585 40.56L370.641 39.6L367.161 37.92C366.841 37.76 366.481 37.68 366.081 37.68C365.697 37.68 365.345 37.768 365.025 37.944C364.705 38.12 364.449 38.384 364.257 38.736L363.849 39.48L360.849 37.584L361.329 36.744C361.857 35.784 362.529 35.048 363.345 34.536C364.177 34.024 365.065 33.768 366.009 33.768C367.001 33.768 367.937 34.024 368.817 34.536L374.865 37.992L374.385 42.432L367.425 44.28C366.257 44.584 365.049 44.784 363.801 44.88C362.553 44.96 361.201 45 359.745 45H359.192V41.136ZM364.089 28.296H367.497V31.68H364.089V28.296ZM512.808 50.664C512.088 50.84 511.328 50.928 510.528 50.928C509.168 50.928 507.984 50.616 506.976 49.992C505.984 49.384 505.224 48.512 504.696 47.376C504.168 46.256 503.904 44.952 503.904 43.464C503.904 41.816 504.216 40.104 504.84 38.328L508.104 39.624C507.576 41.128 507.312 42.432 507.312 43.536C507.312 44.672 507.584 45.544 508.128 46.152C508.688 46.76 509.488 47.064 510.528 47.064C511.024 47.064 511.52 47.008 512.016 46.896C513.152 46.64 513.984 46.416 514.512 46.224C515.04 46.032 515.392 45.808 515.568 45.552C515.744 45.296 515.808 44.952 515.76 44.52C515.728 44.408 515.6 44.304 515.376 44.208L512.688 43.344L513.744 39.672C516.096 40.328 517.616 40.736 518.304 40.896C518.992 41.056 519.616 41.136 520.176 41.136L520.392 43.08L520.176 45L519.192 44.976C519.192 46.464 518.68 47.656 517.656 48.552C516.648 49.448 515.032 50.152 512.808 50.664ZM519.927 41.136H524.343C524.919 41.136 525.295 41.08 525.471 40.968C525.663 40.84 525.743 40.616 525.711 40.296L525.447 37.344L528.879 36.984L529.143 39.936L529.167 40.128C529.199 40.56 529.295 40.84 529.455 40.968C529.631 41.08 529.975 41.136 530.487 41.136L530.703 43.08L530.487 45C529.255 45 528.247 44.696 527.463 44.088C526.599 44.696 525.559 45 524.343 45H519.927V41.136ZM520.839 31.536H527.079V34.56H520.839V31.536ZM530.239 41.136H530.815C532.239 41.136 533.487 41.104 534.559 41.04C535.631 40.96 536.655 40.8 537.631 40.56L541.687 39.6L538.207 37.92C537.887 37.76 537.527 37.68 537.127 37.68C536.743 37.68 536.391 37.768 536.071 37.944C535.751 38.12 535.495 38.384 535.303 38.736L534.895 39.48L531.895 37.584L532.375 36.744C532.903 35.784 533.575 35.048 534.391 34.536C535.223 34.024 536.111 33.768 537.055 33.768C538.047 33.768 538.983 34.024 539.863 34.536L545.911 37.992L545.431 42.432L538.471 44.28C537.303 44.584 536.095 44.784 534.847 44.88C533.599 44.96 532.247 45 530.791 45H530.239V41.136ZM548.845 28.296L552.277 28.104L552.925 44.952L549.493 45.12L548.845 28.296ZM553.398 47.4L555.054 46.944C556.11 46.64 556.83 46.344 557.214 46.056C557.614 45.768 557.814 45.344 557.814 44.784C557.814 44.688 557.798 44.512 557.766 44.256L556.806 37.368L560.19 36.864L560.886 41.856L561.15 43.824C561.214 44.224 561.246 44.648 561.246 45.096C561.246 46.584 560.822 47.752 559.974 48.6C559.126 49.464 557.79 50.152 555.966 50.664L554.31 51.12L553.398 47.4ZM573.819 43.224C573.723 43.24 573.579 43.248 573.387 43.248C572.475 43.248 571.587 42.92 570.723 42.264C569.875 41.608 569.291 40.808 568.971 39.864C568.811 39.384 568.731 38.88 568.731 38.352C568.731 37.296 569.027 36.328 569.619 35.448C570.227 34.552 571.011 33.952 571.971 33.648L574.947 32.664V31.896H578.379V39.312C578.379 39.824 578.579 40.256 578.979 40.608C579.379 40.96 579.867 41.136 580.443 41.136H580.899L581.115 43.08L580.899 45H580.443C579.579 45 578.771 44.808 578.019 44.424C577.283 44.04 576.659 43.52 576.147 42.864L573.819 43.224ZM572.211 38.496C572.259 38.768 572.411 39 572.667 39.192C572.923 39.384 573.203 39.448 573.507 39.384L574.947 39.144V36.48L573.051 37.128C572.763 37.224 572.547 37.376 572.403 37.584C572.259 37.776 572.187 37.992 572.187 38.232C572.187 38.344 572.195 38.432 572.211 38.496ZM580.653 41.136H582.549C583.189 41.136 583.653 41.064 583.941 40.92C584.229 40.76 584.373 40.48 584.373 40.08C584.373 39.856 584.325 39.576 584.229 39.24L583.269 35.664L586.581 34.68L587.541 38.256C587.717 38.96 587.805 39.584 587.805 40.128C587.805 41.088 587.589 41.936 587.157 42.672C586.725 43.408 586.109 43.984 585.309 44.4C584.509 44.8 583.589 45 582.549 45H580.653V41.136ZM580.845 46.872H584.229V50.28H580.845V46.872Z" fill="white"/>
<path d="M391.284 50.664C390.564 50.84 389.812 50.928 389.028 50.928C387.668 50.928 386.484 50.616 385.476 49.992C384.484 49.384 383.716 48.512 383.172 47.376C382.644 46.256 382.38 44.944 382.38 43.44C382.38 41.808 382.692 40.104 383.316 38.328L386.58 39.624C386.052 41.128 385.788 42.44 385.788 43.56C385.788 44.696 386.06 45.568 386.604 46.176C387.164 46.784 387.956 47.088 388.98 47.088C389.396 47.088 389.9 47.024 390.492 46.896C393.068 46.304 394.356 45.944 394.356 45.816C394.356 45.784 394.244 45.736 394.02 45.672C393.796 45.608 393.628 45.56 393.516 45.528C392.812 45.352 392.204 45.176 391.692 45C390.572 44.584 389.732 44.088 389.172 43.512C388.612 42.936 388.332 42.176 388.332 41.232C388.332 40.592 388.444 39.912 388.668 39.192C389.116 37.736 389.852 36.544 390.876 35.616C391.916 34.688 393.108 34.224 394.452 34.224C394.948 34.224 395.444 34.296 395.94 34.44L397.5 34.872L396.612 38.592L395.052 38.16C394.844 38.096 394.62 38.064 394.38 38.064C393.692 38.064 393.148 38.312 392.748 38.808C392.364 39.304 392.1 39.776 391.956 40.224C391.908 40.368 391.884 40.496 391.884 40.608C391.884 40.8 391.98 40.96 392.172 41.088C392.364 41.2 392.748 41.352 393.324 41.544L393.996 41.76C394.908 42.048 395.588 42.288 396.036 42.48C396.5 42.672 396.876 42.944 397.164 43.296C397.452 43.648 397.66 44.136 397.788 44.76C397.836 45.032 397.86 45.28 397.86 45.504C397.86 46.72 397.276 47.768 396.108 48.648C394.956 49.528 393.348 50.2 391.284 50.664ZM399.039 47.4L400.695 46.944C401.751 46.64 402.471 46.344 402.855 46.056C403.255 45.768 403.455 45.344 403.455 44.784C403.455 44.688 403.439 44.512 403.407 44.256L402.447 37.368L405.831 36.864L406.527 41.856L406.791 43.824C406.855 44.224 406.887 44.648 406.887 45.096C406.887 46.584 406.463 47.752 405.615 48.6C404.767 49.464 403.431 50.152 401.607 50.664L399.951 51.12L399.039 47.4ZM409.95 41.136H415.974C416.518 41.136 416.878 41.056 417.054 40.896C417.246 40.736 417.334 40.496 417.318 40.176L416.862 28.296L420.318 28.104L420.774 40.008C420.822 40.952 420.654 41.8 420.27 42.552C419.886 43.304 419.326 43.904 418.59 44.352C417.854 44.784 416.982 45 415.974 45H409.95V41.136ZM411.99 29.088L414.006 39.408L410.646 40.104L408.63 29.76L411.99 29.088ZM427.648 45C426.816 45 426.064 44.84 425.392 44.52C424.736 44.184 424.216 43.744 423.832 43.2C423.464 42.64 423.28 42.04 423.28 41.4C423.264 41.192 423.256 40.68 423.256 39.864H426.424L426.448 40.752C426.464 40.896 426.512 41 426.592 41.064C426.688 41.112 426.84 41.136 427.048 41.136H430.168C430.808 41.136 431.128 40.944 431.128 40.56C431.128 40.384 431.096 40.224 431.032 40.08C430.744 39.312 430.256 38.352 429.568 37.2C428.896 36.048 428.168 34.904 427.384 33.768L430.168 31.488C431.128 32.8 432 34.16 432.784 35.568C433.584 36.96 434.112 38.168 434.368 39.192C434.48 39.64 434.536 40.112 434.536 40.608C434.536 41.44 434.336 42.192 433.936 42.864C433.552 43.52 432.992 44.04 432.256 44.424C431.536 44.808 430.68 45 429.688 45H427.648ZM446.516 45C445.684 45 444.932 44.84 444.26 44.52C443.604 44.184 443.084 43.744 442.7 43.2C442.332 42.64 442.148 42.04 442.148 41.4C442.132 41.192 442.124 40.68 442.124 39.864H445.292L445.316 40.752C445.332 40.896 445.38 41 445.46 41.064C445.556 41.112 445.708 41.136 445.916 41.136H448.7C449.452 41.136 449.772 40.88 449.66 40.368L449.588 40.08L447.812 33.072L451.172 32.136L452.948 39.192C453.092 39.768 453.212 40.184 453.308 40.44C453.404 40.696 453.508 40.88 453.62 40.992C453.748 41.088 453.924 41.136 454.148 41.136H455.324L455.54 43.08L455.324 45H454.148C453.108 45 452.236 44.664 451.532 43.992C450.652 44.664 449.556 45 448.244 45H446.516ZM455.075 41.136H455.339C455.691 41.136 456.011 41.064 456.299 40.92C456.587 40.776 456.803 40.576 456.947 40.32L458.795 36.744C459.163 36.024 459.699 35.464 460.403 35.064C461.107 34.648 461.867 34.44 462.683 34.44C463.419 34.44 464.107 34.608 464.747 34.944C466.315 35.792 467.099 37.144 467.099 39C467.099 40.2 466.763 41.536 466.091 43.008C465.787 43.68 465.355 44.2 464.795 44.568C464.251 44.936 463.659 45.12 463.019 45.12C462.475 45.12 461.955 44.992 461.459 44.736L458.915 43.416C457.955 44.472 456.763 45 455.339 45H455.075V41.136ZM463.499 41.424L463.835 40.704C464.011 40.304 464.099 39.912 464.099 39.528C464.099 38.888 463.851 38.448 463.355 38.208C463.163 38.112 462.955 38.064 462.731 38.064C462.459 38.064 462.195 38.144 461.939 38.304C461.699 38.464 461.507 38.696 461.363 39L460.811 40.08L463.499 41.424ZM470.22 30.672L473.652 30.504L474.18 44.952L470.748 45.12L470.22 30.672ZM468.156 29.256C468.156 28.536 468.372 27.96 468.804 27.528C469.236 27.08 469.788 26.856 470.46 26.856C470.572 26.856 470.756 26.872 471.012 26.904L473.436 27.36C473.516 27.376 473.62 27.384 473.748 27.384C474.1 27.384 474.276 27.232 474.276 26.928V26.832L476.004 26.712V27.312C476.004 28.032 475.788 28.608 475.356 29.04C474.94 29.472 474.396 29.688 473.724 29.688C473.468 29.688 473.276 29.672 473.148 29.64L470.724 29.184C470.66 29.168 470.572 29.16 470.46 29.16C470.076 29.16 469.884 29.32 469.884 29.64V29.712L468.156 29.856V29.256ZM474.766 47.4L476.422 46.944C477.478 46.64 478.198 46.344 478.582 46.056C478.982 45.768 479.182 45.344 479.182 44.784C479.182 44.688 479.166 44.512 479.134 44.256L478.174 37.368L481.558 36.864L482.254 41.856L482.518 43.824C482.582 44.224 482.614 44.648 482.614 45.096C482.614 46.584 482.19 47.752 481.342 48.6C480.494 49.464 479.158 50.152 477.334 50.664L475.678 51.12L474.766 47.4ZM489.477 45C488.645 45 487.893 44.84 487.221 44.52C486.565 44.184 486.045 43.744 485.661 43.2C485.293 42.64 485.109 42.04 485.109 41.4C485.093 41.192 485.085 40.68 485.085 39.864H488.253L488.277 40.752C488.293 40.896 488.341 41 488.421 41.064C488.517 41.112 488.669 41.136 488.877 41.136H491.997C492.637 41.136 492.957 40.944 492.957 40.56C492.957 40.384 492.925 40.224 492.861 40.08C492.573 39.312 492.085 38.352 491.397 37.2C490.725 36.048 489.997 34.904 489.213 33.768L491.997 31.488C492.957 32.8 493.829 34.16 494.613 35.568C495.413 36.96 495.941 38.168 496.197 39.192C496.309 39.64 496.365 40.112 496.365 40.608C496.365 41.44 496.165 42.192 495.765 42.864C495.381 43.52 494.821 44.04 494.085 44.424C493.365 44.808 492.509 45 491.517 45H489.477Z" fill="#3292F1"/>
<rect x="483" y="65" width="105.585" height="39.4309" rx="8.6748" fill="white"/>
<path d="M496.406 84.7155L495.849 84.1578L495.291 84.7155L495.849 85.2731L496.406 84.7155ZM508.236 85.5041C508.671 85.5041 509.024 85.151 509.024 84.7155C509.024 84.2799 508.671 83.9269 508.236 83.9269V85.5041ZM500.581 79.4261L495.849 84.1578L496.964 85.2731L501.696 80.5414L500.581 79.4261ZM495.849 85.2731L500.581 90.0048L501.696 88.8895L496.964 84.1578L495.849 85.2731ZM496.406 85.5041H508.236V83.9269H496.406V85.5041Z" fill="#3292F1"/>
<path d="M528.422 88.252C527.799 88.252 527.29 88.046 526.895 87.6338C526.499 88.046 525.978 88.252 525.33 88.252C524.977 88.252 524.657 88.1805 524.371 88.0375C524.38 88.1048 524.384 88.2016 524.384 88.3278C524.384 88.8998 524.253 89.3708 523.993 89.741C523.74 90.1195 523.383 90.4181 522.92 90.6368C522.457 90.8639 521.873 91.0616 521.166 91.2299C520.746 91.3224 520.363 91.3687 520.018 91.3687C519.345 91.3687 518.76 91.2172 518.264 90.9144C517.776 90.6116 517.398 90.1826 517.128 89.6274C516.868 89.0722 516.737 88.4245 516.737 87.6842C516.737 86.8767 516.901 86.0019 517.229 85.0597L518.542 85.5897C518.264 86.372 518.125 87.0828 518.125 87.7221C518.125 88.395 518.285 88.9124 518.605 89.2741C518.933 89.6358 519.4 89.8167 520.005 89.8167C520.3 89.8167 520.582 89.783 520.851 89.7157C521.431 89.5811 521.856 89.4676 522.125 89.375C522.403 89.2825 522.617 89.1521 522.769 88.9839C522.92 88.8156 522.996 88.5801 522.996 88.2773C522.996 88.21 522.987 88.0922 522.971 87.924L522.466 84.4667L523.829 84.2396L524.043 85.6906C524.144 86.0692 524.287 86.3341 524.472 86.4855C524.666 86.6285 524.952 86.7 525.33 86.7C525.7 86.7 525.948 86.6327 526.075 86.4982C526.201 86.3552 526.264 86.1659 526.264 85.9304V84.3657H527.551V85.9304C527.551 86.1995 527.618 86.3972 527.753 86.5234C527.896 86.6412 528.119 86.7 528.422 86.7C528.716 86.7 528.943 86.6454 529.103 86.536C529.271 86.4182 529.355 86.2206 529.355 85.943C529.355 85.842 529.326 85.6654 529.267 85.413L528.762 83.533L530.087 83.1292L530.592 85.0092C530.684 85.3625 530.731 85.678 530.731 85.9556C530.731 86.4182 530.63 86.822 530.428 87.1669C530.226 87.5118 529.948 87.781 529.595 87.9745C529.25 88.1595 528.859 88.252 528.422 88.252ZM524.838 81.3627H526.289L526.302 82.8137H524.838V81.3627ZM526.163 79.5583H527.475V80.7823H526.163V79.5583ZM527.324 81.3627H528.775V82.8137H527.311L527.324 81.3627ZM530.314 89.9807L531.008 89.7914C531.437 89.6737 531.773 89.5601 532.017 89.4507C532.261 89.3498 532.451 89.211 532.585 89.0344C532.72 88.8661 532.787 88.6432 532.787 88.3656C532.787 88.3067 532.779 88.21 532.762 88.0754L532.257 84.4541L533.62 84.2396L533.986 86.9019L534.124 87.8987C534.15 88.109 534.162 88.3067 534.162 88.4918C534.162 89.2573 533.931 89.8503 533.468 90.2709C533.006 90.6915 532.308 91.0322 531.374 91.293L530.68 91.4822L530.314 89.9807ZM538.01 88.252C537.421 88.252 536.954 88.1637 536.609 87.9871C536.273 87.8104 536.025 87.5244 535.865 87.1291C535.705 86.7337 535.608 86.1953 535.575 85.514L535.348 79.7097L536.736 79.634L536.963 85.514C536.98 85.8925 537.009 86.1617 537.051 86.3215C537.102 86.4729 537.194 86.5739 537.329 86.6243C537.463 86.6748 537.69 86.7 538.01 86.7H538.136L538.225 87.4824L538.136 88.252H538.01ZM538.014 86.7H538.796C538.998 86.7 539.225 86.6874 539.477 86.6622C539.099 86.2668 538.926 85.8967 538.96 85.5518L539.036 84.8074C539.069 84.3952 539.196 84.0251 539.414 83.697C539.641 83.3689 539.927 83.1124 540.272 82.9273C540.626 82.7422 541.004 82.6497 541.408 82.6497C541.879 82.6497 542.295 82.7759 542.657 83.0282C543.019 83.2806 543.296 83.6129 543.49 84.0251C543.683 84.4288 543.768 84.8536 543.742 85.2995L543.704 85.8673C543.696 86.1364 543.553 86.4098 543.275 86.6874C543.368 86.6958 543.515 86.7 543.717 86.7H544.613L544.701 87.4824L544.613 88.252H543.717C542.952 88.252 542.161 88.0964 541.345 87.7852C540.453 88.0964 539.604 88.252 538.796 88.252H538.014V86.7ZM540.348 85.6023C540.407 85.7116 540.516 85.8294 540.676 85.9556C540.836 86.0734 541.038 86.1827 541.282 86.2837C541.879 86.0986 542.224 85.9051 542.316 85.7032L542.38 85.2742C542.405 85.005 542.325 84.7569 542.14 84.5298C541.955 84.3026 541.707 84.1891 541.395 84.1891C541.135 84.1891 540.907 84.2732 540.714 84.4414C540.521 84.6013 540.411 84.8074 540.386 85.0597L540.348 85.6023ZM540.664 80.2018H542.19V81.7286H540.664V80.2018ZM551.246 88.252C550.624 88.252 550.115 88.046 549.719 87.6338C549.324 88.046 548.802 88.252 548.155 88.252C547.557 88.252 547.057 88.0417 546.653 87.6212C546.258 88.0417 545.732 88.252 545.076 88.252H544.483V86.7H545.076C545.446 86.7 545.69 86.6327 545.808 86.4982C545.934 86.3636 545.997 86.1743 545.997 85.9304V84.3657H547.297V85.9304V85.9682C547.297 86.1953 547.368 86.3762 547.511 86.5108C547.654 86.637 547.869 86.7 548.155 86.7C548.508 86.7 548.748 86.637 548.874 86.5108C549.009 86.3762 549.08 86.1995 549.088 85.9808V85.9304V84.3657H550.375V85.9304V85.9682C550.375 86.4561 550.666 86.7 551.246 86.7C551.54 86.7 551.768 86.6454 551.927 86.536C552.096 86.4182 552.18 86.2206 552.18 85.943C552.18 85.8336 552.15 85.6528 552.091 85.4004L551.587 83.5203L552.912 83.1292L553.416 85.0092C553.509 85.3625 553.555 85.678 553.555 85.9556C553.555 86.4182 553.454 86.822 553.252 87.1669C553.05 87.5118 552.773 87.781 552.42 87.9745C552.075 88.1595 551.683 88.252 551.246 88.252ZM563.082 88.252C562.132 88.252 561.417 88.2436 560.937 88.2268C560.458 88.21 560.088 88.1763 559.827 88.1259C559.566 88.0754 559.314 87.9997 559.07 87.8987C558.649 87.7137 558.325 87.4445 558.098 87.0912C557.879 86.7295 557.77 86.3131 557.77 85.842C557.77 85.5981 557.812 85.3079 557.896 84.9714L558.363 83.1544L559.701 83.5456L559.209 85.4256C559.166 85.6107 559.145 85.7495 559.145 85.842C559.145 85.9934 559.183 86.1196 559.259 86.2206C559.335 86.3215 559.457 86.4098 559.625 86.4855C559.81 86.5697 560.113 86.6285 560.533 86.6622C560.954 86.6874 561.825 86.7 563.145 86.7H566.123C566.468 86.7 566.712 86.6454 566.855 86.536C566.998 86.4267 567.061 86.2584 567.044 86.0313V85.9934L566.905 84.4414L568.293 84.3026L568.432 85.8546V85.8925C568.466 86.2122 568.542 86.4267 568.659 86.536C568.786 86.6454 569.017 86.7 569.353 86.7H569.492L569.58 87.4824L569.492 88.252H569.353C568.68 88.252 568.15 88.0712 567.763 87.7095C567.334 88.0712 566.788 88.252 566.123 88.252H563.145H563.082ZM561.278 82.3216H562.628V83.6844H561.278V82.3216ZM563.751 82.3216H565.101V83.6844H563.751V82.3216ZM569.349 86.7H570.144C570.489 86.7 570.733 86.6454 570.876 86.536C571.019 86.4267 571.082 86.2584 571.065 86.0313V85.9934L570.926 84.4414L572.314 84.3026L572.453 85.8546V85.8925C572.487 86.2122 572.562 86.4267 572.68 86.536C572.806 86.6454 573.038 86.7 573.374 86.7L573.462 87.4824L573.374 88.252C572.684 88.252 572.154 88.0712 571.784 87.7095C571.372 88.0712 570.825 88.252 570.144 88.252H569.349V86.7ZM569.299 89.3119H570.825V90.8387H569.299V89.3119ZM573.243 86.7H575.135C575.514 86.7 575.8 86.6412 575.993 86.5234C576.195 86.4056 576.296 86.1995 576.296 85.9051C576.296 85.7537 576.271 85.5855 576.221 85.4004L575.729 83.5203L577.053 83.1292L577.571 85.085C577.655 85.3878 577.697 85.678 577.697 85.9556C577.697 86.4267 577.583 86.8346 577.356 87.1795C577.138 87.5244 576.83 87.7894 576.435 87.9745C576.048 88.1595 575.615 88.252 575.135 88.252H573.243V86.7ZM573.659 80.5299H575.11L575.123 81.9936H573.647L573.659 80.5299ZM574.984 78.7255H576.284V79.9495H574.984V78.7255ZM576.132 80.5299H577.583L577.596 81.9936H576.132V80.5299Z" fill="#3292F1"/>
</g>
</g>
<defs>
<filter id="filter0_d_1906_3008" x="0" y="0" width="1132" height="125" filterUnits="userSpaceOnUse" color-interpolation-filters="sRGB">
<feFlood flood-opacity="0" result="BackgroundImageFix"/>
<feColorMatrix in="SourceAlpha" type="matrix" values="0 0 0 0 0 0 0 0 0 0 0 0 0 0 0 0 0 0 127 0" result="hardAlpha"/>
<feOffset dy="1"/>
<feGaussianBlur stdDeviation="1"/>
<feComposite in2="hardAlpha" operator="out"/>
<feColorMatrix type="matrix" values="0 0 0 0 0 0 0 0 0 0 0 0 0 0 0 0 0 0 0.05 0"/>
<feBlend mode="normal" in2="BackgroundImageFix" result="effect1_dropShadow_1906_3008"/>
<feBlend mode="normal" in="SourceGraphic" in2="effect1_dropShadow_1906_3008" result="shape"/>
</filter>
<filter id="filter1_d_1906_3008" x="620.607" y="-24" width="364.787" height="261.365" filterUnits="userSpaceOnUse" color-interpolation-filters="sRGB">
<feFlood flood-opacity="0" result="BackgroundImageFix"/>
<feColorMatrix in="SourceAlpha" type="matrix" values="0 0 0 0 0 0 0 0 0 0 0 0 0 0 0 0 0 0 127 0" result="hardAlpha"/>
<feOffset dy="3.39336"/>
<feGaussianBlur stdDeviation="1.69668"/>
<feComposite in2="hardAlpha" operator="out"/>
<feColorMatrix type="matrix" values="0 0 0 0 0 0 0 0 0 0 0 0 0 0 0 0 0 0 0.25 0"/>
<feBlend mode="normal" in2="BackgroundImageFix" result="effect1_dropShadow_1906_3008"/>
<feBlend mode="normal" in="SourceGraphic" in2="effect1_dropShadow_1906_3008" result="shape"/>
</filter>
<linearGradient id="paint0_linear_1906_3008" x1="725.299" y1="32.5243" x2="725.299" y2="111.24" gradientUnits="userSpaceOnUse">
<stop stop-color="#82B8DB"/>
<stop offset="0.25" stop-color="#9CC7E2"/>
<stop offset="0.77" stop-color="#DFEDF6"/>
<stop offset="1" stop-color="white"/>
</linearGradient>
<linearGradient id="paint1_linear_1906_3008" x1="725.299" y1="33.3794" x2="725.299" y2="83.7406" gradientUnits="userSpaceOnUse">
<stop stop-color="#82B8DB"/>
<stop offset="0.25" stop-color="#9CC7E2"/>
<stop offset="0.77" stop-color="#DFEDF6"/>
<stop offset="1" stop-color="white"/>
</linearGradient>
<linearGradient id="paint2_linear_1906_3008" x1="725.21" y1="64.5577" x2="725.21" y2="105.069" gradientUnits="userSpaceOnUse">
<stop stop-color="#00A3FF" stop-opacity="0"/>
<stop offset="0.28" stop-color="#00A3FF" stop-opacity="0.3"/>
<stop offset="0.63" stop-color="#00A3FF" stop-opacity="0.67"/>
<stop offset="0.88" stop-color="#00A3FF" stop-opacity="0.91"/>
<stop offset="1" stop-color="#00A3FF"/>
</linearGradient>
<linearGradient id="paint3_linear_1906_3008" x1="725.289" y1="55.364" x2="725.289" y2="91.6612" gradientUnits="userSpaceOnUse">
<stop stop-color="#82B8DB"/>
<stop offset="0.25" stop-color="#9CC7E2"/>
<stop offset="0.77" stop-color="#DFEDF6"/>
<stop offset="1" stop-color="white"/>
</linearGradient>
<linearGradient id="paint4_linear_1906_3008" x1="725.299" y1="58.0964" x2="725.299" y2="94.1226" gradientUnits="userSpaceOnUse">
<stop stop-color="#12223A"/>
<stop offset="0.61" stop-color="#3B4A5C"/>
<stop offset="1" stop-color="#525F6F"/>
</linearGradient>
<linearGradient id="paint5_linear_1906_3008" x1="721.008" y1="77.6572" x2="730.386" y2="60.8632" gradientUnits="userSpaceOnUse">
<stop stop-color="#12223A"/>
<stop offset="0.61" stop-color="#3B4A5C"/>
<stop offset="1" stop-color="#525F6F"/>
</linearGradient>
<linearGradient id="paint6_linear_1906_3008" x1="719.756" y1="81.3262" x2="729.638" y2="63.6314" gradientUnits="userSpaceOnUse">
<stop stop-color="#12223A"/>
<stop offset="0.61" stop-color="#3B4A5C"/>
<stop offset="1" stop-color="#525F6F"/>
</linearGradient>
<linearGradient id="paint7_linear_1906_3008" x1="719.603" y1="80.529" x2="730.819" y2="60.4444" gradientUnits="userSpaceOnUse">
<stop offset="0.56" stop-color="#C3E1FB"/>
<stop offset="0.64" stop-color="#BCDFFA"/>
<stop offset="0.76" stop-color="#A9DAFA"/>
<stop offset="0.89" stop-color="#8BD1F9"/>
<stop offset="1" stop-color="#6ECAF9"/>
</linearGradient>
<linearGradient id="paint8_linear_1906_3008" x1="722.067" y1="66.2663" x2="730.583" y2="66.2668" gradientUnits="userSpaceOnUse">
<stop stop-color="#4693CA"/>
<stop offset="0.29" stop-color="#6BB0D7"/>
<stop offset="0.77" stop-color="#82B9EB"/>
<stop offset="1" stop-color="#82C4F3"/>
</linearGradient>
<linearGradient id="paint9_linear_1906_3008" x1="725.152" y1="69.6349" x2="737.49" y2="69.6341" gradientUnits="userSpaceOnUse">
<stop stop-color="#4693CA"/>
<stop offset="0.29" stop-color="#6BB0D7"/>
<stop offset="0.77" stop-color="#82BFEB"/>
<stop offset="1" stop-color="#82D1F3"/>
</linearGradient>
<linearGradient id="paint10_linear_1906_3008" x1="727.056" y1="73.8844" x2="737.324" y2="73.8837" gradientUnits="userSpaceOnUse">
<stop stop-color="#469ACA"/>
<stop offset="0.29" stop-color="#6BAAD7"/>
<stop offset="0.77" stop-color="#82B9EB"/>
<stop offset="1" stop-color="#82BDF3"/>
</linearGradient>
<linearGradient id="paint11_linear_1906_3008" x1="713.11" y1="68.7788" x2="723.377" y2="68.7802" gradientUnits="userSpaceOnUse">
<stop stop-color="#469ACA"/>
<stop offset="0.29" stop-color="#6BB0D7"/>
<stop offset="0.77" stop-color="#82BFEB"/>
<stop offset="1" stop-color="#82C4F3"/>
</linearGradient>
<linearGradient id="paint12_linear_1906_3008" x1="712.907" y1="72.4245" x2="725.274" y2="72.425" gradientUnits="userSpaceOnUse">
<stop stop-color="#4693CA"/>
<stop offset="0.29" stop-color="#6BAAD7"/>
<stop offset="0.77" stop-color="#82C5EB"/>
<stop offset="1" stop-color="#82C4F3"/>
</linearGradient>
<linearGradient id="paint13_linear_1906_3008" x1="719.85" y1="75.6866" x2="728.08" y2="75.6863" gradientUnits="userSpaceOnUse">
<stop stop-color="#469ACA"/>
<stop offset="0.29" stop-color="#6BAAD7"/>
<stop offset="0.77" stop-color="#82CCEB"/>
<stop offset="1" stop-color="#82BDF3"/>
</linearGradient>
<linearGradient id="paint14_linear_1906_3008" x1="725.006" y1="78.2858" x2="725.006" y2="35.0797" gradientUnits="userSpaceOnUse">
<stop stop-color="#00A3FF"/>
<stop offset="0.11" stop-color="#00A3FF" stop-opacity="0.77"/>
<stop offset="0.23" stop-color="#A3E00A" stop-opacity="0.247059"/>
<stop offset="0.35" stop-color="#00A3FF" stop-opacity="0.39"/>
<stop offset="0.47" stop-color="#00A3FF" stop-opacity="0"/>
<stop offset="0.6" stop-color="#00A3FF" stop-opacity="0.14"/>
<stop offset="0.72" stop-color="#00A3FF" stop-opacity="0.06"/>
<stop offset="0.85" stop-color="#00A3FF" stop-opacity="0.02"/>
<stop offset="1" stop-color="#00A3FF" stop-opacity="0"/>
</linearGradient>
<linearGradient id="paint15_linear_1906_3008" x1="725.006" y1="77.0106" x2="725.006" y2="44.0199" gradientUnits="userSpaceOnUse">
<stop stop-color="#00A3FF"/>
<stop offset="0.11" stop-color="#00A3FF" stop-opacity="0.77"/>
<stop offset="0.23" stop-color="#00A3FF" stop-opacity="0.57"/>
<stop offset="0.35" stop-color="#00A3FF" stop-opacity="0.39"/>
<stop offset="0.47" stop-color="#00A3FF" stop-opacity="0.25"/>
<stop offset="0.6" stop-color="#00A3FF" stop-opacity="0.14"/>
<stop offset="0.72" stop-color="#00A3FF" stop-opacity="0.06"/>
<stop offset="0.85" stop-color="#00A3FF" stop-opacity="0.02"/>
<stop offset="1" stop-color="#00A3FF" stop-opacity="0"/>
</linearGradient>
<linearGradient id="paint16_linear_1906_3008" x1="897.487" y1="9.14723" x2="993.734" y2="134.659" gradientUnits="userSpaceOnUse">
<stop stop-color="#4693CA" stop-opacity="0"/>
<stop offset="0.28" stop-color="#68A1D6" stop-opacity="0.3"/>
<stop offset="0.63" stop-color="#82C1E5" stop-opacity="0.67"/>
<stop offset="0.88" stop-color="#82C1EF" stop-opacity="0.91"/>
<stop offset="1" stop-color="#82BDF3"/>
</linearGradient>
<linearGradient id="paint17_linear_1906_3008" x1="1040.21" y1="-21.6968" x2="1004.91" y2="-78.3651" gradientUnits="userSpaceOnUse">
<stop stop-color="#468BCA"/>
<stop offset="0.29" stop-color="#6BB0D7"/>
<stop offset="0.77" stop-color="#82CCEB"/>
<stop offset="1" stop-color="#82CAF3"/>
</linearGradient>
<linearGradient id="paint18_linear_1906_3008" x1="1035.15" y1="-18.5423" x2="999.844" y2="-75.2095" gradientUnits="userSpaceOnUse">
<stop stop-color="#4693CA"/>
<stop offset="0.29" stop-color="#6BB7D7"/>
<stop offset="0.77" stop-color="#82B9EB"/>
<stop offset="1" stop-color="#82D8F3"/>
</linearGradient>
<linearGradient id="paint19_linear_1906_3008" x1="874.602" y1="165.802" x2="874.602" y2="122.599" gradientUnits="userSpaceOnUse">
<stop stop-color="#82B8DB"/>
<stop offset="0.11" stop-color="#82B8DB" stop-opacity="0.77"/>
<stop offset="0.23" stop-color="#82B8DB" stop-opacity="0.57"/>
<stop offset="0.35" stop-color="#82B8DB" stop-opacity="0.39"/>
<stop offset="0.47" stop-color="#82B8DB" stop-opacity="0.25"/>
<stop offset="0.6" stop-color="#82B8DB" stop-opacity="0.14"/>
<stop offset="0.72" stop-color="#82B8DB" stop-opacity="0.06"/>
<stop offset="0.85" stop-color="#82B8DB" stop-opacity="0.02"/>
<stop offset="1" stop-color="#82B8DB" stop-opacity="0"/>
</linearGradient>
<linearGradient id="paint20_linear_1906_3008" x1="582.78" y1="261.463" x2="867.845" y2="65.7858" gradientUnits="userSpaceOnUse">
<stop stop-color="#82B8DB"/>
<stop offset="0.25" stop-color="#9CC7E2"/>
<stop offset="0.77" stop-color="#DFEDF6"/>
<stop offset="1" stop-color="white"/>
</linearGradient>
<linearGradient id="paint21_linear_1906_3008" x1="726.027" y1="190.529" x2="726.027" y2="99.7263" gradientUnits="userSpaceOnUse">
<stop stop-color="#21ADFC"/>
<stop offset="1" stop-color="#21BAFC" stop-opacity="0"/>
</linearGradient>
<linearGradient id="paint22_linear_1906_3008" x1="901.288" y1="40.4175" x2="901.288" y2="256.222" gradientUnits="userSpaceOnUse">
<stop stop-color="#82B8DB"/>
<stop offset="0.25" stop-color="#9CC7E2"/>
<stop offset="0.77" stop-color="#DFEDF6"/>
<stop offset="1" stop-color="white"/>
</linearGradient>
<linearGradient id="paint23_linear_1906_3008" x1="878.794" y1="40.4175" x2="878.794" y2="256.222" gradientUnits="userSpaceOnUse">
<stop stop-color="#82B8DB"/>
<stop offset="0.25" stop-color="#9CC7E2"/>
<stop offset="0.77" stop-color="#DFEDF6"/>
<stop offset="1" stop-color="white"/>
</linearGradient>
<linearGradient id="paint24_linear_1906_3008" x1="786.721" y1="40.4174" x2="786.721" y2="256.222" gradientUnits="userSpaceOnUse">
<stop stop-color="#82B8DB"/>
<stop offset="0.25" stop-color="#9CC7E2"/>
<stop offset="0.77" stop-color="#DFEDF6"/>
<stop offset="1" stop-color="white"/>
</linearGradient>
<linearGradient id="paint25_linear_1906_3008" x1="919.47" y1="5.47566" x2="968.507" y2="32.8586" gradientUnits="userSpaceOnUse">
<stop stop-color="#46A2CA"/>
<stop offset="0.29" stop-color="#6BB7D7"/>
<stop offset="0.77" stop-color="#82B9EB"/>
<stop offset="1" stop-color="#82BDF3"/>
</linearGradient>
<linearGradient id="paint26_linear_1906_3008" x1="908.598" y1="24.9459" x2="957.634" y2="52.3289" gradientUnits="userSpaceOnUse">
<stop stop-color="#46CA85"/>
<stop offset="0.29" stop-color="#6BD784"/>
<stop offset="0.77" stop-color="#A3EB82"/>
<stop offset="1" stop-color="#BAF382"/>
</linearGradient>
<linearGradient id="paint27_linear_1906_3008" x1="850.308" y1="-120.349" x2="850.308" y2="79.2679" gradientUnits="userSpaceOnUse">
<stop stop-color="#82B8DB"/>
<stop offset="0.25" stop-color="#9CC7E2"/>
<stop offset="0.77" stop-color="#DFEDF6"/>
<stop offset="1" stop-color="white"/>
</linearGradient>
<linearGradient id="paint28_linear_1906_3008" x1="850.308" y1="-48.6374" x2="850.308" y2="88.7177" gradientUnits="userSpaceOnUse">
<stop stop-color="#12223A"/>
<stop offset="0.61" stop-color="#3B4A5C"/>
<stop offset="1" stop-color="#525F6F"/>
</linearGradient>
<linearGradient id="paint29_linear_1906_3008" x1="850.271" y1="125.055" x2="850.271" y2="67.6529" gradientUnits="userSpaceOnUse">
<stop stop-color="#82B8DB"/>
<stop offset="0.25" stop-color="#9CC7E2"/>
<stop offset="0.77" stop-color="#DFEDF6"/>
<stop offset="1" stop-color="white"/>
</linearGradient>
<linearGradient id="paint30_linear_1906_3008" x1="850.271" y1="-88.3282" x2="850.271" y2="130.243" gradientUnits="userSpaceOnUse">
<stop stop-color="#82B8DB"/>
<stop offset="0.25" stop-color="#9CC7E2"/>
<stop offset="0.77" stop-color="#DFEDF6"/>
<stop offset="1" stop-color="white"/>
</linearGradient>
<linearGradient id="paint31_linear_1906_3008" x1="792.101" y1="47.5601" x2="792.101" y2="133" gradientUnits="userSpaceOnUse">
<stop stop-color="#82B8DB"/>
<stop offset="0.25" stop-color="#9CC7E2"/>
<stop offset="0.77" stop-color="#DFEDF6"/>
<stop offset="1" stop-color="white"/>
</linearGradient>
<linearGradient id="paint32_linear_1906_3008" x1="875.172" y1="47.5601" x2="875.172" y2="133" gradientUnits="userSpaceOnUse">
<stop stop-color="#82B8DB"/>
<stop offset="0.25" stop-color="#9CC7E2"/>
<stop offset="0.77" stop-color="#DFEDF6"/>
<stop offset="1" stop-color="white"/>
</linearGradient>
<linearGradient id="paint33_linear_1906_3008" x1="811.846" y1="66.0269" x2="811.846" y2="169.927" gradientUnits="userSpaceOnUse">
<stop stop-color="#12223A"/>
<stop offset="0.61" stop-color="#3B4A5C"/>
<stop offset="1" stop-color="#525F6F"/>
</linearGradient>
<linearGradient id="paint34_linear_1906_3008" x1="850.308" y1="24.0737" x2="850.308" y2="71.449" gradientUnits="userSpaceOnUse">
<stop stop-color="#F15A24"/>
<stop offset="0.99" stop-color="#FCEE21"/>
</linearGradient>
<linearGradient id="paint35_linear_1906_3008" x1="862.532" y1="32.7999" x2="862.532" y2="45.146" gradientUnits="userSpaceOnUse">
<stop stop-color="#F15A24"/>
<stop offset="0.99" stop-color="#FCEE21"/>
</linearGradient>
<linearGradient id="paint36_linear_1906_3008" x1="868.623" y1="27.261" x2="868.623" y2="53.9569" gradientUnits="userSpaceOnUse">
<stop stop-color="#F15A24"/>
<stop offset="0.99" stop-color="#FCEE21"/>
</linearGradient>
<linearGradient id="paint37_linear_1906_3008" x1="850.308" y1="-10.9481" x2="850.308" y2="50.7795" gradientUnits="userSpaceOnUse">
<stop stop-color="#F15A24"/>
<stop offset="0.99" stop-color="#FCEE21"/>
</linearGradient>
<linearGradient id="paint38_linear_1906_3008" x1="834.201" y1="48.0895" x2="834.201" y2="69.1618" gradientUnits="userSpaceOnUse">
<stop stop-color="#F15A24"/>
<stop offset="0.99" stop-color="#FCEE21"/>
</linearGradient>
<linearGradient id="paint39_linear_1906_3008" x1="830.504" y1="44.3082" x2="830.504" y2="55.896" gradientUnits="userSpaceOnUse">
<stop stop-color="#F15A24"/>
<stop offset="0.99" stop-color="#FCEE21"/>
</linearGradient>
<linearGradient id="paint40_linear_1906_3008" x1="912.859" y1="107.597" x2="843.215" y2="65.122" gradientUnits="userSpaceOnUse">
<stop stop-color="#12223A"/>
<stop offset="0.61" stop-color="#3B4A5C"/>
<stop offset="1" stop-color="#525F6F"/>
</linearGradient>
<linearGradient id="paint41_linear_1906_3008" x1="868.315" y1="62.1013" x2="880.142" y2="84.2625" gradientUnits="userSpaceOnUse">
<stop stop-color="#12223A"/>
<stop offset="0.61" stop-color="#3B4A5C"/>
<stop offset="1" stop-color="#525F6F"/>
</linearGradient>
<linearGradient id="paint42_linear_1906_3008" x1="908.804" y1="-83.271" x2="939.59" y2="-66.0795" gradientUnits="userSpaceOnUse">
<stop stop-color="#00A3FF"/>
<stop offset="0.29" stop-color="#00A3FF"/>
<stop offset="0.77" stop-color="#00A3FF"/>
<stop offset="1" stop-color="#00A3FF"/>
</linearGradient>
<linearGradient id="paint43_linear_1906_3008" x1="908.22" y1="-82.1278" x2="944.327" y2="-58.0611" gradientUnits="userSpaceOnUse">
<stop stop-color="#00A3FF"/>
<stop offset="0.29" stop-color="#00A3FF"/>
<stop offset="0.77" stop-color="#00A3FF"/>
<stop offset="1" stop-color="#00A3FF"/>
</linearGradient>
<linearGradient id="paint44_linear_1906_3008" x1="931.312" y1="-96.4691" x2="962.098" y2="-79.2776" gradientUnits="userSpaceOnUse">
<stop stop-color="#00A3FF"/>
<stop offset="0.29" stop-color="#00A3FF"/>
<stop offset="0.77" stop-color="#00A3FF"/>
<stop offset="1" stop-color="#00A3FF"/>
</linearGradient>
<linearGradient id="paint45_linear_1906_3008" x1="800.603" y1="116.689" x2="831.289" y2="64.1573" gradientUnits="userSpaceOnUse">
<stop stop-color="#4693CA" stop-opacity="0"/>
<stop offset="0.28" stop-color="#68A8D6" stop-opacity="0.3"/>
<stop offset="0.63" stop-color="#82BBE5" stop-opacity="0.67"/>
<stop offset="0.88" stop-color="#82BBEF" stop-opacity="0.91"/>
<stop offset="1" stop-color="#82D1F3"/>
</linearGradient>
<linearGradient id="paint46_linear_1906_3008" x1="750.173" y1="10.2586" x2="808.412" y2="86.2068" gradientUnits="userSpaceOnUse">
<stop stop-color="#4693CA" stop-opacity="0"/>
<stop offset="0.28" stop-color="#68A8D6" stop-opacity="0.3"/>
<stop offset="0.63" stop-color="#82B0E5" stop-opacity="0.67"/>
<stop offset="0.88" stop-color="#82C8EF" stop-opacity="0.91"/>
<stop offset="1" stop-color="#82BDF3"/>
</linearGradient>
<linearGradient id="paint47_linear_1906_3008" x1="961.812" y1="100.652" x2="940.446" y2="66.3623" gradientUnits="userSpaceOnUse">
<stop stop-color="#468BCA"/>
<stop offset="0.29" stop-color="#6BB7D7"/>
<stop offset="0.77" stop-color="#82B2EB"/>
<stop offset="1" stop-color="#82CAF3"/>
</linearGradient>
<linearGradient id="paint48_linear_1906_3008" x1="958.748" y1="102.56" x2="937.384" y2="68.2715" gradientUnits="userSpaceOnUse">
<stop stop-color="#4693CA"/>
<stop offset="0.29" stop-color="#6BAAD7"/>
<stop offset="0.77" stop-color="#82B2EB"/>
<stop offset="1" stop-color="#82D1F3"/>
</linearGradient>
<linearGradient id="paint49_linear_1906_3008" x1="1009.14" y1="-37.7574" x2="1299.36" y2="340.703" gradientUnits="userSpaceOnUse">
<stop stop-color="#4693CA" stop-opacity="0"/>
<stop offset="0.28" stop-color="#68A1D6" stop-opacity="0.3"/>
<stop offset="0.63" stop-color="#82C1E5" stop-opacity="0.67"/>
<stop offset="0.88" stop-color="#82C1EF" stop-opacity="0.91"/>
<stop offset="1" stop-color="#82BDF3"/>
</linearGradient>
<linearGradient id="paint50_linear_1906_3008" x1="132.864" y1="-22.1577" x2="-157.355" y2="356.303" gradientUnits="userSpaceOnUse">
<stop stop-color="#4693CA" stop-opacity="0"/>
<stop offset="0.28" stop-color="#68A1D6" stop-opacity="0.3"/>
<stop offset="0.63" stop-color="#82C1E5" stop-opacity="0.67"/>
<stop offset="0.88" stop-color="#82C1EF" stop-opacity="0.91"/>
<stop offset="1" stop-color="#82BDF3"/>
</linearGradient>
<clipPath id="clip0_1906_3008">
<rect x="2" y="1" width="1128" height="121" rx="15" fill="white"/>
</clipPath>
</defs>
</svg>
