<svg width="1132" height="125" viewBox="0 0 1132 125" fill="none" xmlns="http://www.w3.org/2000/svg">
<g filter="url(#filter0_d_5647_7140)">
<g clip-path="url(#clip0_5647_7140)">
<rect x="2" y="1" width="1128" height="121" rx="15" fill="black"/>
<g filter="url(#filter1_d_5647_7140)">
<path d="M750.916 85.108C753.422 86.5549 753.437 88.9018 750.948 90.3487L729.908 102.575C727.417 104.022 723.365 104.022 720.859 102.575L699.68 90.3487C697.174 88.9018 697.159 86.5549 699.65 85.108L720.69 72.8813C723.178 71.4344 727.231 71.4369 729.737 72.8813L750.916 85.108Z" fill="url(#paint0_linear_5647_7140)"/>
<path d="M750.916 68.8562C753.422 70.3031 753.437 72.65 750.948 74.0969L729.908 86.3236C727.417 87.7705 723.365 87.7705 720.859 86.3236L699.68 74.0969C697.174 72.65 697.159 70.3031 699.65 68.8562L720.69 56.6295C723.178 55.1826 727.231 55.1851 729.737 56.6295L750.916 68.8562Z" fill="url(#paint1_linear_5647_7140)"/>
<path d="M725.346 102.889C724.225 102.889 723.104 102.635 722.226 102.13L684.36 80.27C683.443 79.7404 682.936 79.0095 682.936 78.2139C682.936 77.4234 683.433 76.6974 684.34 76.1679L721.96 54.3075C723.703 53.2957 726.44 53.2957 728.193 54.3075L766.059 76.1679C766.976 76.6974 767.483 77.4283 767.483 78.2239C767.483 79.0145 766.986 79.7429 766.079 80.27L728.461 102.133C727.591 102.64 726.47 102.891 725.349 102.891L725.346 102.889ZM725.073 54.4094C724.093 54.4094 723.114 54.6207 722.388 55.0434L684.768 76.9038C684.134 77.2717 683.786 77.7366 683.786 78.209C683.786 78.6888 684.142 79.1562 684.785 79.5266L722.651 101.387C724.141 102.247 726.552 102.247 728.029 101.387L765.649 79.5241C766.283 79.1562 766.631 78.6913 766.631 78.2189C766.631 77.7391 766.275 77.2717 765.631 76.9013L727.765 55.0409C727.034 54.6183 726.052 54.4069 725.073 54.4069V54.4094Z" fill="url(#paint2_linear_5647_7140)"/>
<path d="M752.788 71.6828C752.783 71.75 752.778 71.8171 752.766 71.8842C752.756 71.9389 752.738 71.9936 752.726 72.0483C752.708 72.1129 752.694 72.1776 752.671 72.2397C752.654 72.2919 752.629 72.3442 752.606 72.3939C752.577 72.461 752.549 72.5281 752.512 72.5928C752.487 72.64 752.455 72.6872 752.428 72.7345C752.38 72.8091 752.333 72.8836 752.278 72.9582C752.226 73.0278 752.171 73.0999 752.112 73.167C752.097 73.1845 752.084 73.2019 752.07 73.2168C751.987 73.3063 751.895 73.3933 751.801 73.4803C751.739 73.535 751.672 73.5897 751.605 73.6419C751.545 73.6891 751.49 73.7364 751.426 73.7836C751.354 73.8358 751.274 73.8855 751.194 73.9377C751.115 73.99 751.038 74.0422 750.953 74.0944L729.913 86.3211C729.722 86.4329 729.518 86.5324 729.309 86.6269C729.249 86.6542 729.187 86.6791 729.125 86.7039C728.961 86.7735 728.795 86.8357 728.623 86.8954C728.561 86.9152 728.501 86.9401 728.439 86.9575C728.332 86.9923 728.22 87.0221 728.108 87.052C728.024 87.0744 727.942 87.0992 727.857 87.1191C727.74 87.1465 727.621 87.1713 727.504 87.1937C727.425 87.2111 727.345 87.2285 727.263 87.2434C727.024 87.2857 726.781 87.318 726.535 87.3453C726.46 87.3528 726.383 87.3578 726.308 87.3652C726.164 87.3777 726.02 87.3876 725.876 87.3951C725.784 87.4 725.689 87.4 725.597 87.4025C725.481 87.4025 725.364 87.405 725.247 87.4025C725.15 87.4025 725.05 87.3976 724.953 87.3951C724.844 87.3901 724.737 87.3851 724.628 87.3777C724.528 87.3702 724.431 87.3627 724.332 87.3528C724.225 87.3429 724.118 87.3304 724.011 87.318C723.914 87.3056 723.82 87.2931 723.725 87.2782C723.611 87.2608 723.499 87.2409 723.385 87.2185C723.295 87.2011 723.208 87.1837 723.121 87.1639C722.987 87.134 722.855 87.1017 722.723 87.0669C722.651 87.047 722.577 87.0296 722.505 87.0072C722.271 86.9376 722.04 86.863 721.819 86.776C721.709 86.7338 721.602 86.6865 721.495 86.6393C721.441 86.6144 721.383 86.592 721.329 86.5672C721.167 86.4901 721.011 86.4106 720.859 86.3236L699.68 74.0969C698.576 73.4604 697.957 72.6475 697.82 71.8146C697.8 71.6953 697.79 71.5759 697.793 71.4566L697.773 78.4103C697.77 79.3649 698.399 80.3221 699.662 81.0505L720.841 93.2772C720.993 93.3642 721.15 93.4463 721.311 93.5208C721.366 93.5457 721.423 93.5681 721.478 93.5929C721.572 93.6352 721.667 93.68 721.766 93.7172C721.779 93.7222 721.791 93.7247 721.801 93.7297C722.022 93.8167 722.254 93.8938 722.487 93.9609C722.507 93.9659 722.525 93.9733 722.542 93.9808C722.597 93.9957 722.651 94.0056 722.706 94.0205C722.838 94.0554 722.97 94.0877 723.104 94.1175C723.139 94.125 723.173 94.1349 723.211 94.1424C723.263 94.1523 723.318 94.1598 723.37 94.1697C723.482 94.1921 723.594 94.212 723.708 94.2294C723.753 94.2368 723.797 94.2468 723.845 94.2542C723.894 94.2617 723.944 94.2642 723.994 94.2717C724.101 94.2841 724.205 94.2965 724.312 94.3065C724.364 94.3114 724.414 94.3189 724.466 94.3239C724.513 94.3288 724.561 94.3288 724.61 94.3313C724.717 94.3388 724.827 94.3437 724.934 94.3487C724.988 94.3487 725.043 94.3562 725.098 94.3587C725.142 94.3587 725.185 94.3587 725.227 94.3587C725.344 94.3587 725.461 94.3587 725.577 94.3587C725.637 94.3587 725.694 94.3587 725.754 94.3587C725.789 94.3587 725.821 94.3537 725.856 94.3512C726 94.3437 726.144 94.3338 726.289 94.3214C726.346 94.3164 726.405 94.3164 726.463 94.3089C726.48 94.3089 726.497 94.304 726.515 94.3015C726.761 94.2766 727.002 94.2418 727.241 94.1996C727.253 94.1996 727.266 94.1971 727.278 94.1946C727.348 94.1821 727.415 94.1647 727.484 94.1498C727.601 94.125 727.721 94.1026 727.835 94.0752C727.919 94.0554 728.004 94.0305 728.088 94.0081C728.198 93.9783 728.31 93.9485 728.417 93.9137C728.439 93.9062 728.464 93.9012 728.486 93.8938C728.526 93.8813 728.561 93.8639 728.601 93.8515C728.772 93.7918 728.939 93.7297 729.103 93.6601C729.165 93.6352 729.225 93.6103 729.284 93.583C729.493 93.4885 729.697 93.3891 729.888 93.2772L750.928 81.0505C750.956 81.0356 750.981 81.0207 751.005 81.0033C751.065 80.9685 751.115 80.9287 751.172 80.8914C751.249 80.8417 751.329 80.792 751.401 80.7397C751.465 80.6925 751.52 80.6453 751.58 80.598C751.647 80.5433 751.714 80.4911 751.776 80.4364C751.789 80.4265 751.803 80.4141 751.816 80.4041C751.898 80.3271 751.975 80.25 752.047 80.1729C752.062 80.1555 752.074 80.1406 752.089 80.1232C752.132 80.076 752.174 80.0262 752.214 79.979C752.231 79.9566 752.241 79.9342 752.258 79.9144C752.313 79.8398 752.363 79.7677 752.408 79.6906C752.428 79.6583 752.452 79.6285 752.47 79.5961C752.48 79.5812 752.485 79.5638 752.492 79.5464C752.527 79.4818 752.557 79.4147 752.584 79.3475C752.602 79.3077 752.624 79.2705 752.639 79.2307C752.644 79.2182 752.646 79.2033 752.651 79.1909C752.674 79.1263 752.689 79.0641 752.706 78.9995C752.718 78.9572 752.733 78.9149 752.743 78.8702C752.746 78.8578 752.743 78.8478 752.748 78.8354C752.761 78.7683 752.766 78.7011 752.771 78.634C752.776 78.5893 752.786 78.547 752.786 78.5022C752.786 78.4824 752.786 78.465 752.786 78.4451L752.805 71.4914C752.805 71.5536 752.795 71.6157 752.79 71.6779L752.788 71.6828Z" fill="url(#paint3_linear_5647_7140)"/>
<path d="M725.389 85.2771C724.066 85.2771 722.806 84.9862 721.925 84.479L700.746 72.2523C700.12 71.8893 699.923 71.5488 699.923 71.4667C699.923 71.3872 700.112 71.0565 700.721 70.701L721.761 58.4743C722.631 57.9696 723.887 57.6787 725.205 57.6787C726.527 57.6787 727.79 57.9696 728.67 58.4793L749.849 70.706C750.476 71.0689 750.672 71.4095 750.672 71.4916C750.672 71.5711 750.483 71.9018 749.877 72.2548L728.837 84.4815C727.967 84.9887 726.709 85.2771 725.391 85.2771H725.389Z" fill="url(#paint4_linear_5647_7140)"/>
<path d="M714.266 64.3364C720.24 60.7713 730.008 60.6346 736.042 64.0256C742.075 67.4167 742.125 73.0751 736.151 76.6377C730.177 80.2003 720.409 80.342 714.375 76.9509C708.341 73.5599 708.292 67.899 714.266 64.3339" fill="#262B38"/>
<path d="M733.501 62.8772C737.103 64.15 740.867 66.8276 740.611 70.8874C739.457 59.1579 710.805 59.3668 709.83 71.4169C709.776 61.5172 726.497 60.0678 733.501 62.8796V62.8772Z" fill="url(#paint5_linear_5647_7140)"/>
<path d="M714.877 77.8409C722.313 81.5875 740.265 80.6105 741.414 70.2111C741.673 83.6584 709.117 84.101 709.005 70.7679C708.893 73.3958 711.568 76.4238 714.877 77.8434V77.8409Z" fill="url(#paint6_linear_5647_7140)"/>
<path d="M736.733 76.9659C743.02 73.2143 742.968 67.2551 736.618 63.6851C730.264 60.1125 719.979 60.2617 713.689 64.0132C707.399 67.7673 707.451 73.724 713.803 77.294C720.155 80.8641 730.44 80.7199 736.733 76.9659ZM714.266 64.3364C720.24 60.7713 730.008 60.6346 736.041 64.0257C742.075 67.4167 742.125 73.0751 736.151 76.6377C730.177 80.2003 720.409 80.342 714.375 76.951C708.341 73.5599 708.291 67.899 714.266 64.3339" fill="url(#paint7_linear_5647_7140)"/>
<path d="M730.132 67.8865C732.337 64.4507 725.766 62.6955 725.287 62.6931C724.508 64.4209 722.83 68.1426 722.065 69.8406C722.843 69.0674 723.984 68.7716 725.15 68.7318L730.13 67.8865H730.132Z" fill="url(#paint8_linear_5647_7140)"/>
<path d="M735.49 70.6959C738.063 69.162 737.434 66.7778 737.399 66.6535C734.438 67.1557 728.064 68.2371 725.152 68.7319C727.979 68.4037 730.674 71.3348 726.987 72.6152C729.503 72.0483 733.237 71.9464 735.49 70.6959Z" fill="url(#paint9_linear_5647_7140)"/>
<path d="M727.773 72.2572C730.505 70.5467 727.248 68.4459 725.15 68.7319C723.069 68.5081 719.984 70.7655 722.679 72.3317C724.123 73.1198 726.306 73.1049 727.77 72.2572H727.773Z" fill="white"/>
<path d="M737.324 74.7781L731.969 71.7674C730.679 71.9862 729.217 72.2348 728.078 72.4287L727.054 74.701C730.868 77.4556 737.168 75.0143 737.322 74.7781H737.324Z" fill="url(#paint10_linear_5647_7140)"/>
<path d="M722.122 71.9241C721.463 71.2926 721.446 70.4945 722.067 69.8407L723.377 66.9344C719.566 64.1823 713.266 66.6212 713.11 66.8574C715.287 68.0805 719.981 70.7208 722.122 71.9241Z" fill="url(#paint11_linear_5647_7140)"/>
<path d="M725.274 72.9035C723.002 73.1073 720.396 70.7306 718.462 69.8654C714.79 70.119 712.297 72.6698 713.038 74.9819C715.996 74.4797 722.368 73.3957 725.274 72.9035Z" fill="url(#paint12_linear_5647_7140)"/>
<path d="M725.145 78.9423C725.811 77.4655 727.435 73.8632 728.081 72.4287C726.216 72.8066 722.226 73.3958 720.304 73.7488C718.097 77.1846 724.665 78.9398 725.147 78.9423H725.145Z" fill="url(#paint13_linear_5647_7140)"/>
<path opacity="0.8" d="M709.614 34.0107H740.397V70.1613H740.375C740.589 72.6126 739.075 75.0838 735.84 76.9036C729.806 80.2946 720.038 80.1554 714.064 76.5903C711.051 74.7929 709.574 72.4634 709.619 70.1613H709.617V34.0107H709.614Z" fill="url(#paint14_linear_5647_7140)"/>
<path opacity="0.8" d="M714.509 44.2338H735.504V68.8885H735.49C735.634 70.5592 734.605 72.2448 732.397 73.4878C728.282 75.8024 721.62 75.7054 717.545 73.274C715.491 72.0484 714.482 70.4598 714.512 68.8885V44.2338H714.509Z" fill="url(#paint15_linear_5647_7140)"/>
<path d="M944.487 73.5549L896.923 46.0933C895.066 45.0218 893.559 42.1429 893.559 39.6667V7.83457C893.559 5.3584 895.066 4.21976 896.923 5.29128L944.487 32.7529C946.344 33.8244 947.851 36.7033 947.851 39.1795V71.0116C947.851 73.4878 946.344 74.6264 944.487 73.5549Z" fill="url(#paint16_linear_5647_7140)" stroke="#3292F1" stroke-width="0.248611" stroke-miterlimit="10"/>
<path d="M914.855 23.6041L899.416 14.6914C898.762 14.3135 898.23 13.2992 898.23 12.4266C898.23 11.5539 898.762 11.1512 899.416 11.5291L914.855 20.4418C915.509 20.8197 916.041 21.834 916.041 22.7066C916.041 23.5793 915.509 23.982 914.855 23.6041Z" fill="url(#paint17_linear_5647_7140)"/>
<path d="M904.958 24.1262L899.419 20.9291C898.765 20.5512 898.233 19.5369 898.233 18.6643C898.233 17.7916 898.765 17.3889 899.419 17.7668L904.958 20.9639C905.612 21.3418 906.144 22.3561 906.144 23.2288C906.144 24.1014 905.612 24.5041 904.958 24.1262Z" fill="url(#paint18_linear_5647_7140)"/>
<path opacity="0.8" d="M859.213 121.53H889.996V157.68H889.974C890.188 160.131 888.674 162.603 885.439 164.422C879.406 167.813 869.638 167.674 863.664 164.109C860.65 162.312 859.174 159.982 859.218 157.68H859.216V121.53H859.213Z" fill="url(#paint19_linear_5647_7140)"/>
<path opacity="0.3" d="M797.108 136.739L884.181 86.4677L858.875 71.8569L771.802 122.129C764.858 126.139 754.635 127.556 745.195 125.895C721.791 121.773 695.369 125.089 677.098 135.862C651.096 151.196 651.464 175.677 677.911 190.947C704.483 206.288 747.43 206.365 773.838 191.121C792.136 180.557 797.687 165.409 790.532 151.997C787.646 146.587 790.211 140.72 797.108 136.737V136.739Z" fill="url(#paint20_linear_5647_7140)"/>
<path opacity="0.5" d="M859.042 86.5398C858.98 86.4329 858.843 86.3956 858.736 86.4577L765.718 140.163C765.636 140.115 765.557 140.066 765.475 140.019C743.182 127.148 707.024 127.083 684.87 139.874C674.145 146.067 668.235 154.329 668.235 163.139C668.235 172.027 674.232 180.383 685.121 186.67C696.313 193.132 710.999 196.366 725.655 196.366C740.31 196.366 754.695 193.184 765.726 186.817C776.453 180.624 782.36 172.363 782.36 163.552C782.36 154.741 776.612 146.664 766.161 140.426L858.96 86.848C859.067 86.7859 859.104 86.6492 859.042 86.5423V86.5398ZM781.913 163.55C781.913 172.191 776.085 180.316 765.502 186.427C754.531 192.761 740.111 195.924 725.655 195.924C711.081 195.924 696.475 192.707 685.345 186.283C674.6 180.08 668.683 171.861 668.683 163.139C668.683 154.498 674.51 146.373 685.094 140.262C696.065 133.928 710.484 130.765 724.941 130.765C739.398 130.765 754.121 133.982 765.251 140.406C775.996 146.609 781.913 154.828 781.913 163.55Z" fill="white"/>
<path d="M756.02 149.391C756.132 153.933 753.188 158.471 747.194 161.879C735.45 168.557 716.458 168.375 704.769 161.479C699.048 158.105 696.139 153.744 696.033 149.391V96.7131H756.022L756.017 149.391H756.02Z" fill="url(#paint21_linear_5647_7140)"/>
<path d="M914.738 112.97L895.682 101.969L886.083 107.51L906.069 119.051C908.752 120.6 912.056 120.6 914.736 119.051C917.075 117.701 917.075 114.322 914.736 112.972L914.738 112.97Z" fill="url(#paint22_linear_5647_7140)"/>
<path d="M892.241 126.186L873.185 115.185L863.587 120.726L883.572 132.267C886.255 133.816 889.559 133.816 892.239 132.267C894.578 130.917 894.578 127.538 892.239 126.188L892.241 126.186Z" fill="url(#paint23_linear_5647_7140)"/>
<path d="M798.324 72.0631L783.33 63.4065C780.816 61.9546 777.719 61.9546 775.205 63.4065C772.744 64.8261 772.744 68.3787 775.205 69.7983L789.655 78.1417C792.337 79.6905 795.641 79.6905 798.321 78.1417C800.661 76.7917 800.661 73.4131 798.321 72.0631H798.324Z" fill="url(#paint24_linear_5647_7140)"/>
<path d="M802.344 58.392C798.46 58.392 795.313 55.2446 795.313 51.3613V34.5751C795.313 30.8757 797.051 27.6637 799.964 25.9806C802.883 24.295 806.548 24.3994 809.767 26.2565L819.471 31.8602C822.834 33.8019 823.985 38.1004 822.044 41.4641C820.102 44.8278 815.804 45.9789 812.44 44.0372L809.372 42.2671V51.3638C809.372 55.2471 806.225 58.3945 802.341 58.3945L802.344 58.392Z" fill="url(#paint25_linear_5647_7140)"/>
<path d="M780.043 71.7474C776.16 71.7474 773.012 68.6 773.012 64.7167V47.9304C773.012 44.2311 774.75 41.0191 777.664 39.336C780.583 37.6504 784.247 37.7548 787.467 39.6119L797.17 45.2156C800.534 47.1573 801.685 51.4558 799.743 54.8195C797.801 58.1832 793.503 59.3342 790.139 57.3926L787.071 55.6225V64.7192C787.071 68.6025 783.924 71.7499 780.041 71.7499L780.043 71.7474Z" fill="url(#paint26_linear_5647_7140)"/>
<path d="M780.043 71.7474C776.16 71.7474 773.012 68.6 773.012 64.7167V47.9304C773.012 44.2311 774.75 41.0191 777.664 39.336C780.583 37.6504 784.247 37.7548 787.467 39.6119L797.17 45.2156C800.534 47.1573 801.685 51.4558 799.743 54.8195C797.801 58.1832 793.503 59.3342 790.139 57.3926L787.071 55.6225V64.7192C787.071 68.6025 783.924 71.7499 780.041 71.7499L780.043 71.7474Z" fill="#3292F1"/>
<path d="M799.743 54.8169C799.77 54.7672 799.798 54.7175 799.823 54.6703C799.388 54.004 798.793 53.4272 798.058 53.0021L790.806 48.8155C788.399 47.4257 785.659 47.3487 783.479 48.6091C781.301 49.8671 780.003 52.2662 780.003 55.0332V67.5806C780.003 69.1543 780.697 70.5665 781.793 71.5286C784.831 70.7504 787.076 67.9958 787.076 64.7166V55.62L790.144 57.3901C793.505 59.3317 797.806 58.1807 799.748 54.8169H799.743Z" fill="black" fill-opacity="0.3"/>
<path d="M907.399 37.72C913.731 41.3771 913.764 47.3015 907.474 50.9586L861.921 77.4307C855.631 81.0852 845.401 81.0877 839.069 77.4307L793.217 50.9586C786.888 47.304 786.855 41.3771 793.145 37.7225L838.698 11.2504C844.988 7.5958 855.218 7.59331 861.55 11.2504L907.402 37.7225L907.399 37.72Z" fill="url(#paint27_linear_5647_7140)"/>
<path d="M850.507 74.9198C847.148 74.9198 843.934 74.1764 841.691 72.8811L795.84 46.409C794.222 45.4743 793.697 44.5917 793.697 44.3108C793.697 44.0373 794.204 43.1771 795.78 42.2622L841.333 15.7901C843.553 14.4998 846.753 13.7589 850.107 13.7589C853.466 13.7589 856.678 14.5023 858.92 15.7951L904.771 42.2672C906.392 43.202 906.917 44.087 906.917 44.3679C906.917 44.6414 906.41 45.5016 904.834 46.4165L859.281 72.8886C857.061 74.1789 853.861 74.9198 850.507 74.9198Z" fill="url(#paint28_linear_5647_7140)"/>
<path d="M912.158 44.6687C912.021 47.1921 910.171 49.2233 908.143 50.5409C907.439 51.0655 862.667 76.9409 861.921 77.4282C858.495 79.3823 854.492 80.1406 850.577 80.1679C846.606 80.1605 842.546 79.3997 839.066 77.4282L793.215 50.9561C790.719 49.5365 788.456 47.2344 788.446 44.2933L788.372 90.7364C788.364 93.1479 789.955 95.5619 793.14 97.3992L795.805 98.9381V65.4725C795.805 63.8839 797.523 62.8919 798.9 63.685L835.13 84.6031C837.042 85.707 838.221 87.7481 838.221 89.9557V123.426L838.991 123.871C839.454 124.137 839.934 124.383 840.421 124.602C843.568 126.027 847.059 126.608 850.5 126.611C854.413 126.584 858.418 125.825 861.844 123.871C862.672 123.347 907.262 97.5409 908.063 96.984C908.844 96.4718 909.572 95.8801 910.206 95.1989C911.312 94.0106 912.088 92.4692 912.093 90.8259L912.168 44.3828C912.168 44.4773 912.16 44.5718 912.155 44.6687H912.158Z" fill="url(#paint29_linear_5647_7140)"/>
<path d="M912.158 44.6687C912.021 47.1921 910.171 49.2233 908.143 50.5409C907.439 51.0655 862.667 76.9409 861.921 77.4282C858.495 79.3823 854.492 80.1406 850.577 80.1679C846.606 80.1605 842.546 79.3997 839.066 77.4282L793.215 50.9561C790.719 49.5365 788.456 47.2344 788.446 44.2933L788.372 90.7364C788.364 93.1479 789.955 95.5619 793.14 97.3992L795.805 98.9381V65.4725C795.805 63.8839 797.523 62.8919 798.9 63.685L835.13 84.6031C837.042 85.707 838.221 87.7481 838.221 89.9557V123.426L838.991 123.871C839.454 124.137 839.934 124.383 840.421 124.602C843.568 126.027 847.059 126.608 850.5 126.611C854.413 126.584 858.418 125.825 861.844 123.871C862.672 123.347 907.262 97.5409 908.063 96.984C908.844 96.4718 909.572 95.8801 910.206 95.1989C911.312 94.0106 912.088 92.4692 912.093 90.8259L912.168 44.3828C912.168 44.4773 912.16 44.5718 912.155 44.6687H912.158Z" fill="url(#paint30_linear_5647_7140)"/>
<path d="M788.399 69.7809L788.394 72.5405C789.234 73.9824 790.634 75.3001 792.511 76.384L795.805 78.2859V77.2516L792.959 75.6083C790.226 74.0321 788.61 71.9637 788.399 69.7834V69.7809Z" fill="url(#paint31_linear_5647_7140)"/>
<path d="M850.51 105.892C854.763 105.892 859.015 104.954 862.242 103.077L908.177 76.3816C909.952 75.3498 911.283 74.1217 912.115 72.7742C912.115 72.0085 912.115 71.2279 912.12 70.4348C911.705 72.3715 910.186 74.1789 907.727 75.6059L861.792 102.302C855.581 105.912 845.445 105.909 839.195 102.302L838.221 101.74V102.774L838.748 103.077C841.997 104.954 846.256 105.892 850.51 105.892Z" fill="url(#paint32_linear_5647_7140)"/>
<path d="M827.886 80.4215L798.9 63.6875C797.526 62.8944 795.805 63.8864 795.805 65.475V98.9405H795.808L827.883 80.4215H827.886Z" fill="url(#paint33_linear_5647_7140)"/>
<path d="M846.728 51.1773C847.305 50.8442 847.738 50.5061 848.023 50.1655C848.309 49.8249 848.461 49.4495 848.471 49.0442C848.483 48.639 848.367 48.1915 848.123 47.7017C847.879 47.212 847.509 46.6576 847.009 46.036C846.164 44.962 845.465 43.9427 844.916 42.9856C844.366 42.026 844.063 41.1086 844.001 40.2335C843.941 39.3584 844.18 38.5131 844.722 37.7001C845.261 36.8872 846.204 36.0916 847.551 35.3135C848.717 34.6397 849.975 34.1375 851.325 33.8044C852.672 33.4737 854.062 33.3072 855.497 33.3121C856.929 33.3146 858.371 33.4762 859.818 33.7969C861.264 34.1176 862.674 34.6024 864.041 35.2488L868.449 32.703L871.766 34.6173L867.296 37.1979C868.32 37.9786 869.061 38.7965 869.521 39.6467C869.981 40.4995 870.142 41.3547 870.011 42.2124C869.876 43.0701 869.441 43.9253 868.703 44.7756C867.965 45.6258 866.908 46.4463 865.536 47.2393L859.547 43.7811C861.195 42.829 862.085 41.9215 862.217 41.0539C862.351 40.1862 861.844 39.423 860.695 38.7617C860.074 38.4037 859.445 38.1476 858.811 37.996C858.177 37.8443 857.553 37.7772 856.939 37.7946C856.325 37.812 855.73 37.909 855.154 38.083C854.577 38.257 854.032 38.4907 853.525 38.7841C853.018 39.0774 852.625 39.3832 852.352 39.7014C852.078 40.0197 851.934 40.3777 851.924 40.7754C851.912 41.1732 852.031 41.6232 852.282 42.1229C852.533 42.6251 852.909 43.2093 853.408 43.8781C854.214 44.962 854.883 45.9814 855.42 46.941C855.957 47.9006 856.25 48.8205 856.302 49.6981C856.354 50.5782 856.111 51.4234 855.571 52.2364C855.032 53.0494 854.097 53.8424 852.764 54.6106C851.556 55.3092 850.273 55.8214 848.918 56.1496C847.564 56.4777 846.176 56.6368 844.757 56.6244C843.337 56.6144 841.908 56.4379 840.466 56.0973C839.024 55.7567 837.619 55.262 836.254 54.6156L832.155 56.9824L828.858 55.0805L832.935 52.7262C831.911 51.9928 831.071 51.1972 830.412 50.342C829.753 49.4868 829.398 48.5943 829.343 47.6669C829.291 46.7396 829.604 45.7924 830.288 44.8228C830.971 43.8532 832.137 42.8936 833.786 41.9414L839.775 45.3996C838.8 45.9615 838.114 46.5059 837.716 47.0305C837.318 47.5551 837.139 48.0523 837.177 48.5271C837.214 48.9995 837.425 49.4395 837.813 49.8473C838.201 50.255 838.678 50.6204 839.245 50.9461C839.894 51.3215 840.553 51.5975 841.221 51.779C841.89 51.9604 842.549 52.0549 843.195 52.0624C843.842 52.0723 844.466 52.0002 845.065 51.8461C845.664 51.6919 846.216 51.4682 846.726 51.1748L846.728 51.1773Z" fill="#05122B"/>
<path d="M848.023 48.1939C848.312 47.8533 848.461 47.4779 848.471 47.0727C848.483 46.6675 848.367 46.22 848.123 45.7302C847.879 45.2404 847.509 44.686 847.009 44.0645C846.164 42.9905 845.465 41.9712 844.916 41.014C844.366 40.0544 844.063 39.137 844.001 38.2619C843.941 37.3868 843.971 32.5538 843.971 32.5538C843.971 32.5538 846.204 34.1176 847.549 33.3419C848.715 32.6682 849.973 32.166 851.323 31.8328C852.67 31.5022 854.763 29.7072 856.195 29.7097C857.627 29.7122 859.124 30.4406 860.573 30.7613C862.02 31.082 862.669 32.6284 864.037 33.2748L868.444 30.729L871.761 32.6433L867.291 35.2239C868.315 36.0045 870.04 34.0803 870.04 34.0803C870.04 34.0803 870.137 39.3807 870.003 40.2384C869.869 41.0961 869.434 41.9513 868.695 42.8016C867.957 43.6518 866.901 44.4722 865.528 45.2653L859.539 41.8071C861.187 40.8549 862.077 39.9475 862.209 39.0798C862.343 38.2122 861.836 37.449 860.688 36.7876C860.066 36.4296 859.437 36.1736 858.803 36.0219C858.169 35.8703 857.545 35.8031 856.931 35.8205C856.317 35.838 855.723 35.9349 855.146 36.1089C854.569 36.283 854.025 36.5167 853.518 36.81C853.011 37.1034 852.618 37.4092 852.344 37.7274C852.071 38.0456 851.927 38.4036 851.917 38.8014C851.904 39.1992 852.024 39.6492 852.275 40.1489C852.526 40.6511 852.901 41.2353 853.401 41.9041C854.206 42.988 856.29 42.8388 856.29 42.8388C856.29 42.8388 856.24 46.8465 856.295 47.7265C856.347 48.6066 856.103 49.4519 855.564 50.2649C855.024 51.0778 854.09 51.8709 852.757 52.6391C851.549 53.3377 850.266 53.8498 848.911 54.178C847.556 54.5062 846.169 54.6653 844.749 54.6528C843.33 54.6429 841.9 54.4664 840.458 54.1258C839.016 53.7852 837.612 53.2905 836.247 52.6441L832.147 55.0108L828.851 53.109L832.928 50.7546C831.904 50.0212 831.063 49.2257 830.404 48.3704C829.746 47.5152 829.39 46.6227 829.335 45.6954C829.283 44.7681 829.34 39.8108 829.34 39.8108C829.34 39.8108 832.13 40.9245 833.778 39.9724L839.767 38.0183V43.4305C838.793 43.9924 838.106 44.5369 837.709 45.0614C837.311 45.586 837.132 46.0832 837.169 46.5581C837.206 47.0304 837.763 47.0901 838.151 47.4978C838.539 47.903 847.728 48.537 848.014 48.1939H848.023Z" fill="url(#paint34_linear_5647_7140)"/>
<path d="M865.528 39.8555L859.539 36.3973V41.8096L865.528 45.2677V39.8555Z" fill="url(#paint35_linear_5647_7140)"/>
<path d="M871.761 27.2361V32.6459L868.621 34.4309L865.486 29.3443L871.761 27.2361Z" fill="url(#paint36_linear_5647_7140)"/>
<path d="M846.728 43.7935C847.305 43.4604 847.738 43.1223 848.023 42.7817C848.309 42.4411 848.461 42.0657 848.471 41.6604C848.483 41.2552 848.367 40.8077 848.123 40.3179C847.879 39.8282 847.509 39.2738 847.009 38.6523C846.164 37.5783 845.465 36.559 844.916 35.6018C844.366 34.6422 844.063 33.7248 844.001 32.8497C843.941 31.9746 844.18 31.1293 844.722 30.3163C845.261 29.5034 846.204 28.7078 847.551 27.9297C848.717 27.2559 849.975 26.7537 851.325 26.4206C852.672 26.0899 854.062 25.9234 855.497 25.9283C856.931 25.9333 858.371 26.0924 859.818 26.4131C861.264 26.7338 862.674 27.2186 864.041 27.865L868.449 25.3192L871.766 27.2335L867.296 29.8141C868.32 30.5948 869.061 31.4127 869.521 32.263C869.981 33.1157 870.142 33.9709 870.011 34.8286C869.876 35.6863 869.441 36.5415 868.703 37.3918C867.965 38.242 866.908 39.0625 865.536 39.8555L859.547 36.3974C861.195 35.4452 862.085 34.5377 862.217 33.6701C862.351 32.8024 861.844 32.0392 860.695 31.3779C860.074 31.0199 859.445 30.7638 858.811 30.6122C858.177 30.4605 857.553 30.3934 856.939 30.4108C856.325 30.4282 855.73 30.5252 855.154 30.6992C854.577 30.8732 854.032 31.1069 853.525 31.4003C853.018 31.6936 852.625 31.9994 852.352 32.3176C852.078 32.6359 851.934 32.9939 851.924 33.3916C851.912 33.7894 852.031 34.2394 852.282 34.7391C852.533 35.2413 852.909 35.8255 853.408 36.4943C854.214 37.5783 854.883 38.5976 855.42 39.5572C855.957 40.5168 856.25 41.4367 856.302 42.3143C856.354 43.1944 856.111 44.0397 855.571 44.8526C855.032 45.6656 854.097 46.4586 852.764 47.2269C851.556 47.9255 850.273 48.4376 848.918 48.7658C847.564 49.0939 846.176 49.253 844.757 49.2406C843.337 49.2307 841.908 49.0541 840.466 48.7136C839.024 48.373 837.619 47.8782 836.254 47.2318L832.155 49.5986L828.858 47.6967L832.935 45.3424C831.911 44.609 831.071 43.8134 830.412 42.9582C829.753 42.103 829.398 41.2105 829.343 40.2831C829.291 39.3558 829.604 38.4086 830.288 37.439C830.971 36.4695 832.137 35.5098 833.786 34.5576L839.775 38.0158C838.8 38.5777 838.114 39.1221 837.716 39.6467C837.318 40.1713 837.139 40.6685 837.177 41.1433C837.214 41.6157 837.425 42.0557 837.813 42.4635C838.201 42.8712 838.678 43.2366 839.245 43.5623C839.894 43.9377 840.553 44.2137 841.221 44.3952C841.89 44.5767 842.549 44.6711 843.195 44.6786C843.842 44.6885 844.466 44.6164 845.065 44.4623C845.664 44.3082 846.216 44.0844 846.726 43.791L846.728 43.7935Z" fill="url(#paint37_linear_5647_7140)"/>
<path d="M836.249 47.2343V52.6466L832.152 55.0134V49.6011L836.249 47.2343Z" fill="url(#paint38_linear_5647_7140)"/>
<path d="M832.152 49.6011V55.0134L828.855 53.1115V47.6992L832.152 49.6011Z" fill="url(#paint39_linear_5647_7140)"/>
<path d="M902.643 89.8736L862.987 112.768C861.988 113.345 861.18 112.733 861.18 111.401V92.131C861.18 90.8009 861.99 89.2521 862.987 88.6778L902.643 65.7832C903.643 65.2064 904.451 65.818 904.451 67.1506V86.4204C904.451 87.7505 903.64 89.2993 902.643 89.8736Z" fill="url(#paint40_linear_5647_7140)"/>
<path d="M902.79 65.7087C902.817 65.8578 902.832 66.0194 902.832 66.1935V85.4633C902.832 86.7934 902.022 88.3422 901.025 88.9165L861.369 111.811C861.319 111.838 861.272 111.863 861.225 111.886C861.399 112.87 862.125 113.268 862.992 112.768L902.648 89.8737C903.648 89.2969 904.456 87.7505 904.456 86.4205V67.1506C904.456 65.8852 903.722 65.2711 902.793 65.7087H902.79Z" fill="url(#paint41_linear_5647_7140)"/>
<path d="M888.241 133.629C884.358 133.629 881.211 130.482 881.211 126.598V109.939C881.143 109.69 880.9 109.278 880.718 109.099L871.112 103.552C867.751 101.611 866.597 97.3121 868.539 93.9484C870.481 90.5847 874.779 89.4336 878.143 91.3752L887.846 96.9764C892.147 99.4601 895.27 104.857 895.27 109.807V126.593C895.27 130.477 892.122 133.624 888.239 133.624L888.241 133.629Z" fill="url(#paint42_linear_5647_7140)"/>
<path d="M881.452 100.885L872.835 95.91C871.288 95.0175 869.516 94.8633 867.93 95.3357C866.948 98.416 868.198 101.872 871.114 103.555L880.721 109.101C880.902 109.28 881.143 109.69 881.213 109.942V126.601C881.213 129.209 882.633 131.481 884.741 132.694C886.707 131.643 888.045 129.572 888.045 127.185V112.279C888.045 107.883 885.273 103.092 881.452 100.885Z" fill="url(#paint43_linear_5647_7140)"/>
<path d="M910.736 120.413C906.852 120.413 903.705 117.266 903.705 113.382V96.7229C903.638 96.4743 903.394 96.0616 903.213 95.8826L893.606 90.3361C890.245 88.3944 889.091 84.0959 891.033 80.7322C892.975 77.3685 897.273 76.2175 900.637 78.1591L910.34 83.7603C914.641 86.2439 917.764 91.6413 917.764 96.5911V113.377C917.764 117.261 914.616 120.408 910.733 120.408L910.736 120.413Z" fill="url(#paint44_linear_5647_7140)"/>
<path d="M903.946 87.6684L895.329 82.6937C893.783 81.8011 892.01 81.647 890.424 82.1194C889.442 85.1997 890.693 88.6554 893.609 90.3385L903.215 95.885C903.397 96.064 903.638 96.4742 903.707 96.7253V113.385C903.707 115.993 905.127 118.265 907.235 119.478C909.202 118.427 910.539 116.356 910.539 113.969V99.0622C910.539 94.6668 907.767 89.876 903.946 87.6684Z" fill="white" fill-opacity="0.47"/>
<path d="M835.374 84.8343L798.711 63.6676C797.811 63.148 796.755 63.4438 796.196 64.1772L766.084 104.952L821.206 137.03L838.099 123.334V89.548C838.099 87.6013 837.06 85.8039 835.374 84.8293V84.8343Z" fill="url(#paint45_linear_5647_7140)"/>
<path d="M778.611 49.2334L749.83 32.6162C748.706 31.9673 747.793 30.2271 747.793 28.7279V9.46555C747.793 7.96642 748.706 7.27777 749.83 7.92665L778.611 24.5438C779.735 25.1927 780.647 26.933 780.647 28.4321V47.6945C780.647 49.1936 779.735 49.8823 778.611 49.2334Z" fill="url(#paint46_linear_5647_7140)" stroke="#3292F1" stroke-width="0.248611" stroke-miterlimit="10"/>
<path d="M760.681 19.0072L751.341 13.6148C750.946 13.3861 750.623 12.772 750.623 12.245C750.623 11.7155 750.943 11.4743 751.341 11.703L760.681 17.0954C761.077 17.3241 761.4 17.9382 761.4 18.4652C761.4 18.9948 761.079 19.2359 760.681 19.0072Z" fill="url(#paint47_linear_5647_7140)"/>
<path d="M754.692 19.323L751.341 17.3888C750.946 17.1601 750.623 16.546 750.623 16.019C750.623 15.4894 750.943 15.2483 751.341 15.477L754.692 17.4112C755.088 17.6399 755.411 18.254 755.411 18.7811C755.411 19.3106 755.09 19.5517 754.692 19.323Z" fill="url(#paint48_linear_5647_7140)"/>
</g>
<path d="M1150.86 156.454L1007.43 73.6479C1001.83 70.4169 997.292 61.736 997.292 54.2695V-41.7155C997.292 -49.182 1001.83 -52.6154 1007.43 -49.3844L1150.86 33.4218C1156.46 36.6527 1161 45.3337 1161 52.8002V148.785C1161 156.252 1156.46 159.685 1150.86 156.454Z" fill="url(#paint49_linear_5647_7140)" stroke="#3292F1" stroke-width="0.749649" stroke-miterlimit="10"/>
<path d="M-8.85728 172.054L134.565 89.2476C140.165 86.0167 144.708 77.3357 144.708 69.8692V-26.1158C144.708 -33.5823 140.165 -37.0157 134.565 -33.7847L-8.85728 49.0215C-14.4572 52.2525 -19.0001 60.9334 -19.0001 68.3999V164.385C-19.0001 171.851 -14.4572 175.285 -8.85728 172.054Z" fill="url(#paint50_linear_5647_7140)" stroke="#3292F1" stroke-width="0.749649" stroke-miterlimit="10"/>
</g>
</g>
<defs>
<filter id="filter0_d_5647_7140" x="0" y="0" width="1132" height="125" filterUnits="userSpaceOnUse" color-interpolation-filters="sRGB">
<feFlood flood-opacity="0" result="BackgroundImageFix"/>
<feColorMatrix in="SourceAlpha" type="matrix" values="0 0 0 0 0 0 0 0 0 0 0 0 0 0 0 0 0 0 127 0" result="hardAlpha"/>
<feOffset dy="1"/>
<feGaussianBlur stdDeviation="1"/>
<feComposite in2="hardAlpha" operator="out"/>
<feColorMatrix type="matrix" values="0 0 0 0 0 0 0 0 0 0 0 0 0 0 0 0 0 0 0.05 0"/>
<feBlend mode="normal" in2="BackgroundImageFix" result="effect1_dropShadow_5647_7140"/>
<feBlend mode="normal" in="SourceGraphic" in2="effect1_dropShadow_5647_7140" result="shape"/>
</filter>
<filter id="filter1_d_5647_7140" x="620.607" y="-24" width="364.787" height="261.365" filterUnits="userSpaceOnUse" color-interpolation-filters="sRGB">
<feFlood flood-opacity="0" result="BackgroundImageFix"/>
<feColorMatrix in="SourceAlpha" type="matrix" values="0 0 0 0 0 0 0 0 0 0 0 0 0 0 0 0 0 0 127 0" result="hardAlpha"/>
<feOffset dy="3.39336"/>
<feGaussianBlur stdDeviation="1.69668"/>
<feComposite in2="hardAlpha" operator="out"/>
<feColorMatrix type="matrix" values="0 0 0 0 0 0 0 0 0 0 0 0 0 0 0 0 0 0 0.25 0"/>
<feBlend mode="normal" in2="BackgroundImageFix" result="effect1_dropShadow_5647_7140"/>
<feBlend mode="normal" in="SourceGraphic" in2="effect1_dropShadow_5647_7140" result="shape"/>
</filter>
<linearGradient id="paint0_linear_5647_7140" x1="725.299" y1="32.5243" x2="725.299" y2="111.24" gradientUnits="userSpaceOnUse">
<stop stop-color="#82B8DB"/>
<stop offset="0.25" stop-color="#9CC7E2"/>
<stop offset="0.77" stop-color="#DFEDF6"/>
<stop offset="1" stop-color="white"/>
</linearGradient>
<linearGradient id="paint1_linear_5647_7140" x1="725.299" y1="33.3794" x2="725.299" y2="83.7406" gradientUnits="userSpaceOnUse">
<stop stop-color="#82B8DB"/>
<stop offset="0.25" stop-color="#9CC7E2"/>
<stop offset="0.77" stop-color="#DFEDF6"/>
<stop offset="1" stop-color="white"/>
</linearGradient>
<linearGradient id="paint2_linear_5647_7140" x1="725.21" y1="64.5577" x2="725.21" y2="105.069" gradientUnits="userSpaceOnUse">
<stop stop-color="#00A3FF" stop-opacity="0"/>
<stop offset="0.28" stop-color="#00A3FF" stop-opacity="0.3"/>
<stop offset="0.63" stop-color="#00A3FF" stop-opacity="0.67"/>
<stop offset="0.88" stop-color="#00A3FF" stop-opacity="0.91"/>
<stop offset="1" stop-color="#00A3FF"/>
</linearGradient>
<linearGradient id="paint3_linear_5647_7140" x1="725.289" y1="55.364" x2="725.289" y2="91.6612" gradientUnits="userSpaceOnUse">
<stop stop-color="#82B8DB"/>
<stop offset="0.25" stop-color="#9CC7E2"/>
<stop offset="0.77" stop-color="#DFEDF6"/>
<stop offset="1" stop-color="white"/>
</linearGradient>
<linearGradient id="paint4_linear_5647_7140" x1="725.299" y1="58.0964" x2="725.299" y2="94.1226" gradientUnits="userSpaceOnUse">
<stop stop-color="#12223A"/>
<stop offset="0.61" stop-color="#3B4A5C"/>
<stop offset="1" stop-color="#525F6F"/>
</linearGradient>
<linearGradient id="paint5_linear_5647_7140" x1="721.008" y1="77.6572" x2="730.386" y2="60.8633" gradientUnits="userSpaceOnUse">
<stop stop-color="#12223A"/>
<stop offset="0.61" stop-color="#3B4A5C"/>
<stop offset="1" stop-color="#525F6F"/>
</linearGradient>
<linearGradient id="paint6_linear_5647_7140" x1="719.756" y1="81.3262" x2="729.638" y2="63.6315" gradientUnits="userSpaceOnUse">
<stop stop-color="#12223A"/>
<stop offset="0.61" stop-color="#3B4A5C"/>
<stop offset="1" stop-color="#525F6F"/>
</linearGradient>
<linearGradient id="paint7_linear_5647_7140" x1="719.603" y1="80.5291" x2="730.819" y2="60.4445" gradientUnits="userSpaceOnUse">
<stop offset="0.56" stop-color="#C3E1FB"/>
<stop offset="0.64" stop-color="#BCDFFA"/>
<stop offset="0.76" stop-color="#A9DAFA"/>
<stop offset="0.89" stop-color="#8BD1F9"/>
<stop offset="1" stop-color="#6ECAF9"/>
</linearGradient>
<linearGradient id="paint8_linear_5647_7140" x1="722.067" y1="66.2663" x2="730.583" y2="66.2668" gradientUnits="userSpaceOnUse">
<stop stop-color="#4693CA"/>
<stop offset="0.29" stop-color="#6BB0D7"/>
<stop offset="0.77" stop-color="#82B9EB"/>
<stop offset="1" stop-color="#82C4F3"/>
</linearGradient>
<linearGradient id="paint9_linear_5647_7140" x1="725.152" y1="69.6348" x2="737.49" y2="69.6341" gradientUnits="userSpaceOnUse">
<stop stop-color="#4693CA"/>
<stop offset="0.29" stop-color="#6BB0D7"/>
<stop offset="0.77" stop-color="#82BFEB"/>
<stop offset="1" stop-color="#82D1F3"/>
</linearGradient>
<linearGradient id="paint10_linear_5647_7140" x1="727.056" y1="73.8843" x2="737.324" y2="73.8836" gradientUnits="userSpaceOnUse">
<stop stop-color="#469ACA"/>
<stop offset="0.29" stop-color="#6BAAD7"/>
<stop offset="0.77" stop-color="#82B9EB"/>
<stop offset="1" stop-color="#82BDF3"/>
</linearGradient>
<linearGradient id="paint11_linear_5647_7140" x1="713.11" y1="68.7788" x2="723.377" y2="68.7803" gradientUnits="userSpaceOnUse">
<stop stop-color="#469ACA"/>
<stop offset="0.29" stop-color="#6BB0D7"/>
<stop offset="0.77" stop-color="#82BFEB"/>
<stop offset="1" stop-color="#82C4F3"/>
</linearGradient>
<linearGradient id="paint12_linear_5647_7140" x1="712.907" y1="72.4245" x2="725.274" y2="72.425" gradientUnits="userSpaceOnUse">
<stop stop-color="#4693CA"/>
<stop offset="0.29" stop-color="#6BAAD7"/>
<stop offset="0.77" stop-color="#82C5EB"/>
<stop offset="1" stop-color="#82C4F3"/>
</linearGradient>
<linearGradient id="paint13_linear_5647_7140" x1="719.85" y1="75.6866" x2="728.08" y2="75.6863" gradientUnits="userSpaceOnUse">
<stop stop-color="#469ACA"/>
<stop offset="0.29" stop-color="#6BAAD7"/>
<stop offset="0.77" stop-color="#82CCEB"/>
<stop offset="1" stop-color="#82BDF3"/>
</linearGradient>
<linearGradient id="paint14_linear_5647_7140" x1="725.006" y1="78.2859" x2="725.006" y2="35.0797" gradientUnits="userSpaceOnUse">
<stop stop-color="#00A3FF"/>
<stop offset="0.11" stop-color="#00A3FF" stop-opacity="0.77"/>
<stop offset="0.23" stop-color="#A3E00A" stop-opacity="0.247059"/>
<stop offset="0.35" stop-color="#00A3FF" stop-opacity="0.39"/>
<stop offset="0.47" stop-color="#00A3FF" stop-opacity="0"/>
<stop offset="0.6" stop-color="#00A3FF" stop-opacity="0.14"/>
<stop offset="0.72" stop-color="#00A3FF" stop-opacity="0.06"/>
<stop offset="0.85" stop-color="#00A3FF" stop-opacity="0.02"/>
<stop offset="1" stop-color="#00A3FF" stop-opacity="0"/>
</linearGradient>
<linearGradient id="paint15_linear_5647_7140" x1="725.006" y1="77.0106" x2="725.006" y2="44.02" gradientUnits="userSpaceOnUse">
<stop stop-color="#00A3FF"/>
<stop offset="0.11" stop-color="#00A3FF" stop-opacity="0.77"/>
<stop offset="0.23" stop-color="#00A3FF" stop-opacity="0.57"/>
<stop offset="0.35" stop-color="#00A3FF" stop-opacity="0.39"/>
<stop offset="0.47" stop-color="#00A3FF" stop-opacity="0.25"/>
<stop offset="0.6" stop-color="#00A3FF" stop-opacity="0.14"/>
<stop offset="0.72" stop-color="#00A3FF" stop-opacity="0.06"/>
<stop offset="0.85" stop-color="#00A3FF" stop-opacity="0.02"/>
<stop offset="1" stop-color="#00A3FF" stop-opacity="0"/>
</linearGradient>
<linearGradient id="paint16_linear_5647_7140" x1="897.487" y1="9.14723" x2="993.734" y2="134.659" gradientUnits="userSpaceOnUse">
<stop stop-color="#4693CA" stop-opacity="0"/>
<stop offset="0.28" stop-color="#68A1D6" stop-opacity="0.3"/>
<stop offset="0.63" stop-color="#82C1E5" stop-opacity="0.67"/>
<stop offset="0.88" stop-color="#82C1EF" stop-opacity="0.91"/>
<stop offset="1" stop-color="#82BDF3"/>
</linearGradient>
<linearGradient id="paint17_linear_5647_7140" x1="1040.21" y1="-21.6968" x2="1004.91" y2="-78.3651" gradientUnits="userSpaceOnUse">
<stop stop-color="#468BCA"/>
<stop offset="0.29" stop-color="#6BB0D7"/>
<stop offset="0.77" stop-color="#82CCEB"/>
<stop offset="1" stop-color="#82CAF3"/>
</linearGradient>
<linearGradient id="paint18_linear_5647_7140" x1="1035.15" y1="-18.5423" x2="999.844" y2="-75.2095" gradientUnits="userSpaceOnUse">
<stop stop-color="#4693CA"/>
<stop offset="0.29" stop-color="#6BB7D7"/>
<stop offset="0.77" stop-color="#82B9EB"/>
<stop offset="1" stop-color="#82D8F3"/>
</linearGradient>
<linearGradient id="paint19_linear_5647_7140" x1="874.602" y1="165.802" x2="874.602" y2="122.599" gradientUnits="userSpaceOnUse">
<stop stop-color="#82B8DB"/>
<stop offset="0.11" stop-color="#82B8DB" stop-opacity="0.77"/>
<stop offset="0.23" stop-color="#82B8DB" stop-opacity="0.57"/>
<stop offset="0.35" stop-color="#82B8DB" stop-opacity="0.39"/>
<stop offset="0.47" stop-color="#82B8DB" stop-opacity="0.25"/>
<stop offset="0.6" stop-color="#82B8DB" stop-opacity="0.14"/>
<stop offset="0.72" stop-color="#82B8DB" stop-opacity="0.06"/>
<stop offset="0.85" stop-color="#82B8DB" stop-opacity="0.02"/>
<stop offset="1" stop-color="#82B8DB" stop-opacity="0"/>
</linearGradient>
<linearGradient id="paint20_linear_5647_7140" x1="582.78" y1="261.463" x2="867.845" y2="65.7858" gradientUnits="userSpaceOnUse">
<stop stop-color="#82B8DB"/>
<stop offset="0.25" stop-color="#9CC7E2"/>
<stop offset="0.77" stop-color="#DFEDF6"/>
<stop offset="1" stop-color="white"/>
</linearGradient>
<linearGradient id="paint21_linear_5647_7140" x1="726.028" y1="190.529" x2="726.028" y2="99.7262" gradientUnits="userSpaceOnUse">
<stop stop-color="#21ADFC"/>
<stop offset="1" stop-color="#21BAFC" stop-opacity="0"/>
</linearGradient>
<linearGradient id="paint22_linear_5647_7140" x1="901.288" y1="40.4174" x2="901.288" y2="256.222" gradientUnits="userSpaceOnUse">
<stop stop-color="#82B8DB"/>
<stop offset="0.25" stop-color="#9CC7E2"/>
<stop offset="0.77" stop-color="#DFEDF6"/>
<stop offset="1" stop-color="white"/>
</linearGradient>
<linearGradient id="paint23_linear_5647_7140" x1="878.794" y1="40.4174" x2="878.794" y2="256.222" gradientUnits="userSpaceOnUse">
<stop stop-color="#82B8DB"/>
<stop offset="0.25" stop-color="#9CC7E2"/>
<stop offset="0.77" stop-color="#DFEDF6"/>
<stop offset="1" stop-color="white"/>
</linearGradient>
<linearGradient id="paint24_linear_5647_7140" x1="786.721" y1="40.4174" x2="786.721" y2="256.222" gradientUnits="userSpaceOnUse">
<stop stop-color="#82B8DB"/>
<stop offset="0.25" stop-color="#9CC7E2"/>
<stop offset="0.77" stop-color="#DFEDF6"/>
<stop offset="1" stop-color="white"/>
</linearGradient>
<linearGradient id="paint25_linear_5647_7140" x1="919.47" y1="5.47563" x2="968.507" y2="32.8585" gradientUnits="userSpaceOnUse">
<stop stop-color="#46A2CA"/>
<stop offset="0.29" stop-color="#6BB7D7"/>
<stop offset="0.77" stop-color="#82B9EB"/>
<stop offset="1" stop-color="#82BDF3"/>
</linearGradient>
<linearGradient id="paint26_linear_5647_7140" x1="908.598" y1="24.9459" x2="957.634" y2="52.3289" gradientUnits="userSpaceOnUse">
<stop stop-color="#46CA85"/>
<stop offset="0.29" stop-color="#6BD784"/>
<stop offset="0.77" stop-color="#A3EB82"/>
<stop offset="1" stop-color="#BAF382"/>
</linearGradient>
<linearGradient id="paint27_linear_5647_7140" x1="850.308" y1="-120.349" x2="850.308" y2="79.2679" gradientUnits="userSpaceOnUse">
<stop stop-color="#82B8DB"/>
<stop offset="0.25" stop-color="#9CC7E2"/>
<stop offset="0.77" stop-color="#DFEDF6"/>
<stop offset="1" stop-color="white"/>
</linearGradient>
<linearGradient id="paint28_linear_5647_7140" x1="850.308" y1="-48.6375" x2="850.308" y2="88.7177" gradientUnits="userSpaceOnUse">
<stop stop-color="#12223A"/>
<stop offset="0.61" stop-color="#3B4A5C"/>
<stop offset="1" stop-color="#525F6F"/>
</linearGradient>
<linearGradient id="paint29_linear_5647_7140" x1="850.271" y1="125.055" x2="850.271" y2="67.6528" gradientUnits="userSpaceOnUse">
<stop stop-color="#82B8DB"/>
<stop offset="0.25" stop-color="#9CC7E2"/>
<stop offset="0.77" stop-color="#DFEDF6"/>
<stop offset="1" stop-color="white"/>
</linearGradient>
<linearGradient id="paint30_linear_5647_7140" x1="850.271" y1="-88.3283" x2="850.271" y2="130.243" gradientUnits="userSpaceOnUse">
<stop stop-color="#82B8DB"/>
<stop offset="0.25" stop-color="#9CC7E2"/>
<stop offset="0.77" stop-color="#DFEDF6"/>
<stop offset="1" stop-color="white"/>
</linearGradient>
<linearGradient id="paint31_linear_5647_7140" x1="792.101" y1="47.56" x2="792.101" y2="133" gradientUnits="userSpaceOnUse">
<stop stop-color="#82B8DB"/>
<stop offset="0.25" stop-color="#9CC7E2"/>
<stop offset="0.77" stop-color="#DFEDF6"/>
<stop offset="1" stop-color="white"/>
</linearGradient>
<linearGradient id="paint32_linear_5647_7140" x1="875.172" y1="47.5601" x2="875.172" y2="133" gradientUnits="userSpaceOnUse">
<stop stop-color="#82B8DB"/>
<stop offset="0.25" stop-color="#9CC7E2"/>
<stop offset="0.77" stop-color="#DFEDF6"/>
<stop offset="1" stop-color="white"/>
</linearGradient>
<linearGradient id="paint33_linear_5647_7140" x1="811.846" y1="66.0269" x2="811.846" y2="169.926" gradientUnits="userSpaceOnUse">
<stop stop-color="#12223A"/>
<stop offset="0.61" stop-color="#3B4A5C"/>
<stop offset="1" stop-color="#525F6F"/>
</linearGradient>
<linearGradient id="paint34_linear_5647_7140" x1="850.308" y1="24.0737" x2="850.308" y2="71.449" gradientUnits="userSpaceOnUse">
<stop stop-color="#F15A24"/>
<stop offset="0.99" stop-color="#FCEE21"/>
</linearGradient>
<linearGradient id="paint35_linear_5647_7140" x1="862.532" y1="32.7999" x2="862.532" y2="45.1459" gradientUnits="userSpaceOnUse">
<stop stop-color="#F15A24"/>
<stop offset="0.99" stop-color="#FCEE21"/>
</linearGradient>
<linearGradient id="paint36_linear_5647_7140" x1="868.623" y1="27.2609" x2="868.623" y2="53.9568" gradientUnits="userSpaceOnUse">
<stop stop-color="#F15A24"/>
<stop offset="0.99" stop-color="#FCEE21"/>
</linearGradient>
<linearGradient id="paint37_linear_5647_7140" x1="850.308" y1="-10.9481" x2="850.308" y2="50.7795" gradientUnits="userSpaceOnUse">
<stop stop-color="#F15A24"/>
<stop offset="0.99" stop-color="#FCEE21"/>
</linearGradient>
<linearGradient id="paint38_linear_5647_7140" x1="834.201" y1="48.0895" x2="834.201" y2="69.1618" gradientUnits="userSpaceOnUse">
<stop stop-color="#F15A24"/>
<stop offset="0.99" stop-color="#FCEE21"/>
</linearGradient>
<linearGradient id="paint39_linear_5647_7140" x1="830.504" y1="44.3082" x2="830.504" y2="55.896" gradientUnits="userSpaceOnUse">
<stop stop-color="#F15A24"/>
<stop offset="0.99" stop-color="#FCEE21"/>
</linearGradient>
<linearGradient id="paint40_linear_5647_7140" x1="912.859" y1="107.597" x2="843.215" y2="65.1219" gradientUnits="userSpaceOnUse">
<stop stop-color="#12223A"/>
<stop offset="0.61" stop-color="#3B4A5C"/>
<stop offset="1" stop-color="#525F6F"/>
</linearGradient>
<linearGradient id="paint41_linear_5647_7140" x1="868.315" y1="62.1013" x2="880.142" y2="84.2625" gradientUnits="userSpaceOnUse">
<stop stop-color="#12223A"/>
<stop offset="0.61" stop-color="#3B4A5C"/>
<stop offset="1" stop-color="#525F6F"/>
</linearGradient>
<linearGradient id="paint42_linear_5647_7140" x1="908.804" y1="-83.271" x2="939.59" y2="-66.0795" gradientUnits="userSpaceOnUse">
<stop stop-color="#00A3FF"/>
<stop offset="0.29" stop-color="#00A3FF"/>
<stop offset="0.77" stop-color="#00A3FF"/>
<stop offset="1" stop-color="#00A3FF"/>
</linearGradient>
<linearGradient id="paint43_linear_5647_7140" x1="908.22" y1="-82.1279" x2="944.327" y2="-58.0612" gradientUnits="userSpaceOnUse">
<stop stop-color="#00A3FF"/>
<stop offset="0.29" stop-color="#00A3FF"/>
<stop offset="0.77" stop-color="#00A3FF"/>
<stop offset="1" stop-color="#00A3FF"/>
</linearGradient>
<linearGradient id="paint44_linear_5647_7140" x1="931.312" y1="-96.4691" x2="962.097" y2="-79.2777" gradientUnits="userSpaceOnUse">
<stop stop-color="#00A3FF"/>
<stop offset="0.29" stop-color="#00A3FF"/>
<stop offset="0.77" stop-color="#00A3FF"/>
<stop offset="1" stop-color="#00A3FF"/>
</linearGradient>
<linearGradient id="paint45_linear_5647_7140" x1="800.603" y1="116.689" x2="831.289" y2="64.1573" gradientUnits="userSpaceOnUse">
<stop stop-color="#4693CA" stop-opacity="0"/>
<stop offset="0.28" stop-color="#68A8D6" stop-opacity="0.3"/>
<stop offset="0.63" stop-color="#82BBE5" stop-opacity="0.67"/>
<stop offset="0.88" stop-color="#82BBEF" stop-opacity="0.91"/>
<stop offset="1" stop-color="#82D1F3"/>
</linearGradient>
<linearGradient id="paint46_linear_5647_7140" x1="750.173" y1="10.2586" x2="808.412" y2="86.2068" gradientUnits="userSpaceOnUse">
<stop stop-color="#4693CA" stop-opacity="0"/>
<stop offset="0.28" stop-color="#68A8D6" stop-opacity="0.3"/>
<stop offset="0.63" stop-color="#82B0E5" stop-opacity="0.67"/>
<stop offset="0.88" stop-color="#82C8EF" stop-opacity="0.91"/>
<stop offset="1" stop-color="#82BDF3"/>
</linearGradient>
<linearGradient id="paint47_linear_5647_7140" x1="961.812" y1="100.652" x2="940.446" y2="66.3623" gradientUnits="userSpaceOnUse">
<stop stop-color="#468BCA"/>
<stop offset="0.29" stop-color="#6BB7D7"/>
<stop offset="0.77" stop-color="#82B2EB"/>
<stop offset="1" stop-color="#82CAF3"/>
</linearGradient>
<linearGradient id="paint48_linear_5647_7140" x1="958.748" y1="102.56" x2="937.384" y2="68.2715" gradientUnits="userSpaceOnUse">
<stop stop-color="#4693CA"/>
<stop offset="0.29" stop-color="#6BAAD7"/>
<stop offset="0.77" stop-color="#82B2EB"/>
<stop offset="1" stop-color="#82D1F3"/>
</linearGradient>
<linearGradient id="paint49_linear_5647_7140" x1="1009.14" y1="-37.7574" x2="1299.36" y2="340.703" gradientUnits="userSpaceOnUse">
<stop stop-color="#4693CA" stop-opacity="0"/>
<stop offset="0.28" stop-color="#68A1D6" stop-opacity="0.3"/>
<stop offset="0.63" stop-color="#82C1E5" stop-opacity="0.67"/>
<stop offset="0.88" stop-color="#82C1EF" stop-opacity="0.91"/>
<stop offset="1" stop-color="#82BDF3"/>
</linearGradient>
<linearGradient id="paint50_linear_5647_7140" x1="132.864" y1="-22.1577" x2="-157.355" y2="356.303" gradientUnits="userSpaceOnUse">
<stop stop-color="#4693CA" stop-opacity="0"/>
<stop offset="0.28" stop-color="#68A1D6" stop-opacity="0.3"/>
<stop offset="0.63" stop-color="#82C1E5" stop-opacity="0.67"/>
<stop offset="0.88" stop-color="#82C1EF" stop-opacity="0.91"/>
<stop offset="1" stop-color="#82BDF3"/>
</linearGradient>
<clipPath id="clip0_5647_7140">
<rect x="2" y="1" width="1128" height="121" rx="15" fill="white"/>
</clipPath>
</defs>
</svg>
