<svg width="560" height="282" viewBox="0 0 560 282" fill="none" xmlns="http://www.w3.org/2000/svg">
<g filter="url(#filter0_d_1895_11444)">
<rect x="2" y="1" width="556" height="278" rx="15" fill="url(#paint0_linear_1895_11444)"/>
<rect x="2.5" y="1.5" width="555" height="277" rx="14.5" stroke="#E6E6E6"/>
<g clip-path="url(#clip0_1895_11444)">
<rect opacity="0.4" x="95" y="177.455" width="369" height="121" rx="14.7273" stroke="url(#paint1_linear_1895_11444)" stroke-width="0.818182" stroke-linecap="round" stroke-linejoin="round"/>
<g filter="url(#filter1_dddd_1895_11444)">
<rect x="123.636" y="134.818" width="311.727" height="149.727" rx="12.2727" fill="url(#paint2_linear_1895_11444)"/>
</g>
<path d="M419.818 125H432.909C441.043 125 447.636 131.594 447.636 139.727V150.364" stroke="#CACACA" stroke-width="2.45455" stroke-linecap="round" stroke-linejoin="round"/>
<path d="M139.182 125H126.091C117.957 125 111.364 131.594 111.364 139.727V150.364" stroke="#CACACA" stroke-width="2.45455" stroke-linecap="round" stroke-linejoin="round"/>
<path d="M446.818 205.182V272.273" stroke="url(#paint3_linear_1895_11444)" stroke-width="2.45455" stroke-linecap="round" stroke-linejoin="round"/>
<path d="M111.364 205.182V272.273" stroke="url(#paint4_linear_1895_11444)" stroke-width="2.45455" stroke-linecap="round" stroke-linejoin="round"/>
<g opacity="0.7">
<rect x="142.493" y="153.947" width="39.8277" height="30.2604" rx="4.60904" fill="#8C8C8C" fill-opacity="0.26" stroke="white" stroke-width="0.985137"/>
<path d="M142.638 163.066H153.479C154.887 163.066 156.029 164.208 156.029 165.617V170.595M156.029 184.084V178.125M156.029 178.125V170.595M156.029 178.125H142.638M156.029 170.595H142.638" stroke="white" stroke-width="0.985137"/>
<path d="M182.175 163.066H169.421M169.421 163.066V170.595M169.421 163.066V154.095M169.421 184.084V178.125M169.421 178.125V170.595M169.421 178.125H182.175M169.421 170.595H182.175" stroke="white" stroke-width="0.985137"/>
</g>
<g filter="url(#filter2_d_1895_11444)">
<path d="M180.954 284V198.513H191.114V284H180.954ZM228.427 287.328L201.976 230.571H212.253L228.311 267.884L244.427 230.571H254.704L228.427 287.328ZM305.447 257.782C305.447 251.748 303.793 246.901 300.484 243.242C297.214 239.544 292.932 237.695 287.638 237.695C282.149 237.695 277.867 239.388 274.791 242.775C271.716 246.162 270.178 250.891 270.178 256.964C270.178 263.426 271.716 268.409 274.791 271.913C277.905 275.416 282.304 277.168 287.988 277.168C293.438 277.168 297.701 275.475 300.776 272.088C303.89 268.662 305.447 263.893 305.447 257.782ZM314.323 230.571V284H305.447V274.307C303.306 278.2 300.562 281.178 297.214 283.241C293.905 285.265 290.187 286.277 286.061 286.277C278.392 286.277 272.202 283.65 267.492 278.394C262.821 273.1 260.485 266.112 260.485 257.431C260.485 248.633 262.762 241.646 267.317 236.468C271.872 231.252 277.964 228.644 285.594 228.644C290.071 228.644 293.944 229.656 297.214 231.68C300.523 233.665 303.19 236.644 305.214 240.614V230.571H314.323ZM332.658 284V230.571H341.592V238.804C343.889 235.378 346.653 232.829 349.884 231.155C353.115 229.481 356.852 228.644 361.096 228.644C367.402 228.644 372.326 230.318 375.869 233.665C379.411 237.013 381.183 241.665 381.183 247.621V284H371.84V252.526C371.84 247.115 370.691 243.106 368.395 240.497C366.137 237.85 362.633 236.527 357.884 236.527C355.159 236.527 352.668 237.033 350.41 238.045C348.191 239.018 346.342 240.42 344.862 242.249C343.734 243.651 342.916 245.247 342.41 247.037C341.943 248.828 341.709 251.942 341.709 256.38V284H332.658Z" fill="white"/>
</g>
<path fill-rule="evenodd" clip-rule="evenodd" d="M391.926 178.976L391.921 178.983L391.916 178.99C391.64 179.384 391.02 179.5 390.535 179.156C390.147 178.88 390.031 178.267 390.361 177.782C390.854 177.151 391.212 176.413 391.447 175.691C391.692 174.94 391.806 174.086 391.801 173.249C391.797 172.412 391.674 171.56 391.421 170.811C391.179 170.092 390.813 169.358 390.313 168.732C389.978 168.251 390.088 167.636 390.473 167.357C390.954 167.008 391.575 167.117 391.856 167.507L391.861 167.514L391.866 167.521C392.488 168.345 392.998 169.26 393.303 170.158C393.623 171.215 393.828 172.237 393.833 173.238C393.839 174.292 393.738 175.29 393.353 176.272C392.934 177.342 392.528 178.162 391.926 178.976ZM396.422 180.933L396.434 180.915L396.446 180.897C397.824 178.679 398.619 176.002 398.604 173.213C398.589 170.424 397.767 167.757 396.366 165.553C396.062 165.069 396.199 164.497 396.71 164.126C397.054 163.877 397.699 163.965 398.082 164.48C399.664 167.002 400.619 170.05 400.636 173.202C400.653 176.461 399.73 179.41 398.174 181.95C397.814 182.448 397.263 182.588 396.787 182.306C396.272 181.926 396.178 181.28 396.422 180.933ZM404.491 161.166L404.504 161.193L404.52 161.218C406.663 164.729 407.854 168.779 407.877 173.163C407.9 177.544 406.753 181.605 404.649 185.138C404.326 185.659 403.782 185.806 403.23 185.548C402.727 185.219 402.592 184.673 402.855 184.122C404.644 180.929 405.757 177.166 405.736 173.174C405.715 169.2 404.681 165.443 402.735 162.25C402.472 161.705 402.603 161.162 403.099 160.829C403.698 160.541 404.282 160.752 404.491 161.166ZM410.837 157.824L410.846 157.843L410.856 157.861C413.453 162.371 414.979 167.529 415.009 173.124C415.038 178.714 413.57 183.883 411.025 188.418C410.702 188.933 410.16 189.078 409.611 188.821C409.11 188.493 408.974 187.95 409.233 187.401C411.685 183.197 413.005 178.327 412.977 173.135C412.95 167.93 411.462 163.079 409.086 158.917C408.788 158.31 408.998 157.714 409.414 157.503C410.024 157.192 410.624 157.403 410.837 157.824Z" fill="#0278ED"/>
</g>
<g filter="url(#filter3_dd_1895_11444)">
<rect x="228.909" y="19" width="101.183" height="26.7174" rx="13.3587" fill="white" shape-rendering="crispEdges"/>
<path d="M251.527 35.8587C251.407 35.8587 251.277 35.8411 251.137 35.806C251.137 36.2981 251.031 36.7059 250.82 37.0293C250.617 37.3597 250.314 37.6233 249.913 37.8202C249.513 38.0241 249 38.1998 248.374 38.3475C248.008 38.4248 247.685 38.4635 247.404 38.4635C246.827 38.4635 246.324 38.3299 245.896 38.0627C245.474 37.8026 245.147 37.43 244.915 36.9449C244.69 36.4668 244.577 35.9114 244.577 35.2787C244.577 34.5827 244.711 33.8445 244.978 33.0641L246.244 33.5598C246.012 34.2347 245.896 34.8182 245.896 35.3103C245.896 35.8446 246.022 36.2524 246.275 36.5336C246.535 36.8219 246.904 36.966 247.383 36.966C247.622 36.966 247.854 36.9379 248.079 36.8816C248.564 36.7691 248.915 36.6742 249.133 36.5969C249.358 36.5266 249.527 36.4282 249.639 36.3016C249.752 36.1751 249.808 35.9993 249.808 35.7743C249.808 35.7181 249.801 35.6267 249.787 35.5002L249.355 32.6001L250.673 32.3892L250.778 33.0957L250.884 33.7496C250.926 33.9816 250.989 34.1433 251.074 34.2347C251.165 34.319 251.302 34.3612 251.485 34.3612H251.78L251.864 35.11L251.78 35.8587H251.527ZM247.013 31.6615H248.395V33.0536H247.013V31.6615ZM251.67 34.3612H251.859C252.38 34.3612 252.812 34.3472 253.156 34.319L252.102 32.9059L252.482 31.7354L255.055 31.3557C255.153 31.3417 255.23 31.3346 255.287 31.3346C255.575 31.3346 255.839 31.412 256.078 31.5666C256.324 31.7213 256.517 31.9287 256.658 32.1888C256.798 32.449 256.869 32.7231 256.869 33.0114C256.869 33.2364 256.826 33.4543 256.742 33.6652C256.651 33.9042 256.489 34.1327 256.257 34.3507C256.454 34.3577 256.795 34.3612 257.28 34.3612L257.364 35.11L257.28 35.8587C256.471 35.8587 255.846 35.8341 255.403 35.7849C254.967 35.7357 254.584 35.6232 254.253 35.4474C253.445 35.7216 252.647 35.8587 251.859 35.8587H251.67V34.3612ZM254.664 34.0132C255.234 33.7882 255.571 33.4227 255.677 32.9165L255.698 32.8321C255.698 32.7759 255.677 32.7337 255.635 32.7056C255.6 32.6774 255.554 32.6669 255.498 32.6739L253.768 32.8848L254.664 34.0132ZM263.243 35.8587C262.645 35.8587 262.174 35.6583 261.83 35.2576C261.696 35.4615 261.524 35.6232 261.313 35.7427C261.109 35.8552 260.891 35.9114 260.659 35.9114C260.448 35.9114 260.237 35.8587 260.027 35.7532L258.845 35.1416C258.431 35.6197 257.914 35.8587 257.295 35.8587H257.179V34.3612H257.295C257.471 34.3612 257.626 34.3261 257.759 34.2558C257.9 34.1784 258.009 34.0765 258.086 33.9499L258.888 32.3786C259.042 32.0763 259.264 31.8408 259.552 31.6721C259.847 31.5034 260.164 31.419 260.501 31.419C260.817 31.419 261.106 31.4893 261.366 31.6299C261.703 31.8127 261.953 32.0517 262.115 32.347C262.283 32.6423 262.368 32.9797 262.368 33.3594C262.368 33.5492 262.347 33.7461 262.304 33.9499C262.382 34.0765 262.501 34.1784 262.663 34.2558C262.825 34.3261 263.018 34.3612 263.243 34.3612L263.327 35.11L263.243 35.8587ZM260.828 34.4772C260.863 34.4983 260.884 34.5089 260.891 34.5089C260.905 34.5089 260.919 34.4948 260.933 34.4667L261.06 34.1503C261.151 33.9464 261.197 33.7496 261.197 33.5598C261.197 33.4051 261.165 33.2715 261.102 33.159C261.039 33.0395 260.947 32.9516 260.828 32.8954C260.737 32.8462 260.635 32.8216 260.522 32.8216C260.396 32.8216 260.273 32.8602 260.153 32.9376C260.041 33.0079 259.949 33.1168 259.879 33.2645L259.584 33.855L260.828 34.4772ZM270.105 35.8587C269.634 35.8587 269.166 35.697 268.702 35.3736C268.512 35.5283 268.301 35.6478 268.069 35.7322C267.837 35.8165 267.602 35.8587 267.363 35.8587H263.039V34.3612H264.02L264.315 33.9499L264.115 28.6139L265.443 28.5506L265.591 32.3154C265.865 31.9849 266.139 31.7389 266.414 31.5772C266.695 31.4155 267.011 31.3346 267.363 31.3346C267.77 31.3346 268.14 31.4401 268.47 31.651C268.8 31.8549 269.061 32.1361 269.25 32.4946C269.44 32.8462 269.535 33.2399 269.535 33.6758C269.535 33.8515 269.514 34.0202 269.472 34.1819C269.662 34.3015 269.873 34.3612 270.105 34.3612H270.252L270.337 35.11L270.252 35.8587H270.105ZM267.405 34.3612C267.637 34.3612 267.827 34.2909 267.974 34.1503C268.122 34.0027 268.196 33.8234 268.196 33.6125C268.196 33.3945 268.122 33.2118 267.974 33.0641C267.827 32.9094 267.637 32.8321 267.405 32.8321C267.222 32.8321 267.05 32.8919 266.888 33.0114C266.733 33.1309 266.512 33.3488 266.224 33.6652L265.57 34.3612H267.405ZM270.145 34.3612H270.261C270.437 34.3612 270.591 34.3261 270.725 34.2558C270.866 34.1784 270.975 34.0765 271.052 33.9499L271.853 32.3786C272.008 32.0763 272.229 31.8408 272.518 31.6721C272.813 31.5034 273.129 31.419 273.467 31.419C273.783 31.419 274.071 31.4893 274.332 31.6299C274.669 31.8127 274.919 32.0517 275.08 32.347C275.249 32.6423 275.333 32.9797 275.333 33.3594C275.333 33.8796 275.193 34.4421 274.912 35.0467C274.785 35.3209 274.606 35.5353 274.374 35.69C274.149 35.8376 273.903 35.9114 273.636 35.9114C273.418 35.9114 273.203 35.8587 272.992 35.7532L271.811 35.1416C271.396 35.6197 270.88 35.8587 270.261 35.8587H270.145V34.3612ZM273.794 34.4772C273.829 34.4983 273.85 34.5089 273.857 34.5089C273.871 34.5089 273.885 34.4948 273.899 34.4667L274.026 34.1503C274.117 33.9464 274.163 33.7496 274.163 33.5598C274.163 33.4051 274.131 33.2715 274.068 33.159C274.005 33.0395 273.913 32.9516 273.794 32.8954C273.702 32.8462 273.6 32.8216 273.488 32.8216C273.361 32.8216 273.238 32.8602 273.119 32.9376C273.006 33.0079 272.915 33.1168 272.845 33.2645L272.549 33.855L273.794 34.4772ZM279.287 37.1031C280.116 36.9344 280.7 36.8008 281.037 36.7024C281.375 36.6039 281.607 36.4879 281.733 36.3543C281.86 36.2208 281.92 36.0274 281.913 35.7743C281.589 35.8306 281.213 35.8587 280.784 35.8587C280.391 35.8587 280.039 35.7673 279.73 35.5845C279.42 35.4017 279.178 35.1451 279.002 34.8147C278.833 34.4843 278.749 34.1116 278.749 33.6969C278.749 33.2821 278.837 32.8954 279.013 32.5368C279.195 32.1712 279.445 31.8795 279.761 31.6615C280.085 31.4436 280.443 31.3346 280.837 31.3346C281.435 31.3346 281.934 31.5596 282.334 32.0095C282.735 32.4525 282.974 33.036 283.052 33.7601L283.231 35.4685C283.245 35.581 283.252 35.7357 283.252 35.9325C283.252 36.4668 283.129 36.8922 282.883 37.2085C282.637 37.5319 282.257 37.7886 281.744 37.9784C281.231 38.1752 280.5 38.3686 279.55 38.5584L279.287 37.1031ZM280.088 33.7074C280.088 34.1433 280.32 34.3612 280.784 34.3612C281.143 34.3612 281.47 34.3366 281.765 34.2874L281.733 33.9499C281.698 33.5914 281.603 33.3172 281.449 33.1274C281.294 32.9305 281.097 32.8321 280.858 32.8321C280.619 32.8321 280.429 32.9165 280.289 33.0852C280.155 33.2539 280.088 33.4613 280.088 33.7074ZM293.617 35.8587C293.497 35.8587 293.367 35.8411 293.227 35.806C293.227 36.2981 293.121 36.7059 292.91 37.0293C292.706 37.3597 292.404 37.6233 292.003 37.8202C291.603 38.0241 291.089 38.1998 290.464 38.3475C290.098 38.4248 289.775 38.4635 289.493 38.4635C288.917 38.4635 288.414 38.3299 287.985 38.0627C287.564 37.8026 287.237 37.43 287.005 36.9449C286.78 36.4668 286.667 35.9114 286.667 35.2787C286.667 34.5827 286.801 33.8445 287.068 33.0641L288.333 33.5598C288.101 34.2347 287.985 34.8182 287.985 35.3103C287.985 35.8446 288.112 36.2524 288.365 36.5336C288.625 36.8219 288.994 36.966 289.472 36.966C289.711 36.966 289.943 36.9379 290.168 36.8816C290.653 36.7691 291.005 36.6742 291.223 36.5969C291.448 36.5266 291.617 36.4282 291.729 36.3016C291.842 36.1751 291.898 35.9993 291.898 35.7743C291.898 35.7181 291.891 35.6267 291.877 35.5002L291.444 32.6001L292.763 32.3892L292.868 33.0957L292.974 33.7496C293.016 33.9816 293.079 34.1433 293.163 34.2347C293.255 34.319 293.392 34.3612 293.575 34.3612H293.87L293.954 35.11L293.87 35.8587H293.617ZM289.103 31.6615H290.485V33.0536H289.103V31.6615ZM293.759 34.3612H293.875C294.051 34.3612 294.206 34.3261 294.339 34.2558C294.48 34.1784 294.589 34.0765 294.666 33.9499L295.468 32.3786C295.622 32.0763 295.844 31.8408 296.132 31.6721C296.427 31.5034 296.744 31.419 297.081 31.419C297.398 31.419 297.686 31.4893 297.946 31.6299C298.283 31.8127 298.533 32.0517 298.695 32.347C298.863 32.6423 298.948 32.9797 298.948 33.3594C298.948 33.8796 298.807 34.4421 298.526 35.0467C298.399 35.3209 298.22 35.5353 297.988 35.69C297.763 35.8376 297.517 35.9114 297.25 35.9114C297.032 35.9114 296.818 35.8587 296.607 35.7532L295.426 35.1416C295.011 35.6197 294.494 35.8587 293.875 35.8587H293.759V34.3612ZM297.408 34.4772C297.443 34.4983 297.464 34.5089 297.471 34.5089C297.485 34.5089 297.5 34.4948 297.514 34.4667L297.64 34.1503C297.732 33.9464 297.777 33.7496 297.777 33.5598C297.777 33.4051 297.746 33.2715 297.682 33.159C297.619 33.0395 297.528 32.9516 297.408 32.8954C297.317 32.8462 297.215 32.8216 297.102 32.8216C296.976 32.8216 296.853 32.8602 296.733 32.9376C296.621 33.0079 296.529 33.1168 296.459 33.2645L296.164 33.855L297.408 34.4772ZM300.205 28.6139L301.544 28.5506L301.819 35.8376L300.49 35.9009L300.205 28.6139Z" fill="black"/>
<circle cx="311.929" cy="32.3587" r="3.51521" fill="#3292F1"/>
</g>
<path d="M166.06 79.4373C165.367 79.584 164.753 79.6573 164.22 79.6573C163.127 79.6573 162.173 79.404 161.36 78.8973C160.56 78.404 159.94 77.6973 159.5 76.7773C159.073 75.8707 158.86 74.8173 158.86 73.6173C158.86 72.2973 159.113 70.8973 159.62 69.4173L162.02 70.3573C161.58 71.6373 161.36 72.744 161.36 73.6773C161.36 74.6773 161.6 75.4507 162.08 75.9973C162.573 76.544 163.28 76.8173 164.2 76.8173C164.573 76.8173 165.007 76.764 165.5 76.6573C166.38 76.4573 167.033 76.284 167.46 76.1373C167.9 75.9907 168.22 75.8173 168.42 75.6173C168.62 75.4173 168.72 75.1507 168.72 74.8173C168.72 74.684 168.713 74.584 168.7 74.5173C168.687 74.3707 168.427 74.1907 167.92 73.9773C167.813 73.9507 167.48 73.844 166.92 73.6573L165.96 73.3573L166.72 70.6573C168.667 71.1907 169.933 71.5307 170.52 71.6773C171.12 71.8107 171.68 71.8773 172.2 71.8773L172.36 73.2973L172.2 74.7173C171.76 74.7173 171.44 74.7107 171.24 74.6973C171.293 75.964 170.9 76.964 170.06 77.6973C169.233 78.4307 167.9 79.0107 166.06 79.4373ZM177.578 74.7173C176.484 74.7173 175.644 74.424 175.058 73.8373C174.364 74.424 173.498 74.7173 172.458 74.7173H171.998V71.8773H172.458C172.978 71.8773 173.324 71.7907 173.498 71.6173C173.684 71.444 173.771 71.1973 173.758 70.8773L173.378 60.9773L175.898 60.8573L176.258 70.3973L176.278 70.5573C176.304 71.0773 176.418 71.4307 176.618 71.6173C176.831 71.7907 177.151 71.8773 177.578 71.8773H177.978L178.138 73.2973L177.978 74.7173H177.578ZM183.359 74.7173C182.266 74.7173 181.426 74.424 180.839 73.8373C180.146 74.424 179.279 74.7173 178.239 74.7173H177.779V71.8773H178.239C178.759 71.8773 179.106 71.7907 179.279 71.6173C179.466 71.444 179.552 71.1973 179.539 70.8773L179.159 60.9773L181.679 60.8573L182.039 70.3973L182.059 70.5573C182.086 71.0773 182.199 71.4307 182.399 71.6173C182.612 71.7907 182.932 71.8773 183.359 71.8773H183.759L183.919 73.2973L183.759 74.7173H183.359ZM195.06 74.7173C193.927 74.7173 193.033 74.3373 192.38 73.5773C192.127 73.964 191.8 74.2707 191.4 74.4973C191.013 74.7107 190.6 74.8173 190.16 74.8173C189.76 74.8173 189.36 74.7173 188.96 74.5173L186.72 73.3573C185.933 74.264 184.953 74.7173 183.78 74.7173H183.56V71.8773H183.78C184.113 71.8773 184.407 71.8107 184.66 71.6773C184.927 71.5307 185.133 71.3373 185.28 71.0973L186.8 68.1173C187.093 67.544 187.513 67.0973 188.06 66.7773C188.62 66.4573 189.22 66.2973 189.86 66.2973C190.46 66.2973 191.007 66.4307 191.5 66.6973C192.14 67.044 192.613 67.4973 192.92 68.0573C193.24 68.6173 193.4 69.2573 193.4 69.9773C193.4 70.3373 193.36 70.7107 193.28 71.0973C193.427 71.3373 193.653 71.5307 193.96 71.6773C194.267 71.8107 194.633 71.8773 195.06 71.8773L195.22 73.2973L195.06 74.7173ZM190.48 72.0973C190.547 72.1373 190.587 72.1573 190.6 72.1573C190.627 72.1573 190.653 72.1307 190.68 72.0773L190.92 71.4773C191.093 71.0907 191.18 70.7173 191.18 70.3573C191.18 70.064 191.12 69.8107 191 69.5973C190.88 69.3707 190.707 69.204 190.48 69.0973C190.307 69.004 190.113 68.9573 189.9 68.9573C189.66 68.9573 189.427 69.0307 189.2 69.1773C188.987 69.3107 188.813 69.5173 188.68 69.7973L188.12 70.9173L190.48 72.0973ZM194.673 71.8773H195.133C195.653 71.8773 196 71.7907 196.173 71.6173C196.36 71.444 196.447 71.1973 196.433 70.8773L196.053 60.9773L198.573 60.8573L198.953 70.7573C198.993 71.4907 198.867 72.1573 198.573 72.7573C198.28 73.3573 197.84 73.8373 197.253 74.1973C196.667 74.544 195.96 74.7173 195.133 74.7173H194.673V71.8773ZM201.527 60.9773L204.067 60.8573L204.587 74.6773L202.067 74.7973L201.527 60.9773ZM224.638 74.7173C224.411 74.7173 224.164 74.684 223.898 74.6173C223.898 75.5507 223.698 76.324 223.298 76.9373C222.911 77.564 222.338 78.064 221.578 78.4373C220.818 78.824 219.844 79.1573 218.658 79.4373C217.964 79.584 217.351 79.6573 216.818 79.6573C215.724 79.6573 214.771 79.404 213.958 78.8973C213.158 78.404 212.538 77.6973 212.098 76.7773C211.671 75.8707 211.458 74.8173 211.458 73.6173C211.458 72.2973 211.711 70.8973 212.218 69.4173L214.618 70.3573C214.178 71.6373 213.958 72.744 213.958 73.6773C213.958 74.6907 214.198 75.464 214.678 75.9973C215.171 76.544 215.871 76.8173 216.778 76.8173C217.231 76.8173 217.671 76.764 218.098 76.6573C219.018 76.444 219.684 76.264 220.098 76.1173C220.524 75.984 220.844 75.7973 221.058 75.5573C221.271 75.3173 221.378 74.984 221.378 74.5573C221.378 74.4507 221.364 74.2773 221.338 74.0373L220.518 68.5373L223.018 68.1373L223.218 69.4773L223.418 70.7173C223.498 71.1573 223.618 71.464 223.778 71.6373C223.951 71.7973 224.211 71.8773 224.558 71.8773H225.118L225.278 73.2973L225.118 74.7173H224.638ZM216.078 66.7573H218.698V69.3973H216.078V66.7573ZM224.908 71.8773H228.428C228.948 71.8773 229.301 71.8107 229.488 71.6773C229.674 71.544 229.754 71.3173 229.728 70.9973V70.9573L229.508 68.4973L232.028 68.2573L232.248 70.7173V70.8373C232.301 71.264 232.408 71.544 232.568 71.6773C232.741 71.8107 233.068 71.8773 233.548 71.8773L233.708 73.2973L233.548 74.7173C232.508 74.7173 231.668 74.4507 231.028 73.9173C230.348 74.4507 229.481 74.7173 228.428 74.7173H224.908V71.8773ZM225.508 76.5373H227.848V78.8573H225.508V76.5373ZM229.608 76.5373H231.948V78.8573H229.608V76.5373ZM233.345 71.8773H234.925C235.499 71.8773 235.919 71.7973 236.185 71.6373C236.465 71.4773 236.605 71.1973 236.605 70.7973C236.605 70.5973 236.565 70.3507 236.485 70.0573L235.685 67.0773L238.125 66.3573L238.925 69.3373C239.059 69.8573 239.125 70.364 239.125 70.8573C239.125 72.0307 238.739 72.9707 237.965 73.6773C237.192 74.3707 236.179 74.7173 234.925 74.7173H233.345V71.8773ZM234.545 76.3573H237.165V78.9773H234.545V76.3573ZM254.078 74.7173C252.598 74.7173 251.485 74.704 250.738 74.6773C249.991 74.6507 249.405 74.5973 248.978 74.5173C248.551 74.4373 248.145 74.3107 247.758 74.1373C247.051 73.8307 246.511 73.3773 246.138 72.7773C245.778 72.1773 245.598 71.484 245.598 70.6973C245.598 70.244 245.658 69.7773 245.778 69.2973L246.538 66.3773L248.978 67.1173L248.198 70.1373C248.131 70.3773 248.098 70.5707 248.098 70.7173C248.098 70.9173 248.151 71.084 248.258 71.2173C248.365 71.3373 248.531 71.444 248.758 71.5373C249.038 71.6707 249.511 71.764 250.178 71.8173C250.845 71.8573 252.211 71.8773 254.278 71.8773H254.298C256.311 71.8773 257.645 71.8507 258.298 71.7973C258.951 71.744 259.438 71.6573 259.758 71.5373C259.985 71.444 260.151 71.3307 260.258 71.1973C260.365 71.0507 260.418 70.8573 260.418 70.6173C260.418 70.404 260.378 70.1507 260.298 69.8573L259.538 67.0773L261.978 66.3573L262.738 69.1373C262.871 69.6307 262.938 70.1373 262.938 70.6573C262.938 71.4573 262.751 72.164 262.378 72.7773C262.018 73.3773 261.485 73.8307 260.778 74.1373C260.391 74.3107 259.971 74.4373 259.518 74.5173C259.065 74.5973 258.451 74.6507 257.678 74.6773C256.918 74.704 255.791 74.7173 254.298 74.7173H254.278H254.078ZM252.938 76.3373H255.578V78.9773H252.938V76.3373ZM269.494 74.7173C268.534 74.7173 267.767 74.5707 267.194 74.2773C266.634 73.984 266.22 73.5107 265.954 72.8573C265.687 72.1907 265.527 71.2973 265.474 70.1773L265.114 60.9773L267.634 60.8573L267.994 70.1773C268.02 70.7507 268.06 71.144 268.114 71.3573C268.18 71.5707 268.307 71.7107 268.494 71.7773C268.68 71.844 269.014 71.8773 269.494 71.8773H269.694L269.854 73.2973L269.694 74.7173H269.494ZM280.018 74.7173C279.071 74.7173 278.244 74.364 277.538 73.6573C276.871 74.364 276.011 74.7173 274.958 74.7173C274.038 74.7173 273.244 74.3707 272.578 73.6773C271.884 74.3707 271.051 74.7173 270.078 74.7173H269.498V71.8773H270.078C270.611 71.8773 270.958 71.7907 271.118 71.6173C271.291 71.444 271.378 71.184 271.378 70.8373V68.3573H273.758V70.8373C273.798 71.5307 274.198 71.8773 274.958 71.8773C275.478 71.8773 275.824 71.7907 275.998 71.6173C276.171 71.4307 276.258 71.1707 276.258 70.8373V68.3573H278.618V70.8373C278.631 71.1173 278.738 71.3573 278.938 71.5573C279.138 71.744 279.438 71.8373 279.838 71.8373C280.744 71.8373 281.198 71.5973 281.198 71.1173C281.198 71.064 281.184 70.984 281.158 70.8773L280.498 68.4173L282.778 67.7373L283.438 70.1973L283.458 70.3173C283.591 70.7973 283.844 71.1773 284.218 71.4573C284.591 71.7373 285.018 71.8773 285.498 71.8773L285.658 73.2973L285.498 74.7173C284.404 74.7173 283.464 74.344 282.678 73.5973C282.358 73.9573 281.971 74.2373 281.518 74.4373C281.064 74.624 280.564 74.7173 280.018 74.7173ZM285.298 71.8773H285.718C286.958 71.8773 288.005 71.8507 288.858 71.7973C289.712 71.744 290.538 71.604 291.338 71.3773L295.098 70.4773L291.858 68.8373C291.565 68.6773 291.245 68.5973 290.898 68.5973C290.552 68.5973 290.225 68.684 289.918 68.8573C289.625 69.0173 289.392 69.2573 289.218 69.5773L288.878 70.2173L286.678 68.8373L287.058 68.1173C287.485 67.3573 288.032 66.7707 288.698 66.3573C289.365 65.944 290.078 65.7373 290.838 65.7373C291.612 65.7373 292.365 65.944 293.098 66.3573L298.138 69.2773L297.778 72.5573L291.978 74.1173C291.018 74.3707 290.038 74.5373 289.038 74.6173C288.052 74.684 286.938 74.7173 285.698 74.7173H285.298V71.8773ZM310.102 80.1773C309.982 80.1907 309.809 80.1973 309.582 80.1973C308.689 80.1973 307.855 79.9707 307.082 79.5173C306.322 79.064 305.715 78.444 305.262 77.6573C304.809 76.8707 304.582 76.004 304.582 75.0573C304.582 74.124 304.815 73.264 305.282 72.4773C305.762 71.6773 306.409 71.044 307.222 70.5773C306.915 70.0707 306.715 69.544 306.622 68.9973C306.569 68.744 306.542 68.4707 306.542 68.1773C306.542 67.5107 306.682 66.884 306.962 66.2973C307.255 65.6973 307.655 65.1973 308.162 64.7973C308.682 64.3973 309.269 64.1373 309.922 64.0173C310.135 63.9907 310.309 63.9773 310.442 63.9773C311.229 63.9773 312.229 64.1373 313.442 64.4573L312.782 67.1973C311.569 66.8773 310.762 66.7507 310.362 66.8173C309.962 66.8973 309.642 67.0573 309.402 67.2973C309.175 67.5373 309.062 67.824 309.062 68.1573C309.062 68.5707 309.209 68.9173 309.502 69.1973C309.809 69.464 310.175 69.5973 310.602 69.5973C310.749 69.5973 310.855 69.5907 310.922 69.5773L314.322 68.9573L314.762 71.7573L309.422 72.7373C308.715 72.8707 308.149 73.1573 307.722 73.5973C307.309 74.024 307.102 74.5173 307.102 75.0773C307.102 75.5307 307.229 75.9373 307.482 76.2973C307.735 76.6707 308.075 76.9507 308.502 77.1373C308.929 77.324 309.375 77.3973 309.842 77.3573L315.222 76.7973L315.462 79.6373L310.102 80.1773ZM316.332 60.9773L318.872 60.8573L319.392 74.6773L316.872 74.7973L316.332 60.9773ZM322.929 77.0773C324.489 76.7573 325.582 76.504 326.209 76.3173C326.836 76.144 327.276 75.9373 327.529 75.6973C327.796 75.4707 327.922 75.144 327.909 74.7173H325.769C324.596 74.7173 323.656 74.3507 322.949 73.6173C322.256 72.8707 321.909 71.8707 321.909 70.6173C321.909 69.8307 322.076 69.0973 322.409 68.4173C322.756 67.724 323.229 67.1707 323.829 66.7573C324.442 66.344 325.122 66.1373 325.869 66.1373C326.602 66.1373 327.269 66.3373 327.869 66.7373C328.482 67.124 328.976 67.6707 329.349 68.3773C329.736 69.0707 329.976 69.864 330.069 70.7573L330.189 71.8773H331.329L331.489 73.2973L331.329 74.7173H331.269H330.449C330.462 75.7707 330.236 76.604 329.769 77.2173C329.316 77.8307 328.602 78.324 327.629 78.6973C326.656 79.084 325.256 79.464 323.429 79.8373L322.929 77.0773ZM324.449 70.6173C324.449 71.0573 324.542 71.3773 324.729 71.5773C324.929 71.7773 325.276 71.8773 325.769 71.8773H327.629L327.549 71.0573C327.469 70.3773 327.282 69.864 326.989 69.5173C326.709 69.1573 326.349 68.9773 325.909 68.9773C325.456 68.9773 325.096 69.1373 324.829 69.4573C324.576 69.764 324.449 70.1507 324.449 70.6173ZM331.138 71.8773H332.718C333.292 71.8773 333.712 71.7973 333.978 71.6373C334.258 71.4773 334.398 71.1973 334.398 70.7973C334.398 70.5973 334.358 70.3507 334.278 70.0573L333.478 67.0773L335.918 66.3573L336.718 69.3373C336.852 69.8573 336.918 70.364 336.918 70.8573C336.918 72.0307 336.532 72.9707 335.758 73.6773C334.985 74.3707 333.972 74.7173 332.718 74.7173H331.138V71.8773ZM332.478 62.0973H335.098V64.7173H332.478V62.0973ZM339.398 60.9773L341.938 60.8573L342.458 74.6773L339.938 74.7973L339.398 60.9773ZM356.649 81.6173C356.129 81.7507 355.602 81.8173 355.069 81.8173C353.762 81.8173 352.602 81.4307 351.589 80.6573C350.575 79.8973 349.889 78.864 349.529 77.5573C349.382 76.9973 349.309 76.464 349.309 75.9573C349.309 74.6373 349.742 73.4507 350.609 72.3973C351.475 71.3307 352.715 70.5773 354.329 70.1373L358.569 69.0573L355.269 67.3973C354.975 67.2373 354.655 67.1573 354.309 67.1573C353.975 67.1573 353.662 67.244 353.369 67.4173C353.075 67.5773 352.829 67.8173 352.629 68.1373L352.289 68.7773L350.089 67.3973L350.469 66.6773C350.922 65.9173 351.475 65.3373 352.129 64.9373C352.795 64.524 353.509 64.3173 354.269 64.3173C355.029 64.3173 355.775 64.5173 356.509 64.9173L361.729 67.8373L361.369 71.1173L354.989 72.8773C353.909 73.1573 353.115 73.5773 352.609 74.1373C352.102 74.684 351.849 75.2973 351.849 75.9773C351.849 76.204 351.882 76.464 351.949 76.7573C352.122 77.424 352.495 77.964 353.069 78.3773C353.655 78.7907 354.329 78.9973 355.089 78.9973C355.369 78.9973 355.709 78.9507 356.109 78.8573L361.149 77.4573L361.809 80.1973L356.649 81.6173ZM368.478 74.7173C367.518 74.7173 366.751 74.5707 366.178 74.2773C365.618 73.984 365.205 73.5107 364.938 72.8573C364.671 72.1907 364.511 71.2973 364.458 70.1773L364.098 60.9773L366.618 60.8573L366.978 70.1773C367.005 70.7507 367.045 71.144 367.098 71.3573C367.165 71.5707 367.291 71.7107 367.478 71.7773C367.665 71.844 367.998 71.8773 368.478 71.8773H368.678L368.838 73.2973L368.678 74.7173H368.478ZM368.482 71.8773H372.002C372.522 71.8773 372.875 71.8107 373.062 71.6773C373.249 71.544 373.329 71.3173 373.302 70.9973V70.9573L373.082 68.4973L375.602 68.2573L375.822 70.7173V70.8373C375.875 71.264 375.982 71.544 376.142 71.6773C376.315 71.8107 376.642 71.8773 377.122 71.8773L377.282 73.2973L377.122 74.7173C376.082 74.7173 375.242 74.4507 374.602 73.9173C373.922 74.4507 373.055 74.7173 372.002 74.7173H368.482V71.8773ZM368.562 63.8573H370.882V66.1773H368.562V63.8573ZM372.662 63.8573H375.002V66.1773H372.662V63.8573ZM376.92 71.8773H381.22C381.74 71.8773 382.093 71.8107 382.28 71.6773C382.466 71.544 382.546 71.3173 382.52 70.9973V70.9573L382.3 68.4973L384.82 68.2573L385.04 70.7173V70.8373C385.093 71.264 385.2 71.544 385.36 71.6773C385.533 71.8107 385.86 71.8773 386.34 71.8773L386.5 73.2973L386.34 74.7173C385.3 74.7173 384.46 74.4507 383.82 73.9173C383.14 74.4507 382.273 74.7173 381.22 74.7173H376.92V71.8773ZM377.78 63.8573H380.1V66.1773H377.78V63.8573ZM381.88 63.8573H384.2V66.1773H381.88V63.8573ZM386.138 71.8773H389.958C390.798 71.8773 391.398 71.8573 391.758 71.8173C392.118 71.764 392.352 71.664 392.458 71.5173C392.578 71.3707 392.625 71.1307 392.598 70.7973C391.598 70.8373 390.925 70.8573 390.578 70.8573C389.485 70.8573 388.612 70.5507 387.958 69.9373C387.305 69.3107 386.978 68.4507 386.978 67.3573C386.978 66.0507 387.312 64.9707 387.978 64.1173C388.645 63.264 389.598 62.8373 390.838 62.8373C391.545 62.8373 392.185 63.024 392.758 63.3973C393.332 63.7573 393.792 64.2707 394.138 64.9373C394.498 65.5907 394.705 66.344 394.758 67.1973L395.018 70.6573C395.032 70.7907 395.038 70.984 395.038 71.2373C395.038 72.0373 394.878 72.6907 394.558 73.1973C394.238 73.704 393.705 74.084 392.958 74.3373C392.212 74.5907 391.198 74.7173 389.918 74.7173H386.138V71.8773ZM389.278 67.0173C389.278 67.404 389.385 67.7107 389.598 67.9373C389.812 68.1507 390.138 68.2573 390.578 68.2573C391.218 68.2573 391.818 68.2307 392.378 68.1773L392.318 67.3973C392.252 66.7573 392.078 66.264 391.798 65.9173C391.518 65.5707 391.158 65.3973 390.718 65.3973C390.278 65.3973 389.925 65.5573 389.658 65.8773C389.405 66.184 389.278 66.564 389.278 67.0173ZM389.418 58.2973H392.038V60.9173H389.418V58.2973ZM397.543 60.9773L400.083 60.8573L400.603 74.6773L398.083 74.7973L397.543 60.9773Z" fill="black"/>
<path d="M235 104.717L234.293 104.01L233.586 104.717L234.293 105.424L235 104.717ZM250 105.717C250.552 105.717 251 105.27 251 104.717C251 104.165 250.552 103.717 250 103.717V105.717ZM240.293 98.0102L234.293 104.01L235.707 105.424L241.707 99.4245L240.293 98.0102ZM234.293 105.424L240.293 111.424L241.707 110.01L235.707 104.01L234.293 105.424ZM235 105.717H250V103.717H235V105.717Z" fill="#3292F1"/>
<path d="M263.495 111.717C262.673 111.717 262.007 111.525 261.495 111.141C260.993 110.747 260.727 110.251 260.695 109.653C260.663 109.472 260.647 109.131 260.647 108.629H262.279C262.279 108.928 262.289 109.157 262.311 109.317C262.343 109.477 262.423 109.589 262.551 109.653C262.689 109.717 262.903 109.749 263.191 109.749H264.615C265.393 109.749 265.783 109.515 265.783 109.045C265.783 108.992 265.772 108.912 265.751 108.805L265.719 108.693L264.519 104.005L266.231 103.525L267.415 108.245C267.575 108.832 267.719 109.232 267.847 109.445C267.975 109.648 268.188 109.749 268.487 109.749H269.271L269.383 110.741L269.271 111.717H268.487C267.783 111.717 267.201 111.461 266.743 110.949C266.177 111.461 265.388 111.717 264.375 111.717H263.495ZM269.107 109.749H271.796C272.254 109.749 272.569 109.68 272.74 109.541C272.921 109.392 273.001 109.163 272.98 108.853L272.804 106.885L274.548 106.709L274.724 108.677V108.789C274.766 109.163 274.868 109.419 275.028 109.557C275.188 109.685 275.476 109.749 275.892 109.749L276.004 110.741L275.892 111.717C275.038 111.717 274.366 111.488 273.876 111.029C273.332 111.488 272.638 111.717 271.796 111.717H269.107V109.749ZM268.227 113.221H269.956V114.933H268.227V113.221ZM271.364 113.221H273.076V114.933H271.364V113.221ZM275.732 109.749H276.741C277.178 109.749 277.487 109.68 277.669 109.541C277.85 109.403 277.93 109.189 277.909 108.901V108.853L277.733 106.885L279.493 106.709L279.669 108.677V108.725C279.711 109.131 279.807 109.403 279.957 109.541C280.117 109.68 280.41 109.749 280.837 109.749L280.949 110.741L280.837 111.717C279.962 111.717 279.29 111.488 278.821 111.029C278.298 111.488 277.605 111.717 276.741 111.717H275.732V109.749ZM276.949 103.189H278.885V105.125H276.949V103.189ZM280.67 109.749H284.11C284.313 109.749 284.483 109.707 284.622 109.621C284.803 109.472 284.894 109.285 284.894 109.061C284.894 108.891 284.846 108.736 284.75 108.597L281.214 103.589L281.614 102.101L287.39 99.9733L288.014 101.813L283.39 103.493L286.078 107.413C286.483 108.032 286.686 108.661 286.686 109.301C286.686 109.909 286.499 110.427 286.126 110.853C285.913 111.131 285.63 111.344 285.278 111.493C284.937 111.643 284.542 111.717 284.094 111.717H280.67V109.749ZM297.212 116.085C297.127 116.096 297.004 116.101 296.844 116.101C296.151 116.101 295.506 115.925 294.908 115.573C294.311 115.232 293.836 114.757 293.484 114.149C293.132 113.541 292.956 112.869 292.956 112.133C292.956 111.387 293.154 110.699 293.548 110.069C293.943 109.44 294.476 108.955 295.148 108.613C294.86 108.197 294.668 107.744 294.572 107.253C294.54 107.04 294.524 106.837 294.524 106.645C294.524 106.133 294.631 105.653 294.844 105.205C295.068 104.747 295.378 104.363 295.772 104.053C296.167 103.744 296.615 103.547 297.116 103.461C297.287 103.44 297.431 103.429 297.548 103.429C298.156 103.429 298.93 103.552 299.868 103.797L299.404 105.701C298.423 105.435 297.762 105.333 297.42 105.397C297.068 105.461 296.786 105.605 296.572 105.829C296.37 106.053 296.268 106.32 296.268 106.629C296.268 107.003 296.402 107.312 296.668 107.557C296.935 107.803 297.26 107.925 297.644 107.925C297.762 107.925 297.852 107.92 297.916 107.909L300.636 107.413L300.94 109.349L296.668 110.133C296.082 110.24 295.607 110.48 295.244 110.853C294.882 111.227 294.7 111.653 294.7 112.133C294.7 112.528 294.807 112.885 295.02 113.205C295.244 113.525 295.538 113.765 295.9 113.925C296.263 114.096 296.642 114.165 297.036 114.133L301.34 113.685L301.516 115.653L297.212 116.085ZM303.961 113.909C305.283 113.643 306.206 113.429 306.729 113.269C307.262 113.109 307.625 112.907 307.817 112.661C308.009 112.416 308.083 112.053 308.041 111.573C307.443 111.669 306.83 111.717 306.201 111.717C305.635 111.717 305.129 111.584 304.681 111.317C304.233 111.051 303.881 110.683 303.625 110.213C303.369 109.733 303.241 109.195 303.241 108.597C303.241 108 303.369 107.44 303.625 106.917C303.891 106.384 304.254 105.957 304.713 105.637C305.182 105.317 305.71 105.157 306.297 105.157C307.161 105.157 307.881 105.488 308.457 106.149C309.043 106.8 309.395 107.653 309.513 108.709L309.785 111.301C309.806 111.461 309.817 111.691 309.817 111.989C309.817 112.779 309.63 113.403 309.257 113.861C308.883 114.32 308.318 114.688 307.561 114.965C306.803 115.243 305.72 115.531 304.312 115.829L303.961 113.909ZM305.017 108.613C305.017 108.965 305.118 109.243 305.321 109.445C305.523 109.648 305.817 109.749 306.201 109.749C306.745 109.749 307.294 109.707 307.849 109.621L307.785 108.949C307.721 108.373 307.555 107.925 307.289 107.605C307.033 107.285 306.702 107.125 306.297 107.125C305.902 107.125 305.587 107.269 305.353 107.557C305.129 107.845 305.017 108.197 305.017 108.613ZM315.721 111.717C315.582 111.717 315.406 111.707 315.193 111.685C315.257 112.773 314.995 113.605 314.409 114.181C313.822 114.768 312.905 115.232 311.657 115.573L310.777 115.813L310.312 113.909L311.193 113.669C311.737 113.52 312.163 113.376 312.473 113.237C312.782 113.109 313.022 112.933 313.193 112.709C313.363 112.496 313.449 112.213 313.449 111.861C313.449 111.787 313.438 111.664 313.417 111.493L312.777 106.901L314.505 106.629L314.585 107.189L314.841 108.709C314.915 109.136 315.011 109.419 315.129 109.557C315.246 109.685 315.443 109.749 315.721 109.749H315.817L315.929 110.741L315.817 111.717H315.721ZM324.277 111.717C323.488 111.717 322.843 111.456 322.341 110.933C321.84 111.456 321.179 111.717 320.357 111.717C319.6 111.717 318.965 111.451 318.453 110.917C317.952 111.451 317.285 111.717 316.453 111.717H315.701V109.749H316.453C316.923 109.749 317.232 109.664 317.381 109.493C317.541 109.323 317.621 109.083 317.621 108.773V106.789H319.269V108.773V108.821C319.269 109.109 319.36 109.339 319.541 109.509C319.723 109.669 319.995 109.749 320.357 109.749C320.805 109.749 321.109 109.669 321.269 109.509C321.44 109.339 321.531 109.115 321.541 108.837V108.773V106.789H323.173V108.773V108.821C323.173 109.44 323.541 109.749 324.277 109.749C324.651 109.749 324.939 109.68 325.141 109.541C325.355 109.392 325.461 109.141 325.461 108.789C325.461 108.651 325.424 108.421 325.349 108.101L324.709 105.717L326.389 105.221L327.029 107.605C327.147 108.053 327.205 108.453 327.205 108.805C327.205 109.392 327.077 109.904 326.821 110.341C326.565 110.779 326.213 111.12 325.765 111.365C325.328 111.6 324.832 111.717 324.277 111.717ZM319.813 102.997H321.653L321.669 104.837H319.813V102.997ZM321.493 100.709H323.157V102.261H321.493V100.709ZM322.965 102.997H324.805V104.837H322.949L322.965 102.997Z" fill="#3292F1"/>
</g>
<defs>
<filter id="filter0_d_1895_11444" x="0" y="0" width="560" height="282" filterUnits="userSpaceOnUse" color-interpolation-filters="sRGB">
<feFlood flood-opacity="0" result="BackgroundImageFix"/>
<feColorMatrix in="SourceAlpha" type="matrix" values="0 0 0 0 0 0 0 0 0 0 0 0 0 0 0 0 0 0 127 0" result="hardAlpha"/>
<feOffset dy="1"/>
<feGaussianBlur stdDeviation="1"/>
<feComposite in2="hardAlpha" operator="out"/>
<feColorMatrix type="matrix" values="0 0 0 0 0 0 0 0 0 0 0 0 0 0 0 0 0 0 0.05 0"/>
<feBlend mode="normal" in2="BackgroundImageFix" result="effect1_dropShadow_1895_11444"/>
<feBlend mode="normal" in="SourceGraphic" in2="effect1_dropShadow_1895_11444" result="shape"/>
</filter>
<filter id="filter1_dddd_1895_11444" x="27.9091" y="39.0909" width="519.545" height="357.545" filterUnits="userSpaceOnUse" color-interpolation-filters="sRGB">
<feFlood flood-opacity="0" result="BackgroundImageFix"/>
<feColorMatrix in="SourceAlpha" type="matrix" values="0 0 0 0 0 0 0 0 0 0 0 0 0 0 0 0 0 0 127 0" result="hardAlpha"/>
<feOffset dx="31.9091" dy="31.9091"/>
<feGaussianBlur stdDeviation="40.0909"/>
<feColorMatrix type="matrix" values="0 0 0 0 0.686275 0 0 0 0 0.686275 0 0 0 0 0.686275 0 0 0 0.9 0"/>
<feBlend mode="normal" in2="BackgroundImageFix" result="effect1_dropShadow_1895_11444"/>
<feColorMatrix in="SourceAlpha" type="matrix" values="0 0 0 0 0 0 0 0 0 0 0 0 0 0 0 0 0 0 127 0" result="hardAlpha"/>
<feOffset dx="-31.9091" dy="-31.9091"/>
<feGaussianBlur stdDeviation="31.9091"/>
<feColorMatrix type="matrix" values="0 0 0 0 1 0 0 0 0 1 0 0 0 0 1 0 0 0 0.9 0"/>
<feBlend mode="normal" in2="effect1_dropShadow_1895_11444" result="effect2_dropShadow_1895_11444"/>
<feColorMatrix in="SourceAlpha" type="matrix" values="0 0 0 0 0 0 0 0 0 0 0 0 0 0 0 0 0 0 127 0" result="hardAlpha"/>
<feOffset dx="31.9091" dy="-31.9091"/>
<feGaussianBlur stdDeviation="31.9091"/>
<feColorMatrix type="matrix" values="0 0 0 0 0.686275 0 0 0 0 0.686275 0 0 0 0 0.686275 0 0 0 0.2 0"/>
<feBlend mode="normal" in2="effect2_dropShadow_1895_11444" result="effect3_dropShadow_1895_11444"/>
<feColorMatrix in="SourceAlpha" type="matrix" values="0 0 0 0 0 0 0 0 0 0 0 0 0 0 0 0 0 0 127 0" result="hardAlpha"/>
<feOffset dx="-31.9091" dy="31.9091"/>
<feGaussianBlur stdDeviation="31.9091"/>
<feColorMatrix type="matrix" values="0 0 0 0 0.686275 0 0 0 0 0.686275 0 0 0 0 0.686275 0 0 0 0.2 0"/>
<feBlend mode="normal" in2="effect3_dropShadow_1895_11444" result="effect4_dropShadow_1895_11444"/>
<feBlend mode="normal" in="SourceGraphic" in2="effect4_dropShadow_1895_11444" result="shape"/>
</filter>
<filter id="filter2_d_1895_11444" x="179.832" y="198.513" width="202.473" height="94.4276" filterUnits="userSpaceOnUse" color-interpolation-filters="sRGB">
<feFlood flood-opacity="0" result="BackgroundImageFix"/>
<feColorMatrix in="SourceAlpha" type="matrix" values="0 0 0 0 0 0 0 0 0 0 0 0 0 0 0 0 0 0 127 0" result="hardAlpha"/>
<feOffset dy="4.4898"/>
<feGaussianBlur stdDeviation="0.561225"/>
<feComposite in2="hardAlpha" operator="out"/>
<feColorMatrix type="matrix" values="0 0 0 0 0 0 0 0 0 0 0 0 0 0 0 0 0 0 0.11 0"/>
<feBlend mode="normal" in2="BackgroundImageFix" result="effect1_dropShadow_1895_11444"/>
<feBlend mode="normal" in="SourceGraphic" in2="effect1_dropShadow_1895_11444" result="shape"/>
</filter>
<filter id="filter3_dd_1895_11444" x="216.909" y="17" width="125.183" height="50.7173" filterUnits="userSpaceOnUse" color-interpolation-filters="sRGB">
<feFlood flood-opacity="0" result="BackgroundImageFix"/>
<feColorMatrix in="SourceAlpha" type="matrix" values="0 0 0 0 0 0 0 0 0 0 0 0 0 0 0 0 0 0 127 0" result="hardAlpha"/>
<feMorphology radius="2" operator="erode" in="SourceAlpha" result="effect1_dropShadow_1895_11444"/>
<feOffset dy="4"/>
<feGaussianBlur stdDeviation="3"/>
<feComposite in2="hardAlpha" operator="out"/>
<feColorMatrix type="matrix" values="0 0 0 0 0 0 0 0 0 0 0 0 0 0 0 0 0 0 0.05 0"/>
<feBlend mode="normal" in2="BackgroundImageFix" result="effect1_dropShadow_1895_11444"/>
<feColorMatrix in="SourceAlpha" type="matrix" values="0 0 0 0 0 0 0 0 0 0 0 0 0 0 0 0 0 0 127 0" result="hardAlpha"/>
<feMorphology radius="3" operator="erode" in="SourceAlpha" result="effect2_dropShadow_1895_11444"/>
<feOffset dy="10"/>
<feGaussianBlur stdDeviation="7.5"/>
<feComposite in2="hardAlpha" operator="out"/>
<feColorMatrix type="matrix" values="0 0 0 0 0 0 0 0 0 0 0 0 0 0 0 0 0 0 0.1 0"/>
<feBlend mode="normal" in2="effect1_dropShadow_1895_11444" result="effect2_dropShadow_1895_11444"/>
<feBlend mode="normal" in="SourceGraphic" in2="effect2_dropShadow_1895_11444" result="shape"/>
</filter>
<linearGradient id="paint0_linear_1895_11444" x1="280" y1="388.414" x2="222.821" y2="-90.3315" gradientUnits="userSpaceOnUse">
<stop stop-color="#A8A8A8"/>
<stop offset="1" stop-color="white"/>
</linearGradient>
<linearGradient id="paint1_linear_1895_11444" x1="279.5" y1="177.455" x2="279.5" y2="298.455" gradientUnits="userSpaceOnUse">
<stop/>
<stop offset="1" stop-color="#646464"/>
</linearGradient>
<linearGradient id="paint2_linear_1895_11444" x1="123.636" y1="134.818" x2="240.507" y2="378.138" gradientUnits="userSpaceOnUse">
<stop stop-color="white"/>
<stop offset="1" stop-color="#DDDDDD"/>
</linearGradient>
<linearGradient id="paint3_linear_1895_11444" x1="447.318" y1="205.182" x2="447.318" y2="272.273" gradientUnits="userSpaceOnUse">
<stop stop-color="#A1A1A1"/>
<stop offset="1" stop-color="#A1A1A1" stop-opacity="0"/>
</linearGradient>
<linearGradient id="paint4_linear_1895_11444" x1="111.864" y1="205.182" x2="111.864" y2="272.273" gradientUnits="userSpaceOnUse">
<stop stop-color="#A1A1A1"/>
<stop offset="1" stop-color="#A1A1A1" stop-opacity="0"/>
</linearGradient>
<clipPath id="clip0_1895_11444">
<rect width="556" height="211" fill="white" transform="translate(2 68)"/>
</clipPath>
</defs>
</svg>
