<svg width="20" height="21" viewBox="0 0 20 21" fill="none" xmlns="http://www.w3.org/2000/svg">
<g clip-path="url(#clip0_1179_20057)">
<path d="M19.5 9.15999L19.4985 9.15846L11.3401 1.00034C10.9923 0.652436 10.53 0.460938 10.0382 0.460938C9.54639 0.460938 9.08405 0.652436 8.73615 1.00034L0.581992 9.15434C0.579245 9.15709 0.576346 9.15999 0.573752 9.16274C-0.140361 9.88097 -0.13914 11.0463 0.577262 11.7627C0.904563 12.0901 1.33669 12.2797 1.79888 12.2996C1.8178 12.3015 1.83672 12.3024 1.8558 12.3024H2.18081V18.3061C2.18081 19.4943 3.14761 20.461 4.33581 20.461H7.52765C7.85129 20.461 8.11359 20.1985 8.11359 19.875V15.168C8.11359 14.6259 8.55472 14.1849 9.09687 14.1849H10.9795C11.5216 14.1849 11.9626 14.6259 11.9626 15.168V19.875C11.9626 20.1985 12.2249 20.461 12.5486 20.461H15.7404C16.9288 20.461 17.8954 19.4943 17.8954 18.3061V12.3024H18.1969C18.6886 12.3024 19.1509 12.1109 19.499 11.7628C20.2161 11.0454 20.2164 9.87792 19.5 9.15999ZM18.6703 10.9343C18.5438 11.0608 18.3756 11.1305 18.1969 11.1305H17.3095C16.9858 11.1305 16.7235 11.3928 16.7235 11.7165V18.3061C16.7235 18.8481 16.2826 19.2891 15.7404 19.2891H13.1345V15.168C13.1345 13.9798 12.1679 13.013 10.9795 13.013H9.09687C7.90851 13.013 6.94171 13.9798 6.94171 15.168V19.2891H4.33581C3.79382 19.2891 3.35269 18.8481 3.35269 18.3061V11.7165C3.35269 11.3928 3.09039 11.1305 2.76675 11.1305H1.89456C1.8854 11.1299 1.8764 11.1294 1.86709 11.1293C1.69253 11.1262 1.5288 11.057 1.40612 10.9341C1.14519 10.6732 1.14519 10.2486 1.40612 9.98748L1.40688 9.98671L9.56501 1.82889C9.69135 1.7024 9.85935 1.63281 10.0382 1.63281C10.2169 1.63281 10.3849 1.7024 10.5114 1.82889L18.6677 9.98503L18.6715 9.9887C18.931 10.2501 18.9306 10.6738 18.6703 10.9343Z" fill="#646464"/>
</g>
<defs>
<clipPath id="clip0_1179_20057">
<rect width="20" height="20" fill="white" transform="translate(0 0.5)"/>
</clipPath>
</defs>
</svg>
