<svg width="20" height="21" viewBox="0 0 20 21" fill="none" xmlns="http://www.w3.org/2000/svg">
<path d="M14.2648 6.23559C13.955 5.92574 13.4524 5.92568 13.1425 6.23554C12.8327 6.54545 12.8326 7.04787 13.1425 7.35778L15.4911 9.70648H5.76816C5.32991 9.70648 4.97461 10.0618 4.97461 10.5C4.97461 10.9383 5.32991 11.2936 5.76816 11.2936H15.491L13.1425 13.6421C12.8326 13.952 12.8326 14.4544 13.1425 14.7643C13.2975 14.9193 13.5006 14.9967 13.7037 14.9967C13.9068 14.9967 14.1099 14.9193 14.2648 14.7643L17.9679 11.0612C18.2778 10.7513 18.2778 10.2488 17.9679 9.93894L14.2648 6.23559Z" fill="#646464"/>
<path d="M9.47081 19.2291C9.90906 19.2291 10.2644 18.8738 10.2644 18.4356C10.2644 17.9973 9.90906 17.642 9.47081 17.642H3.38691V3.3581H9.47081C9.90906 3.3581 10.2644 3.0028 10.2644 2.56455C10.2644 2.1263 9.90906 1.771 9.47081 1.771H2.59336C2.1551 1.771 1.7998 2.1263 1.7998 2.56455V18.4356C1.7998 18.8738 2.1551 19.2291 2.59336 19.2291H9.47081Z" fill="#646464"/>
</svg>
