<svg width="20" height="21" viewBox="0 0 20 21" fill="none" xmlns="http://www.w3.org/2000/svg">
<g clip-path="url(#clip0_1179_20074)">
<path d="M14.0798 19.9142C17.026 19.9142 19.4144 17.5258 19.4144 14.5795C19.4144 11.6333 17.026 9.24487 14.0798 9.24487C11.1335 9.24487 8.74512 11.6333 8.74512 14.5795C8.74512 17.5258 11.1335 19.9142 14.0798 19.9142Z" stroke="#646464" stroke-width="1.17188" stroke-miterlimit="10" stroke-linecap="round" stroke-linejoin="round"/>
<path d="M3.09637 16.1484H0.585938L4.35156 19.9141L8.11719 16.1484H5.60676V4.85156H3.09637V16.1484Z" stroke="#646464" stroke-width="1.17188" stroke-miterlimit="10" stroke-linecap="round" stroke-linejoin="round"/>
<path d="M14.0798 19.9142C17.026 19.9142 19.4144 17.5258 19.4144 14.5795C19.4144 11.6333 17.026 9.24487 14.0798 9.24487C11.1335 9.24487 8.74512 11.6333 8.74512 14.5795C8.74512 17.5258 11.1335 19.9142 14.0798 19.9142Z" stroke="#646464" stroke-width="1.17188" stroke-miterlimit="10" stroke-linecap="round" stroke-linejoin="round"/>
<path d="M13.138 9.32773V4.85156H15.6484L11.8828 1.08594L8.11719 4.85156H10.6276V10.5133C11.3305 9.91535 12.1903 9.49656 13.138 9.32773Z" stroke="#646464" stroke-width="1.17188" stroke-miterlimit="10" stroke-linecap="round" stroke-linejoin="round"/>
<path d="M12.8242 16.7221C12.8242 16.7221 13.3866 17.0899 14.0794 17.0899C14.7722 17.0899 15.3346 16.5275 15.3346 15.8347C15.3346 15.1716 14.707 14.7935 14.0794 14.5795C13.4518 14.3654 12.8242 13.9874 12.8242 13.3243C12.8242 12.6315 13.3866 12.0691 14.0794 12.0691C14.4258 12.0691 14.7396 12.2097 14.9668 12.4369" stroke="#646464" stroke-width="1.17188" stroke-miterlimit="10" stroke-linecap="round" stroke-linejoin="round"/>
<path d="M14.0791 17.0898V17.7175" stroke="#646464" stroke-width="1.17188" stroke-miterlimit="10" stroke-linecap="round" stroke-linejoin="round"/>
<path d="M14.0791 11.4414V12.069" stroke="#646464" stroke-width="1.17188" stroke-miterlimit="10" stroke-linecap="round" stroke-linejoin="round"/>
</g>
<defs>
<clipPath id="clip0_1179_20074">
<rect width="20" height="20" fill="white" transform="translate(0 0.5)"/>
</clipPath>
</defs>
</svg>
