<svg width="20" height="21" viewBox="0 0 20 21" fill="none" xmlns="http://www.w3.org/2000/svg">
<g clip-path="url(#clip0_1179_20101)">
<path d="M19.2234 4.92425C18.7014 4.6305 18.0797 4.7582 17.7484 5.08362C15.6111 7.18355 15.6238 7.21308 15.3685 7.30773C15.0511 7.42546 14.7231 7.3605 14.4623 7.15058C10.5331 3.84919 10.7848 4.05887 10.7499 4.03465C10.212 3.66189 9.53511 3.76962 9.17312 4.11715C5.31697 7.81686 5.53509 7.62761 5.37779 7.71198C4.93366 7.95002 4.48753 7.79276 4.16585 7.42194C2.15507 5.10401 2.3035 5.27104 2.25772 5.23143C1.2711 4.37754 -0.147359 5.28799 0.0124038 6.69215C0.449116 11.0803 0.74501 14.0536 0.7454 14.0575C0.886921 15.4796 0.841102 15.0363 0.851688 15.1246C0.986373 16.2775 1.82956 17.1987 2.90138 17.1987H17.0819C18.186 17.1987 19.0237 16.2165 19.1327 15.1148L19.9879 6.54657C20.0655 5.86591 19.7658 5.22952 19.2234 4.92425ZM1.35574 6.08907C1.38687 6.07263 1.4157 6.06286 1.46601 6.09802L3.28063 8.18982C4.18628 9.23379 5.55076 9.22336 6.39805 8.40365L9.95448 4.99147C9.99354 4.96722 10.028 4.9662 10.0668 4.988C13.9036 8.21174 13.7134 8.05205 13.7212 8.05838C14.3019 8.52822 15.0612 8.67146 15.7759 8.4065C16.3284 8.20166 16.4018 8.04947 18.5395 5.94916C18.5846 5.91994 18.6121 5.92494 18.6486 5.94544C18.7524 6.00388 18.8513 6.17603 18.8233 6.41591C18.8223 6.42426 18.848 6.16767 18.1251 13.4097H1.85855C1.17114 6.50243 1.17782 6.56887 1.17696 6.56168C1.14645 6.30056 1.26719 6.13599 1.35574 6.08907ZM17.0819 16.0269H2.90134C2.4667 16.0269 2.08675 15.5829 2.01612 14.9933L1.97515 14.5816H18.0081L17.967 14.9932C17.8965 15.5828 17.5166 16.0269 17.0819 16.0269Z" fill="#646464"/>
<circle cx="16" cy="16" r="3" fill="#5D2FFB"/>
</g>
<defs>
<clipPath id="clip0_1179_20101">
<rect width="20" height="20" fill="white" transform="translate(0 0.5)"/>
</clipPath>
</defs>
</svg>
