<svg width="20" height="21" viewBox="0 0 20 21" fill="none" xmlns="http://www.w3.org/2000/svg">
<g clip-path="url(#clip0_1179_20140)">
<path d="M16.9135 15.5629H16.2443V14.8936C16.2443 14.5701 15.982 14.3077 15.6584 14.3077C15.3348 14.3077 15.0725 14.5701 15.0725 14.8936V15.5629H14.4033C14.0797 15.5629 13.8174 15.8252 13.8174 16.1487C13.8174 16.4723 14.0797 16.7346 14.4033 16.7346H15.0725V17.4039C15.0725 17.7274 15.3348 17.9898 15.6584 17.9898C15.982 17.9898 16.2443 17.7274 16.2443 17.4039V16.7346H16.9135C17.6899 16.7059 17.6897 15.5914 16.9135 15.5629Z" fill="#646464"/>
<path d="M17.0483 12.0251C18.9902 6.51659 14.6277 0.392152 8.7553 0.501442C3.92609 0.501325 0.0111972 4.41626 0.0111972 9.24555C-0.0977018 15.1169 6.02642 19.4818 11.5349 17.5384C12.1161 19.2584 13.745 20.5 15.6586 20.5C20.6006 20.403 21.6471 13.6532 17.0483 12.0251ZM1.18299 9.24555C1.18299 5.07012 4.57996 1.67312 8.75538 1.67312C13.8955 1.57899 17.6952 7.00867 15.8844 11.8033C15.0261 11.7586 14.1766 11.9662 13.4483 12.3998C12.7502 11.7459 11.9251 11.2488 11.0332 10.9341C13.8091 8.79987 12.3026 4.27256 8.75534 4.26674C5.21073 4.27248 3.70259 8.79546 6.47362 10.931C4.95083 11.4662 3.65131 12.5279 2.82406 13.9519C1.76046 12.6169 1.18299 10.9741 1.18299 9.24555ZM8.75538 10.5423C7.34829 10.5423 6.20348 9.39753 6.20348 7.99044C6.33179 4.60961 11.1796 4.61054 11.3073 7.99048C11.3073 9.39757 10.1625 10.5423 8.75538 10.5423ZM11.3131 16.3744C8.73171 17.3218 5.68188 16.7229 3.66842 14.853C5.24374 11.5582 9.81484 10.6726 12.5173 13.137C11.6898 13.9919 11.2492 15.1659 11.3131 16.3744ZM15.6586 19.3282C13.9054 19.3282 12.4791 17.9019 12.4791 16.1487C12.639 11.9365 18.6789 11.9377 18.8381 16.1488C18.8381 17.9019 17.4118 19.3282 15.6586 19.3282Z" fill="#646464"/>
</g>
<defs>
<clipPath id="clip0_1179_20140">
<rect width="20" height="20" fill="white" transform="translate(0 0.5)"/>
</clipPath>
</defs>
</svg>
