<svg width="30" height="30" viewBox="0 0 30 30" fill="none" xmlns="http://www.w3.org/2000/svg">
<g clip-path="url(#clip0_2136_33948)">
<path d="M21.1288 14.7981C21.0588 14.5016 20.8404 14.2625 20.5514 14.1662L16.2394 12.7289L19.3018 6.60399C19.4945 6.21844 19.3792 5.74999 19.0295 5.49798C18.6799 5.24585 18.1989 5.28469 17.8942 5.5895L9.10511 14.3786C8.88972 14.594 8.80118 14.9055 8.8712 15.202C8.94122 15.4985 9.15966 15.7375 9.44864 15.8339L13.7607 17.2712L10.6983 23.3961C10.5055 23.7816 10.6208 24.2501 10.9705 24.5021C11.3224 24.7558 11.8031 24.7134 12.1059 24.4106L20.8949 15.6215C21.1103 15.4061 21.1989 15.0946 21.1288 14.7981ZM14.6925 19.3379L15.786 17.1509C15.9 16.923 15.9094 16.6569 15.8119 16.4215C15.7144 16.1861 15.5195 16.0046 15.2778 15.924L11.3535 14.6159L15.3073 10.6621L14.2138 12.8491C14.0999 13.077 14.0904 13.3432 14.1879 13.5785C14.2854 13.8139 14.4803 13.9954 14.722 14.076L18.6463 15.3841L14.6925 19.3379Z" fill="white"/>
<path d="M15 0C10.5458 0 6.35358 2.00613 3.51565 5.37228V4.45312C3.51565 3.96773 3.12214 3.57422 2.63674 3.57422C2.15135 3.57422 1.75784 3.96773 1.75784 4.45312V8.17313C1.75778 8.1774 1.75784 8.18168 1.75784 8.18596V8.18707C1.75784 8.6932 2.18815 9.09516 2.69124 9.06428L6.20686 8.84596C6.69137 8.81584 7.05969 8.39871 7.02958 7.91426C6.99952 7.42969 6.58046 7.06178 6.09794 7.09148L4.30813 7.20264C6.79192 3.80859 10.7543 1.75781 15 1.75781C22.3018 1.75781 28.2422 7.69822 28.2422 15C28.2422 15.4854 28.6357 15.8789 29.1211 15.8789C29.6065 15.8789 30 15.4854 30 15C30 6.74068 23.2589 0 15 0Z" fill="white"/>
<path d="M27.3088 20.9358L23.7932 21.154C23.3087 21.1841 22.9403 21.6012 22.9704 22.0857C23.0005 22.5702 23.4166 22.9379 23.9021 22.9085L25.6918 22.7974C23.208 26.1914 19.2458 28.2422 15 28.2422C7.69822 28.2422 1.75781 22.3018 1.75781 15C1.75781 14.5146 1.3643 14.1211 0.878906 14.1211C0.393516 14.1211 0 14.5146 0 15C0 23.2593 6.74115 30 15 30C19.4627 30 23.6521 27.9871 26.4844 24.6277V25.5469C26.4844 26.0323 26.8779 26.4258 27.3633 26.4258C27.8487 26.4258 28.2422 26.0323 28.2422 25.5469V21.8259C28.2505 21.3226 27.8226 20.9049 27.3088 20.9358Z" fill="white"/>
</g>
<defs>
<clipPath id="clip0_2136_33948">
<rect width="30" height="30" fill="white"/>
</clipPath>
</defs>
</svg>
