<svg width="20" height="21" viewBox="0 0 20 21" fill="none" xmlns="http://www.w3.org/2000/svg">
<g clip-path="url(#clip0_1179_20087)">
<path d="M14.0859 10.3654C14.0392 10.1677 13.8936 10.0084 13.7009 9.94415L10.8262 8.9859L12.8678 4.90266C12.9963 4.64563 12.9195 4.33333 12.6864 4.16532C12.4532 3.99723 12.1326 4.02313 11.9294 4.22633L6.07007 10.0857C5.92648 10.2293 5.86745 10.437 5.91413 10.6347C5.96081 10.8323 6.10644 10.9917 6.29909 11.0559L9.17378 12.0141L7.13218 16.0974C7.00367 16.3544 7.0805 16.6667 7.31367 16.8347C7.54824 17.0039 7.8687 16.9756 8.07058 16.7737L13.93 10.9143C14.0735 10.7707 14.1326 10.5631 14.0859 10.3654ZM9.79503 13.3919L10.524 11.9339C10.6 11.782 10.6063 11.6046 10.5413 11.4477C10.4763 11.2907 10.3464 11.1697 10.1852 11.116L7.56902 10.244L10.2049 7.60809L9.47589 9.0661C9.39991 9.21801 9.39363 9.39543 9.45863 9.55235C9.52363 9.70926 9.65355 9.83028 9.81468 9.88399L12.4309 10.7561L9.79503 13.3919Z" fill="#646464"/>
<path d="M10 0.5C7.03056 0.5 4.23572 1.83742 2.34377 4.08152V3.46875C2.34377 3.14516 2.08142 2.88281 1.75783 2.88281C1.43424 2.88281 1.17189 3.14516 1.17189 3.46875V5.94875C1.17185 5.9516 1.17189 5.95445 1.17189 5.9573V5.95805C1.17189 6.29547 1.45877 6.56344 1.79416 6.54285L4.13791 6.3973C4.46092 6.37723 4.70646 6.09914 4.68638 5.77617C4.66635 5.45313 4.38697 5.20785 4.06529 5.22766L2.87209 5.30176C4.52795 3.03906 7.16951 1.67188 10 1.67188C14.8679 1.67188 18.8281 5.63215 18.8281 10.5C18.8281 10.8236 19.0905 11.0859 19.4141 11.0859C19.7377 11.0859 20 10.8236 20 10.5C20 4.99379 15.5059 0.5 10 0.5Z" fill="#646464"/>
<path d="M18.2059 14.4572L15.8621 14.6027C15.5391 14.6227 15.2936 14.9008 15.3136 15.2238C15.3337 15.5468 15.6111 15.792 15.9347 15.7723L17.1279 15.6982C15.472 17.9609 12.8305 19.3281 10 19.3281C5.13215 19.3281 1.17188 15.3679 1.17188 10.5C1.17188 10.1764 0.909531 9.91406 0.585938 9.91406C0.262344 9.91406 0 10.1764 0 10.5C0 16.0062 4.4941 20.5 10 20.5C12.9752 20.5 15.768 19.1581 17.6563 16.9184V17.5312C17.6563 17.8548 17.9186 18.1172 18.2422 18.1172C18.5658 18.1172 18.8281 17.8548 18.8281 17.5312V15.0506C18.8336 14.7151 18.5484 14.4366 18.2059 14.4572Z" fill="#646464"/>
</g>
<defs>
<clipPath id="clip0_1179_20087">
<rect width="20" height="20" fill="white" transform="translate(0 0.5)"/>
</clipPath>
</defs>
</svg>
