<svg width="20" height="21" viewBox="0 0 20 21" fill="none" xmlns="http://www.w3.org/2000/svg">
<g clip-path="url(#clip0_1179_20063)">
<path d="M18.7891 12.2578H18.2031V10.5391C18.2031 9.77516 17.7133 9.12348 17.0312 8.88164V7.02344C17.0312 6.05418 16.2427 5.26562 15.2734 5.26562H2.96875C1.67641 5.26562 0.625 6.31703 0.625 7.60938V18.1562C0.625 19.4486 1.67641 20.5 2.96875 20.5H16.4453C17.4146 20.5 18.2031 19.7114 18.2031 18.7422V16.9453H18.7891C19.1127 16.9453 19.375 16.683 19.375 16.3594V12.8438C19.375 12.5202 19.1127 12.2578 18.7891 12.2578ZM2.96875 6.4375H15.2734C15.5965 6.4375 15.8594 6.70035 15.8594 7.02344V8.78125H2.96875C2.32258 8.78125 1.79688 8.25555 1.79688 7.60938C1.79688 6.9632 2.32258 6.4375 2.96875 6.4375ZM17.0312 18.7422C17.0312 19.0653 16.7684 19.3281 16.4453 19.3281H2.96875C2.32258 19.3281 1.79688 18.8024 1.79688 18.1562V9.63781C2.14191 9.83793 2.54199 9.95312 2.96875 9.95312H16.4453C16.7684 9.95312 17.0312 10.216 17.0312 10.5391V12.2578H14.6875C14.5321 12.2578 14.383 12.3196 14.2732 12.4295L12.5154 14.1873C12.2866 14.4161 12.2866 14.7871 12.5154 15.0159L14.2732 16.7737C14.383 16.8836 14.5321 16.9453 14.6875 16.9453H17.0312V18.7422ZM18.2031 15.7734H14.9302L13.7583 14.6016L14.9302 13.4297H18.2031V15.7734Z" fill="#646464"/>
<path d="M9.41406 2.96094C9.73766 2.96094 10 2.69859 10 2.375V1.08594C10 0.762344 9.73766 0.5 9.41406 0.5C9.09047 0.5 8.82812 0.762344 8.82812 1.08594V2.375C8.82812 2.69859 9.09047 2.96094 9.41406 2.96094Z" fill="#646464"/>
<path d="M5.4105 3.17128L6.39797 3.99987C6.64746 4.20921 7.01675 4.17393 7.22343 3.92765C7.43144 3.67976 7.39914 3.31018 7.15121 3.10218L6.16375 2.27358C5.91578 2.06554 5.54625 2.09792 5.33828 2.34581C5.13027 2.59366 5.16257 2.96327 5.4105 3.17128Z" fill="#646464"/>
<path d="M12.4303 3.99986L13.4178 3.17126C13.6657 2.96325 13.698 2.59365 13.49 2.34579C13.2821 2.0979 12.9124 2.06556 12.6646 2.27357L11.6771 3.10216C11.4292 3.31017 11.3969 3.67978 11.6049 3.92763C11.8123 4.17478 12.1818 4.20845 12.4303 3.99986Z" fill="#646464"/>
<path d="M7.07031 14.6016H3.55469C3.23109 14.6016 2.96875 14.8639 2.96875 15.1875V17.5312C2.96875 17.8548 3.23109 18.1172 3.55469 18.1172H7.07031C7.39391 18.1172 7.65625 17.8548 7.65625 17.5312V15.1875C7.65625 14.8639 7.39391 14.6016 7.07031 14.6016ZM6.48438 16.9453H4.14062V15.7734H6.48438V16.9453Z" fill="#646464"/>
</g>
<defs>
<clipPath id="clip0_1179_20063">
<rect width="20" height="20" fill="white" transform="translate(0 0.5)"/>
</clipPath>
</defs>
</svg>
