<svg width="38" height="25" viewBox="0 0 38 25" fill="none" xmlns="http://www.w3.org/2000/svg">
<path d="M34 16.5H18" stroke="#33363F" stroke-width="2" stroke-linecap="round"/>
<path d="M26 9.5L26.2865 10.5038L27.299 10.25L26.5729 11L27.299 11.75L26.2865 11.4962L26 12.5L25.7135 11.4962L24.701 11.75L25.4271 11L24.701 10.25L25.7135 10.5038L26 9.5Z" stroke="#33363F" stroke-width="2" stroke-linecap="round" stroke-linejoin="round"/>
<path d="M19.5 9.5L19.7865 10.5038L20.799 10.25L20.0729 11L20.799 11.75L19.7865 11.4962L19.5 12.5L19.2135 11.4962L18.201 11.75L18.9271 11L18.201 10.25L19.2135 10.5038L19.5 9.5Z" stroke="#33363F" stroke-width="2" stroke-linecap="round" stroke-linejoin="round"/>
<path d="M32.5 9.5L32.7865 10.5038L33.799 10.25L33.0729 11L33.799 11.75L32.7865 11.4962L32.5 12.5L32.2135 11.4962L31.201 11.75L31.9271 11L31.201 10.25L32.2135 10.5038L32.5 9.5Z" stroke="#33363F" stroke-width="2" stroke-linecap="round" stroke-linejoin="round"/>
</svg>
