<svg width="16" height="19" viewBox="0 0 16 19" fill="none" xmlns="http://www.w3.org/2000/svg">
<path d="M2.375 2H3.10625C3.23555 1.63428 3.4751 1.31766 3.79189 1.09379C4.10867 0.86991 4.48709 0.749797 4.875 0.75H8.625C9.01291 0.749797 9.39133 0.86991 9.70811 1.09379C10.0249 1.31766 10.2644 1.63428 10.3938 2H11.125C11.6223 2 12.0992 2.19754 12.4508 2.54918C12.8025 2.90081 13 3.37772 13 3.875V5.75H11.75V3.875C11.75 3.70924 11.6842 3.55027 11.5669 3.43306C11.4497 3.31585 11.2908 3.25 11.125 3.25H10.3938C10.2644 3.61572 10.0249 3.93234 9.70811 4.15622C9.39133 4.38009 9.01291 4.5002 8.625 4.5H4.875C4.48709 4.5002 4.10867 4.38009 3.79189 4.15622C3.4751 3.93234 3.23555 3.61572 3.10625 3.25H2.375C2.20924 3.25 2.05027 3.31585 1.93306 3.43306C1.81585 3.55027 1.75 3.70924 1.75 3.875V16.375C1.75 16.5408 1.81585 16.6997 1.93306 16.8169C2.05027 16.9342 2.20924 17 2.375 17H5.64V18.25H2.375C1.87772 18.25 1.40081 18.0525 1.04917 17.7008C0.697544 17.3492 0.5 16.8723 0.5 16.375V3.875C0.5 3.37772 0.697544 2.90081 1.04917 2.54918C1.40081 2.19754 1.87772 2 2.375 2ZM4.875 2C4.70924 2 4.55027 2.06585 4.43306 2.18306C4.31585 2.30027 4.25 2.45924 4.25 2.625C4.25 2.79076 4.31585 2.94973 4.43306 3.06694C4.55027 3.18415 4.70924 3.25 4.875 3.25H8.625C8.79076 3.25 8.94973 3.18415 9.06694 3.06694C9.18415 2.94973 9.25 2.79076 9.25 2.625C9.25 2.45924 9.18415 2.30027 9.06694 2.18306C8.94973 2.06585 8.79076 2 8.625 2H4.875ZM8.625 7C8.12772 7 7.65081 7.19754 7.29917 7.54917C6.94754 7.90081 6.75 8.37772 6.75 8.875V16.375C6.75 16.8723 6.94754 17.3492 7.29917 17.7008C7.65081 18.0525 8.12772 18.25 8.625 18.25H13.625C14.1223 18.25 14.5992 18.0525 14.9508 17.7008C15.3025 17.3492 15.5 16.8723 15.5 16.375V8.875C15.5 8.37772 15.3025 7.90081 14.9508 7.54917C14.5992 7.19754 14.1223 7 13.625 7H8.625Z" fill="#B3B3B3"/>
</svg>
