<svg width="42" height="41" viewBox="0 0 42 41" fill="none" xmlns="http://www.w3.org/2000/svg">
<rect x="0.5" y="0.5" width="41" height="40" rx="9.5" fill="white"/>
<rect x="0.5" y="0.5" width="41" height="40" rx="9.5" stroke="#EAEAEA"/>
<path d="M13 17.5C13 14.6716 13 13.2574 13.8787 12.3787C14.7574 11.5 16.1716 11.5 19 11.5H23C25.8284 11.5 27.2426 11.5 28.1213 12.3787C29 13.2574 29 14.6716 29 17.5V24.3276C29 27.0109 29 28.3525 28.1557 28.7629C27.3114 29.1733 26.2565 28.3444 24.1465 26.6866L23.4713 26.156C22.2849 25.2239 21.6917 24.7578 21 24.7578C20.3083 24.7578 19.7151 25.2239 18.5287 26.156L17.8535 26.6866C15.7435 28.3444 14.6886 29.1733 13.8443 28.7629C13 28.3525 13 27.0109 13 24.3276V17.5Z" stroke="#33363F" stroke-width="2"/>
</svg>
